<svg width="53" height="11" viewBox="0 0 53 11" fill="none" xmlns="http://www.w3.org/2000/svg">
<path d="M1.476 8.14C2.244 7.476 2.848 6.932 3.288 6.508C3.736 6.076 4.108 5.628 4.404 5.164C4.7 4.7 4.848 4.236 4.848 3.772C4.848 3.292 4.732 2.916 4.5 2.644C4.276 2.372 3.92 2.236 3.432 2.236C2.96 2.236 2.592 2.388 2.328 2.692C2.072 2.988 1.936 3.388 1.92 3.892H0.6C0.624 2.98 0.896 2.284 1.416 1.804C1.944 1.316 2.612 1.072 3.42 1.072C4.292 1.072 4.972 1.312 5.46 1.792C5.956 2.272 6.204 2.912 6.204 3.712C6.204 4.288 6.056 4.844 5.76 5.38C5.472 5.908 5.124 6.384 4.716 6.808C4.316 7.224 3.804 7.708 3.18 8.26L2.64 8.74H6.444V9.88H0.612V8.884L1.476 8.14ZM8.40178 8.14C9.16978 7.476 9.77378 6.932 10.2138 6.508C10.6618 6.076 11.0338 5.628 11.3298 5.164C11.6258 4.7 11.7738 4.236 11.7738 3.772C11.7738 3.292 11.6578 2.916 11.4258 2.644C11.2018 2.372 10.8458 2.236 10.3578 2.236C9.88578 2.236 9.51778 2.388 9.25378 2.692C8.99778 2.988 8.86178 3.388 8.84578 3.892H7.52578C7.54978 2.98 7.82178 2.284 8.34178 1.804C8.86978 1.316 9.53778 1.072 10.3458 1.072C11.2178 1.072 11.8978 1.312 12.3858 1.792C12.8818 2.272 13.1298 2.912 13.1298 3.712C13.1298 4.288 12.9818 4.844 12.6858 5.38C12.3978 5.908 12.0498 6.384 11.6418 6.808C11.2418 7.224 10.7298 7.708 10.1058 8.26L9.56578 8.74H13.3698V9.88H7.53778V8.884L8.40178 8.14ZM21.6728 10.084C20.8968 10.084 20.1808 9.904 19.5248 9.544C18.8768 9.176 18.3608 8.668 17.9768 8.02C17.6008 7.364 17.4128 6.628 17.4128 5.812C17.4128 4.996 17.6008 4.264 17.9768 3.616C18.3608 2.968 18.8768 2.464 19.5248 2.104C20.1808 1.736 20.8968 1.552 21.6728 1.552C22.4568 1.552 23.1728 1.736 23.8208 2.104C24.4768 2.464 24.9928 2.968 25.3688 3.616C25.7448 4.264 25.9328 4.996 25.9328 5.812C25.9328 6.628 25.7448 7.364 25.3688 8.02C24.9928 8.668 24.4768 9.176 23.8208 9.544C23.1728 9.904 22.4568 10.084 21.6728 10.084ZM21.6728 8.896C22.2248 8.896 22.7168 8.772 23.1488 8.524C23.5808 8.268 23.9168 7.908 24.1568 7.444C24.4048 6.972 24.5288 6.428 24.5288 5.812C24.5288 5.196 24.4048 4.656 24.1568 4.192C23.9168 3.728 23.5808 3.372 23.1488 3.124C22.7168 2.876 22.2248 2.752 21.6728 2.752C21.1208 2.752 20.6288 2.876 20.1968 3.124C19.7648 3.372 19.4248 3.728 19.1768 4.192C18.9368 4.656 18.8168 5.196 18.8168 5.812C18.8168 6.428 18.9368 6.972 19.1768 7.444C19.4248 7.908 19.7648 8.268 20.1968 8.524C20.6288 8.772 21.1208 8.896 21.6728 8.896ZM30.0509 4.504H28.8269V10H27.4469V4.504H26.6669V3.388H27.4469V2.92C27.4469 2.16 27.6469 1.608 28.0469 1.264C28.4549 0.912 29.0909 0.736 29.9549 0.736V1.876C29.5389 1.876 29.2469 1.956 29.0789 2.116C28.9109 2.268 28.8269 2.536 28.8269 2.92V3.388H30.0509V4.504ZM34.0353 4.504H32.8113V10H31.4313V4.504H30.6513V3.388H31.4313V2.92C31.4313 2.16 31.6313 1.608 32.0313 1.264C32.4393 0.912 33.0753 0.736 33.9393 0.736V1.876C33.5233 1.876 33.2313 1.956 33.0633 2.116C32.8953 2.268 32.8113 2.536 32.8113 2.92V3.388H34.0353V4.504ZM41.3077 6.532C41.3077 6.78 41.2917 7.004 41.2597 7.204H36.2077C36.2477 7.732 36.4437 8.156 36.7957 8.476C37.1477 8.796 37.5797 8.956 38.0917 8.956C38.8277 8.956 39.3477 8.648 39.6517 8.032H41.1277C40.9277 8.64 40.5637 9.14 40.0357 9.532C39.5157 9.916 38.8677 10.108 38.0917 10.108C37.4597 10.108 36.8917 9.968 36.3877 9.688C35.8917 9.4 35.4997 9 35.2117 8.488C34.9317 7.968 34.7917 7.368 34.7917 6.688C34.7917 6.008 34.9277 5.412 35.1997 4.9C35.4797 4.38 35.8677 3.98 36.3637 3.7C36.8677 3.42 37.4437 3.28 38.0917 3.28C38.7157 3.28 39.2717 3.416 39.7597 3.688C40.2477 3.96 40.6277 4.344 40.8997 4.84C41.1717 5.328 41.3077 5.892 41.3077 6.532ZM39.8797 6.1C39.8717 5.596 39.6917 5.192 39.3397 4.888C38.9877 4.584 38.5517 4.432 38.0317 4.432C37.5597 4.432 37.1557 4.584 36.8197 4.888C36.4837 5.184 36.2837 5.588 36.2197 6.1H39.8797ZM44.0219 4.348C44.2219 4.012 44.4859 3.752 44.8139 3.568C45.1499 3.376 45.5459 3.28 46.0019 3.28V4.696H45.6539C45.1179 4.696 44.7099 4.832 44.4299 5.104C44.1579 5.376 44.0219 5.848 44.0219 6.52V10H42.6539V3.388H44.0219V4.348ZM49.6594 10.108C49.1394 10.108 48.6714 10.016 48.2554 9.832C47.8474 9.64 47.5234 9.384 47.2834 9.064C47.0434 8.736 46.9154 8.372 46.8994 7.972H48.3154C48.3394 8.252 48.4714 8.488 48.7114 8.68C48.9594 8.864 49.2674 8.956 49.6354 8.956C50.0194 8.956 50.3154 8.884 50.5234 8.74C50.7394 8.588 50.8474 8.396 50.8474 8.164C50.8474 7.916 50.7274 7.732 50.4874 7.612C50.2554 7.492 49.8834 7.36 49.3714 7.216C48.8754 7.08 48.4714 6.948 48.1594 6.82C47.8474 6.692 47.5754 6.496 47.3434 6.232C47.1194 5.968 47.0074 5.62 47.0074 5.188C47.0074 4.836 47.1114 4.516 47.3194 4.228C47.5274 3.932 47.8234 3.7 48.2074 3.532C48.5994 3.364 49.0474 3.28 49.5514 3.28C50.3034 3.28 50.9074 3.472 51.3634 3.856C51.8274 4.232 52.0754 4.748 52.1074 5.404H50.7394C50.7154 5.108 50.5954 4.872 50.3794 4.696C50.1634 4.52 49.8714 4.432 49.5034 4.432C49.1434 4.432 48.8674 4.5 48.6754 4.636C48.4834 4.772 48.3874 4.952 48.3874 5.176C48.3874 5.352 48.4514 5.5 48.5794 5.62C48.7074 5.74 48.8634 5.836 49.0474 5.908C49.2314 5.972 49.5034 6.056 49.8634 6.16C50.3434 6.288 50.7354 6.42 51.0394 6.556C51.3514 6.684 51.6194 6.876 51.8434 7.132C52.0674 7.388 52.1834 7.728 52.1914 8.152C52.1914 8.528 52.0874 8.864 51.8794 9.16C51.6714 9.456 51.3754 9.688 50.9914 9.856C50.6154 10.024 50.1714 10.108 49.6594 10.108Z" fill="#2B9348"/>
</svg>
