<svg width="53" height="11" viewBox="0 0 53 11" fill="none" xmlns="http://www.w3.org/2000/svg">
<path d="M1.47612 8.14C2.24412 7.476 2.84812 6.932 3.28812 6.508C3.73612 6.076 4.10812 5.628 4.40412 5.164C4.70012 4.7 4.84812 4.236 4.84812 3.772C4.84812 3.292 4.73212 2.916 4.50012 2.644C4.27612 2.372 3.92012 2.236 3.43212 2.236C2.96012 2.236 2.59212 2.388 2.32812 2.692C2.07212 2.988 1.93612 3.388 1.92012 3.892H0.600122C0.624122 2.98 0.896122 2.284 1.41612 1.804C1.94412 1.316 2.61212 1.072 3.42012 1.072C4.29212 1.072 4.97212 1.312 5.46012 1.792C5.95612 2.272 6.20412 2.912 6.20412 3.712C6.20412 4.288 6.05612 4.844 5.76012 5.38C5.47212 5.908 5.12412 6.384 4.71612 6.808C4.31612 7.224 3.80412 7.708 3.18012 8.26L2.64012 8.74H6.44412V9.88H0.612122V8.884L1.47612 8.14ZM13.2859 2.428H9.2659V4.816C9.4339 4.592 9.6819 4.404 10.0099 4.252C10.3459 4.1 10.7019 4.024 11.0779 4.024C11.7499 4.024 12.2939 4.168 12.7099 4.456C13.1339 4.744 13.4339 5.108 13.6099 5.548C13.7939 5.988 13.8859 6.452 13.8859 6.94C13.8859 7.532 13.7699 8.06 13.5379 8.524C13.3139 8.98 12.9739 9.34 12.5179 9.604C12.0699 9.868 11.5179 10 10.8619 10C9.9899 10 9.2899 9.784 8.7619 9.352C8.2339 8.92 7.9179 8.348 7.8139 7.636H9.1459C9.2339 8.012 9.4299 8.312 9.7339 8.536C10.0379 8.752 10.4179 8.86 10.8739 8.86C11.4419 8.86 11.8659 8.688 12.1459 8.344C12.4339 8 12.5779 7.544 12.5779 6.976C12.5779 6.4 12.4339 5.96 12.1459 5.656C11.8579 5.344 11.4339 5.188 10.8739 5.188C10.4819 5.188 10.1499 5.288 9.8779 5.488C9.6139 5.68 9.4219 5.944 9.3019 6.28H8.0059V1.228H13.2859V2.428ZM22.4112 10.084C21.6352 10.084 20.9192 9.904 20.2632 9.544C19.6152 9.176 19.0992 8.668 18.7152 8.02C18.3392 7.364 18.1512 6.628 18.1512 5.812C18.1512 4.996 18.3392 4.264 18.7152 3.616C19.0992 2.968 19.6152 2.464 20.2632 2.104C20.9192 1.736 21.6352 1.552 22.4112 1.552C23.1952 1.552 23.9112 1.736 24.5592 2.104C25.2152 2.464 25.7312 2.968 26.1072 3.616C26.4832 4.264 26.6712 4.996 26.6712 5.812C26.6712 6.628 26.4832 7.364 26.1072 8.02C25.7312 8.668 25.2152 9.176 24.5592 9.544C23.9112 9.904 23.1952 10.084 22.4112 10.084ZM22.4112 8.896C22.9632 8.896 23.4552 8.772 23.8872 8.524C24.3192 8.268 24.6552 7.908 24.8952 7.444C25.1432 6.972 25.2672 6.428 25.2672 5.812C25.2672 5.196 25.1432 4.656 24.8952 4.192C24.6552 3.728 24.3192 3.372 23.8872 3.124C23.4552 2.876 22.9632 2.752 22.4112 2.752C21.8592 2.752 21.3672 2.876 20.9352 3.124C20.5032 3.372 20.1632 3.728 19.9152 4.192C19.6752 4.656 19.5552 5.196 19.5552 5.812C19.5552 6.428 19.6752 6.972 19.9152 7.444C20.1632 7.908 20.5032 8.268 20.9352 8.524C21.3672 8.772 21.8592 8.896 22.4112 8.896ZM30.7893 4.504H29.5653V10H28.1853V4.504H27.4053V3.388H28.1853V2.92C28.1853 2.16 28.3853 1.608 28.7853 1.264C29.1933 0.912 29.8293 0.736 30.6933 0.736V1.876C30.2773 1.876 29.9853 1.956 29.8173 2.116C29.6493 2.268 29.5653 2.536 29.5653 2.92V3.388H30.7893V4.504ZM34.7737 4.504H33.5497V10H32.1697V4.504H31.3897V3.388H32.1697V2.92C32.1697 2.16 32.3697 1.608 32.7697 1.264C33.1777 0.912 33.8137 0.736 34.6777 0.736V1.876C34.2617 1.876 33.9697 1.956 33.8017 2.116C33.6337 2.268 33.5497 2.536 33.5497 2.92V3.388H34.7737V4.504ZM42.0461 6.532C42.0461 6.78 42.0301 7.004 41.9981 7.204H36.9461C36.9861 7.732 37.1821 8.156 37.5341 8.476C37.8861 8.796 38.3181 8.956 38.8301 8.956C39.5661 8.956 40.0861 8.648 40.3901 8.032H41.8661C41.6661 8.64 41.3021 9.14 40.7741 9.532C40.2541 9.916 39.6061 10.108 38.8301 10.108C38.1981 10.108 37.6301 9.968 37.1261 9.688C36.6301 9.4 36.2381 9 35.9501 8.488C35.6701 7.968 35.5301 7.368 35.5301 6.688C35.5301 6.008 35.6661 5.412 35.9381 4.9C36.2181 4.38 36.6061 3.98 37.1021 3.7C37.6061 3.42 38.1821 3.28 38.8301 3.28C39.4541 3.28 40.0101 3.416 40.4981 3.688C40.9861 3.96 41.3661 4.344 41.6381 4.84C41.9101 5.328 42.0461 5.892 42.0461 6.532ZM40.6181 6.1C40.6101 5.596 40.4301 5.192 40.0781 4.888C39.7261 4.584 39.2901 4.432 38.7701 4.432C38.2981 4.432 37.8941 4.584 37.5581 4.888C37.2221 5.184 37.0221 5.588 36.9581 6.1H40.6181ZM44.7603 4.348C44.9603 4.012 45.2243 3.752 45.5523 3.568C45.8883 3.376 46.2843 3.28 46.7403 3.28V4.696H46.3923C45.8563 4.696 45.4483 4.832 45.1683 5.104C44.8963 5.376 44.7603 5.848 44.7603 6.52V10H43.3923V3.388H44.7603V4.348ZM50.3978 10.108C49.8778 10.108 49.4098 10.016 48.9938 9.832C48.5858 9.64 48.2618 9.384 48.0218 9.064C47.7818 8.736 47.6538 8.372 47.6378 7.972H49.0538C49.0778 8.252 49.2098 8.488 49.4498 8.68C49.6978 8.864 50.0058 8.956 50.3738 8.956C50.7578 8.956 51.0538 8.884 51.2618 8.74C51.4778 8.588 51.5858 8.396 51.5858 8.164C51.5858 7.916 51.4658 7.732 51.2258 7.612C50.9938 7.492 50.6218 7.36 50.1098 7.216C49.6138 7.08 49.2098 6.948 48.8978 6.82C48.5858 6.692 48.3138 6.496 48.0818 6.232C47.8578 5.968 47.7458 5.62 47.7458 5.188C47.7458 4.836 47.8498 4.516 48.0578 4.228C48.2658 3.932 48.5618 3.7 48.9458 3.532C49.3378 3.364 49.7858 3.28 50.2898 3.28C51.0418 3.28 51.6458 3.472 52.1018 3.856C52.5658 4.232 52.8138 4.748 52.8458 5.404H51.4778C51.4538 5.108 51.3338 4.872 51.1178 4.696C50.9018 4.52 50.6098 4.432 50.2418 4.432C49.8818 4.432 49.6058 4.5 49.4138 4.636C49.2218 4.772 49.1258 4.952 49.1258 5.176C49.1258 5.352 49.1898 5.5 49.3178 5.62C49.4458 5.74 49.6018 5.836 49.7858 5.908C49.9698 5.972 50.2418 6.056 50.6018 6.16C51.0818 6.288 51.4738 6.42 51.7778 6.556C52.0898 6.684 52.3578 6.876 52.5818 7.132C52.8058 7.388 52.9218 7.728 52.9298 8.152C52.9298 8.528 52.8258 8.864 52.6178 9.16C52.4098 9.456 52.1138 9.688 51.7298 9.856C51.3538 10.024 50.9098 10.108 50.3978 10.108Z" fill="#2B9348"/>
</svg>
