<svg width="53" height="11" viewBox="0 0 53 11" fill="none" xmlns="http://www.w3.org/2000/svg">
<path d="M1.476 8.14C2.244 7.476 2.848 6.932 3.288 6.508C3.736 6.076 4.108 5.628 4.404 5.164C4.7 4.7 4.848 4.236 4.848 3.772C4.848 3.292 4.732 2.916 4.5 2.644C4.276 2.372 3.92 2.236 3.432 2.236C2.96 2.236 2.592 2.388 2.328 2.692C2.072 2.988 1.936 3.388 1.92 3.892H0.6C0.624 2.98 0.896 2.284 1.416 1.804C1.944 1.316 2.612 1.072 3.42 1.072C4.292 1.072 4.972 1.312 5.46 1.792C5.956 2.272 6.204 2.912 6.204 3.712C6.204 4.288 6.056 4.844 5.76 5.38C5.472 5.908 5.124 6.384 4.716 6.808C4.316 7.224 3.804 7.708 3.18 8.26L2.64 8.74H6.444V9.88H0.612V8.884L1.476 8.14ZM9.12178 5.428C8.28978 5.012 7.87378 4.356 7.87378 3.46C7.87378 3.028 7.98178 2.632 8.19778 2.272C8.41378 1.912 8.73778 1.628 9.16978 1.42C9.60178 1.204 10.1298 1.096 10.7538 1.096C11.3698 1.096 11.8938 1.204 12.3258 1.42C12.7658 1.628 13.0938 1.912 13.3098 2.272C13.5258 2.632 13.6338 3.028 13.6338 3.46C13.6338 3.908 13.5178 4.304 13.2858 4.648C13.0618 4.984 12.7618 5.244 12.3858 5.428C12.8418 5.596 13.2018 5.872 13.4658 6.256C13.7298 6.632 13.8618 7.076 13.8618 7.588C13.8618 8.108 13.7298 8.568 13.4658 8.968C13.2018 9.368 12.8338 9.676 12.3618 9.892C11.8898 10.108 11.3538 10.216 10.7538 10.216C10.1538 10.216 9.61778 10.108 9.14578 9.892C8.68178 9.676 8.31778 9.368 8.05378 8.968C7.78978 8.568 7.65778 8.108 7.65778 7.588C7.65778 7.068 7.78978 6.62 8.05378 6.244C8.31778 5.868 8.67378 5.596 9.12178 5.428ZM12.3258 3.628C12.3258 3.18 12.1858 2.836 11.9058 2.596C11.6258 2.356 11.2418 2.236 10.7538 2.236C10.2738 2.236 9.89378 2.356 9.61378 2.596C9.33378 2.836 9.19378 3.184 9.19378 3.64C9.19378 4.04 9.33778 4.368 9.62578 4.624C9.92178 4.872 10.2978 4.996 10.7538 4.996C11.2098 4.996 11.5858 4.868 11.8818 4.612C12.1778 4.356 12.3258 4.028 12.3258 3.628ZM10.7538 6.028C10.2258 6.028 9.79378 6.16 9.45778 6.424C9.12978 6.68 8.96578 7.052 8.96578 7.54C8.96578 7.996 9.12578 8.368 9.44578 8.656C9.76578 8.936 10.2018 9.076 10.7538 9.076C11.2978 9.076 11.7258 8.932 12.0378 8.644C12.3578 8.356 12.5178 7.988 12.5178 7.54C12.5178 7.06 12.3538 6.688 12.0258 6.424C11.7058 6.16 11.2818 6.028 10.7538 6.028ZM22.3993 10.084C21.6233 10.084 20.9073 9.904 20.2513 9.544C19.6033 9.176 19.0873 8.668 18.7033 8.02C18.3273 7.364 18.1393 6.628 18.1393 5.812C18.1393 4.996 18.3273 4.264 18.7033 3.616C19.0873 2.968 19.6033 2.464 20.2513 2.104C20.9073 1.736 21.6233 1.552 22.3993 1.552C23.1833 1.552 23.8993 1.736 24.5473 2.104C25.2033 2.464 25.7193 2.968 26.0953 3.616C26.4713 4.264 26.6593 4.996 26.6593 5.812C26.6593 6.628 26.4713 7.364 26.0953 8.02C25.7193 8.668 25.2033 9.176 24.5473 9.544C23.8993 9.904 23.1833 10.084 22.3993 10.084ZM22.3993 8.896C22.9513 8.896 23.4433 8.772 23.8753 8.524C24.3073 8.268 24.6433 7.908 24.8833 7.444C25.1313 6.972 25.2553 6.428 25.2553 5.812C25.2553 5.196 25.1313 4.656 24.8833 4.192C24.6433 3.728 24.3073 3.372 23.8753 3.124C23.4433 2.876 22.9513 2.752 22.3993 2.752C21.8473 2.752 21.3553 2.876 20.9233 3.124C20.4913 3.372 20.1513 3.728 19.9033 4.192C19.6633 4.656 19.5433 5.196 19.5433 5.812C19.5433 6.428 19.6633 6.972 19.9033 7.444C20.1513 7.908 20.4913 8.268 20.9233 8.524C21.3553 8.772 21.8473 8.896 22.3993 8.896ZM30.7775 4.504H29.5535V10H28.1735V4.504H27.3935V3.388H28.1735V2.92C28.1735 2.16 28.3735 1.608 28.7735 1.264C29.1815 0.912 29.8175 0.736 30.6815 0.736V1.876C30.2655 1.876 29.9735 1.956 29.8055 2.116C29.6375 2.268 29.5535 2.536 29.5535 2.92V3.388H30.7775V4.504ZM34.7618 4.504H33.5378V10H32.1578V4.504H31.3778V3.388H32.1578V2.92C32.1578 2.16 32.3578 1.608 32.7578 1.264C33.1658 0.912 33.8018 0.736 34.6658 0.736V1.876C34.2498 1.876 33.9578 1.956 33.7898 2.116C33.6218 2.268 33.5378 2.536 33.5378 2.92V3.388H34.7618V4.504ZM42.0342 6.532C42.0342 6.78 42.0182 7.004 41.9862 7.204H36.9342C36.9742 7.732 37.1702 8.156 37.5222 8.476C37.8742 8.796 38.3062 8.956 38.8182 8.956C39.5542 8.956 40.0742 8.648 40.3782 8.032H41.8542C41.6542 8.64 41.2902 9.14 40.7622 9.532C40.2422 9.916 39.5942 10.108 38.8182 10.108C38.1862 10.108 37.6182 9.968 37.1142 9.688C36.6182 9.4 36.2262 9 35.9382 8.488C35.6582 7.968 35.5182 7.368 35.5182 6.688C35.5182 6.008 35.6542 5.412 35.9262 4.9C36.2062 4.38 36.5942 3.98 37.0902 3.7C37.5942 3.42 38.1702 3.28 38.8182 3.28C39.4422 3.28 39.9982 3.416 40.4862 3.688C40.9742 3.96 41.3542 4.344 41.6262 4.84C41.8982 5.328 42.0342 5.892 42.0342 6.532ZM40.6062 6.1C40.5982 5.596 40.4182 5.192 40.0662 4.888C39.7142 4.584 39.2782 4.432 38.7582 4.432C38.2862 4.432 37.8822 4.584 37.5462 4.888C37.2102 5.184 37.0102 5.588 36.9462 6.1H40.6062ZM44.7485 4.348C44.9485 4.012 45.2125 3.752 45.5405 3.568C45.8765 3.376 46.2725 3.28 46.7285 3.28V4.696H46.3805C45.8445 4.696 45.4365 4.832 45.1565 5.104C44.8845 5.376 44.7485 5.848 44.7485 6.52V10H43.3805V3.388H44.7485V4.348ZM50.3859 10.108C49.8659 10.108 49.3979 10.016 48.9819 9.832C48.5739 9.64 48.2499 9.384 48.0099 9.064C47.7699 8.736 47.6419 8.372 47.6259 7.972H49.0419C49.0659 8.252 49.1979 8.488 49.4379 8.68C49.6859 8.864 49.9939 8.956 50.3619 8.956C50.7459 8.956 51.0419 8.884 51.2499 8.74C51.4659 8.588 51.5739 8.396 51.5739 8.164C51.5739 7.916 51.4539 7.732 51.2139 7.612C50.9819 7.492 50.6099 7.36 50.0979 7.216C49.6019 7.08 49.1979 6.948 48.8859 6.82C48.5739 6.692 48.3019 6.496 48.0699 6.232C47.8459 5.968 47.7339 5.62 47.7339 5.188C47.7339 4.836 47.8379 4.516 48.0459 4.228C48.2539 3.932 48.5499 3.7 48.9339 3.532C49.3259 3.364 49.7739 3.28 50.2779 3.28C51.0299 3.28 51.6339 3.472 52.0899 3.856C52.5539 4.232 52.8019 4.748 52.8339 5.404H51.4659C51.4419 5.108 51.3219 4.872 51.1059 4.696C50.8899 4.52 50.5979 4.432 50.2299 4.432C49.8699 4.432 49.5939 4.5 49.4019 4.636C49.2099 4.772 49.1139 4.952 49.1139 5.176C49.1139 5.352 49.1779 5.5 49.3059 5.62C49.4339 5.74 49.5899 5.836 49.7739 5.908C49.9579 5.972 50.2299 6.056 50.5899 6.16C51.0699 6.288 51.4619 6.42 51.7659 6.556C52.0779 6.684 52.3459 6.876 52.5699 7.132C52.7939 7.388 52.9099 7.728 52.9179 8.152C52.9179 8.528 52.8139 8.864 52.6059 9.16C52.3979 9.456 52.1019 9.688 51.7179 9.856C51.3419 10.024 50.8979 10.108 50.3859 10.108Z" fill="#2B9348"/>
</svg>
