<svg width="54" height="11" viewBox="0 0 54 11" fill="none" xmlns="http://www.w3.org/2000/svg">
<path d="M0.696122 3.412C0.744122 2.668 1.02812 2.088 1.54812 1.672C2.07612 1.256 2.74812 1.048 3.56412 1.048C4.12412 1.048 4.60812 1.148 5.01612 1.348C5.42412 1.548 5.73212 1.82 5.94012 2.164C6.14812 2.508 6.25212 2.896 6.25212 3.328C6.25212 3.824 6.12012 4.248 5.85612 4.6C5.59212 4.952 5.27612 5.188 4.90812 5.308V5.356C5.38012 5.5 5.74812 5.764 6.01212 6.148C6.27612 6.524 6.40812 7.008 6.40812 7.6C6.40812 8.072 6.30012 8.492 6.08412 8.86C5.86812 9.228 5.54812 9.52 5.12412 9.736C4.70012 9.944 4.19212 10.048 3.60012 10.048C2.73612 10.048 2.02412 9.828 1.46412 9.388C0.912122 8.94 0.616122 8.3 0.576122 7.468H1.89612C1.92812 7.892 2.09212 8.24 2.38812 8.512C2.68412 8.776 3.08412 8.908 3.58812 8.908C4.07612 8.908 4.45212 8.776 4.71612 8.512C4.98012 8.24 5.11212 7.892 5.11212 7.468C5.11212 6.908 4.93212 6.512 4.57212 6.28C4.22012 6.04 3.67612 5.92 2.94012 5.92H2.62812V4.792H2.95212C3.60012 4.784 4.09212 4.676 4.42812 4.468C4.77212 4.26 4.94412 3.932 4.94412 3.484C4.94412 3.1 4.82012 2.796 4.57212 2.572C4.32412 2.34 3.97212 2.224 3.51612 2.224C3.06812 2.224 2.72012 2.34 2.47212 2.572C2.22412 2.796 2.07612 3.076 2.02812 3.412H0.696122ZM13.4851 2.428H9.46512V4.816C9.63312 4.592 9.88112 4.404 10.2091 4.252C10.5451 4.1 10.9011 4.024 11.2771 4.024C11.9491 4.024 12.4931 4.168 12.9091 4.456C13.3331 4.744 13.6331 5.108 13.8091 5.548C13.9931 5.988 14.0851 6.452 14.0851 6.94C14.0851 7.532 13.9691 8.06 13.7371 8.524C13.5131 8.98 13.1731 9.34 12.7171 9.604C12.2691 9.868 11.7171 10 11.0611 10C10.1891 10 9.48912 9.784 8.96112 9.352C8.43312 8.92 8.11712 8.348 8.01312 7.636H9.34512C9.43312 8.012 9.62912 8.312 9.93312 8.536C10.2371 8.752 10.6171 8.86 11.0731 8.86C11.6411 8.86 12.0651 8.688 12.3451 8.344C12.6331 8 12.7771 7.544 12.7771 6.976C12.7771 6.4 12.6331 5.96 12.3451 5.656C12.0571 5.344 11.6331 5.188 11.0731 5.188C10.6811 5.188 10.3491 5.288 10.0771 5.488C9.81312 5.68 9.62112 5.944 9.50112 6.28H8.20512V1.228H13.4851V2.428ZM22.6104 10.084C21.8344 10.084 21.1184 9.904 20.4624 9.544C19.8144 9.176 19.2984 8.668 18.9144 8.02C18.5384 7.364 18.3504 6.628 18.3504 5.812C18.3504 4.996 18.5384 4.264 18.9144 3.616C19.2984 2.968 19.8144 2.464 20.4624 2.104C21.1184 1.736 21.8344 1.552 22.6104 1.552C23.3944 1.552 24.1104 1.736 24.7584 2.104C25.4144 2.464 25.9304 2.968 26.3064 3.616C26.6824 4.264 26.8704 4.996 26.8704 5.812C26.8704 6.628 26.6824 7.364 26.3064 8.02C25.9304 8.668 25.4144 9.176 24.7584 9.544C24.1104 9.904 23.3944 10.084 22.6104 10.084ZM22.6104 8.896C23.1624 8.896 23.6544 8.772 24.0864 8.524C24.5184 8.268 24.8544 7.908 25.0944 7.444C25.3424 6.972 25.4664 6.428 25.4664 5.812C25.4664 5.196 25.3424 4.656 25.0944 4.192C24.8544 3.728 24.5184 3.372 24.0864 3.124C23.6544 2.876 23.1624 2.752 22.6104 2.752C22.0584 2.752 21.5664 2.876 21.1344 3.124C20.7024 3.372 20.3624 3.728 20.1144 4.192C19.8744 4.656 19.7544 5.196 19.7544 5.812C19.7544 6.428 19.8744 6.972 20.1144 7.444C20.3624 7.908 20.7024 8.268 21.1344 8.524C21.5664 8.772 22.0584 8.896 22.6104 8.896ZM30.9885 4.504H29.7645V10H28.3845V4.504H27.6045V3.388H28.3845V2.92C28.3845 2.16 28.5845 1.608 28.9845 1.264C29.3925 0.912 30.0285 0.736 30.8925 0.736V1.876C30.4765 1.876 30.1845 1.956 30.0165 2.116C29.8485 2.268 29.7645 2.536 29.7645 2.92V3.388H30.9885V4.504ZM34.9729 4.504H33.7489V10H32.3689V4.504H31.5889V3.388H32.3689V2.92C32.3689 2.16 32.5689 1.608 32.9689 1.264C33.3769 0.912 34.0129 0.736 34.8769 0.736V1.876C34.4609 1.876 34.1689 1.956 34.0009 2.116C33.8329 2.268 33.7489 2.536 33.7489 2.92V3.388H34.9729V4.504ZM42.2453 6.532C42.2453 6.78 42.2293 7.004 42.1973 7.204H37.1453C37.1853 7.732 37.3813 8.156 37.7333 8.476C38.0853 8.796 38.5173 8.956 39.0293 8.956C39.7653 8.956 40.2853 8.648 40.5893 8.032H42.0653C41.8653 8.64 41.5013 9.14 40.9733 9.532C40.4533 9.916 39.8053 10.108 39.0293 10.108C38.3973 10.108 37.8293 9.968 37.3253 9.688C36.8293 9.4 36.4373 9 36.1493 8.488C35.8693 7.968 35.7293 7.368 35.7293 6.688C35.7293 6.008 35.8653 5.412 36.1373 4.9C36.4173 4.38 36.8053 3.98 37.3013 3.7C37.8053 3.42 38.3813 3.28 39.0293 3.28C39.6533 3.28 40.2093 3.416 40.6973 3.688C41.1853 3.96 41.5653 4.344 41.8373 4.84C42.1093 5.328 42.2453 5.892 42.2453 6.532ZM40.8173 6.1C40.8093 5.596 40.6293 5.192 40.2773 4.888C39.9253 4.584 39.4893 4.432 38.9693 4.432C38.4973 4.432 38.0933 4.584 37.7573 4.888C37.4213 5.184 37.2213 5.588 37.1573 6.1H40.8173ZM44.9595 4.348C45.1595 4.012 45.4235 3.752 45.7515 3.568C46.0875 3.376 46.4835 3.28 46.9395 3.28V4.696H46.5915C46.0555 4.696 45.6475 4.832 45.3675 5.104C45.0955 5.376 44.9595 5.848 44.9595 6.52V10H43.5915V3.388H44.9595V4.348ZM50.597 10.108C50.077 10.108 49.609 10.016 49.193 9.832C48.785 9.64 48.461 9.384 48.221 9.064C47.981 8.736 47.853 8.372 47.837 7.972H49.253C49.277 8.252 49.409 8.488 49.649 8.68C49.897 8.864 50.205 8.956 50.573 8.956C50.957 8.956 51.253 8.884 51.461 8.74C51.677 8.588 51.785 8.396 51.785 8.164C51.785 7.916 51.665 7.732 51.425 7.612C51.193 7.492 50.821 7.36 50.309 7.216C49.813 7.08 49.409 6.948 49.097 6.82C48.785 6.692 48.513 6.496 48.281 6.232C48.057 5.968 47.945 5.62 47.945 5.188C47.945 4.836 48.049 4.516 48.257 4.228C48.465 3.932 48.761 3.7 49.145 3.532C49.537 3.364 49.985 3.28 50.489 3.28C51.241 3.28 51.845 3.472 52.301 3.856C52.765 4.232 53.013 4.748 53.045 5.404H51.677C51.653 5.108 51.533 4.872 51.317 4.696C51.101 4.52 50.809 4.432 50.441 4.432C50.081 4.432 49.805 4.5 49.613 4.636C49.421 4.772 49.325 4.952 49.325 5.176C49.325 5.352 49.389 5.5 49.517 5.62C49.645 5.74 49.801 5.836 49.985 5.908C50.169 5.972 50.441 6.056 50.801 6.16C51.281 6.288 51.673 6.42 51.977 6.556C52.289 6.684 52.557 6.876 52.781 7.132C53.005 7.388 53.121 7.728 53.129 8.152C53.129 8.528 53.025 8.864 52.817 9.16C52.609 9.456 52.313 9.688 51.929 9.856C51.553 10.024 51.109 10.108 50.597 10.108Z" fill="#2B9348"/>
</svg>
