<svg width="49" height="16" viewBox="0 0 49 16" fill="none" xmlns="http://www.w3.org/2000/svg">
<path d="M5.868 10.14H2.22L1.548 12H0.396L3.42 3.684H4.68L7.692 12H6.54L5.868 10.14ZM5.556 9.252L4.044 5.028L2.532 9.252H5.556ZM9.59794 4.356C9.38994 4.356 9.21394 4.284 9.06994 4.14C8.93394 3.996 8.86594 3.82 8.86594 3.612C8.86594 3.404 8.93394 3.228 9.06994 3.084C9.21394 2.94 9.38994 2.868 9.59794 2.868C9.80594 2.868 9.97794 2.94 10.1139 3.084C10.2579 3.228 10.3299 3.404 10.3299 3.612C10.3299 3.82 10.2579 3.996 10.1139 4.14C9.97794 4.284 9.80594 4.356 9.59794 4.356ZM10.1379 13.428C10.1379 14.012 9.98994 14.44 9.69394 14.712C9.39794 14.984 8.96594 15.12 8.39794 15.12H7.76194V14.196H8.21794C8.52194 14.196 8.73394 14.136 8.85394 14.016C8.98194 13.896 9.04594 13.692 9.04594 13.404V5.424H10.1379V13.428ZM12.5505 4.356C12.3425 4.356 12.1665 4.284 12.0225 4.14C11.8785 3.996 11.8065 3.82 11.8065 3.612C11.8065 3.404 11.8785 3.228 12.0225 3.084C12.1665 2.94 12.3425 2.868 12.5505 2.868C12.7505 2.868 12.9185 2.94 13.0545 3.084C13.1985 3.228 13.2705 3.404 13.2705 3.612C13.2705 3.82 13.1985 3.996 13.0545 4.14C12.9185 4.284 12.7505 4.356 12.5505 4.356ZM13.0785 5.424V12H11.9865V5.424H13.0785ZM17.8076 12.108C17.1916 12.108 16.6316 11.968 16.1276 11.688C15.6316 11.408 15.2396 11.012 14.9516 10.5C14.6716 9.98 14.5316 9.38 14.5316 8.7C14.5316 8.028 14.6756 7.436 14.9636 6.924C15.2596 6.404 15.6596 6.008 16.1636 5.736C16.6676 5.456 17.2316 5.316 17.8556 5.316C18.4796 5.316 19.0436 5.456 19.5476 5.736C20.0516 6.008 20.4476 6.4 20.7356 6.912C21.0316 7.424 21.1796 8.02 21.1796 8.7C21.1796 9.38 21.0276 9.98 20.7236 10.5C20.4276 11.012 20.0236 11.408 19.5116 11.688C18.9996 11.968 18.4316 12.108 17.8076 12.108ZM17.8076 11.148C18.1996 11.148 18.5676 11.056 18.9116 10.872C19.2556 10.688 19.5316 10.412 19.7396 10.044C19.9556 9.676 20.0636 9.228 20.0636 8.7C20.0636 8.172 19.9596 7.724 19.7516 7.356C19.5436 6.988 19.2716 6.716 18.9356 6.54C18.5996 6.356 18.2356 6.264 17.8436 6.264C17.4436 6.264 17.0756 6.356 16.7396 6.54C16.4116 6.716 16.1476 6.988 15.9476 7.356C15.7476 7.724 15.6476 8.172 15.6476 8.7C15.6476 9.236 15.7436 9.688 15.9356 10.056C16.1356 10.424 16.3996 10.7 16.7276 10.884C17.0556 11.06 17.4156 11.148 17.8076 11.148ZM28.6226 14.232C27.8546 13.48 27.2546 12.524 26.8226 11.364C26.3986 10.204 26.1866 8.952 26.1866 7.608C26.1866 6.232 26.4106 4.948 26.8586 3.756C27.3146 2.556 27.9626 1.568 28.8026 0.792H29.9426V0.899999C29.0466 1.74 28.3706 2.752 27.9146 3.936C27.4666 5.112 27.2426 6.336 27.2426 7.608C27.2426 8.848 27.4546 10.032 27.8786 11.16C28.3106 12.288 28.9386 13.276 29.7626 14.124V14.232H28.6226ZM30.9518 11.124C31.9678 10.308 32.7638 9.64 33.3398 9.12C33.9158 8.592 34.3998 8.044 34.7918 7.476C35.1918 6.9 35.3918 6.336 35.3918 5.784C35.3918 5.264 35.2638 4.856 35.0078 4.56C34.7598 4.256 34.3558 4.104 33.7958 4.104C33.2518 4.104 32.8278 4.276 32.5238 4.62C32.2278 4.956 32.0678 5.408 32.0438 5.976H30.9878C31.0198 5.08 31.2918 4.388 31.8038 3.9C32.3158 3.412 32.9758 3.168 33.7838 3.168C34.6078 3.168 35.2598 3.396 35.7398 3.852C36.2278 4.308 36.4718 4.936 36.4718 5.736C36.4718 6.4 36.2718 7.048 35.8718 7.68C35.4798 8.304 35.0318 8.856 34.5278 9.336C34.0238 9.808 33.3798 10.36 32.5958 10.992H36.7238V11.904H30.9518V11.124ZM37.8542 11.124C38.8702 10.308 39.6662 9.64 40.2422 9.12C40.8182 8.592 41.3022 8.044 41.6942 7.476C42.0942 6.9 42.2942 6.336 42.2942 5.784C42.2942 5.264 42.1662 4.856 41.9102 4.56C41.6622 4.256 41.2582 4.104 40.6982 4.104C40.1542 4.104 39.7302 4.276 39.4262 4.62C39.1302 4.956 38.9702 5.408 38.9462 5.976H37.8902C37.9222 5.08 38.1942 4.388 38.7062 3.9C39.2182 3.412 39.8782 3.168 40.6862 3.168C41.5102 3.168 42.1622 3.396 42.6422 3.852C43.1302 4.308 43.3742 4.936 43.3742 5.736C43.3742 6.4 43.1742 7.048 42.7742 7.68C42.3822 8.304 41.9342 8.856 41.4302 9.336C40.9262 9.808 40.2822 10.36 39.4982 10.992H43.6262V11.904H37.8542V11.124ZM44.7205 14.232V14.124C45.5445 13.276 46.1685 12.288 46.5925 11.16C47.0245 10.032 47.2405 8.848 47.2405 7.608C47.2405 6.336 47.0125 5.112 46.5565 3.936C46.1085 2.752 45.4365 1.74 44.5405 0.899999V0.792H45.6805C46.5205 1.568 47.1645 2.556 47.6125 3.756C48.0685 4.948 48.2965 6.232 48.2965 7.608C48.2965 8.952 48.0805 10.204 47.6485 11.364C47.2245 12.524 46.6285 13.48 45.8605 14.232H44.7205Z" fill="black"/>
</svg>
