<svg width="51" height="15" viewBox="0 0 51 15" fill="none" xmlns="http://www.w3.org/2000/svg">
<path d="M5.928 10.296H2.436L1.836 12H0.408L3.396 3.648H4.98L7.968 12H6.528L5.928 10.296ZM5.544 9.18L4.188 5.304L2.82 9.18H5.544ZM10.6352 3.12V12H9.26719V3.12H10.6352ZM13.7993 3.12V12H12.4313V3.12H13.7993ZM21.7365 14.232C20.9525 13.48 20.3485 12.524 19.9245 11.364C19.5085 10.204 19.3005 8.96 19.3005 7.632C19.3005 6.272 19.5245 4.988 19.9725 3.78C20.4285 2.572 21.0965 1.576 21.9765 0.792H23.3925V0.924C22.4725 1.772 21.7805 2.788 21.3165 3.972C20.8525 5.156 20.6205 6.376 20.6205 7.632C20.6205 8.84 20.8365 10.008 21.2685 11.136C21.7005 12.264 22.3285 13.252 23.1525 14.1V14.232H21.7365ZM25.1948 10.14C25.9628 9.476 26.5668 8.932 27.0068 8.508C27.4548 8.076 27.8268 7.628 28.1228 7.164C28.4188 6.7 28.5668 6.236 28.5668 5.772C28.5668 5.292 28.4508 4.916 28.2188 4.644C27.9948 4.372 27.6388 4.236 27.1508 4.236C26.6788 4.236 26.3108 4.388 26.0468 4.692C25.7908 4.988 25.6548 5.388 25.6388 5.892H24.3188C24.3428 4.98 24.6148 4.284 25.1348 3.804C25.6628 3.316 26.3308 3.072 27.1388 3.072C28.0108 3.072 28.6908 3.312 29.1788 3.792C29.6748 4.272 29.9228 4.912 29.9228 5.712C29.9228 6.288 29.7748 6.844 29.4788 7.38C29.1908 7.908 28.8428 8.384 28.4348 8.808C28.0348 9.224 27.5228 9.708 26.8988 10.26L26.3588 10.74H30.1628V11.88H24.3308V10.884L25.1948 10.14ZM37.0045 4.428H32.9845V6.816C33.1525 6.592 33.4005 6.404 33.7285 6.252C34.0645 6.1 34.4205 6.024 34.7965 6.024C35.4685 6.024 36.0125 6.168 36.4285 6.456C36.8525 6.744 37.1525 7.108 37.3285 7.548C37.5125 7.988 37.6045 8.452 37.6045 8.94C37.6045 9.532 37.4885 10.06 37.2565 10.524C37.0325 10.98 36.6925 11.34 36.2365 11.604C35.7885 11.868 35.2365 12 34.5805 12C33.7085 12 33.0085 11.784 32.4805 11.352C31.9525 10.92 31.6365 10.348 31.5325 9.636H32.8645C32.9525 10.012 33.1485 10.312 33.4525 10.536C33.7565 10.752 34.1365 10.86 34.5925 10.86C35.1605 10.86 35.5845 10.688 35.8645 10.344C36.1525 10 36.2965 9.544 36.2965 8.976C36.2965 8.4 36.1525 7.96 35.8645 7.656C35.5765 7.344 35.1525 7.188 34.5925 7.188C34.2005 7.188 33.8685 7.288 33.5965 7.488C33.3325 7.68 33.1405 7.944 33.0205 8.28H31.7245V3.228H37.0045V4.428ZM43.7326 5.28C43.6446 4.912 43.4846 4.636 43.2526 4.452C43.0206 4.268 42.6966 4.176 42.2806 4.176C41.6486 4.176 41.1766 4.42 40.8646 4.908C40.5526 5.388 40.3886 6.188 40.3726 7.308C40.5806 6.956 40.8846 6.684 41.2846 6.492C41.6846 6.3 42.1166 6.204 42.5806 6.204C43.1086 6.204 43.5726 6.32 43.9726 6.552C44.3806 6.776 44.6966 7.104 44.9206 7.536C45.1526 7.968 45.2686 8.484 45.2686 9.084C45.2686 9.644 45.1566 10.144 44.9326 10.584C44.7166 11.024 44.3926 11.372 43.9606 11.628C43.5286 11.876 43.0086 12 42.4006 12C41.5766 12 40.9286 11.82 40.4566 11.46C39.9926 11.092 39.6646 10.576 39.4726 9.912C39.2886 9.248 39.1966 8.42 39.1966 7.428C39.1966 4.5 40.2286 3.036 42.2926 3.036C43.0926 3.036 43.7206 3.252 44.1766 3.684C44.6406 4.116 44.9126 4.648 44.9926 5.28H43.7326ZM42.2806 7.356C41.7926 7.356 41.3766 7.504 41.0326 7.8C40.6966 8.088 40.5286 8.508 40.5286 9.06C40.5286 9.612 40.6846 10.052 40.9966 10.38C41.3166 10.7 41.7606 10.86 42.3286 10.86C42.8326 10.86 43.2286 10.704 43.5166 10.392C43.8126 10.08 43.9606 9.664 43.9606 9.144C43.9606 8.6 43.8166 8.168 43.5286 7.848C43.2486 7.52 42.8326 7.356 42.2806 7.356ZM46.5718 14.232V14.1C47.3958 13.252 48.0238 12.264 48.4558 11.136C48.8878 10.008 49.1038 8.84 49.1038 7.632C49.1038 6.376 48.8718 5.156 48.4078 3.972C47.9438 2.788 47.2518 1.772 46.3318 0.924V0.792H47.7478C48.6278 1.576 49.2918 2.572 49.7398 3.78C50.1958 4.988 50.4238 6.272 50.4238 7.632C50.4238 8.96 50.2118 10.204 49.7878 11.364C49.3718 12.524 48.7718 13.48 47.9878 14.232H46.5718Z" fill="#140D4F"/>
</svg>
