<svg width="77" height="15" viewBox="0 0 77 15" fill="none" xmlns="http://www.w3.org/2000/svg">
<path d="M5.868 10.14H2.22L1.548 12H0.396L3.42 3.684H4.68L7.692 12H6.54L5.868 10.14ZM5.556 9.252L4.044 5.028L2.532 9.252H5.556ZM16.9179 5.304C17.4299 5.304 17.8859 5.412 18.2859 5.628C18.6859 5.836 19.0019 6.152 19.2339 6.576C19.4659 7 19.5819 7.516 19.5819 8.124V12H18.5019V8.28C18.5019 7.624 18.3379 7.124 18.0099 6.78C17.6899 6.428 17.2539 6.252 16.7019 6.252C16.1339 6.252 15.6819 6.436 15.3459 6.804C15.0099 7.164 14.8419 7.688 14.8419 8.376V12H13.7619V8.28C13.7619 7.624 13.5979 7.124 13.2699 6.78C12.9499 6.428 12.5139 6.252 11.9619 6.252C11.3939 6.252 10.9419 6.436 10.6059 6.804C10.2699 7.164 10.1019 7.688 10.1019 8.376V12H9.00994V5.424H10.1019V6.372C10.3179 6.028 10.6059 5.764 10.9659 5.58C11.3339 5.396 11.7379 5.304 12.1779 5.304C12.7299 5.304 13.2179 5.428 13.6419 5.676C14.0659 5.924 14.3819 6.288 14.5899 6.768C14.7739 6.304 15.0779 5.944 15.5019 5.688C15.9259 5.432 16.3979 5.304 16.9179 5.304ZM20.9652 8.688C20.9652 8.016 21.1012 7.428 21.3732 6.924C21.6452 6.412 22.0172 6.016 22.4892 5.736C22.9692 5.456 23.5012 5.316 24.0852 5.316C24.6612 5.316 25.1612 5.44 25.5852 5.688C26.0092 5.936 26.3252 6.248 26.5332 6.624V5.424H27.6372V12H26.5332V10.776C26.3172 11.16 25.9932 11.48 25.5612 11.736C25.1372 11.984 24.6412 12.108 24.0732 12.108C23.4892 12.108 22.9612 11.964 22.4892 11.676C22.0172 11.388 21.6452 10.984 21.3732 10.464C21.1012 9.944 20.9652 9.352 20.9652 8.688ZM26.5332 8.7C26.5332 8.204 26.4332 7.772 26.2332 7.404C26.0332 7.036 25.7612 6.756 25.4172 6.564C25.0812 6.364 24.7092 6.264 24.3012 6.264C23.8932 6.264 23.5212 6.36 23.1852 6.552C22.8492 6.744 22.5812 7.024 22.3812 7.392C22.1812 7.76 22.0812 8.192 22.0812 8.688C22.0812 9.192 22.1812 9.632 22.3812 10.008C22.5812 10.376 22.8492 10.66 23.1852 10.86C23.5212 11.052 23.8932 11.148 24.3012 11.148C24.7092 11.148 25.0812 11.052 25.4172 10.86C25.7612 10.66 26.0332 10.376 26.2332 10.008C26.4332 9.632 26.5332 9.196 26.5332 8.7ZM30.2986 11.1H33.5266V12H29.0506V11.1L32.2426 6.312H29.0746V5.424H33.5026V6.312L30.2986 11.1ZM37.8115 12.108C37.1955 12.108 36.6355 11.968 36.1315 11.688C35.6355 11.408 35.2435 11.012 34.9555 10.5C34.6755 9.98 34.5355 9.38 34.5355 8.7C34.5355 8.028 34.6795 7.436 34.9675 6.924C35.2635 6.404 35.6635 6.008 36.1675 5.736C36.6715 5.456 37.2355 5.316 37.8595 5.316C38.4835 5.316 39.0475 5.456 39.5515 5.736C40.0555 6.008 40.4515 6.4 40.7395 6.912C41.0355 7.424 41.1835 8.02 41.1835 8.7C41.1835 9.38 41.0315 9.98 40.7275 10.5C40.4315 11.012 40.0275 11.408 39.5155 11.688C39.0035 11.968 38.4355 12.108 37.8115 12.108ZM37.8115 11.148C38.2035 11.148 38.5715 11.056 38.9155 10.872C39.2595 10.688 39.5355 10.412 39.7435 10.044C39.9595 9.676 40.0675 9.228 40.0675 8.7C40.0675 8.172 39.9635 7.724 39.7555 7.356C39.5475 6.988 39.2755 6.716 38.9395 6.54C38.6035 6.356 38.2395 6.264 37.8475 6.264C37.4475 6.264 37.0795 6.356 36.7435 6.54C36.4155 6.716 36.1515 6.988 35.9515 7.356C35.7515 7.724 35.6515 8.172 35.6515 8.7C35.6515 9.236 35.7475 9.688 35.9395 10.056C36.1395 10.424 36.4035 10.7 36.7315 10.884C37.0595 11.06 37.4195 11.148 37.8115 11.148ZM45.8233 5.304C46.6233 5.304 47.2713 5.548 47.7673 6.036C48.2633 6.516 48.5113 7.212 48.5113 8.124V12H47.4313V8.28C47.4313 7.624 47.2673 7.124 46.9393 6.78C46.6113 6.428 46.1633 6.252 45.5953 6.252C45.0193 6.252 44.5593 6.432 44.2153 6.792C43.8793 7.152 43.7113 7.676 43.7113 8.364V12H42.6193V5.424H43.7113V6.36C43.9273 6.024 44.2193 5.764 44.5873 5.58C44.9633 5.396 45.3753 5.304 45.8233 5.304ZM56.3023 14.232C55.5343 13.48 54.9343 12.524 54.5023 11.364C54.0783 10.204 53.8663 8.952 53.8663 7.608C53.8663 6.232 54.0903 4.948 54.5383 3.756C54.9943 2.556 55.6423 1.568 56.4823 0.792H57.6223V0.899999C56.7263 1.74 56.0503 2.752 55.5943 3.936C55.1463 5.112 54.9223 6.336 54.9223 7.608C54.9223 8.848 55.1343 10.032 55.5583 11.16C55.9903 12.288 56.6183 13.276 57.4423 14.124V14.232H56.3023ZM58.7395 5.508C58.7955 4.772 59.0795 4.196 59.5915 3.78C60.1035 3.364 60.7675 3.156 61.5835 3.156C62.1275 3.156 62.5955 3.256 62.9875 3.456C63.3875 3.648 63.6875 3.912 63.8875 4.248C64.0955 4.584 64.1995 4.964 64.1995 5.388C64.1995 5.884 64.0555 6.312 63.7675 6.672C63.4875 7.032 63.1195 7.264 62.6635 7.368V7.428C63.1835 7.556 63.5955 7.808 63.8995 8.184C64.2035 8.56 64.3555 9.052 64.3555 9.66C64.3555 10.116 64.2515 10.528 64.0435 10.896C63.8355 11.256 63.5235 11.54 63.1075 11.748C62.6915 11.956 62.1915 12.06 61.6075 12.06C60.7595 12.06 60.0635 11.84 59.5195 11.4C58.9755 10.952 58.6715 10.32 58.6075 9.504H59.6635C59.7195 9.984 59.9155 10.376 60.2515 10.68C60.5875 10.984 61.0355 11.136 61.5955 11.136C62.1555 11.136 62.5795 10.992 62.8675 10.704C63.1635 10.408 63.3115 10.028 63.3115 9.564C63.3115 8.964 63.1115 8.532 62.7115 8.268C62.3115 8.004 61.7075 7.872 60.8995 7.872H60.6235V6.96H60.9115C61.6475 6.952 62.2035 6.832 62.5795 6.6C62.9555 6.36 63.1435 5.992 63.1435 5.496C63.1435 5.072 63.0035 4.732 62.7235 4.476C62.4515 4.22 62.0595 4.092 61.5475 4.092C61.0515 4.092 60.6515 4.22 60.3475 4.476C60.0435 4.732 59.8635 5.076 59.8075 5.508H58.7395ZM71.3619 4.272H67.1499V7.008C67.3339 6.752 67.6059 6.544 67.9659 6.384C68.3259 6.216 68.7139 6.132 69.1299 6.132C69.7939 6.132 70.3339 6.272 70.7499 6.552C71.1659 6.824 71.4619 7.18 71.6379 7.62C71.8219 8.052 71.9139 8.512 71.9139 9C71.9139 9.576 71.8059 10.092 71.5899 10.548C71.3739 11.004 71.0419 11.364 70.5939 11.628C70.1539 11.892 69.6059 12.024 68.9499 12.024C68.1099 12.024 67.4299 11.808 66.9099 11.376C66.3899 10.944 66.0739 10.368 65.9619 9.648H67.0299C67.1339 10.104 67.3539 10.46 67.6899 10.716C68.0259 10.972 68.4499 11.1 68.9619 11.1C69.5939 11.1 70.0699 10.912 70.3899 10.536C70.7099 10.152 70.8699 9.648 70.8699 9.024C70.8699 8.4 70.7099 7.92 70.3899 7.584C70.0699 7.24 69.5979 7.068 68.9739 7.068C68.5499 7.068 68.1779 7.172 67.8579 7.38C67.5459 7.58 67.3179 7.856 67.1739 8.208H66.1419V3.312H71.3619V4.272ZM73.1971 14.232V14.124C74.0211 13.276 74.6451 12.288 75.0691 11.16C75.5011 10.032 75.7171 8.848 75.7171 7.608C75.7171 6.336 75.4891 5.112 75.0331 3.936C74.5851 2.752 73.9131 1.74 73.0171 0.899999V0.792H74.1571C74.9971 1.568 75.6411 2.556 76.0891 3.756C76.5451 4.948 76.7731 6.232 76.7731 7.608C76.7731 8.952 76.5571 10.204 76.1251 11.364C75.7011 12.524 75.1051 13.48 74.3371 14.232H73.1971Z" fill="black"/>
</svg>
