<svg width="48" height="15" viewBox="0 0 48 15" fill="none" xmlns="http://www.w3.org/2000/svg">
<path d="M5.868 10.14H2.22L1.548 12H0.396L3.42 3.684H4.68L7.692 12H6.54L5.868 10.14ZM5.556 9.252L4.044 5.028L2.532 9.252H5.556ZM12.4419 12L10.8819 9.552L9.38194 12H8.24194L10.3659 8.736L8.24194 5.424H9.47794L11.0379 7.86L12.5259 5.424H13.6659L11.5539 8.676L13.6779 12H12.4419ZM15.3161 4.356C15.1081 4.356 14.9321 4.284 14.7881 4.14C14.6441 3.996 14.5721 3.82 14.5721 3.612C14.5721 3.404 14.6441 3.228 14.7881 3.084C14.9321 2.94 15.1081 2.868 15.3161 2.868C15.5161 2.868 15.6841 2.94 15.8201 3.084C15.9641 3.228 16.0361 3.404 16.0361 3.612C16.0361 3.82 15.9641 3.996 15.8201 4.14C15.6841 4.284 15.5161 4.356 15.3161 4.356ZM15.8441 5.424V12H14.7521V5.424H15.8441ZM20.0333 12.108C19.5293 12.108 19.0773 12.024 18.6773 11.856C18.2773 11.68 17.9613 11.44 17.7293 11.136C17.4973 10.824 17.3693 10.468 17.3453 10.068H18.4733C18.5053 10.396 18.6573 10.664 18.9293 10.872C19.2093 11.08 19.5733 11.184 20.0213 11.184C20.4373 11.184 20.7653 11.092 21.0053 10.908C21.2453 10.724 21.3653 10.492 21.3653 10.212C21.3653 9.924 21.2373 9.712 20.9813 9.576C20.7253 9.432 20.3293 9.292 19.7933 9.156C19.3053 9.028 18.9053 8.9 18.5933 8.772C18.2893 8.636 18.0253 8.44 17.8013 8.184C17.5853 7.92 17.4773 7.576 17.4773 7.152C17.4773 6.816 17.5773 6.508 17.7773 6.228C17.9773 5.948 18.2613 5.728 18.6293 5.568C18.9973 5.4 19.4173 5.316 19.8893 5.316C20.6173 5.316 21.2053 5.5 21.6533 5.868C22.1013 6.236 22.3413 6.74 22.3733 7.38H21.2813C21.2573 7.036 21.1173 6.76 20.8613 6.552C20.6133 6.344 20.2773 6.24 19.8533 6.24C19.4613 6.24 19.1493 6.324 18.9173 6.492C18.6853 6.66 18.5693 6.88 18.5693 7.152C18.5693 7.368 18.6373 7.548 18.7733 7.692C18.9173 7.828 19.0933 7.94 19.3013 8.028C19.5173 8.108 19.8133 8.2 20.1893 8.304C20.6613 8.432 21.0453 8.56 21.3413 8.688C21.6373 8.808 21.8893 8.992 22.0973 9.24C22.3133 9.488 22.4253 9.812 22.4333 10.212C22.4333 10.572 22.3333 10.896 22.1333 11.184C21.9333 11.472 21.6493 11.7 21.2813 11.868C20.9213 12.028 20.5053 12.108 20.0333 12.108ZM29.982 14.232C29.214 13.48 28.614 12.524 28.182 11.364C27.758 10.204 27.546 8.952 27.546 7.608C27.546 6.232 27.77 4.948 28.218 3.756C28.674 2.556 29.322 1.568 30.162 0.792H31.302V0.899999C30.406 1.74 29.73 2.752 29.274 3.936C28.826 5.112 28.602 6.336 28.602 7.608C28.602 8.848 28.814 10.032 29.238 11.16C29.67 12.288 30.298 13.276 31.122 14.124V14.232H29.982ZM32.1552 4.32V3.324H34.4112V12H33.3072V4.32H32.1552ZM37.871 7.488C37.423 7.312 37.079 7.056 36.839 6.72C36.599 6.384 36.479 5.976 36.479 5.496C36.479 5.064 36.587 4.676 36.803 4.332C37.019 3.98 37.339 3.704 37.763 3.504C38.195 3.296 38.715 3.192 39.323 3.192C39.931 3.192 40.447 3.296 40.871 3.504C41.303 3.704 41.627 3.98 41.843 4.332C42.067 4.676 42.179 5.064 42.179 5.496C42.179 5.96 42.055 6.368 41.807 6.72C41.559 7.064 41.219 7.32 40.787 7.488C41.283 7.64 41.675 7.908 41.963 8.292C42.259 8.668 42.407 9.124 42.407 9.66C42.407 10.18 42.279 10.636 42.023 11.028C41.767 11.412 41.403 11.712 40.931 11.928C40.467 12.136 39.931 12.24 39.323 12.24C38.715 12.24 38.179 12.136 37.715 11.928C37.259 11.712 36.903 11.412 36.647 11.028C36.391 10.636 36.263 10.18 36.263 9.66C36.263 9.124 36.407 8.664 36.695 8.28C36.983 7.896 37.375 7.632 37.871 7.488ZM41.123 5.628C41.123 5.14 40.963 4.764 40.643 4.5C40.323 4.236 39.883 4.104 39.323 4.104C38.771 4.104 38.335 4.236 38.015 4.5C37.695 4.764 37.535 5.144 37.535 5.64C37.535 6.088 37.699 6.448 38.027 6.72C38.363 6.992 38.795 7.128 39.323 7.128C39.859 7.128 40.291 6.992 40.619 6.72C40.955 6.44 41.123 6.076 41.123 5.628ZM39.323 7.968C38.731 7.968 38.247 8.108 37.871 8.388C37.495 8.66 37.307 9.072 37.307 9.624C37.307 10.136 37.487 10.548 37.847 10.86C38.215 11.172 38.707 11.328 39.323 11.328C39.939 11.328 40.427 11.172 40.787 10.86C41.147 10.548 41.327 10.136 41.327 9.624C41.327 9.088 41.143 8.68 40.775 8.4C40.407 8.112 39.923 7.968 39.323 7.968ZM43.6893 14.232V14.124C44.5133 13.276 45.1373 12.288 45.5613 11.16C45.9933 10.032 46.2093 8.848 46.2093 7.608C46.2093 6.336 45.9813 5.112 45.5253 3.936C45.0773 2.752 44.4053 1.74 43.5093 0.899999V0.792H44.6493C45.4893 1.568 46.1333 2.556 46.5813 3.756C47.0373 4.948 47.2653 6.232 47.2653 7.608C47.2653 8.952 47.0493 10.204 46.6173 11.364C46.1933 12.524 45.5973 13.48 44.8293 14.232H43.6893Z" fill="black"/>
</svg>
