<svg width="129" height="16" viewBox="0 0 129 16" fill="none" xmlns="http://www.w3.org/2000/svg">
<path d="M5.112 7.692C5.416 7.74 5.692 7.864 5.94 8.064C6.196 8.264 6.396 8.512 6.54 8.808C6.692 9.104 6.768 9.42 6.768 9.756C6.768 10.18 6.66 10.564 6.444 10.908C6.228 11.244 5.912 11.512 5.496 11.712C5.088 11.904 4.604 12 4.044 12H0.924V3.636H3.924C4.492 3.636 4.976 3.732 5.376 3.924C5.776 4.108 6.076 4.36 6.276 4.68C6.476 5 6.576 5.36 6.576 5.76C6.576 6.256 6.44 6.668 6.168 6.996C5.904 7.316 5.552 7.548 5.112 7.692ZM2.016 7.248H3.852C4.364 7.248 4.76 7.128 5.04 6.888C5.32 6.648 5.46 6.316 5.46 5.892C5.46 5.468 5.32 5.136 5.04 4.896C4.76 4.656 4.356 4.536 3.828 4.536H2.016V7.248ZM3.948 11.1C4.492 11.1 4.916 10.972 5.22 10.716C5.524 10.46 5.676 10.104 5.676 9.648C5.676 9.184 5.516 8.82 5.196 8.556C4.876 8.284 4.448 8.148 3.912 8.148H2.016V11.1H3.948ZM7.87538 8.688C7.87538 8.016 8.01138 7.428 8.28338 6.924C8.55538 6.412 8.92738 6.016 9.39938 5.736C9.87938 5.456 10.4114 5.316 10.9954 5.316C11.5714 5.316 12.0714 5.44 12.4954 5.688C12.9194 5.936 13.2354 6.248 13.4434 6.624V5.424H14.5474V12H13.4434V10.776C13.2274 11.16 12.9034 11.48 12.4714 11.736C12.0474 11.984 11.5514 12.108 10.9834 12.108C10.3994 12.108 9.87138 11.964 9.39938 11.676C8.92738 11.388 8.55538 10.984 8.28338 10.464C8.01138 9.944 7.87538 9.352 7.87538 8.688ZM13.4434 8.7C13.4434 8.204 13.3434 7.772 13.1434 7.404C12.9434 7.036 12.6714 6.756 12.3274 6.564C11.9914 6.364 11.6194 6.264 11.2114 6.264C10.8034 6.264 10.4314 6.36 10.0954 6.552C9.75938 6.744 9.49138 7.024 9.29138 7.392C9.09138 7.76 8.99138 8.192 8.99138 8.688C8.99138 9.192 9.09138 9.632 9.29138 10.008C9.49138 10.376 9.75938 10.66 10.0954 10.86C10.4314 11.052 10.8034 11.148 11.2114 11.148C11.6194 11.148 11.9914 11.052 12.3274 10.86C12.6714 10.66 12.9434 10.376 13.1434 10.008C13.3434 9.632 13.4434 9.196 13.4434 8.7ZM19.1048 5.316C19.6728 5.316 20.1688 5.44 20.5928 5.688C21.0248 5.936 21.3448 6.248 21.5528 6.624V5.424H22.6568V12.144C22.6568 12.744 22.5288 13.276 22.2728 13.74C22.0168 14.212 21.6488 14.58 21.1688 14.844C20.6968 15.108 20.1448 15.24 19.5128 15.24C18.6488 15.24 17.9288 15.036 17.3528 14.628C16.7768 14.22 16.4368 13.664 16.3328 12.96H17.4128C17.5328 13.36 17.7808 13.68 18.1568 13.92C18.5328 14.168 18.9848 14.292 19.5128 14.292C20.1128 14.292 20.6008 14.104 20.9768 13.728C21.3608 13.352 21.5528 12.824 21.5528 12.144V10.764C21.3368 11.148 21.0168 11.468 20.5928 11.724C20.1688 11.98 19.6728 12.108 19.1048 12.108C18.5208 12.108 17.9888 11.964 17.5088 11.676C17.0368 11.388 16.6648 10.984 16.3928 10.464C16.1208 9.944 15.9848 9.352 15.9848 8.688C15.9848 8.016 16.1208 7.428 16.3928 6.924C16.6648 6.412 17.0368 6.016 17.5088 5.736C17.9888 5.456 18.5208 5.316 19.1048 5.316ZM21.5528 8.7C21.5528 8.204 21.4528 7.772 21.2528 7.404C21.0528 7.036 20.7808 6.756 20.4368 6.564C20.1008 6.364 19.7288 6.264 19.3208 6.264C18.9128 6.264 18.5408 6.36 18.2048 6.552C17.8688 6.744 17.6008 7.024 17.4008 7.392C17.2008 7.76 17.1008 8.192 17.1008 8.688C17.1008 9.192 17.2008 9.632 17.4008 10.008C17.6008 10.376 17.8688 10.66 18.2048 10.86C18.5408 11.052 18.9128 11.148 19.3208 11.148C19.7288 11.148 20.1008 11.052 20.4368 10.86C20.7808 10.66 21.0528 10.376 21.2528 10.008C21.4528 9.632 21.5528 9.196 21.5528 8.7ZM26.8301 12.108C26.3261 12.108 25.8741 12.024 25.4741 11.856C25.0741 11.68 24.7581 11.44 24.5261 11.136C24.2941 10.824 24.1661 10.468 24.1421 10.068H25.2701C25.3021 10.396 25.4541 10.664 25.7261 10.872C26.0061 11.08 26.3701 11.184 26.8181 11.184C27.2341 11.184 27.5621 11.092 27.8021 10.908C28.0421 10.724 28.1621 10.492 28.1621 10.212C28.1621 9.924 28.0341 9.712 27.7781 9.576C27.5221 9.432 27.1261 9.292 26.5901 9.156C26.1021 9.028 25.7021 8.9 25.3901 8.772C25.0861 8.636 24.8221 8.44 24.5981 8.184C24.3821 7.92 24.2741 7.576 24.2741 7.152C24.2741 6.816 24.3741 6.508 24.5741 6.228C24.7741 5.948 25.0581 5.728 25.4261 5.568C25.7941 5.4 26.2141 5.316 26.6861 5.316C27.4141 5.316 28.0021 5.5 28.4501 5.868C28.8981 6.236 29.1381 6.74 29.1701 7.38H28.0781C28.0541 7.036 27.9141 6.76 27.6581 6.552C27.4101 6.344 27.0741 6.24 26.6501 6.24C26.2581 6.24 25.9461 6.324 25.7141 6.492C25.4821 6.66 25.3661 6.88 25.3661 7.152C25.3661 7.368 25.4341 7.548 25.5701 7.692C25.7141 7.828 25.8901 7.94 26.0981 8.028C26.3141 8.108 26.6101 8.2 26.9861 8.304C27.4581 8.432 27.8421 8.56 28.1381 8.688C28.4341 8.808 28.6861 8.992 28.8941 9.24C29.1101 9.488 29.2221 9.812 29.2301 10.212C29.2301 10.572 29.1301 10.896 28.9301 11.184C28.7301 11.472 28.4461 11.7 28.0781 11.868C27.7181 12.028 27.3021 12.108 26.8301 12.108ZM33.5629 8.688C33.5629 8.016 33.6989 7.428 33.9709 6.924C34.2429 6.412 34.6149 6.016 35.0869 5.736C35.5669 5.456 36.0989 5.316 36.6829 5.316C37.2589 5.316 37.7589 5.44 38.1829 5.688C38.6069 5.936 38.9229 6.248 39.1309 6.624V5.424H40.2349V12H39.1309V10.776C38.9149 11.16 38.5909 11.48 38.1589 11.736C37.7349 11.984 37.2389 12.108 36.6709 12.108C36.0869 12.108 35.5589 11.964 35.0869 11.676C34.6149 11.388 34.2429 10.984 33.9709 10.464C33.6989 9.944 33.5629 9.352 33.5629 8.688ZM39.1309 8.7C39.1309 8.204 39.0309 7.772 38.8309 7.404C38.6309 7.036 38.3589 6.756 38.0149 6.564C37.6789 6.364 37.3069 6.264 36.8989 6.264C36.4909 6.264 36.1189 6.36 35.7829 6.552C35.4469 6.744 35.1789 7.024 34.9789 7.392C34.7789 7.76 34.6789 8.192 34.6789 8.688C34.6789 9.192 34.7789 9.632 34.9789 10.008C35.1789 10.376 35.4469 10.66 35.7829 10.86C36.1189 11.052 36.4909 11.148 36.8989 11.148C37.3069 11.148 37.6789 11.052 38.0149 10.86C38.3589 10.66 38.6309 10.376 38.8309 10.008C39.0309 9.632 39.1309 9.196 39.1309 8.7ZM45.2843 5.304C46.0843 5.304 46.7323 5.548 47.2283 6.036C47.7243 6.516 47.9723 7.212 47.9723 8.124V12H46.8923V8.28C46.8923 7.624 46.7283 7.124 46.4003 6.78C46.0723 6.428 45.6243 6.252 45.0563 6.252C44.4803 6.252 44.0203 6.432 43.6763 6.792C43.3403 7.152 43.1723 7.676 43.1723 8.364V12H42.0803V5.424H43.1723V6.36C43.3883 6.024 43.6803 5.764 44.0483 5.58C44.4243 5.396 44.8363 5.304 45.2843 5.304ZM49.348 8.688C49.348 8.016 49.484 7.428 49.756 6.924C50.028 6.412 50.4 6.016 50.872 5.736C51.352 5.456 51.888 5.316 52.48 5.316C52.992 5.316 53.468 5.436 53.908 5.676C54.348 5.908 54.684 6.216 54.916 6.6V3.12H56.02V12H54.916V10.764C54.7 11.156 54.38 11.48 53.956 11.736C53.532 11.984 53.036 12.108 52.468 12.108C51.884 12.108 51.352 11.964 50.872 11.676C50.4 11.388 50.028 10.984 49.756 10.464C49.484 9.944 49.348 9.352 49.348 8.688ZM54.916 8.7C54.916 8.204 54.816 7.772 54.616 7.404C54.416 7.036 54.144 6.756 53.8 6.564C53.464 6.364 53.092 6.264 52.684 6.264C52.276 6.264 51.904 6.36 51.568 6.552C51.232 6.744 50.964 7.024 50.764 7.392C50.564 7.76 50.464 8.192 50.464 8.688C50.464 9.192 50.564 9.632 50.764 10.008C50.964 10.376 51.232 10.66 51.568 10.86C51.904 11.052 52.276 11.148 52.684 11.148C53.092 11.148 53.464 11.052 53.8 10.86C54.144 10.66 54.416 10.376 54.616 10.008C54.816 9.632 54.916 9.196 54.916 8.7ZM62.1566 6.636C62.3726 6.26 62.6926 5.948 63.1166 5.7C63.5486 5.444 64.0486 5.316 64.6166 5.316C65.2006 5.316 65.7286 5.456 66.2006 5.736C66.6806 6.016 67.0566 6.412 67.3286 6.924C67.6006 7.428 67.7366 8.016 67.7366 8.688C67.7366 9.352 67.6006 9.944 67.3286 10.464C67.0566 10.984 66.6806 11.388 66.2006 11.676C65.7286 11.964 65.2006 12.108 64.6166 12.108C64.0566 12.108 63.5606 11.984 63.1286 11.736C62.7046 11.48 62.3806 11.164 62.1566 10.788V15.12H61.0646V5.424H62.1566V6.636ZM66.6206 8.688C66.6206 8.192 66.5206 7.76 66.3206 7.392C66.1206 7.024 65.8486 6.744 65.5046 6.552C65.1686 6.36 64.7966 6.264 64.3886 6.264C63.9886 6.264 63.6166 6.364 63.2726 6.564C62.9366 6.756 62.6646 7.04 62.4566 7.416C62.2566 7.784 62.1566 8.212 62.1566 8.7C62.1566 9.196 62.2566 9.632 62.4566 10.008C62.6646 10.376 62.9366 10.66 63.2726 10.86C63.6166 11.052 63.9886 11.148 64.3886 11.148C64.7966 11.148 65.1686 11.052 65.5046 10.86C65.8486 10.66 66.1206 10.376 66.3206 10.008C66.5206 9.632 66.6206 9.192 66.6206 8.688ZM75.006 5.424V12H73.914V11.028C73.706 11.364 73.414 11.628 73.038 11.82C72.67 12.004 72.262 12.096 71.814 12.096C71.302 12.096 70.842 11.992 70.434 11.784C70.026 11.568 69.702 11.248 69.462 10.824C69.23 10.4 69.114 9.884 69.114 9.276V5.424H70.194V9.132C70.194 9.78 70.358 10.28 70.686 10.632C71.014 10.976 71.462 11.148 72.03 11.148C72.614 11.148 73.074 10.968 73.41 10.608C73.746 10.248 73.914 9.724 73.914 9.036V5.424H75.006ZM77.9418 6.492C78.1338 6.116 78.4058 5.824 78.7578 5.616C79.1178 5.408 79.5538 5.304 80.0658 5.304V6.432H79.7778C78.5538 6.432 77.9418 7.096 77.9418 8.424V12H76.8498V5.424H77.9418V6.492ZM83.6543 12.108C83.1503 12.108 82.6983 12.024 82.2983 11.856C81.8983 11.68 81.5823 11.44 81.3503 11.136C81.1183 10.824 80.9903 10.468 80.9663 10.068H82.0943C82.1263 10.396 82.2783 10.664 82.5503 10.872C82.8303 11.08 83.1943 11.184 83.6423 11.184C84.0583 11.184 84.3863 11.092 84.6263 10.908C84.8663 10.724 84.9863 10.492 84.9863 10.212C84.9863 9.924 84.8583 9.712 84.6023 9.576C84.3463 9.432 83.9503 9.292 83.4143 9.156C82.9263 9.028 82.5263 8.9 82.2143 8.772C81.9103 8.636 81.6463 8.44 81.4223 8.184C81.2063 7.92 81.0983 7.576 81.0983 7.152C81.0983 6.816 81.1983 6.508 81.3983 6.228C81.5983 5.948 81.8823 5.728 82.2503 5.568C82.6183 5.4 83.0383 5.316 83.5103 5.316C84.2383 5.316 84.8263 5.5 85.2743 5.868C85.7223 6.236 85.9623 6.74 85.9943 7.38H84.9023C84.8783 7.036 84.7383 6.76 84.4823 6.552C84.2343 6.344 83.8983 6.24 83.4743 6.24C83.0823 6.24 82.7703 6.324 82.5383 6.492C82.3063 6.66 82.1903 6.88 82.1903 7.152C82.1903 7.368 82.2583 7.548 82.3943 7.692C82.5383 7.828 82.7143 7.94 82.9223 8.028C83.1383 8.108 83.4343 8.2 83.8103 8.304C84.2823 8.432 84.6663 8.56 84.9623 8.688C85.2583 8.808 85.5103 8.992 85.7183 9.24C85.9343 9.488 86.0463 9.812 86.0543 10.212C86.0543 10.572 85.9543 10.896 85.7543 11.184C85.5543 11.472 85.2703 11.7 84.9023 11.868C84.5423 12.028 84.1263 12.108 83.6543 12.108ZM93.5959 8.46C93.5959 8.668 93.5839 8.888 93.5599 9.12H88.3039C88.3439 9.768 88.5639 10.276 88.9639 10.644C89.3719 11.004 89.8639 11.184 90.4399 11.184C90.9119 11.184 91.3039 11.076 91.6159 10.86C91.9359 10.636 92.1599 10.34 92.2879 9.972H93.4639C93.2879 10.604 92.9359 11.12 92.4079 11.52C91.8799 11.912 91.2239 12.108 90.4399 12.108C89.8159 12.108 89.2559 11.968 88.7599 11.688C88.2719 11.408 87.8879 11.012 87.6079 10.5C87.3279 9.98 87.1879 9.38 87.1879 8.7C87.1879 8.02 87.3239 7.424 87.5959 6.912C87.8679 6.4 88.2479 6.008 88.7359 5.736C89.2319 5.456 89.7999 5.316 90.4399 5.316C91.0639 5.316 91.6159 5.452 92.0959 5.724C92.5759 5.996 92.9439 6.372 93.1999 6.852C93.4639 7.324 93.5959 7.86 93.5959 8.46ZM92.4679 8.232C92.4679 7.816 92.3759 7.46 92.1919 7.164C92.0079 6.86 91.7559 6.632 91.4359 6.48C91.1239 6.32 90.7759 6.24 90.3919 6.24C89.8399 6.24 89.3679 6.416 88.9759 6.768C88.5919 7.12 88.3719 7.608 88.3159 8.232H92.4679ZM97.3653 12.108C96.8613 12.108 96.4093 12.024 96.0093 11.856C95.6093 11.68 95.2933 11.44 95.0613 11.136C94.8293 10.824 94.7013 10.468 94.6773 10.068H95.8053C95.8373 10.396 95.9893 10.664 96.2613 10.872C96.5413 11.08 96.9053 11.184 97.3533 11.184C97.7693 11.184 98.0973 11.092 98.3373 10.908C98.5773 10.724 98.6973 10.492 98.6973 10.212C98.6973 9.924 98.5693 9.712 98.3133 9.576C98.0573 9.432 97.6613 9.292 97.1253 9.156C96.6373 9.028 96.2373 8.9 95.9253 8.772C95.6213 8.636 95.3573 8.44 95.1333 8.184C94.9173 7.92 94.8093 7.576 94.8093 7.152C94.8093 6.816 94.9093 6.508 95.1093 6.228C95.3093 5.948 95.5933 5.728 95.9613 5.568C96.3293 5.4 96.7493 5.316 97.2213 5.316C97.9493 5.316 98.5373 5.5 98.9853 5.868C99.4333 6.236 99.6733 6.74 99.7053 7.38H98.6133C98.5893 7.036 98.4493 6.76 98.1933 6.552C97.9453 6.344 97.6093 6.24 97.1853 6.24C96.7933 6.24 96.4813 6.324 96.2493 6.492C96.0173 6.66 95.9013 6.88 95.9013 7.152C95.9013 7.368 95.9693 7.548 96.1053 7.692C96.2493 7.828 96.4253 7.94 96.6333 8.028C96.8493 8.108 97.1453 8.2 97.5213 8.304C97.9933 8.432 98.3773 8.56 98.6733 8.688C98.9693 8.808 99.2213 8.992 99.4293 9.24C99.6453 9.488 99.7573 9.812 99.7653 10.212C99.7653 10.572 99.6653 10.896 99.4653 11.184C99.2653 11.472 98.9813 11.7 98.6133 11.868C98.2533 12.028 97.8373 12.108 97.3653 12.108ZM107.314 14.232C106.546 13.48 105.946 12.524 105.514 11.364C105.09 10.204 104.878 8.952 104.878 7.608C104.878 6.232 105.102 4.948 105.55 3.756C106.006 2.556 106.654 1.568 107.494 0.792H108.634V0.899999C107.738 1.74 107.062 2.752 106.606 3.936C106.158 5.112 105.934 6.336 105.934 7.608C105.934 8.848 106.146 10.032 106.57 11.16C107.002 12.288 107.63 13.276 108.454 14.124V14.232H107.314ZM114.611 5.388C114.435 4.5 113.887 4.056 112.967 4.056C112.255 4.056 111.723 4.332 111.371 4.884C111.019 5.428 110.847 6.328 110.855 7.584C111.039 7.168 111.343 6.844 111.767 6.612C112.199 6.372 112.679 6.252 113.207 6.252C114.031 6.252 114.687 6.508 115.175 7.02C115.671 7.532 115.919 8.24 115.919 9.144C115.919 9.688 115.811 10.176 115.595 10.608C115.387 11.04 115.067 11.384 114.635 11.64C114.211 11.896 113.695 12.024 113.087 12.024C112.263 12.024 111.619 11.84 111.155 11.472C110.691 11.104 110.367 10.596 110.183 9.948C109.999 9.3 109.907 8.5 109.907 7.548C109.907 4.612 110.931 3.144 112.979 3.144C113.763 3.144 114.379 3.356 114.827 3.78C115.275 4.204 115.539 4.74 115.619 5.388H114.611ZM112.979 7.176C112.635 7.176 112.311 7.248 112.007 7.392C111.703 7.528 111.455 7.74 111.263 8.028C111.079 8.308 110.987 8.652 110.987 9.06C110.987 9.668 111.163 10.164 111.515 10.548C111.867 10.924 112.371 11.112 113.027 11.112C113.587 11.112 114.031 10.94 114.359 10.596C114.695 10.244 114.863 9.772 114.863 9.18C114.863 8.556 114.703 8.068 114.383 7.716C114.063 7.356 113.595 7.176 112.979 7.176ZM117.392 7.572C117.392 6.196 117.616 5.124 118.064 4.356C118.512 3.58 119.296 3.192 120.416 3.192C121.528 3.192 122.308 3.58 122.756 4.356C123.204 5.124 123.428 6.196 123.428 7.572C123.428 8.972 123.204 10.06 122.756 10.836C122.308 11.612 121.528 12 120.416 12C119.296 12 118.512 11.612 118.064 10.836C117.616 10.06 117.392 8.972 117.392 7.572ZM122.348 7.572C122.348 6.876 122.3 6.288 122.204 5.808C122.116 5.32 121.928 4.928 121.64 4.632C121.36 4.336 120.952 4.188 120.416 4.188C119.872 4.188 119.456 4.336 119.168 4.632C118.888 4.928 118.7 5.32 118.604 5.808C118.516 6.288 118.472 6.876 118.472 7.572C118.472 8.292 118.516 8.896 118.604 9.384C118.7 9.872 118.888 10.264 119.168 10.56C119.456 10.856 119.872 11.004 120.416 11.004C120.952 11.004 121.36 10.856 121.64 10.56C121.928 10.264 122.116 9.872 122.204 9.384C122.3 8.896 122.348 8.292 122.348 7.572ZM124.76 14.232V14.124C125.584 13.276 126.208 12.288 126.632 11.16C127.064 10.032 127.28 8.848 127.28 7.608C127.28 6.336 127.052 5.112 126.596 3.936C126.148 2.752 125.476 1.74 124.58 0.899999V0.792H125.72C126.56 1.568 127.204 2.556 127.652 3.756C128.108 4.948 128.336 6.232 128.336 7.608C128.336 8.952 128.12 10.204 127.688 11.364C127.264 12.524 126.668 13.48 125.9 14.232H124.76Z" fill="black"/>
</svg>
