<svg width="40" height="13" viewBox="0 0 40 13" fill="none" xmlns="http://www.w3.org/2000/svg">
<path d="M6.152 6.288C6.74933 6.39467 7.256 6.70933 7.672 7.232C8.088 7.75467 8.296 8.34667 8.296 9.008C8.296 9.57333 8.14667 10.0853 7.848 10.544C7.56 10.992 7.13867 11.3493 6.584 11.616C6.02933 11.872 5.384 12 4.648 12H0.2V0.879999H4.44C5.19733 0.879999 5.848 1.008 6.392 1.264C6.936 1.52 7.34667 1.86667 7.624 2.304C7.90133 2.73067 8.04 3.21067 8.04 3.744C8.04 4.384 7.86933 4.91733 7.528 5.344C7.18667 5.77067 6.728 6.08533 6.152 6.288ZM2.024 5.552H4.28C4.87733 5.552 5.34133 5.41867 5.672 5.152C6.01333 4.87467 6.184 4.48 6.184 3.968C6.184 3.46667 6.01333 3.07733 5.672 2.8C5.34133 2.512 4.87733 2.368 4.28 2.368H2.024V5.552ZM4.488 10.512C5.10667 10.512 5.592 10.3627 5.944 10.064C6.296 9.76533 6.472 9.34933 6.472 8.816C6.472 8.272 6.28533 7.84 5.912 7.52C5.53867 7.2 5.04267 7.04 4.424 7.04H2.024V10.512H4.488ZM9.67013 7.552C9.67013 6.66667 9.85146 5.88267 10.2141 5.2C10.5875 4.51733 11.0888 3.98933 11.7181 3.616C12.3581 3.232 13.0621 3.04 13.8301 3.04C14.5235 3.04 15.1261 3.17867 15.6381 3.456C16.1608 3.72267 16.5768 4.05867 16.8861 4.464V3.184H18.7261V12H16.8861V10.688C16.5768 11.104 16.1555 11.4507 15.6221 11.728C15.0888 12.0053 14.4808 12.144 13.7981 12.144C13.0408 12.144 12.3475 11.952 11.7181 11.568C11.0888 11.1733 10.5875 10.6293 10.2141 9.936C9.85146 9.232 9.67013 8.43733 9.67013 7.552ZM16.8861 7.584C16.8861 6.976 16.7581 6.448 16.5021 6C16.2568 5.552 15.9315 5.21067 15.5261 4.976C15.1208 4.74133 14.6835 4.624 14.2141 4.624C13.7448 4.624 13.3075 4.74133 12.9021 4.976C12.4968 5.2 12.1661 5.536 11.9101 5.984C11.6648 6.42133 11.5421 6.944 11.5421 7.552C11.5421 8.16 11.6648 8.69333 11.9101 9.152C12.1661 9.61067 12.4968 9.96267 12.9021 10.208C13.3181 10.4427 13.7555 10.56 14.2141 10.56C14.6835 10.56 15.1208 10.4427 15.5261 10.208C15.9315 9.97333 16.2568 9.632 16.5021 9.184C16.7581 8.72533 16.8861 8.192 16.8861 7.584ZM25.5699 3.04C26.2632 3.04 26.8819 3.184 27.4259 3.472C27.9805 3.76 28.4125 4.18667 28.7219 4.752C29.0312 5.31733 29.1859 6 29.1859 6.8V12H27.3779V7.072C27.3779 6.28267 27.1805 5.68 26.7859 5.264C26.3912 4.83733 25.8525 4.624 25.1699 4.624C24.4872 4.624 23.9432 4.83733 23.5379 5.264C23.1432 5.68 22.9459 6.28267 22.9459 7.072V12H21.1219V3.184H22.9459V4.192C23.2445 3.82933 23.6232 3.54667 24.0819 3.344C24.5512 3.14133 25.0472 3.04 25.5699 3.04ZM35.0005 7.6L39.0645 12H36.6005L33.3365 8.208V12H31.5125V0.16H33.3365V7.04L36.5365 3.184H39.0645L35.0005 7.6Z" fill="#140D4F"/>
</svg>
