<svg width="44" height="15" viewBox="0 0 44 15" fill="none" xmlns="http://www.w3.org/2000/svg">
<path d="M0.516 7.812C0.516 6.996 0.7 6.264 1.068 5.616C1.436 4.96 1.936 4.448 2.568 4.08C3.208 3.712 3.916 3.528 4.692 3.528C5.604 3.528 6.4 3.748 7.08 4.188C7.76 4.628 8.256 5.252 8.568 6.06H7.26C7.028 5.556 6.692 5.168 6.252 4.896C5.82 4.624 5.3 4.488 4.692 4.488C4.108 4.488 3.584 4.624 3.12 4.896C2.656 5.168 2.292 5.556 2.028 6.06C1.764 6.556 1.632 7.14 1.632 7.812C1.632 8.476 1.764 9.06 2.028 9.564C2.292 10.06 2.656 10.444 3.12 10.716C3.584 10.988 4.108 11.124 4.692 11.124C5.3 11.124 5.82 10.992 6.252 10.728C6.692 10.456 7.028 10.068 7.26 9.564H8.568C8.256 10.364 7.76 10.984 7.08 11.424C6.4 11.856 5.604 12.072 4.692 12.072C3.916 12.072 3.208 11.892 2.568 11.532C1.936 11.164 1.436 10.656 1.068 10.008C0.7 9.36 0.516 8.628 0.516 7.812ZM10.7575 4.356C10.5495 4.356 10.3735 4.284 10.2295 4.14C10.0855 3.996 10.0135 3.82 10.0135 3.612C10.0135 3.404 10.0855 3.228 10.2295 3.084C10.3735 2.94 10.5495 2.868 10.7575 2.868C10.9575 2.868 11.1255 2.94 11.2615 3.084C11.4055 3.228 11.4775 3.404 11.4775 3.612C11.4775 3.82 11.4055 3.996 11.2615 4.14C11.1255 4.284 10.9575 4.356 10.7575 4.356ZM11.2855 5.424V12H10.1935V5.424H11.2855ZM14.4787 6.324V10.2C14.4787 10.52 14.5467 10.748 14.6827 10.884C14.8187 11.012 15.0547 11.076 15.3907 11.076H16.1947V12H15.2107C14.6027 12 14.1467 11.86 13.8427 11.58C13.5387 11.3 13.3867 10.84 13.3867 10.2V6.324H12.5347V5.424H13.3867V3.768H14.4787V5.424H16.1947V6.324H14.4787ZM18.0818 4.356C17.8738 4.356 17.6978 4.284 17.5538 4.14C17.4098 3.996 17.3378 3.82 17.3378 3.612C17.3378 3.404 17.4098 3.228 17.5538 3.084C17.6978 2.94 17.8738 2.868 18.0818 2.868C18.2818 2.868 18.4498 2.94 18.5858 3.084C18.7298 3.228 18.8018 3.404 18.8018 3.612C18.8018 3.82 18.7298 3.996 18.5858 4.14C18.4498 4.284 18.2818 4.356 18.0818 4.356ZM18.6098 5.424V12H17.5178V5.424H18.6098ZM26.4781 14.232C25.7101 13.48 25.1101 12.524 24.6781 11.364C24.2541 10.204 24.0421 8.952 24.0421 7.608C24.0421 6.232 24.2661 4.948 24.7141 3.756C25.1701 2.556 25.8181 1.568 26.6581 0.792H27.7981V0.899999C26.9021 1.74 26.2261 2.752 25.7701 3.936C25.3221 5.112 25.0981 6.336 25.0981 7.608C25.0981 8.848 25.3101 10.032 25.7341 11.16C26.1661 12.288 26.7941 13.276 27.6181 14.124V14.232H26.4781ZM28.6513 4.32V3.324H30.9073V12H29.8033V4.32H28.6513ZM37.6191 5.388C37.4431 4.5 36.8951 4.056 35.9751 4.056C35.2631 4.056 34.7311 4.332 34.3791 4.884C34.0271 5.428 33.8551 6.328 33.8631 7.584C34.0471 7.168 34.3511 6.844 34.7751 6.612C35.2071 6.372 35.6871 6.252 36.2151 6.252C37.0391 6.252 37.6951 6.508 38.1831 7.02C38.6791 7.532 38.9271 8.24 38.9271 9.144C38.9271 9.688 38.8191 10.176 38.6031 10.608C38.3951 11.04 38.0751 11.384 37.6431 11.64C37.2191 11.896 36.7031 12.024 36.0951 12.024C35.2711 12.024 34.6271 11.84 34.1631 11.472C33.6991 11.104 33.3751 10.596 33.1911 9.948C33.0071 9.3 32.9151 8.5 32.9151 7.548C32.9151 4.612 33.9391 3.144 35.9871 3.144C36.7711 3.144 37.3871 3.356 37.8351 3.78C38.2831 4.204 38.5471 4.74 38.6271 5.388H37.6191ZM35.9871 7.176C35.6431 7.176 35.3191 7.248 35.0151 7.392C34.7111 7.528 34.4631 7.74 34.2711 8.028C34.0871 8.308 33.9951 8.652 33.9951 9.06C33.9951 9.668 34.1711 10.164 34.5231 10.548C34.8751 10.924 35.3791 11.112 36.0351 11.112C36.5951 11.112 37.0391 10.94 37.3671 10.596C37.7031 10.244 37.8711 9.772 37.8711 9.18C37.8711 8.556 37.7111 8.068 37.3911 7.716C37.0711 7.356 36.6031 7.176 35.9871 7.176ZM40.2323 14.232V14.124C41.0563 13.276 41.6803 12.288 42.1043 11.16C42.5363 10.032 42.7523 8.848 42.7523 7.608C42.7523 6.336 42.5243 5.112 42.0683 3.936C41.6203 2.752 40.9483 1.74 40.0522 0.899999V0.792H41.1923C42.0323 1.568 42.6763 2.556 43.1243 3.756C43.5803 4.948 43.8083 6.232 43.8083 7.608C43.8083 8.952 43.5923 10.204 43.1603 11.364C42.7363 12.524 42.1403 13.48 41.3723 14.232H40.2323Z" fill="black"/>
</svg>
