<svg width="88" height="16" viewBox="0 0 88 16" fill="none" xmlns="http://www.w3.org/2000/svg">
<path d="M0.444 7.812C0.444 6.996 0.632 6.264 1.008 5.616C1.392 4.968 1.908 4.464 2.556 4.104C3.212 3.736 3.928 3.552 4.704 3.552C5.592 3.552 6.38 3.772 7.068 4.212C7.764 4.644 8.268 5.26 8.58 6.06H6.936C6.72 5.62 6.42 5.292 6.036 5.076C5.652 4.86 5.208 4.752 4.704 4.752C4.152 4.752 3.66 4.876 3.228 5.124C2.796 5.372 2.456 5.728 2.208 6.192C1.968 6.656 1.848 7.196 1.848 7.812C1.848 8.428 1.968 8.968 2.208 9.432C2.456 9.896 2.796 10.256 3.228 10.512C3.66 10.76 4.152 10.884 4.704 10.884C5.208 10.884 5.652 10.776 6.036 10.56C6.42 10.344 6.72 10.016 6.936 9.576H8.58C8.268 10.376 7.764 10.992 7.068 11.424C6.38 11.856 5.592 12.072 4.704 12.072C3.92 12.072 3.204 11.892 2.556 11.532C1.908 11.164 1.392 10.656 1.008 10.008C0.632 9.36 0.444 8.628 0.444 7.812ZM13.0493 12.108C12.4253 12.108 11.8613 11.968 11.3573 11.688C10.8533 11.4 10.4573 11 10.1693 10.488C9.88125 9.968 9.73725 9.368 9.73725 8.688C9.73725 8.016 9.88525 7.42 10.1813 6.9C10.4773 6.38 10.8813 5.98 11.3933 5.7C11.9053 5.42 12.4773 5.28 13.1093 5.28C13.7413 5.28 14.3133 5.42 14.8253 5.7C15.3373 5.98 15.7413 6.38 16.0373 6.9C16.3333 7.42 16.4813 8.016 16.4813 8.688C16.4813 9.36 16.3293 9.956 16.0253 10.476C15.7213 10.996 15.3053 11.4 14.7773 11.688C14.2573 11.968 13.6813 12.108 13.0493 12.108ZM13.0493 10.92C13.4013 10.92 13.7293 10.836 14.0333 10.668C14.3453 10.5 14.5973 10.248 14.7893 9.912C14.9813 9.576 15.0773 9.168 15.0773 8.688C15.0773 8.208 14.9853 7.804 14.8013 7.476C14.6173 7.14 14.3733 6.888 14.0693 6.72C13.7653 6.552 13.4373 6.468 13.0853 6.468C12.7333 6.468 12.4053 6.552 12.1013 6.72C11.8053 6.888 11.5693 7.14 11.3933 7.476C11.2173 7.804 11.1293 8.208 11.1293 8.688C11.1293 9.4 11.3093 9.952 11.6693 10.344C12.0373 10.728 12.4973 10.92 13.0493 10.92ZM23.8216 5.388V12H22.4536V11.22C22.2376 11.492 21.9536 11.708 21.6016 11.868C21.2576 12.02 20.8896 12.096 20.4976 12.096C19.9776 12.096 19.5096 11.988 19.0936 11.772C18.6856 11.556 18.3616 11.236 18.1216 10.812C17.8896 10.388 17.7736 9.876 17.7736 9.276V5.388H19.1296V9.072C19.1296 9.664 19.2776 10.12 19.5736 10.44C19.8696 10.752 20.2736 10.908 20.7856 10.908C21.2976 10.908 21.7016 10.752 21.9976 10.44C22.3016 10.12 22.4536 9.664 22.4536 9.072V5.388H23.8216ZM26.9946 6.36C27.2266 6.056 27.5426 5.8 27.9426 5.592C28.3426 5.384 28.7946 5.28 29.2986 5.28C29.8746 5.28 30.3986 5.424 30.8706 5.712C31.3506 5.992 31.7266 6.388 31.9986 6.9C32.2706 7.412 32.4066 8 32.4066 8.664C32.4066 9.328 32.2706 9.924 31.9986 10.452C31.7266 10.972 31.3506 11.38 30.8706 11.676C30.3986 11.964 29.8746 12.108 29.2986 12.108C28.7946 12.108 28.3466 12.008 27.9546 11.808C27.5626 11.6 27.2426 11.344 26.9946 11.04V15.144H25.6266V5.388H26.9946V6.36ZM31.0146 8.664C31.0146 8.208 30.9186 7.816 30.7266 7.488C30.5426 7.152 30.2946 6.9 29.9826 6.732C29.6786 6.556 29.3506 6.468 28.9986 6.468C28.6546 6.468 28.3266 6.556 28.0146 6.732C27.7106 6.908 27.4626 7.164 27.2706 7.5C27.0866 7.836 26.9946 8.232 26.9946 8.688C26.9946 9.144 27.0866 9.544 27.2706 9.888C27.4626 10.224 27.7106 10.48 28.0146 10.656C28.3266 10.832 28.6546 10.92 28.9986 10.92C29.3506 10.92 29.6786 10.832 29.9826 10.656C30.2946 10.472 30.5426 10.208 30.7266 9.864C30.9186 9.52 31.0146 9.12 31.0146 8.664ZM36.6274 12.108C36.0034 12.108 35.4394 11.968 34.9354 11.688C34.4314 11.4 34.0354 11 33.7474 10.488C33.4594 9.968 33.3154 9.368 33.3154 8.688C33.3154 8.016 33.4634 7.42 33.7594 6.9C34.0554 6.38 34.4594 5.98 34.9714 5.7C35.4834 5.42 36.0554 5.28 36.6874 5.28C37.3194 5.28 37.8914 5.42 38.4034 5.7C38.9154 5.98 39.3194 6.38 39.6154 6.9C39.9114 7.42 40.0594 8.016 40.0594 8.688C40.0594 9.36 39.9074 9.956 39.6034 10.476C39.2994 10.996 38.8834 11.4 38.3554 11.688C37.8354 11.968 37.2594 12.108 36.6274 12.108ZM36.6274 10.92C36.9794 10.92 37.3074 10.836 37.6114 10.668C37.9234 10.5 38.1754 10.248 38.3674 9.912C38.5594 9.576 38.6554 9.168 38.6554 8.688C38.6554 8.208 38.5634 7.804 38.3794 7.476C38.1954 7.14 37.9514 6.888 37.6474 6.72C37.3434 6.552 37.0154 6.468 36.6634 6.468C36.3114 6.468 35.9834 6.552 35.6794 6.72C35.3834 6.888 35.1474 7.14 34.9714 7.476C34.7954 7.804 34.7074 8.208 34.7074 8.688C34.7074 9.4 34.8874 9.952 35.2474 10.344C35.6154 10.728 36.0754 10.92 36.6274 10.92ZM44.7477 5.28C45.2677 5.28 45.7317 5.388 46.1397 5.604C46.5557 5.82 46.8797 6.14 47.1117 6.564C47.3437 6.988 47.4597 7.5 47.4597 8.1V12H46.1037V8.304C46.1037 7.712 45.9557 7.26 45.6597 6.948C45.3637 6.628 44.9597 6.468 44.4477 6.468C43.9357 6.468 43.5277 6.628 43.2237 6.948C42.9277 7.26 42.7797 7.712 42.7797 8.304V12H41.4117V5.388H42.7797V6.144C43.0037 5.872 43.2877 5.66 43.6317 5.508C43.9837 5.356 44.3557 5.28 44.7477 5.28ZM51.6047 12.108C51.0847 12.108 50.6167 12.016 50.2007 11.832C49.7927 11.64 49.4687 11.384 49.2287 11.064C48.9887 10.736 48.8607 10.372 48.8447 9.972H50.2607C50.2847 10.252 50.4167 10.488 50.6567 10.68C50.9047 10.864 51.2127 10.956 51.5807 10.956C51.9647 10.956 52.2607 10.884 52.4687 10.74C52.6847 10.588 52.7927 10.396 52.7927 10.164C52.7927 9.916 52.6727 9.732 52.4327 9.612C52.2007 9.492 51.8287 9.36 51.3167 9.216C50.8207 9.08 50.4167 8.948 50.1047 8.82C49.7927 8.692 49.5207 8.496 49.2887 8.232C49.0647 7.968 48.9527 7.62 48.9527 7.188C48.9527 6.836 49.0567 6.516 49.2647 6.228C49.4727 5.932 49.7687 5.7 50.1527 5.532C50.5447 5.364 50.9927 5.28 51.4967 5.28C52.2487 5.28 52.8527 5.472 53.3087 5.856C53.7727 6.232 54.0207 6.748 54.0527 7.404H52.6847C52.6607 7.108 52.5407 6.872 52.3247 6.696C52.1087 6.52 51.8167 6.432 51.4487 6.432C51.0887 6.432 50.8127 6.5 50.6207 6.636C50.4287 6.772 50.3327 6.952 50.3327 7.176C50.3327 7.352 50.3967 7.5 50.5247 7.62C50.6527 7.74 50.8087 7.836 50.9927 7.908C51.1767 7.972 51.4487 8.056 51.8087 8.16C52.2887 8.288 52.6807 8.42 52.9847 8.556C53.2967 8.684 53.5647 8.876 53.7887 9.132C54.0127 9.388 54.1287 9.728 54.1367 10.152C54.1367 10.528 54.0327 10.864 53.8247 11.16C53.6167 11.456 53.3207 11.688 52.9367 11.856C52.5607 12.024 52.1167 12.108 51.6047 12.108ZM61.756 14.232C60.972 13.48 60.368 12.524 59.944 11.364C59.528 10.204 59.32 8.96 59.32 7.632C59.32 6.272 59.544 4.988 59.992 3.78C60.448 2.572 61.116 1.576 61.996 0.792H63.412V0.924C62.492 1.772 61.8 2.788 61.336 3.972C60.872 5.156 60.64 6.376 60.64 7.632C60.64 8.84 60.856 10.008 61.288 11.136C61.72 12.264 62.348 13.252 63.172 14.1V14.232H61.756ZM64.2783 4.5V3.252H66.7743V12H65.3943V4.5H64.2783ZM68.6536 7.512C68.6536 6.128 68.8856 5.048 69.3496 4.272C69.8216 3.488 70.6296 3.096 71.7736 3.096C72.9176 3.096 73.7216 3.488 74.1856 4.272C74.6576 5.048 74.8936 6.128 74.8936 7.512C74.8936 8.912 74.6576 10.008 74.1856 10.8C73.7216 11.584 72.9176 11.976 71.7736 11.976C70.6296 11.976 69.8216 11.584 69.3496 10.8C68.8856 10.008 68.6536 8.912 68.6536 7.512ZM73.5496 7.512C73.5496 6.864 73.5056 6.316 73.4176 5.868C73.3376 5.42 73.1696 5.056 72.9136 4.776C72.6576 4.488 72.2776 4.344 71.7736 4.344C71.2696 4.344 70.8896 4.488 70.6336 4.776C70.3776 5.056 70.2056 5.42 70.1176 5.868C70.0376 6.316 69.9976 6.864 69.9976 7.512C69.9976 8.184 70.0376 8.748 70.1176 9.204C70.1976 9.66 70.3656 10.028 70.6216 10.308C70.8856 10.588 71.2696 10.728 71.7736 10.728C72.2776 10.728 72.6576 10.588 72.9136 10.308C73.1776 10.028 73.3496 9.66 73.4296 9.204C73.5096 8.748 73.5496 8.184 73.5496 7.512ZM81.0451 5.28C80.9571 4.912 80.7971 4.636 80.5651 4.452C80.3331 4.268 80.0091 4.176 79.5931 4.176C78.9611 4.176 78.4891 4.42 78.1771 4.908C77.8651 5.388 77.7011 6.188 77.6851 7.308C77.8931 6.956 78.1971 6.684 78.5971 6.492C78.9971 6.3 79.4291 6.204 79.8931 6.204C80.4211 6.204 80.8851 6.32 81.2851 6.552C81.6931 6.776 82.0091 7.104 82.2331 7.536C82.4651 7.968 82.5811 8.484 82.5811 9.084C82.5811 9.644 82.4691 10.144 82.2451 10.584C82.0291 11.024 81.7051 11.372 81.2731 11.628C80.8411 11.876 80.3211 12 79.7131 12C78.8891 12 78.2411 11.82 77.7691 11.46C77.3051 11.092 76.9771 10.576 76.7851 9.912C76.6011 9.248 76.5091 8.42 76.5091 7.428C76.5091 4.5 77.5411 3.036 79.6051 3.036C80.4051 3.036 81.0331 3.252 81.4891 3.684C81.9531 4.116 82.2251 4.648 82.3051 5.28H81.0451ZM79.5931 7.356C79.1051 7.356 78.6891 7.504 78.3451 7.8C78.0091 8.088 77.8411 8.508 77.8411 9.06C77.8411 9.612 77.9971 10.052 78.3091 10.38C78.6291 10.7 79.0731 10.86 79.6411 10.86C80.1451 10.86 80.5411 10.704 80.8291 10.392C81.1251 10.08 81.2731 9.664 81.2731 9.144C81.2731 8.6 81.1291 8.168 80.8411 7.848C80.5611 7.52 80.1451 7.356 79.5931 7.356ZM83.8843 14.232V14.1C84.7083 13.252 85.3363 12.264 85.7683 11.136C86.2003 10.008 86.4163 8.84 86.4163 7.632C86.4163 6.376 86.1843 5.156 85.7203 3.972C85.2563 2.788 84.5643 1.772 83.6443 0.924V0.792H85.0603C85.9403 1.576 86.6043 2.572 87.0523 3.78C87.5083 4.988 87.7363 6.272 87.7363 7.632C87.7363 8.96 87.5243 10.204 87.1003 11.364C86.6843 12.524 86.0843 13.48 85.3003 14.232H83.8843Z" fill="#140D4F"/>
</svg>
