<svg width="67" height="15" viewBox="0 0 67 15" fill="none" xmlns="http://www.w3.org/2000/svg">
<path d="M3.624 3.66C4.512 3.66 5.288 3.832 5.952 4.176C6.624 4.512 7.14 5 7.5 5.64C7.868 6.272 8.052 7.012 8.052 7.86C8.052 8.708 7.868 9.444 7.5 10.068C7.14 10.692 6.624 11.172 5.952 11.508C5.288 11.836 4.512 12 3.624 12H0.9V3.66H3.624ZM3.624 10.884C4.6 10.884 5.348 10.62 5.868 10.092C6.388 9.564 6.648 8.82 6.648 7.86C6.648 6.892 6.388 6.136 5.868 5.592C5.348 5.048 4.6 4.776 3.624 4.776H2.268V10.884H3.624ZM15.4678 8.532C15.4678 8.78 15.4518 9.004 15.4198 9.204H10.3678C10.4078 9.732 10.6038 10.156 10.9558 10.476C11.3078 10.796 11.7398 10.956 12.2518 10.956C12.9878 10.956 13.5078 10.648 13.8118 10.032H15.2878C15.0878 10.64 14.7238 11.14 14.1958 11.532C13.6758 11.916 13.0278 12.108 12.2518 12.108C11.6198 12.108 11.0518 11.968 10.5478 11.688C10.0518 11.4 9.65981 11 9.37181 10.488C9.09181 9.968 8.95181 9.368 8.95181 8.688C8.95181 8.008 9.08781 7.412 9.35981 6.9C9.63981 6.38 10.0278 5.98 10.5238 5.7C11.0278 5.42 11.6038 5.28 12.2518 5.28C12.8758 5.28 13.4318 5.416 13.9198 5.688C14.4078 5.96 14.7878 6.344 15.0598 6.84C15.3318 7.328 15.4678 7.892 15.4678 8.532ZM14.0398 8.1C14.0318 7.596 13.8518 7.192 13.4998 6.888C13.1478 6.584 12.7118 6.432 12.1918 6.432C11.7198 6.432 11.3158 6.584 10.9798 6.888C10.6438 7.184 10.4438 7.588 10.3798 8.1H14.0398ZM16.3581 8.664C16.3581 8 16.4941 7.412 16.7661 6.9C17.0461 6.388 17.4221 5.992 17.8941 5.712C18.3741 5.424 18.9021 5.28 19.4781 5.28C19.9981 5.28 20.4501 5.384 20.8341 5.592C21.2261 5.792 21.5381 6.044 21.7701 6.348V5.388H23.1501V12H21.7701V11.016C21.5381 11.328 21.2221 11.588 20.8221 11.796C20.4221 12.004 19.9661 12.108 19.4541 12.108C18.8861 12.108 18.3661 11.964 17.8941 11.676C17.4221 11.38 17.0461 10.972 16.7661 10.452C16.4941 9.924 16.3581 9.328 16.3581 8.664ZM21.7701 8.688C21.7701 8.232 21.6741 7.836 21.4821 7.5C21.2981 7.164 21.0541 6.908 20.7501 6.732C20.4461 6.556 20.1181 6.468 19.7661 6.468C19.4141 6.468 19.0861 6.556 18.7821 6.732C18.4781 6.9 18.2301 7.152 18.0381 7.488C17.8541 7.816 17.7621 8.208 17.7621 8.664C17.7621 9.12 17.8541 9.52 18.0381 9.864C18.2301 10.208 18.4781 10.472 18.7821 10.656C19.0941 10.832 19.4221 10.92 19.7661 10.92C20.1181 10.92 20.4461 10.832 20.7501 10.656C21.0541 10.48 21.2981 10.224 21.4821 9.888C21.6741 9.544 21.7701 9.144 21.7701 8.688ZM26.3149 3.12V12H24.9469V3.12H26.3149ZM30.5109 12.108C29.9909 12.108 29.5229 12.016 29.1069 11.832C28.6989 11.64 28.3749 11.384 28.1349 11.064C27.8949 10.736 27.7669 10.372 27.7509 9.972H29.1669C29.1909 10.252 29.3229 10.488 29.5629 10.68C29.8109 10.864 30.1189 10.956 30.4869 10.956C30.8709 10.956 31.1669 10.884 31.3749 10.74C31.5909 10.588 31.6989 10.396 31.6989 10.164C31.6989 9.916 31.5789 9.732 31.3389 9.612C31.1069 9.492 30.7349 9.36 30.2229 9.216C29.7269 9.08 29.3229 8.948 29.0109 8.82C28.6989 8.692 28.4269 8.496 28.1949 8.232C27.9709 7.968 27.8589 7.62 27.8589 7.188C27.8589 6.836 27.9629 6.516 28.1709 6.228C28.3789 5.932 28.6749 5.7 29.0589 5.532C29.4509 5.364 29.8989 5.28 30.4029 5.28C31.1549 5.28 31.7589 5.472 32.2149 5.856C32.6789 6.232 32.9269 6.748 32.9589 7.404H31.5909C31.5669 7.108 31.4469 6.872 31.2309 6.696C31.0149 6.52 30.7229 6.432 30.3549 6.432C29.9949 6.432 29.7189 6.5 29.5269 6.636C29.3349 6.772 29.2389 6.952 29.2389 7.176C29.2389 7.352 29.3029 7.5 29.4309 7.62C29.5589 7.74 29.7149 7.836 29.8989 7.908C30.0829 7.972 30.3549 8.056 30.7149 8.16C31.1949 8.288 31.5869 8.42 31.8909 8.556C32.2029 8.684 32.4709 8.876 32.6949 9.132C32.9189 9.388 33.0349 9.728 33.0429 10.152C33.0429 10.528 32.9389 10.864 32.7309 11.16C32.5229 11.456 32.2269 11.688 31.8429 11.856C31.4669 12.024 31.0229 12.108 30.5109 12.108ZM40.6623 14.232C39.8783 13.48 39.2743 12.524 38.8503 11.364C38.4343 10.204 38.2263 8.96 38.2263 7.632C38.2263 6.272 38.4503 4.988 38.8983 3.78C39.3543 2.572 40.0223 1.576 40.9023 0.792H42.3183V0.924C41.3983 1.772 40.7063 2.788 40.2423 3.972C39.7783 5.156 39.5463 6.376 39.5463 7.632C39.5463 8.84 39.7623 10.008 40.1943 11.136C40.6263 12.264 41.2543 13.252 42.0783 14.1V14.232H40.6623ZM43.1845 4.5V3.252H45.6805V12H44.3005V4.5H43.1845ZM53.1998 4.428H49.1798V6.816C49.3478 6.592 49.5958 6.404 49.9238 6.252C50.2598 6.1 50.6158 6.024 50.9918 6.024C51.6638 6.024 52.2078 6.168 52.6238 6.456C53.0478 6.744 53.3478 7.108 53.5238 7.548C53.7078 7.988 53.7998 8.452 53.7998 8.94C53.7998 9.532 53.6838 10.06 53.4518 10.524C53.2278 10.98 52.8878 11.34 52.4318 11.604C51.9838 11.868 51.4318 12 50.7758 12C49.9038 12 49.2038 11.784 48.6758 11.352C48.1478 10.92 47.8318 10.348 47.7278 9.636H49.0598C49.1478 10.012 49.3438 10.312 49.6478 10.536C49.9518 10.752 50.3318 10.86 50.7878 10.86C51.3558 10.86 51.7798 10.688 52.0598 10.344C52.3478 10 52.4918 9.544 52.4918 8.976C52.4918 8.4 52.3478 7.96 52.0598 7.656C51.7718 7.344 51.3478 7.188 50.7878 7.188C50.3958 7.188 50.0638 7.288 49.7918 7.488C49.5278 7.68 49.3358 7.944 49.2158 8.28H47.9198V3.228H53.1998V4.428ZM55.2239 7.512C55.2239 6.128 55.4559 5.048 55.9199 4.272C56.3919 3.488 57.1999 3.096 58.3439 3.096C59.4879 3.096 60.2919 3.488 60.7559 4.272C61.2279 5.048 61.4639 6.128 61.4639 7.512C61.4639 8.912 61.2279 10.008 60.7559 10.8C60.2919 11.584 59.4879 11.976 58.3439 11.976C57.1999 11.976 56.3919 11.584 55.9199 10.8C55.4559 10.008 55.2239 8.912 55.2239 7.512ZM60.1199 7.512C60.1199 6.864 60.0759 6.316 59.9879 5.868C59.9079 5.42 59.7399 5.056 59.4839 4.776C59.2279 4.488 58.8479 4.344 58.3439 4.344C57.8399 4.344 57.4599 4.488 57.2039 4.776C56.9479 5.056 56.7759 5.42 56.6879 5.868C56.6079 6.316 56.5679 6.864 56.5679 7.512C56.5679 8.184 56.6079 8.748 56.6879 9.204C56.7679 9.66 56.9359 10.028 57.1919 10.308C57.4559 10.588 57.8399 10.728 58.3439 10.728C58.8479 10.728 59.2279 10.588 59.4839 10.308C59.7479 10.028 59.9199 9.66 59.9999 9.204C60.0799 8.748 60.1199 8.184 60.1199 7.512ZM62.7554 14.232V14.1C63.5794 13.252 64.2074 12.264 64.6394 11.136C65.0714 10.008 65.2874 8.84 65.2874 7.632C65.2874 6.376 65.0554 5.156 64.5914 3.972C64.1274 2.788 63.4354 1.772 62.5154 0.924V0.792H63.9314C64.8114 1.576 65.4754 2.572 65.9234 3.78C66.3794 4.988 66.6074 6.272 66.6074 7.632C66.6074 8.96 66.3954 10.204 65.9714 11.364C65.5554 12.524 64.9554 13.48 64.1714 14.232H62.7554Z" fill="#140D4F"/>
</svg>
