<svg width="75" height="15" viewBox="0 0 75 15" fill="none" xmlns="http://www.w3.org/2000/svg">
<path d="M3.528 3.636C4.44 3.636 5.228 3.808 5.892 4.152C6.564 4.488 7.076 4.972 7.428 5.604C7.788 6.236 7.968 6.98 7.968 7.836C7.968 8.692 7.788 9.436 7.428 10.068C7.076 10.692 6.564 11.172 5.892 11.508C5.228 11.836 4.44 12 3.528 12H0.924V3.636H3.528ZM3.528 11.1C4.608 11.1 5.432 10.816 6 10.248C6.568 9.672 6.852 8.868 6.852 7.836C6.852 6.796 6.564 5.984 5.988 5.4C5.42 4.816 4.6 4.524 3.528 4.524H2.016V11.1H3.528ZM10.5004 6.492C10.6924 6.116 10.9644 5.824 11.3164 5.616C11.6764 5.408 12.1124 5.304 12.6244 5.304V6.432H12.3364C11.1124 6.432 10.5004 7.096 10.5004 8.424V12H9.40838V5.424H10.5004V6.492ZM19.8849 8.46C19.8849 8.668 19.8729 8.888 19.8489 9.12H14.5929C14.6329 9.768 14.8529 10.276 15.2529 10.644C15.6609 11.004 16.1529 11.184 16.7289 11.184C17.2009 11.184 17.5929 11.076 17.9049 10.86C18.2249 10.636 18.4489 10.34 18.5769 9.972H19.7529C19.5769 10.604 19.2249 11.12 18.6969 11.52C18.1689 11.912 17.5129 12.108 16.7289 12.108C16.1049 12.108 15.5449 11.968 15.0489 11.688C14.5609 11.408 14.1769 11.012 13.8969 10.5C13.6169 9.98 13.4769 9.38 13.4769 8.7C13.4769 8.02 13.6129 7.424 13.8849 6.912C14.1569 6.4 14.5369 6.008 15.0249 5.736C15.5209 5.456 16.0889 5.316 16.7289 5.316C17.3529 5.316 17.9049 5.452 18.3849 5.724C18.8649 5.996 19.2329 6.372 19.4889 6.852C19.7529 7.324 19.8849 7.86 19.8849 8.46ZM18.7569 8.232C18.7569 7.816 18.6649 7.46 18.4809 7.164C18.2969 6.86 18.0449 6.632 17.7249 6.48C17.4129 6.32 17.0649 6.24 16.6809 6.24C16.1289 6.24 15.6569 6.416 15.2649 6.768C14.8809 7.12 14.6609 7.608 14.6049 8.232H18.7569ZM23.6543 12.108C23.1503 12.108 22.6983 12.024 22.2983 11.856C21.8983 11.68 21.5823 11.44 21.3503 11.136C21.1183 10.824 20.9903 10.468 20.9663 10.068H22.0943C22.1263 10.396 22.2783 10.664 22.5503 10.872C22.8303 11.08 23.1943 11.184 23.6423 11.184C24.0583 11.184 24.3863 11.092 24.6263 10.908C24.8663 10.724 24.9863 10.492 24.9863 10.212C24.9863 9.924 24.8583 9.712 24.6023 9.576C24.3463 9.432 23.9503 9.292 23.4143 9.156C22.9263 9.028 22.5263 8.9 22.2143 8.772C21.9103 8.636 21.6463 8.44 21.4223 8.184C21.2063 7.92 21.0983 7.576 21.0983 7.152C21.0983 6.816 21.1983 6.508 21.3983 6.228C21.5983 5.948 21.8823 5.728 22.2503 5.568C22.6183 5.4 23.0383 5.316 23.5103 5.316C24.2383 5.316 24.8263 5.5 25.2743 5.868C25.7223 6.236 25.9623 6.74 25.9943 7.38H24.9023C24.8783 7.036 24.7383 6.76 24.4823 6.552C24.2343 6.344 23.8983 6.24 23.4743 6.24C23.0823 6.24 22.7703 6.324 22.5383 6.492C22.3063 6.66 22.1903 6.88 22.1903 7.152C22.1903 7.368 22.2583 7.548 22.3943 7.692C22.5383 7.828 22.7143 7.94 22.9223 8.028C23.1383 8.108 23.4343 8.2 23.8103 8.304C24.2823 8.432 24.6663 8.56 24.9623 8.688C25.2583 8.808 25.5103 8.992 25.7183 9.24C25.9343 9.488 26.0463 9.812 26.0543 10.212C26.0543 10.572 25.9543 10.896 25.7543 11.184C25.5543 11.472 25.2703 11.7 24.9023 11.868C24.5423 12.028 24.1263 12.108 23.6543 12.108ZM29.9239 12.108C29.4199 12.108 28.9679 12.024 28.5679 11.856C28.1679 11.68 27.8519 11.44 27.6199 11.136C27.3879 10.824 27.2599 10.468 27.2359 10.068H28.3639C28.3959 10.396 28.5479 10.664 28.8199 10.872C29.0999 11.08 29.4639 11.184 29.9119 11.184C30.3279 11.184 30.6559 11.092 30.8959 10.908C31.1359 10.724 31.2559 10.492 31.2559 10.212C31.2559 9.924 31.1279 9.712 30.8719 9.576C30.6159 9.432 30.2199 9.292 29.6839 9.156C29.1959 9.028 28.7959 8.9 28.4839 8.772C28.1799 8.636 27.9159 8.44 27.6919 8.184C27.4759 7.92 27.3679 7.576 27.3679 7.152C27.3679 6.816 27.4679 6.508 27.6679 6.228C27.8679 5.948 28.1519 5.728 28.5199 5.568C28.8879 5.4 29.3079 5.316 29.7799 5.316C30.5079 5.316 31.0959 5.5 31.5439 5.868C31.9919 6.236 32.2319 6.74 32.2639 7.38H31.1719C31.1479 7.036 31.0079 6.76 30.7519 6.552C30.5039 6.344 30.1679 6.24 29.7439 6.24C29.3519 6.24 29.0399 6.324 28.8079 6.492C28.5759 6.66 28.4599 6.88 28.4599 7.152C28.4599 7.368 28.5279 7.548 28.6639 7.692C28.8079 7.828 28.9839 7.94 29.1919 8.028C29.4079 8.108 29.7039 8.2 30.0799 8.304C30.5519 8.432 30.9359 8.56 31.2319 8.688C31.5279 8.808 31.7799 8.992 31.9879 9.24C32.2039 9.488 32.3159 9.812 32.3239 10.212C32.3239 10.572 32.2239 10.896 32.0239 11.184C31.8239 11.472 31.5399 11.7 31.1719 11.868C30.8119 12.028 30.3959 12.108 29.9239 12.108ZM39.8654 8.46C39.8654 8.668 39.8534 8.888 39.8294 9.12H34.5734C34.6134 9.768 34.8334 10.276 35.2334 10.644C35.6414 11.004 36.1334 11.184 36.7094 11.184C37.1814 11.184 37.5734 11.076 37.8854 10.86C38.2054 10.636 38.4294 10.34 38.5574 9.972H39.7334C39.5574 10.604 39.2054 11.12 38.6774 11.52C38.1494 11.912 37.4934 12.108 36.7094 12.108C36.0854 12.108 35.5254 11.968 35.0294 11.688C34.5414 11.408 34.1574 11.012 33.8774 10.5C33.5974 9.98 33.4574 9.38 33.4574 8.7C33.4574 8.02 33.5934 7.424 33.8654 6.912C34.1374 6.4 34.5174 6.008 35.0054 5.736C35.5014 5.456 36.0694 5.316 36.7094 5.316C37.3334 5.316 37.8854 5.452 38.3654 5.724C38.8454 5.996 39.2134 6.372 39.4694 6.852C39.7334 7.324 39.8654 7.86 39.8654 8.46ZM38.7374 8.232C38.7374 7.816 38.6454 7.46 38.4614 7.164C38.2774 6.86 38.0254 6.632 37.7054 6.48C37.3934 6.32 37.0454 6.24 36.6614 6.24C36.1094 6.24 35.6374 6.416 35.2454 6.768C34.8614 7.12 34.6414 7.608 34.5854 8.232H38.7374ZM43.6348 12.108C43.1308 12.108 42.6788 12.024 42.2788 11.856C41.8788 11.68 41.5628 11.44 41.3308 11.136C41.0988 10.824 40.9708 10.468 40.9468 10.068H42.0748C42.1068 10.396 42.2588 10.664 42.5308 10.872C42.8108 11.08 43.1748 11.184 43.6228 11.184C44.0388 11.184 44.3668 11.092 44.6068 10.908C44.8468 10.724 44.9668 10.492 44.9668 10.212C44.9668 9.924 44.8388 9.712 44.5828 9.576C44.3268 9.432 43.9308 9.292 43.3948 9.156C42.9068 9.028 42.5068 8.9 42.1948 8.772C41.8908 8.636 41.6268 8.44 41.4028 8.184C41.1868 7.92 41.0788 7.576 41.0788 7.152C41.0788 6.816 41.1788 6.508 41.3788 6.228C41.5788 5.948 41.8628 5.728 42.2308 5.568C42.5988 5.4 43.0188 5.316 43.4908 5.316C44.2188 5.316 44.8068 5.5 45.2548 5.868C45.7028 6.236 45.9428 6.74 45.9748 7.38H44.8828C44.8588 7.036 44.7188 6.76 44.4628 6.552C44.2148 6.344 43.8788 6.24 43.4548 6.24C43.0628 6.24 42.7508 6.324 42.5188 6.492C42.2868 6.66 42.1708 6.88 42.1708 7.152C42.1708 7.368 42.2388 7.548 42.3748 7.692C42.5188 7.828 42.6948 7.94 42.9028 8.028C43.1188 8.108 43.4148 8.2 43.7908 8.304C44.2628 8.432 44.6468 8.56 44.9428 8.688C45.2388 8.808 45.4908 8.992 45.6988 9.24C45.9148 9.488 46.0268 9.812 46.0348 10.212C46.0348 10.572 45.9348 10.896 45.7348 11.184C45.5348 11.472 45.2508 11.7 44.8828 11.868C44.5228 12.028 44.1068 12.108 43.6348 12.108ZM53.5836 14.232C52.8156 13.48 52.2156 12.524 51.7836 11.364C51.3596 10.204 51.1476 8.952 51.1476 7.608C51.1476 6.232 51.3716 4.948 51.8196 3.756C52.2756 2.556 52.9236 1.568 53.7636 0.792H54.9036V0.899999C54.0076 1.74 53.3316 2.752 52.8756 3.936C52.4276 5.112 52.2036 6.336 52.2036 7.608C52.2036 8.848 52.4156 10.032 52.8396 11.16C53.2716 12.288 53.8996 13.276 54.7236 14.124V14.232H53.5836ZM57.6288 7.488C57.1808 7.312 56.8368 7.056 56.5968 6.72C56.3568 6.384 56.2368 5.976 56.2368 5.496C56.2368 5.064 56.3448 4.676 56.5608 4.332C56.7768 3.98 57.0968 3.704 57.5208 3.504C57.9528 3.296 58.4728 3.192 59.0808 3.192C59.6888 3.192 60.2048 3.296 60.6288 3.504C61.0608 3.704 61.3848 3.98 61.6008 4.332C61.8248 4.676 61.9368 5.064 61.9368 5.496C61.9368 5.96 61.8128 6.368 61.5648 6.72C61.3168 7.064 60.9768 7.32 60.5448 7.488C61.0408 7.64 61.4328 7.908 61.7208 8.292C62.0168 8.668 62.1648 9.124 62.1648 9.66C62.1648 10.18 62.0368 10.636 61.7808 11.028C61.5248 11.412 61.1608 11.712 60.6888 11.928C60.2248 12.136 59.6888 12.24 59.0808 12.24C58.4728 12.24 57.9368 12.136 57.4728 11.928C57.0168 11.712 56.6608 11.412 56.4048 11.028C56.1488 10.636 56.0208 10.18 56.0208 9.66C56.0208 9.124 56.1648 8.664 56.4528 8.28C56.7408 7.896 57.1328 7.632 57.6288 7.488ZM60.8808 5.628C60.8808 5.14 60.7208 4.764 60.4008 4.5C60.0808 4.236 59.6408 4.104 59.0808 4.104C58.5288 4.104 58.0928 4.236 57.7728 4.5C57.4528 4.764 57.2928 5.144 57.2928 5.64C57.2928 6.088 57.4568 6.448 57.7848 6.72C58.1208 6.992 58.5528 7.128 59.0808 7.128C59.6168 7.128 60.0488 6.992 60.3768 6.72C60.7128 6.44 60.8808 6.076 60.8808 5.628ZM59.0808 7.968C58.4888 7.968 58.0048 8.108 57.6288 8.388C57.2528 8.66 57.0648 9.072 57.0648 9.624C57.0648 10.136 57.2448 10.548 57.6048 10.86C57.9728 11.172 58.4648 11.328 59.0808 11.328C59.6968 11.328 60.1848 11.172 60.5448 10.86C60.9048 10.548 61.0848 10.136 61.0848 9.624C61.0848 9.088 60.9008 8.68 60.5328 8.4C60.1648 8.112 59.6808 7.968 59.0808 7.968ZM63.6151 7.572C63.6151 6.196 63.8391 5.124 64.2871 4.356C64.7351 3.58 65.5191 3.192 66.6391 3.192C67.7511 3.192 68.5311 3.58 68.9791 4.356C69.4271 5.124 69.6511 6.196 69.6511 7.572C69.6511 8.972 69.4271 10.06 68.9791 10.836C68.5311 11.612 67.7511 12 66.6391 12C65.5191 12 64.7351 11.612 64.2871 10.836C63.8391 10.06 63.6151 8.972 63.6151 7.572ZM68.5711 7.572C68.5711 6.876 68.5231 6.288 68.4271 5.808C68.3391 5.32 68.1511 4.928 67.8631 4.632C67.5831 4.336 67.1751 4.188 66.6391 4.188C66.0951 4.188 65.6791 4.336 65.3911 4.632C65.1111 4.928 64.9231 5.32 64.8271 5.808C64.7391 6.288 64.6951 6.876 64.6951 7.572C64.6951 8.292 64.7391 8.896 64.8271 9.384C64.9231 9.872 65.1111 10.264 65.3911 10.56C65.6791 10.856 66.0951 11.004 66.6391 11.004C67.1751 11.004 67.5831 10.856 67.8631 10.56C68.1511 10.264 68.3391 9.872 68.4271 9.384C68.5231 8.896 68.5711 8.292 68.5711 7.572ZM70.9823 14.232V14.124C71.8063 13.276 72.4303 12.288 72.8543 11.16C73.2863 10.032 73.5023 8.848 73.5023 7.608C73.5023 6.336 73.2743 5.112 72.8183 3.936C72.3703 2.752 71.6983 1.74 70.8022 0.899999V0.792H71.9423C72.7823 1.568 73.4263 2.556 73.8743 3.756C74.3303 4.948 74.5583 6.232 74.5583 7.608C74.5583 8.952 74.3423 10.204 73.9103 11.364C73.4863 12.524 72.8903 13.48 72.1223 14.232H70.9823Z" fill="black"/>
</svg>
