<svg width="202" height="11" viewBox="0 0 202 11" fill="none" xmlns="http://www.w3.org/2000/svg">
<path d="M7 0.228V1.81H2.926V4.316H6.048V5.87H2.926V10H0.966V0.228H7ZM14.3818 8.138H10.4898L9.84583 10H7.78783L11.3018 0.213999H13.5838L17.0978 10H15.0258L14.3818 8.138ZM13.8498 6.57L12.4358 2.482L11.0218 6.57H13.8498ZM21.7853 10.098C21.104 10.098 20.488 9.98133 19.9373 9.748C19.396 9.51467 18.9666 9.17867 18.6493 8.74C18.332 8.30133 18.1686 7.78333 18.1593 7.186H20.2593C20.2873 7.58733 20.4273 7.90467 20.6793 8.138C20.9406 8.37133 21.2953 8.488 21.7433 8.488C22.2006 8.488 22.56 8.38067 22.8213 8.166C23.0826 7.942 23.2133 7.65267 23.2133 7.298C23.2133 7.00867 23.1246 6.77067 22.9473 6.584C22.77 6.39733 22.546 6.25267 22.2753 6.15C22.014 6.038 21.65 5.91667 21.1833 5.786C20.5486 5.59933 20.0306 5.41733 19.6293 5.24C19.2373 5.05333 18.8966 4.778 18.6073 4.414C18.3273 4.04067 18.1873 3.546 18.1873 2.93C18.1873 2.35133 18.332 1.84733 18.6213 1.418C18.9106 0.988666 19.3166 0.662 19.8393 0.438C20.362 0.204666 20.9593 0.0879999 21.6313 0.0879999C22.6393 0.0879999 23.456 0.335333 24.0813 0.83C24.716 1.31533 25.066 1.99667 25.1313 2.874H22.9753C22.9566 2.538 22.812 2.26267 22.5413 2.048C22.28 1.824 21.93 1.712 21.4913 1.712C21.1086 1.712 20.8006 1.81 20.5673 2.006C20.3433 2.202 20.2313 2.48667 20.2313 2.86C20.2313 3.12133 20.3153 3.34067 20.4833 3.518C20.6606 3.686 20.8753 3.826 21.1273 3.938C21.3886 4.04067 21.7526 4.162 22.2193 4.302C22.854 4.48867 23.372 4.67533 23.7733 4.862C24.1746 5.04867 24.52 5.32867 24.8093 5.702C25.0986 6.07533 25.2433 6.56533 25.2433 7.172C25.2433 7.69467 25.108 8.18 24.8373 8.628C24.5666 9.076 24.17 9.43533 23.6473 9.706C23.1246 9.96733 22.504 10.098 21.7853 10.098ZM35.0486 0.228V10H33.0886V5.842H28.9026V10H26.9426V0.228H28.9026V4.246H33.0886V0.228H35.0486ZM38.9377 0.228V10H36.9777V0.228H38.9377ZM45.4102 10.098C44.4955 10.098 43.6555 9.88333 42.8902 9.454C42.1249 9.02467 41.5182 8.432 41.0702 7.676C40.6222 6.91067 40.3982 6.04733 40.3982 5.086C40.3982 4.134 40.6222 3.28 41.0702 2.524C41.5182 1.75867 42.1249 1.16133 42.8902 0.731999C43.6555 0.302666 44.4955 0.0879999 45.4102 0.0879999C46.3342 0.0879999 47.1742 0.302666 47.9302 0.731999C48.6955 1.16133 49.2975 1.75867 49.7362 2.524C50.1842 3.28 50.4082 4.134 50.4082 5.086C50.4082 6.04733 50.1842 6.91067 49.7362 7.676C49.2975 8.432 48.6955 9.02467 47.9302 9.454C47.1649 9.88333 46.3249 10.098 45.4102 10.098ZM45.4102 8.348C45.9982 8.348 46.5162 8.21733 46.9642 7.956C47.4122 7.68533 47.7622 7.30267 48.0142 6.808C48.2662 6.31333 48.3922 5.73933 48.3922 5.086C48.3922 4.43267 48.2662 3.86333 48.0142 3.378C47.7622 2.88333 47.4122 2.50533 46.9642 2.244C46.5162 1.98267 45.9982 1.852 45.4102 1.852C44.8222 1.852 44.2995 1.98267 43.8422 2.244C43.3942 2.50533 43.0442 2.88333 42.7922 3.378C42.5402 3.86333 42.4142 4.43267 42.4142 5.086C42.4142 5.73933 42.5402 6.31333 42.7922 6.808C43.0442 7.30267 43.3942 7.68533 43.8422 7.956C44.2995 8.21733 44.8222 8.348 45.4102 8.348ZM60.2244 10H58.2644L53.8264 3.294V10H51.8664V0.213999H53.8264L58.2644 6.934V0.213999H60.2244V10ZM65.0213 5.1C65.0213 4.13867 65.2359 3.28 65.6653 2.524C66.1039 1.75867 66.6966 1.166 67.4433 0.746C68.1993 0.316666 69.0439 0.102 69.9773 0.102C71.0693 0.102 72.0259 0.382 72.8473 0.942C73.6686 1.502 74.2426 2.27667 74.5693 3.266H72.3153C72.0913 2.79933 71.7739 2.44933 71.3633 2.216C70.9619 1.98267 70.4953 1.866 69.9633 1.866C69.3939 1.866 68.8853 2.00133 68.4373 2.272C67.9986 2.53333 67.6533 2.90667 67.4013 3.392C67.1586 3.87733 67.0373 4.44667 67.0373 5.1C67.0373 5.744 67.1586 6.31333 67.4013 6.808C67.6533 7.29333 67.9986 7.67133 68.4373 7.942C68.8853 8.20333 69.3939 8.334 69.9633 8.334C70.4953 8.334 70.9619 8.21733 71.3633 7.984C71.7739 7.74133 72.0913 7.38667 72.3153 6.92H74.5693C74.2426 7.91867 73.6686 8.698 72.8473 9.258C72.0353 9.80867 71.0786 10.084 69.9773 10.084C69.0439 10.084 68.1993 9.874 67.4433 9.454C66.6966 9.02467 66.1039 8.432 65.6653 7.676C65.2359 6.92 65.0213 6.06133 65.0213 5.1ZM80.7793 10.098C79.8647 10.098 79.0247 9.88333 78.2593 9.454C77.494 9.02467 76.8873 8.432 76.4393 7.676C75.9913 6.91067 75.7673 6.04733 75.7673 5.086C75.7673 4.134 75.9913 3.28 76.4393 2.524C76.8873 1.75867 77.494 1.16133 78.2593 0.731999C79.0247 0.302666 79.8647 0.0879999 80.7793 0.0879999C81.7033 0.0879999 82.5433 0.302666 83.2993 0.731999C84.0647 1.16133 84.6667 1.75867 85.1053 2.524C85.5533 3.28 85.7773 4.134 85.7773 5.086C85.7773 6.04733 85.5533 6.91067 85.1053 7.676C84.6667 8.432 84.0647 9.02467 83.2993 9.454C82.534 9.88333 81.694 10.098 80.7793 10.098ZM80.7793 8.348C81.3673 8.348 81.8853 8.21733 82.3333 7.956C82.7813 7.68533 83.1313 7.30267 83.3833 6.808C83.6353 6.31333 83.7613 5.73933 83.7613 5.086C83.7613 4.43267 83.6353 3.86333 83.3833 3.378C83.1313 2.88333 82.7813 2.50533 82.3333 2.244C81.8853 1.98267 81.3673 1.852 80.7793 1.852C80.1913 1.852 79.6687 1.98267 79.2113 2.244C78.7633 2.50533 78.4133 2.88333 78.1613 3.378C77.9093 3.86333 77.7833 4.43267 77.7833 5.086C77.7833 5.73933 77.9093 6.31333 78.1613 6.808C78.4133 7.30267 78.7633 7.68533 79.2113 7.956C79.6687 8.21733 80.1913 8.348 80.7793 8.348ZM89.1675 0.228V6.276C89.1675 6.93867 89.3402 7.44733 89.6855 7.802C90.0309 8.14733 90.5162 8.32 91.1415 8.32C91.7762 8.32 92.2662 8.14733 92.6115 7.802C92.9569 7.44733 93.1295 6.93867 93.1295 6.276V0.228H95.1035V6.262C95.1035 7.09267 94.9215 7.79733 94.5575 8.376C94.2029 8.94533 93.7222 9.37467 93.1155 9.664C92.5182 9.95333 91.8509 10.098 91.1135 10.098C90.3855 10.098 89.7229 9.95333 89.1255 9.664C88.5375 9.37467 88.0709 8.94533 87.7255 8.376C87.3802 7.79733 87.2075 7.09267 87.2075 6.262V0.228H89.1675ZM104.123 3.252C104.123 3.77467 103.997 4.26467 103.745 4.722C103.503 5.17933 103.115 5.548 102.583 5.828C102.061 6.108 101.398 6.248 100.595 6.248H98.9573V10H96.9973V0.228H100.595C101.351 0.228 101.995 0.358666 102.527 0.62C103.059 0.881333 103.456 1.24067 103.717 1.698C103.988 2.15533 104.123 2.67333 104.123 3.252ZM100.511 4.666C101.053 4.666 101.454 4.54467 101.715 4.302C101.977 4.05 102.107 3.7 102.107 3.252C102.107 2.3 101.575 1.824 100.511 1.824H98.9573V4.666H100.511ZM110.051 10.098C109.136 10.098 108.296 9.88333 107.531 9.454C106.765 9.02467 106.159 8.432 105.711 7.676C105.263 6.91067 105.039 6.04733 105.039 5.086C105.039 4.134 105.263 3.28 105.711 2.524C106.159 1.75867 106.765 1.16133 107.531 0.731999C108.296 0.302666 109.136 0.0879999 110.051 0.0879999C110.975 0.0879999 111.815 0.302666 112.571 0.731999C113.336 1.16133 113.938 1.75867 114.377 2.524C114.825 3.28 115.049 4.134 115.049 5.086C115.049 6.04733 114.825 6.91067 114.377 7.676C113.938 8.432 113.336 9.02467 112.571 9.454C111.805 9.88333 110.965 10.098 110.051 10.098ZM110.051 8.348C110.639 8.348 111.157 8.21733 111.605 7.956C112.053 7.68533 112.403 7.30267 112.655 6.808C112.907 6.31333 113.033 5.73933 113.033 5.086C113.033 4.43267 112.907 3.86333 112.655 3.378C112.403 2.88333 112.053 2.50533 111.605 2.244C111.157 1.98267 110.639 1.852 110.051 1.852C109.463 1.852 108.94 1.98267 108.483 2.244C108.035 2.50533 107.685 2.88333 107.433 3.378C107.181 3.86333 107.055 4.43267 107.055 5.086C107.055 5.73933 107.181 6.31333 107.433 6.808C107.685 7.30267 108.035 7.68533 108.483 7.956C108.94 8.21733 109.463 8.348 110.051 8.348ZM124.865 10H122.905L118.467 3.294V10H116.507V0.213999H118.467L122.905 6.934V0.213999H124.865V10ZM130.176 10.098C129.495 10.098 128.879 9.98133 128.328 9.748C127.787 9.51467 127.357 9.17867 127.04 8.74C126.723 8.30133 126.559 7.78333 126.55 7.186H128.65C128.678 7.58733 128.818 7.90467 129.07 8.138C129.331 8.37133 129.686 8.488 130.134 8.488C130.591 8.488 130.951 8.38067 131.212 8.166C131.473 7.942 131.604 7.65267 131.604 7.298C131.604 7.00867 131.515 6.77067 131.338 6.584C131.161 6.39733 130.937 6.25267 130.666 6.15C130.405 6.038 130.041 5.91667 129.574 5.786C128.939 5.59933 128.421 5.41733 128.02 5.24C127.628 5.05333 127.287 4.778 126.998 4.414C126.718 4.04067 126.578 3.546 126.578 2.93C126.578 2.35133 126.723 1.84733 127.012 1.418C127.301 0.988666 127.707 0.662 128.23 0.438C128.753 0.204666 129.35 0.0879999 130.022 0.0879999C131.03 0.0879999 131.847 0.335333 132.472 0.83C133.107 1.31533 133.457 1.99667 133.522 2.874H131.366C131.347 2.538 131.203 2.26267 130.932 2.048C130.671 1.824 130.321 1.712 129.882 1.712C129.499 1.712 129.191 1.81 128.958 2.006C128.734 2.202 128.622 2.48667 128.622 2.86C128.622 3.12133 128.706 3.34067 128.874 3.518C129.051 3.686 129.266 3.826 129.518 3.938C129.779 4.04067 130.143 4.162 130.61 4.302C131.245 4.48867 131.763 4.67533 132.164 4.862C132.565 5.04867 132.911 5.32867 133.2 5.702C133.489 6.07533 133.634 6.56533 133.634 7.172C133.634 7.69467 133.499 8.18 133.228 8.628C132.957 9.076 132.561 9.43533 132.038 9.706C131.515 9.96733 130.895 10.098 130.176 10.098ZM146.187 10L145.123 8.95C144.218 9.762 143.112 10.168 141.805 10.168C141.086 10.168 140.452 10.0467 139.901 9.804C139.36 9.552 138.94 9.202 138.641 8.754C138.342 8.29667 138.193 7.76933 138.193 7.172C138.193 6.528 138.375 5.94933 138.739 5.436C139.103 4.92267 139.64 4.50733 140.349 4.19C140.097 3.882 139.915 3.588 139.803 3.308C139.691 3.01867 139.635 2.71067 139.635 2.384C139.635 1.936 139.752 1.53467 139.985 1.18C140.218 0.815999 140.55 0.531333 140.979 0.325999C141.418 0.120666 141.926 0.0179992 142.505 0.0179992C143.093 0.0179992 143.597 0.129999 144.017 0.354C144.437 0.578 144.75 0.876666 144.955 1.25C145.16 1.62333 145.249 2.03867 145.221 2.496H143.317C143.326 2.188 143.252 1.95467 143.093 1.796C142.934 1.628 142.72 1.544 142.449 1.544C142.188 1.544 141.968 1.62333 141.791 1.782C141.623 1.93133 141.539 2.12733 141.539 2.37C141.539 2.60333 141.609 2.83667 141.749 3.07C141.889 3.294 142.118 3.574 142.435 3.91L144.899 6.346C144.918 6.32733 144.932 6.30867 144.941 6.29C144.95 6.27133 144.96 6.25267 144.969 6.234L145.767 4.904H147.811L146.831 6.626C146.644 6.99 146.444 7.33533 146.229 7.662L148.595 10H146.187ZM141.861 8.544C142.626 8.544 143.303 8.27333 143.891 7.732L141.483 5.352C140.578 5.75333 140.125 6.32267 140.125 7.06C140.125 7.48 140.284 7.83467 140.601 8.124C140.918 8.404 141.338 8.544 141.861 8.544ZM157.438 10.098C156.523 10.098 155.683 9.88333 154.918 9.454C154.152 9.02467 153.546 8.432 153.098 7.676C152.65 6.91067 152.426 6.04733 152.426 5.086C152.426 4.134 152.65 3.28 153.098 2.524C153.546 1.75867 154.152 1.16133 154.918 0.731999C155.683 0.302666 156.523 0.0879999 157.438 0.0879999C158.362 0.0879999 159.202 0.302666 159.958 0.731999C160.723 1.16133 161.325 1.75867 161.764 2.524C162.212 3.28 162.436 4.134 162.436 5.086C162.436 6.04733 162.212 6.91067 161.764 7.676C161.325 8.432 160.723 9.02467 159.958 9.454C159.192 9.88333 158.352 10.098 157.438 10.098ZM157.438 8.348C158.026 8.348 158.544 8.21733 158.992 7.956C159.44 7.68533 159.79 7.30267 160.042 6.808C160.294 6.31333 160.42 5.73933 160.42 5.086C160.42 4.43267 160.294 3.86333 160.042 3.378C159.79 2.88333 159.44 2.50533 158.992 2.244C158.544 1.98267 158.026 1.852 157.438 1.852C156.85 1.852 156.327 1.98267 155.87 2.244C155.422 2.50533 155.072 2.88333 154.82 3.378C154.568 3.86333 154.442 4.43267 154.442 5.086C154.442 5.73933 154.568 6.31333 154.82 6.808C155.072 7.30267 155.422 7.68533 155.87 7.956C156.327 8.21733 156.85 8.348 157.438 8.348ZM169.928 0.228V1.81H165.854V4.316H168.976V5.87H165.854V10H163.894V0.228H169.928ZM177.352 0.228V1.81H173.278V4.316H176.4V5.87H173.278V10H171.318V0.228H177.352ZM180.701 1.81V4.26H183.991V5.814H180.701V8.404H184.411V10H178.741V0.213999H184.411V1.81H180.701ZM191.233 10L189.077 6.192H188.153V10H186.193V0.228H189.861C190.617 0.228 191.261 0.363333 191.793 0.634C192.325 0.895333 192.721 1.25467 192.983 1.712C193.253 2.16 193.389 2.664 193.389 3.224C193.389 3.868 193.202 4.45133 192.829 4.974C192.455 5.48733 191.9 5.842 191.163 6.038L193.501 10H191.233ZM188.153 4.722H189.791C190.323 4.722 190.719 4.596 190.981 4.344C191.242 4.08267 191.373 3.72333 191.373 3.266C191.373 2.818 191.242 2.47267 190.981 2.23C190.719 1.978 190.323 1.852 189.791 1.852H188.153V4.722ZM198.535 10.098C197.854 10.098 197.238 9.98133 196.687 9.748C196.146 9.51467 195.717 9.17867 195.399 8.74C195.082 8.30133 194.919 7.78333 194.909 7.186H197.009C197.037 7.58733 197.177 7.90467 197.429 8.138C197.691 8.37133 198.045 8.488 198.493 8.488C198.951 8.488 199.31 8.38067 199.571 8.166C199.833 7.942 199.963 7.65267 199.963 7.298C199.963 7.00867 199.875 6.77067 199.697 6.584C199.52 6.39733 199.296 6.25267 199.025 6.15C198.764 6.038 198.4 5.91667 197.933 5.786C197.299 5.59933 196.781 5.41733 196.379 5.24C195.987 5.05333 195.647 4.778 195.357 4.414C195.077 4.04067 194.937 3.546 194.937 2.93C194.937 2.35133 195.082 1.84733 195.371 1.418C195.661 0.988666 196.067 0.662 196.589 0.438C197.112 0.204666 197.709 0.0879999 198.381 0.0879999C199.389 0.0879999 200.206 0.335333 200.831 0.83C201.466 1.31533 201.816 1.99667 201.881 2.874H199.725C199.707 2.538 199.562 2.26267 199.291 2.048C199.03 1.824 198.68 1.712 198.241 1.712C197.859 1.712 197.551 1.81 197.317 2.006C197.093 2.202 196.981 2.48667 196.981 2.86C196.981 3.12133 197.065 3.34067 197.233 3.518C197.411 3.686 197.625 3.826 197.877 3.938C198.139 4.04067 198.503 4.162 198.969 4.302C199.604 4.48867 200.122 4.67533 200.523 4.862C200.925 5.04867 201.27 5.32867 201.559 5.702C201.849 6.07533 201.993 6.56533 201.993 7.172C201.993 7.69467 201.858 8.18 201.587 8.628C201.317 9.076 200.92 9.43533 200.397 9.706C199.875 9.96733 199.254 10.098 198.535 10.098Z" fill="#140D4F"/>
</svg>
