<svg width="71" height="16" viewBox="0 0 71 16" fill="none" xmlns="http://www.w3.org/2000/svg">
<path d="M5.652 3.636V4.524H2.016V7.344H4.968V8.232H2.016V12H0.924V3.636H5.652ZM8.06288 3.12V12H6.97088V3.12H8.06288ZM10.488 4.356C10.28 4.356 10.104 4.284 9.96 4.14C9.816 3.996 9.744 3.82 9.744 3.612C9.744 3.404 9.816 3.228 9.96 3.084C10.104 2.94 10.28 2.868 10.488 2.868C10.688 2.868 10.856 2.94 10.992 3.084C11.136 3.228 11.208 3.404 11.208 3.612C11.208 3.82 11.136 3.996 10.992 4.14C10.856 4.284 10.688 4.356 10.488 4.356ZM11.016 5.424V12H9.924V5.424H11.016ZM13.9691 6.636C14.1851 6.26 14.5051 5.948 14.9291 5.7C15.3611 5.444 15.8611 5.316 16.4291 5.316C17.0131 5.316 17.5411 5.456 18.0131 5.736C18.4931 6.016 18.8691 6.412 19.1411 6.924C19.4131 7.428 19.5491 8.016 19.5491 8.688C19.5491 9.352 19.4131 9.944 19.1411 10.464C18.8691 10.984 18.4931 11.388 18.0131 11.676C17.5411 11.964 17.0131 12.108 16.4291 12.108C15.8691 12.108 15.3731 11.984 14.9411 11.736C14.5171 11.48 14.1931 11.164 13.9691 10.788V15.12H12.8771V5.424H13.9691V6.636ZM18.4331 8.688C18.4331 8.192 18.3331 7.76 18.1331 7.392C17.9331 7.024 17.6611 6.744 17.3171 6.552C16.9811 6.36 16.6091 6.264 16.2011 6.264C15.8011 6.264 15.4291 6.364 15.0851 6.564C14.7491 6.756 14.4771 7.04 14.2691 7.416C14.0691 7.784 13.9691 8.212 13.9691 8.7C13.9691 9.196 14.0691 9.632 14.2691 10.008C14.4771 10.376 14.7491 10.66 15.0851 10.86C15.4291 11.052 15.8011 11.148 16.2011 11.148C16.6091 11.148 16.9811 11.052 17.3171 10.86C17.6611 10.66 17.9331 10.376 18.1331 10.008C18.3331 9.632 18.4331 9.192 18.4331 8.688ZM24.6585 12L22.0785 9.096V12H20.9865V3.12H22.0785V8.34L24.6105 5.424H26.1345L23.0385 8.7L26.1465 12H24.6585ZM26.7543 8.688C26.7543 8.016 26.8903 7.428 27.1623 6.924C27.4343 6.412 27.8063 6.016 28.2783 5.736C28.7583 5.456 29.2903 5.316 29.8743 5.316C30.4503 5.316 30.9503 5.44 31.3743 5.688C31.7983 5.936 32.1143 6.248 32.3223 6.624V5.424H33.4263V12H32.3223V10.776C32.1063 11.16 31.7823 11.48 31.3503 11.736C30.9263 11.984 30.4303 12.108 29.8623 12.108C29.2783 12.108 28.7503 11.964 28.2783 11.676C27.8063 11.388 27.4343 10.984 27.1623 10.464C26.8903 9.944 26.7543 9.352 26.7543 8.688ZM32.3223 8.7C32.3223 8.204 32.2223 7.772 32.0223 7.404C31.8223 7.036 31.5503 6.756 31.2063 6.564C30.8703 6.364 30.4983 6.264 30.0903 6.264C29.6823 6.264 29.3103 6.36 28.9743 6.552C28.6383 6.744 28.3703 7.024 28.1703 7.392C27.9703 7.76 27.8703 8.192 27.8703 8.688C27.8703 9.192 27.9703 9.632 28.1703 10.008C28.3703 10.376 28.6383 10.66 28.9743 10.86C29.3103 11.052 29.6823 11.148 30.0903 11.148C30.4983 11.148 30.8703 11.052 31.2063 10.86C31.5503 10.66 31.8223 10.376 32.0223 10.008C32.2223 9.632 32.3223 9.196 32.3223 8.7ZM36.3637 6.492C36.5557 6.116 36.8277 5.824 37.1797 5.616C37.5397 5.408 37.9757 5.304 38.4877 5.304V6.432H38.1997C36.9757 6.432 36.3637 7.096 36.3637 8.424V12H35.2717V5.424H36.3637V6.492ZM41.0802 6.324V10.2C41.0802 10.52 41.1482 10.748 41.2842 10.884C41.4202 11.012 41.6562 11.076 41.9922 11.076H42.7962V12H41.8122C41.2042 12 40.7482 11.86 40.4442 11.58C40.1402 11.3 39.9882 10.84 39.9882 10.2V6.324H39.1362V5.424H39.9882V3.768H41.0802V5.424H42.7962V6.324H41.0802ZM50.1265 14.232C49.3585 13.48 48.7585 12.524 48.3265 11.364C47.9025 10.204 47.6905 8.952 47.6905 7.608C47.6905 6.232 47.9145 4.948 48.3625 3.756C48.8185 2.556 49.4665 1.568 50.3065 0.792H51.4465V0.899999C50.5505 1.74 49.8745 2.752 49.4185 3.936C48.9705 5.112 48.7465 6.336 48.7465 7.608C48.7465 8.848 48.9585 10.032 49.3825 11.16C49.8145 12.288 50.4425 13.276 51.2665 14.124V14.232H50.1265ZM52.5638 5.508C52.6198 4.772 52.9038 4.196 53.4158 3.78C53.9278 3.364 54.5918 3.156 55.4078 3.156C55.9518 3.156 56.4198 3.256 56.8118 3.456C57.2118 3.648 57.5118 3.912 57.7118 4.248C57.9198 4.584 58.0238 4.964 58.0238 5.388C58.0238 5.884 57.8798 6.312 57.5918 6.672C57.3118 7.032 56.9438 7.264 56.4878 7.368V7.428C57.0078 7.556 57.4198 7.808 57.7238 8.184C58.0278 8.56 58.1797 9.052 58.1797 9.66C58.1797 10.116 58.0758 10.528 57.8678 10.896C57.6598 11.256 57.3478 11.54 56.9318 11.748C56.5158 11.956 56.0158 12.06 55.4318 12.06C54.5838 12.06 53.8878 11.84 53.3438 11.4C52.7998 10.952 52.4958 10.32 52.4318 9.504H53.4878C53.5438 9.984 53.7398 10.376 54.0758 10.68C54.4118 10.984 54.8598 11.136 55.4198 11.136C55.9798 11.136 56.4038 10.992 56.6918 10.704C56.9878 10.408 57.1358 10.028 57.1358 9.564C57.1358 8.964 56.9358 8.532 56.5358 8.268C56.1358 8.004 55.5318 7.872 54.7238 7.872H54.4478V6.96H54.7358C55.4718 6.952 56.0278 6.832 56.4038 6.6C56.7798 6.36 56.9678 5.992 56.9678 5.496C56.9678 5.072 56.8278 4.732 56.5478 4.476C56.2758 4.22 55.8838 4.092 55.3717 4.092C54.8758 4.092 54.4758 4.22 54.1718 4.476C53.8678 4.732 53.6878 5.076 53.6318 5.508H52.5638ZM61.2382 7.488C60.7902 7.312 60.4462 7.056 60.2062 6.72C59.9662 6.384 59.8462 5.976 59.8462 5.496C59.8462 5.064 59.9542 4.676 60.1702 4.332C60.3862 3.98 60.7062 3.704 61.1302 3.504C61.5622 3.296 62.0822 3.192 62.6902 3.192C63.2982 3.192 63.8142 3.296 64.2382 3.504C64.6702 3.704 64.9942 3.98 65.2102 4.332C65.4342 4.676 65.5462 5.064 65.5462 5.496C65.5462 5.96 65.4222 6.368 65.1742 6.72C64.9262 7.064 64.5862 7.32 64.1542 7.488C64.6502 7.64 65.0422 7.908 65.3302 8.292C65.6262 8.668 65.7742 9.124 65.7742 9.66C65.7742 10.18 65.6462 10.636 65.3902 11.028C65.1342 11.412 64.7702 11.712 64.2982 11.928C63.8342 12.136 63.2982 12.24 62.6902 12.24C62.0822 12.24 61.5462 12.136 61.0822 11.928C60.6262 11.712 60.2702 11.412 60.0142 11.028C59.7582 10.636 59.6302 10.18 59.6302 9.66C59.6302 9.124 59.7742 8.664 60.0622 8.28C60.3502 7.896 60.7422 7.632 61.2382 7.488ZM64.4902 5.628C64.4902 5.14 64.3302 4.764 64.0102 4.5C63.6902 4.236 63.2502 4.104 62.6902 4.104C62.1382 4.104 61.7022 4.236 61.3822 4.5C61.0622 4.764 60.9022 5.144 60.9022 5.64C60.9022 6.088 61.0662 6.448 61.3942 6.72C61.7302 6.992 62.1622 7.128 62.6902 7.128C63.2262 7.128 63.6582 6.992 63.9862 6.72C64.3222 6.44 64.4902 6.076 64.4902 5.628ZM62.6902 7.968C62.0982 7.968 61.6142 8.108 61.2382 8.388C60.8622 8.66 60.6742 9.072 60.6742 9.624C60.6742 10.136 60.8542 10.548 61.2142 10.86C61.5822 11.172 62.0742 11.328 62.6902 11.328C63.3062 11.328 63.7942 11.172 64.1542 10.86C64.5142 10.548 64.6942 10.136 64.6942 9.624C64.6942 9.088 64.5102 8.68 64.1422 8.4C63.7742 8.112 63.2902 7.968 62.6902 7.968ZM67.0565 14.232V14.124C67.8805 13.276 68.5045 12.288 68.9285 11.16C69.3605 10.032 69.5765 8.848 69.5765 7.608C69.5765 6.336 69.3485 5.112 68.8925 3.936C68.4445 2.752 67.7725 1.74 66.8765 0.899999V0.792H68.0165C68.8565 1.568 69.5005 2.556 69.9485 3.756C70.4045 4.948 70.6325 6.232 70.6325 7.608C70.6325 8.952 70.4165 10.204 69.9845 11.364C69.5605 12.524 68.9645 13.48 68.1965 14.232H67.0565Z" fill="black"/>
</svg>
