<svg width="84" height="15" viewBox="0 0 84 15" fill="none" xmlns="http://www.w3.org/2000/svg">
<path d="M5.652 3.636V4.524H2.016V7.344H4.968V8.232H2.016V12H0.924V3.636H5.652ZM9.83888 12.108C9.22288 12.108 8.66288 11.968 8.15888 11.688C7.66288 11.408 7.27088 11.012 6.98288 10.5C6.70288 9.98 6.56288 9.38 6.56288 8.7C6.56288 8.028 6.70688 7.436 6.99488 6.924C7.29088 6.404 7.69088 6.008 8.19488 5.736C8.69888 5.456 9.26288 5.316 9.88688 5.316C10.5109 5.316 11.0749 5.456 11.5789 5.736C12.0829 6.008 12.4789 6.4 12.7669 6.912C13.0629 7.424 13.2109 8.02 13.2109 8.7C13.2109 9.38 13.0589 9.98 12.7549 10.5C12.4589 11.012 12.0549 11.408 11.5429 11.688C11.0309 11.968 10.4629 12.108 9.83888 12.108ZM9.83888 11.148C10.2309 11.148 10.5989 11.056 10.9429 10.872C11.2869 10.688 11.5629 10.412 11.7709 10.044C11.9869 9.676 12.0949 9.228 12.0949 8.7C12.0949 8.172 11.9909 7.724 11.7829 7.356C11.5749 6.988 11.3029 6.716 10.9669 6.54C10.6309 6.356 10.2669 6.264 9.87488 6.264C9.47488 6.264 9.10688 6.356 8.77088 6.54C8.44288 6.716 8.17888 6.988 7.97888 7.356C7.77888 7.724 7.67888 8.172 7.67888 8.7C7.67888 9.236 7.77488 9.688 7.96688 10.056C8.16688 10.424 8.43088 10.7 8.75888 10.884C9.08688 11.06 9.44688 11.148 9.83888 11.148ZM17.5147 12.108C16.8987 12.108 16.3387 11.968 15.8347 11.688C15.3387 11.408 14.9467 11.012 14.6587 10.5C14.3787 9.98 14.2387 9.38 14.2387 8.7C14.2387 8.028 14.3827 7.436 14.6707 6.924C14.9667 6.404 15.3667 6.008 15.8707 5.736C16.3747 5.456 16.9387 5.316 17.5627 5.316C18.1867 5.316 18.7507 5.456 19.2547 5.736C19.7587 6.008 20.1547 6.4 20.4427 6.912C20.7387 7.424 20.8867 8.02 20.8867 8.7C20.8867 9.38 20.7347 9.98 20.4307 10.5C20.1347 11.012 19.7307 11.408 19.2187 11.688C18.7067 11.968 18.1387 12.108 17.5147 12.108ZM17.5147 11.148C17.9067 11.148 18.2747 11.056 18.6187 10.872C18.9627 10.688 19.2387 10.412 19.4467 10.044C19.6627 9.676 19.7707 9.228 19.7707 8.7C19.7707 8.172 19.6667 7.724 19.4587 7.356C19.2507 6.988 18.9787 6.716 18.6427 6.54C18.3067 6.356 17.9427 6.264 17.5507 6.264C17.1507 6.264 16.7827 6.356 16.4467 6.54C16.1187 6.716 15.8547 6.988 15.6547 7.356C15.4547 7.724 15.3547 8.172 15.3547 8.7C15.3547 9.236 15.4507 9.688 15.6427 10.056C15.8427 10.424 16.1067 10.7 16.4347 10.884C16.7627 11.06 17.1227 11.148 17.5147 11.148ZM23.6544 6.324V10.2C23.6544 10.52 23.7224 10.748 23.8584 10.884C23.9944 11.012 24.2304 11.076 24.5664 11.076H25.3704V12H24.3864C23.7784 12 23.3224 11.86 23.0184 11.58C22.7144 11.3 22.5624 10.84 22.5624 10.2V6.324H21.7104V5.424H22.5624V3.768H23.6544V5.424H25.3704V6.324H23.6544ZM35.4535 5.424L33.4015 12H32.2735L30.6895 6.78L29.1055 12H27.9775L25.9135 5.424H27.0295L28.5415 10.944L30.1735 5.424H31.2895L32.8855 10.956L34.3735 5.424H35.4535ZM42.5373 8.46C42.5373 8.668 42.5253 8.888 42.5013 9.12H37.2453C37.2853 9.768 37.5053 10.276 37.9053 10.644C38.3133 11.004 38.8053 11.184 39.3813 11.184C39.8533 11.184 40.2453 11.076 40.5573 10.86C40.8773 10.636 41.1013 10.34 41.2293 9.972H42.4053C42.2293 10.604 41.8773 11.12 41.3493 11.52C40.8213 11.912 40.1653 12.108 39.3813 12.108C38.7573 12.108 38.1973 11.968 37.7013 11.688C37.2133 11.408 36.8293 11.012 36.5493 10.5C36.2693 9.98 36.1293 9.38 36.1293 8.7C36.1293 8.02 36.2653 7.424 36.5373 6.912C36.8093 6.4 37.1893 6.008 37.6773 5.736C38.1733 5.456 38.7413 5.316 39.3813 5.316C40.0053 5.316 40.5573 5.452 41.0373 5.724C41.5173 5.996 41.8853 6.372 42.1413 6.852C42.4053 7.324 42.5373 7.86 42.5373 8.46ZM41.4093 8.232C41.4093 7.816 41.3173 7.46 41.1333 7.164C40.9493 6.86 40.6973 6.632 40.3773 6.48C40.0653 6.32 39.7173 6.24 39.3333 6.24C38.7813 6.24 38.3093 6.416 37.9173 6.768C37.5333 7.12 37.3133 7.608 37.2573 8.232H41.4093ZM43.5707 8.688C43.5707 8.016 43.7067 7.428 43.9787 6.924C44.2507 6.412 44.6227 6.016 45.0947 5.736C45.5747 5.456 46.1067 5.316 46.6907 5.316C47.2667 5.316 47.7667 5.44 48.1907 5.688C48.6147 5.936 48.9307 6.248 49.1387 6.624V5.424H50.2427V12H49.1387V10.776C48.9227 11.16 48.5987 11.48 48.1667 11.736C47.7427 11.984 47.2467 12.108 46.6787 12.108C46.0947 12.108 45.5667 11.964 45.0947 11.676C44.6227 11.388 44.2507 10.984 43.9787 10.464C43.7067 9.944 43.5707 9.352 43.5707 8.688ZM49.1387 8.7C49.1387 8.204 49.0387 7.772 48.8387 7.404C48.6387 7.036 48.3667 6.756 48.0227 6.564C47.6867 6.364 47.3147 6.264 46.9067 6.264C46.4987 6.264 46.1267 6.36 45.7907 6.552C45.4547 6.744 45.1867 7.024 44.9867 7.392C44.7867 7.76 44.6867 8.192 44.6867 8.688C44.6867 9.192 44.7867 9.632 44.9867 10.008C45.1867 10.376 45.4547 10.66 45.7907 10.86C46.1267 11.052 46.4987 11.148 46.9067 11.148C47.3147 11.148 47.6867 11.052 48.0227 10.86C48.3667 10.66 48.6387 10.376 48.8387 10.008C49.0387 9.632 49.1387 9.196 49.1387 8.7ZM53.1801 6.492C53.3721 6.116 53.6441 5.824 53.9961 5.616C54.3561 5.408 54.7921 5.304 55.3041 5.304V6.432H55.0161C53.7921 6.432 53.1801 7.096 53.1801 8.424V12H52.0881V5.424H53.1801V6.492ZM62.5718 14.232C61.8038 13.48 61.2038 12.524 60.7718 11.364C60.3478 10.204 60.1358 8.952 60.1358 7.608C60.1358 6.232 60.3598 4.948 60.8078 3.756C61.2638 2.556 61.9118 1.568 62.7518 0.792H63.8918V0.899999C62.9958 1.74 62.3198 2.752 61.8638 3.936C61.4158 5.112 61.1918 6.336 61.1918 7.608C61.1918 8.848 61.4038 10.032 61.8278 11.16C62.2598 12.288 62.8878 13.276 63.7118 14.124V14.232H62.5718ZM70.5651 4.272H66.3531V7.008C66.5371 6.752 66.8091 6.544 67.1691 6.384C67.5291 6.216 67.9171 6.132 68.3331 6.132C68.9971 6.132 69.5371 6.272 69.9531 6.552C70.3691 6.824 70.6651 7.18 70.8411 7.62C71.0251 8.052 71.1171 8.512 71.1171 9C71.1171 9.576 71.0091 10.092 70.7931 10.548C70.5771 11.004 70.2451 11.364 69.7971 11.628C69.3571 11.892 68.8091 12.024 68.1531 12.024C67.3131 12.024 66.6331 11.808 66.1131 11.376C65.5931 10.944 65.2771 10.368 65.1651 9.648H66.2331C66.3371 10.104 66.5571 10.46 66.8931 10.716C67.2291 10.972 67.6531 11.1 68.1651 11.1C68.7971 11.1 69.2731 10.912 69.5931 10.536C69.9131 10.152 70.0731 9.648 70.0731 9.024C70.0731 8.4 69.9131 7.92 69.5931 7.584C69.2731 7.24 68.8011 7.068 68.1771 7.068C67.7531 7.068 67.3811 7.172 67.0611 7.38C66.7491 7.58 66.5211 7.856 66.3771 8.208H65.3451V3.312H70.5651V4.272ZM78.1002 4.272H73.8882V7.008C74.0722 6.752 74.3442 6.544 74.7042 6.384C75.0642 6.216 75.4522 6.132 75.8682 6.132C76.5322 6.132 77.0722 6.272 77.4882 6.552C77.9042 6.824 78.2002 7.18 78.3762 7.62C78.5602 8.052 78.6522 8.512 78.6522 9C78.6522 9.576 78.5442 10.092 78.3282 10.548C78.1122 11.004 77.7802 11.364 77.3322 11.628C76.8922 11.892 76.3442 12.024 75.6882 12.024C74.8482 12.024 74.1682 11.808 73.6482 11.376C73.1282 10.944 72.8122 10.368 72.7002 9.648H73.7682C73.8722 10.104 74.0922 10.46 74.4282 10.716C74.7642 10.972 75.1882 11.1 75.7002 11.1C76.3322 11.1 76.8082 10.912 77.1282 10.536C77.4482 10.152 77.6082 9.648 77.6082 9.024C77.6082 8.4 77.4482 7.92 77.1282 7.584C76.8082 7.24 76.3362 7.068 75.7122 7.068C75.2882 7.068 74.9162 7.172 74.5962 7.38C74.2842 7.58 74.0562 7.856 73.9122 8.208H72.8802V3.312H78.1002V4.272ZM79.9354 14.232V14.124C80.7594 13.276 81.3834 12.288 81.8074 11.16C82.2394 10.032 82.4554 8.848 82.4554 7.608C82.4554 6.336 82.2274 5.112 81.7714 3.936C81.3234 2.752 80.6514 1.74 79.7554 0.899999V0.792H80.8954C81.7354 1.568 82.3794 2.556 82.8274 3.756C83.2834 4.948 83.5114 6.232 83.5114 7.608C83.5114 8.952 83.2954 10.204 82.8634 11.364C82.4394 12.524 81.8434 13.48 81.0754 14.232H79.9354Z" fill="black"/>
</svg>
