<svg width="105" height="15" viewBox="0 0 105 15" fill="none" xmlns="http://www.w3.org/2000/svg">
<path d="M5.652 3.636V4.524H2.016V7.344H4.968V8.232H2.016V12H0.924V3.636H5.652ZM9.83888 12.108C9.22288 12.108 8.66288 11.968 8.15888 11.688C7.66288 11.408 7.27088 11.012 6.98288 10.5C6.70288 9.98 6.56288 9.38 6.56288 8.7C6.56288 8.028 6.70688 7.436 6.99488 6.924C7.29088 6.404 7.69088 6.008 8.19488 5.736C8.69888 5.456 9.26288 5.316 9.88688 5.316C10.5109 5.316 11.0749 5.456 11.5789 5.736C12.0829 6.008 12.4789 6.4 12.7669 6.912C13.0629 7.424 13.2109 8.02 13.2109 8.7C13.2109 9.38 13.0589 9.98 12.7549 10.5C12.4589 11.012 12.0549 11.408 11.5429 11.688C11.0309 11.968 10.4629 12.108 9.83888 12.108ZM9.83888 11.148C10.2309 11.148 10.5989 11.056 10.9429 10.872C11.2869 10.688 11.5629 10.412 11.7709 10.044C11.9869 9.676 12.0949 9.228 12.0949 8.7C12.0949 8.172 11.9909 7.724 11.7829 7.356C11.5749 6.988 11.3029 6.716 10.9669 6.54C10.6309 6.356 10.2669 6.264 9.87488 6.264C9.47488 6.264 9.10688 6.356 8.77088 6.54C8.44288 6.716 8.17888 6.988 7.97888 7.356C7.77888 7.724 7.67888 8.172 7.67888 8.7C7.67888 9.236 7.77488 9.688 7.96688 10.056C8.16688 10.424 8.43088 10.7 8.75888 10.884C9.08688 11.06 9.44688 11.148 9.83888 11.148ZM15.7387 6.492C15.9307 6.116 16.2027 5.824 16.5547 5.616C16.9147 5.408 17.3507 5.304 17.8627 5.304V6.432H17.5747C16.3507 6.432 15.7387 7.096 15.7387 8.424V12H14.6467V5.424H15.7387V6.492ZM27.0312 5.304C27.5432 5.304 27.9992 5.412 28.3992 5.628C28.7992 5.836 29.1152 6.152 29.3472 6.576C29.5792 7 29.6952 7.516 29.6952 8.124V12H28.6152V8.28C28.6152 7.624 28.4512 7.124 28.1232 6.78C27.8032 6.428 27.3672 6.252 26.8152 6.252C26.2472 6.252 25.7952 6.436 25.4592 6.804C25.1232 7.164 24.9552 7.688 24.9552 8.376V12H23.8752V8.28C23.8752 7.624 23.7112 7.124 23.3832 6.78C23.0632 6.428 22.6272 6.252 22.0752 6.252C21.5072 6.252 21.0552 6.436 20.7192 6.804C20.3832 7.164 20.2152 7.688 20.2152 8.376V12H19.1232V5.424H20.2152V6.372C20.4312 6.028 20.7192 5.764 21.0792 5.58C21.4472 5.396 21.8512 5.304 22.2912 5.304C22.8432 5.304 23.3312 5.428 23.7552 5.676C24.1792 5.924 24.4952 6.288 24.7032 6.768C24.8872 6.304 25.1912 5.944 25.6152 5.688C26.0392 5.432 26.5112 5.304 27.0312 5.304ZM31.0785 8.688C31.0785 8.016 31.2145 7.428 31.4865 6.924C31.7585 6.412 32.1305 6.016 32.6025 5.736C33.0825 5.456 33.6145 5.316 34.1985 5.316C34.7745 5.316 35.2745 5.44 35.6985 5.688C36.1225 5.936 36.4385 6.248 36.6465 6.624V5.424H37.7505V12H36.6465V10.776C36.4305 11.16 36.1065 11.48 35.6745 11.736C35.2505 11.984 34.7545 12.108 34.1865 12.108C33.6025 12.108 33.0745 11.964 32.6025 11.676C32.1305 11.388 31.7585 10.984 31.4865 10.464C31.2145 9.944 31.0785 9.352 31.0785 8.688ZM36.6465 8.7C36.6465 8.204 36.5465 7.772 36.3465 7.404C36.1465 7.036 35.8745 6.756 35.5305 6.564C35.1945 6.364 34.8225 6.264 34.4145 6.264C34.0065 6.264 33.6345 6.36 33.2985 6.552C32.9625 6.744 32.6945 7.024 32.4945 7.392C32.2945 7.76 32.1945 8.192 32.1945 8.688C32.1945 9.192 32.2945 9.632 32.4945 10.008C32.6945 10.376 32.9625 10.66 33.2985 10.86C33.6345 11.052 34.0065 11.148 34.4145 11.148C34.8225 11.148 35.1945 11.052 35.5305 10.86C35.8745 10.66 36.1465 10.376 36.3465 10.008C36.5465 9.632 36.6465 9.196 36.6465 8.7ZM40.6879 3.12V12H39.5959V3.12H40.6879ZM48.4002 12.084C47.8482 12.084 47.3522 11.988 46.9122 11.796C46.4802 11.596 46.1402 11.324 45.8922 10.98C45.6442 10.628 45.5162 10.224 45.5082 9.768H46.6722C46.7122 10.16 46.8722 10.492 47.1522 10.764C47.4402 11.028 47.8562 11.16 48.4002 11.16C48.9202 11.16 49.3282 11.032 49.6242 10.776C49.9282 10.512 50.0802 10.176 50.0802 9.768C50.0802 9.448 49.9922 9.188 49.8162 8.988C49.6402 8.788 49.4202 8.636 49.1562 8.532C48.8922 8.428 48.5362 8.316 48.0882 8.196C47.5362 8.052 47.0922 7.908 46.7562 7.764C46.4282 7.62 46.1442 7.396 45.9042 7.092C45.6722 6.78 45.5562 6.364 45.5562 5.844C45.5562 5.388 45.6722 4.984 45.9042 4.632C46.1362 4.28 46.4602 4.008 46.8762 3.816C47.3002 3.624 47.7842 3.528 48.3282 3.528C49.1122 3.528 49.7522 3.724 50.2482 4.116C50.7522 4.508 51.0362 5.028 51.1002 5.676H49.9002C49.8602 5.356 49.6922 5.076 49.3962 4.836C49.1002 4.588 48.7082 4.464 48.2202 4.464C47.7642 4.464 47.3922 4.584 47.1042 4.824C46.8162 5.056 46.6722 5.384 46.6722 5.808C46.6722 6.112 46.7562 6.36 46.9242 6.552C47.1002 6.744 47.3122 6.892 47.5602 6.996C47.8162 7.092 48.1722 7.204 48.6282 7.332C49.1802 7.484 49.6242 7.636 49.9602 7.788C50.2962 7.932 50.5842 8.16 50.8242 8.472C51.0642 8.776 51.1842 9.192 51.1842 9.72C51.1842 10.128 51.0762 10.512 50.8602 10.872C50.6442 11.232 50.3242 11.524 49.9002 11.748C49.4762 11.972 48.9762 12.084 48.4002 12.084ZM56.0552 5.304C56.5512 5.304 56.9992 5.412 57.3992 5.628C57.7992 5.836 58.1112 6.152 58.3352 6.576C58.5672 7 58.6832 7.516 58.6832 8.124V12H57.6032V8.28C57.6032 7.624 57.4392 7.124 57.1112 6.78C56.7832 6.428 56.3352 6.252 55.7672 6.252C55.1912 6.252 54.7312 6.432 54.3872 6.792C54.0512 7.152 53.8832 7.676 53.8832 8.364V12H52.7912V3.12H53.8832V6.36C54.0992 6.024 54.3952 5.764 54.7712 5.58C55.1552 5.396 55.5832 5.304 56.0552 5.304ZM61.031 4.356C60.823 4.356 60.647 4.284 60.503 4.14C60.359 3.996 60.287 3.82 60.287 3.612C60.287 3.404 60.359 3.228 60.503 3.084C60.647 2.94 60.823 2.868 61.031 2.868C61.231 2.868 61.399 2.94 61.535 3.084C61.679 3.228 61.751 3.404 61.751 3.612C61.751 3.82 61.679 3.996 61.535 4.14C61.399 4.284 61.231 4.356 61.031 4.356ZM61.559 5.424V12H60.467V5.424H61.559ZM64.5121 6.492C64.7041 6.116 64.9761 5.824 65.3281 5.616C65.6881 5.408 66.1241 5.304 66.6361 5.304V6.432H66.3481C65.1241 6.432 64.5121 7.096 64.5121 8.424V12H63.4201V5.424H64.5121V6.492ZM69.2287 6.324V10.2C69.2287 10.52 69.2967 10.748 69.4327 10.884C69.5687 11.012 69.8047 11.076 70.1407 11.076H70.9447V12H69.9607C69.3527 12 68.8967 11.86 68.5927 11.58C68.2887 11.3 68.1367 10.84 68.1367 10.2V6.324H67.2847V5.424H68.1367V3.768H69.2287V5.424H70.9447V6.324H69.2287ZM74.5958 12.108C74.0918 12.108 73.6398 12.024 73.2398 11.856C72.8398 11.68 72.5238 11.44 72.2918 11.136C72.0598 10.824 71.9318 10.468 71.9078 10.068H73.0358C73.0678 10.396 73.2198 10.664 73.4918 10.872C73.7718 11.08 74.1358 11.184 74.5838 11.184C74.9998 11.184 75.3278 11.092 75.5678 10.908C75.8078 10.724 75.9278 10.492 75.9278 10.212C75.9278 9.924 75.7998 9.712 75.5438 9.576C75.2878 9.432 74.8918 9.292 74.3558 9.156C73.8678 9.028 73.4678 8.9 73.1558 8.772C72.8518 8.636 72.5878 8.44 72.3638 8.184C72.1478 7.92 72.0398 7.576 72.0398 7.152C72.0398 6.816 72.1398 6.508 72.3398 6.228C72.5398 5.948 72.8238 5.728 73.1918 5.568C73.5598 5.4 73.9798 5.316 74.4518 5.316C75.1798 5.316 75.7678 5.5 76.2158 5.868C76.6638 6.236 76.9038 6.74 76.9358 7.38H75.8438C75.8198 7.036 75.6798 6.76 75.4238 6.552C75.1758 6.344 74.8398 6.24 74.4158 6.24C74.0238 6.24 73.7118 6.324 73.4798 6.492C73.2478 6.66 73.1318 6.88 73.1318 7.152C73.1318 7.368 73.1998 7.548 73.3358 7.692C73.4798 7.828 73.6558 7.94 73.8638 8.028C74.0798 8.108 74.3758 8.2 74.7518 8.304C75.2238 8.432 75.6078 8.56 75.9038 8.688C76.1998 8.808 76.4518 8.992 76.6598 9.24C76.8758 9.488 76.9878 9.812 76.9958 10.212C76.9958 10.572 76.8958 10.896 76.6958 11.184C76.4958 11.472 76.2118 11.7 75.8438 11.868C75.4838 12.028 75.0678 12.108 74.5958 12.108ZM84.5445 14.232C83.7765 13.48 83.1765 12.524 82.7445 11.364C82.3205 10.204 82.1085 8.952 82.1085 7.608C82.1085 6.232 82.3325 4.948 82.7805 3.756C83.2365 2.556 83.8845 1.568 84.7245 0.792H85.8645V0.899999C84.9685 1.74 84.2925 2.752 83.8365 3.936C83.3885 5.112 83.1645 6.336 83.1645 7.608C83.1645 8.848 83.3765 10.032 83.8005 11.16C84.2325 12.288 84.8605 13.276 85.6845 14.124V14.232H84.5445ZM92.3457 4.176L89.0097 12H87.9057L91.2897 4.284H86.6577V3.348H92.3457V4.176ZM99.0885 4.272H94.8765V7.008C95.0605 6.752 95.3325 6.544 95.6925 6.384C96.0525 6.216 96.4405 6.132 96.8565 6.132C97.5205 6.132 98.0605 6.272 98.4765 6.552C98.8925 6.824 99.1885 7.18 99.3645 7.62C99.5485 8.052 99.6405 8.512 99.6405 9C99.6405 9.576 99.5325 10.092 99.3165 10.548C99.1005 11.004 98.7685 11.364 98.3205 11.628C97.8805 11.892 97.3325 12.024 96.6765 12.024C95.8365 12.024 95.1565 11.808 94.6365 11.376C94.1165 10.944 93.8005 10.368 93.6885 9.648H94.7565C94.8605 10.104 95.0805 10.46 95.4165 10.716C95.7525 10.972 96.1765 11.1 96.6885 11.1C97.3205 11.1 97.7965 10.912 98.1165 10.536C98.4365 10.152 98.5965 9.648 98.5965 9.024C98.5965 8.4 98.4365 7.92 98.1165 7.584C97.7965 7.24 97.3245 7.068 96.7005 7.068C96.2765 7.068 95.9045 7.172 95.5845 7.38C95.2725 7.58 95.0445 7.856 94.9005 8.208H93.8685V3.312H99.0885V4.272ZM100.924 14.232V14.124C101.748 13.276 102.372 12.288 102.796 11.16C103.228 10.032 103.444 8.848 103.444 7.608C103.444 6.336 103.216 5.112 102.76 3.936C102.312 2.752 101.64 1.74 100.744 0.899999V0.792H101.884C102.724 1.568 103.368 2.556 103.816 3.756C104.272 4.948 104.5 6.232 104.5 7.608C104.5 8.952 104.284 10.204 103.852 11.364C103.428 12.524 102.832 13.48 102.064 14.232H100.924Z" fill="black"/>
</svg>
