<svg width="19" height="124" viewBox="0 0 19 124" fill="none" xmlns="http://www.w3.org/2000/svg">
<rect x="5.68896" y="1.14795" width="13.2" height="119.408" fill="white"/>
<path d="M18.8889 15.4998H5.68892V38.4628H18.8889V15.4998Z" fill="#14213D" fill-opacity="0.5"/>
<path d="M11.6306 10.9266L8.26353 7.70508C8.03081 7.48241 8.03081 7.12235 8.26353 6.90206L8.82306 6.36671C9.05578 6.14404 9.4321 6.14404 9.66234 6.36671L12.049 8.65023L14.4356 6.36671C14.6684 6.14404 15.0447 6.14404 15.2749 6.36671L15.8344 6.90206C16.0672 7.12472 16.0672 7.48478 15.8344 7.70508L12.4674 10.9266C12.2396 11.1493 11.8633 11.1493 11.6306 10.9266Z" fill="#14213D" fill-opacity="0.5"/>
<path d="M12.4673 111.537L15.8344 114.759C16.0671 114.982 16.0671 115.342 15.8344 115.562L15.2748 116.097C15.0421 116.32 14.6658 116.32 14.4356 116.097L12.0489 113.814L9.66227 116.097C9.42954 116.32 9.05322 116.32 8.82298 116.097L8.26345 115.562C8.03073 115.339 8.03073 114.979 8.26345 114.759L11.6305 111.537C11.8583 111.315 12.2346 111.315 12.4673 111.537Z" fill="#14213D" fill-opacity="0.5"/>
</svg>
