<svg width="70" height="17" viewBox="0 0 70 17" fill="none" xmlns="http://www.w3.org/2000/svg">
<path d="M20.884 12L19.058 8.865H17.848V12H16.847V4.333H19.322C19.9013 4.333 20.389 4.432 20.785 4.63C21.1883 4.828 21.489 5.09567 21.687 5.433C21.885 5.77033 21.984 6.15533 21.984 6.588C21.984 7.116 21.83 7.58167 21.522 7.985C21.2213 8.38833 20.7667 8.656 20.158 8.788L22.083 12H20.884ZM17.848 8.062H19.322C19.8647 8.062 20.2717 7.93 20.543 7.666C20.8143 7.39467 20.95 7.03533 20.95 6.588C20.95 6.13333 20.8143 5.78133 20.543 5.532C20.279 5.28267 19.872 5.158 19.322 5.158H17.848V8.062ZM23.1654 8.964C23.1654 8.348 23.29 7.809 23.5394 7.347C23.7887 6.87767 24.1297 6.51467 24.5624 6.258C25.0024 6.00133 25.49 5.873 26.0254 5.873C26.5534 5.873 27.0117 5.98667 27.4004 6.214C27.789 6.44133 28.0787 6.72733 28.2694 7.072V5.972H29.2814V12H28.2694V10.878C28.0714 11.23 27.7744 11.5233 27.3784 11.758C26.9897 11.9853 26.535 12.099 26.0144 12.099C25.479 12.099 24.995 11.967 24.5624 11.703C24.1297 11.439 23.7887 11.0687 23.5394 10.592C23.29 10.1153 23.1654 9.57267 23.1654 8.964ZM28.2694 8.975C28.2694 8.52033 28.1777 8.12433 27.9944 7.787C27.811 7.44967 27.5617 7.193 27.2464 7.017C26.9384 6.83367 26.5974 6.742 26.2234 6.742C25.8494 6.742 25.5084 6.83 25.2004 7.006C24.8924 7.182 24.6467 7.43867 24.4634 7.776C24.28 8.11333 24.1884 8.50933 24.1884 8.964C24.1884 9.426 24.28 9.82933 24.4634 10.174C24.6467 10.5113 24.8924 10.7717 25.2004 10.955C25.5084 11.131 25.8494 11.219 26.2234 11.219C26.5974 11.219 26.9384 11.131 27.2464 10.955C27.5617 10.7717 27.811 10.5113 27.9944 10.174C28.1777 9.82933 28.2694 9.42967 28.2694 8.975ZM32.194 6.797V10.35C32.194 10.6433 32.2563 10.8523 32.381 10.977C32.5056 11.0943 32.722 11.153 33.03 11.153H33.767V12H32.865C32.3076 12 31.8896 11.8717 31.611 11.615C31.3323 11.3583 31.193 10.9367 31.193 10.35V6.797H30.412V5.972H31.193V4.454H32.194V5.972H33.767V6.797H32.194ZM40.4798 8.755C40.4798 8.94567 40.4688 9.14733 40.4468 9.36H35.6288C35.6655 9.954 35.8671 10.4197 36.2338 10.757C36.6078 11.087 37.0588 11.252 37.5868 11.252C38.0195 11.252 38.3788 11.153 38.6648 10.955C38.9581 10.7497 39.1635 10.4783 39.2808 10.141H40.3588C40.1975 10.7203 39.8748 11.1933 39.3908 11.56C38.9068 11.9193 38.3055 12.099 37.5868 12.099C37.0148 12.099 36.5015 11.9707 36.0468 11.714C35.5995 11.4573 35.2475 11.0943 34.9908 10.625C34.7341 10.1483 34.6058 9.59833 34.6058 8.975C34.6058 8.35167 34.7305 7.80533 34.9798 7.336C35.2291 6.86667 35.5775 6.50733 36.0248 6.258C36.4795 6.00133 37.0001 5.873 37.5868 5.873C38.1588 5.873 38.6648 5.99767 39.1048 6.247C39.5448 6.49633 39.8821 6.841 40.1168 7.281C40.3588 7.71367 40.4798 8.205 40.4798 8.755ZM39.4458 8.546C39.4458 8.16467 39.3615 7.83833 39.1928 7.567C39.0241 7.28833 38.7931 7.07933 38.4998 6.94C38.2138 6.79333 37.8948 6.72 37.5428 6.72C37.0368 6.72 36.6041 6.88133 36.2448 7.204C35.8928 7.52667 35.6911 7.974 35.6398 8.546H39.4458ZM50.6407 4.333V12H49.6397V8.524H45.7347V12H44.7337V4.333H45.7347V7.699H49.6397V4.333H50.6407ZM57.8499 8.755C57.8499 8.94567 57.8389 9.14733 57.8169 9.36H52.9989C53.0356 9.954 53.2373 10.4197 53.6039 10.757C53.9779 11.087 54.4289 11.252 54.9569 11.252C55.3896 11.252 55.7489 11.153 56.0349 10.955C56.3283 10.7497 56.5336 10.4783 56.6509 10.141H57.7289C57.5676 10.7203 57.2449 11.1933 56.7609 11.56C56.2769 11.9193 55.6756 12.099 54.9569 12.099C54.3849 12.099 53.8716 11.9707 53.4169 11.714C52.9696 11.4573 52.6176 11.0943 52.3609 10.625C52.1043 10.1483 51.9759 9.59833 51.9759 8.975C51.9759 8.35167 52.1006 7.80533 52.3499 7.336C52.5993 6.86667 52.9476 6.50733 53.3949 6.258C53.8496 6.00133 54.3703 5.873 54.9569 5.873C55.5289 5.873 56.0349 5.99767 56.4749 6.247C56.9149 6.49633 57.2523 6.841 57.4869 7.281C57.7289 7.71367 57.8499 8.205 57.8499 8.755ZM56.8159 8.546C56.8159 8.16467 56.7316 7.83833 56.5629 7.567C56.3943 7.28833 56.1633 7.07933 55.8699 6.94C55.5839 6.79333 55.2649 6.72 54.9129 6.72C54.4069 6.72 53.9743 6.88133 53.6149 7.204C53.2629 7.52667 53.0613 7.974 53.0099 8.546H56.8159ZM60.1722 6.951C60.3482 6.60633 60.5976 6.33867 60.9202 6.148C61.2502 5.95733 61.6499 5.862 62.1192 5.862V6.896H61.8552C60.7332 6.896 60.1722 7.50467 60.1722 8.722V12H59.1712V5.972H60.1722V6.951ZM68.7747 8.755C68.7747 8.94567 68.7637 9.14733 68.7417 9.36H63.9237C63.9604 9.954 64.1621 10.4197 64.5287 10.757C64.9027 11.087 65.3537 11.252 65.8817 11.252C66.3144 11.252 66.6737 11.153 66.9597 10.955C67.2531 10.7497 67.4584 10.4783 67.5757 10.141H68.6537C68.4924 10.7203 68.1697 11.1933 67.6857 11.56C67.2017 11.9193 66.6004 12.099 65.8817 12.099C65.3097 12.099 64.7964 11.9707 64.3417 11.714C63.8944 11.4573 63.5424 11.0943 63.2857 10.625C63.0291 10.1483 62.9007 9.59833 62.9007 8.975C62.9007 8.35167 63.0254 7.80533 63.2747 7.336C63.5241 6.86667 63.8724 6.50733 64.3197 6.258C64.7744 6.00133 65.2951 5.873 65.8817 5.873C66.4537 5.873 66.9597 5.99767 67.3997 6.247C67.8397 6.49633 68.1771 6.841 68.4117 7.281C68.6537 7.71367 68.7747 8.205 68.7747 8.755ZM67.7407 8.546C67.7407 8.16467 67.6564 7.83833 67.4877 7.567C67.3191 7.28833 67.0881 7.07933 66.7947 6.94C66.5087 6.79333 66.1897 6.72 65.8377 6.72C65.3317 6.72 64.8991 6.88133 64.5397 7.204C64.1877 7.52667 63.9861 7.974 63.9347 8.546H67.7407Z" fill="#140D4F"/>
<path d="M6.5 2.80902L7.72158 6.56864L7.77771 6.74139H7.95934H11.9124L8.71432 9.06497L8.56737 9.17173L8.6235 9.34448L9.84508 13.1041L6.64695 10.7805L6.5 10.6738L6.35305 10.7805L3.15492 13.1041L4.3765 9.34448L4.43263 9.17173L4.28568 9.06497L1.08755 6.74139H5.04066H5.22229L5.27842 6.56864L6.5 2.80902Z" stroke="#140D4F" stroke-width="0.5"/>
</svg>
