<svg width="44" height="21" viewBox="0 0 44 21" fill="none" xmlns="http://www.w3.org/2000/svg">
<path d="M1 5.99988C0.734784 5.99988 0.48043 6.10019 0.292893 6.27874C0.105357 6.45729 0 6.69946 0 6.95197C0 7.20447 0.105357 7.44664 0.292893 7.62519C0.48043 7.80374 0.734784 7.90405 1 7.90405H12C12.2652 7.90405 12.5196 7.80374 12.7071 7.62519C12.8946 7.44664 13 7.20447 13 6.95197C13 6.69946 12.8946 6.45729 12.7071 6.27874C12.5196 6.10019 12.2652 5.99988 12 5.99988H1Z" fill="#140D4F"/>
<path d="M1 9.80823C0.734784 9.80823 0.48043 9.90854 0.292893 10.0871C0.105357 10.2656 0 10.5078 0 10.7603C0 11.0128 0.105357 11.255 0.292893 11.4336C0.48043 11.6121 0.734784 11.7124 1 11.7124H8C8.26522 11.7124 8.51957 11.6121 8.70711 11.4336C8.89464 11.255 9 11.0128 9 10.7603C9 10.5078 8.89464 10.2656 8.70711 10.0871C8.51957 9.90854 8.26522 9.80823 8 9.80823H1Z" fill="#140D4F"/>
<path d="M1 13.6166C0.734784 13.6166 0.48043 13.7169 0.292893 13.8954C0.105357 14.074 0 14.3162 0 14.5687C0 14.8212 0.105357 15.0633 0.292893 15.2419C0.48043 15.4204 0.734784 15.5208 1 15.5208H5C5.26522 15.5208 5.51957 15.4204 5.70711 15.2419C5.89464 15.0633 6 14.8212 6 14.5687C6 14.3162 5.89464 14.074 5.70711 13.8954C5.51957 13.7169 5.26522 13.6166 5 13.6166H1Z" fill="#140D4F"/>
<path d="M20.256 15.098C19.6027 15.098 19.0147 14.986 18.492 14.762C17.9693 14.5287 17.5587 14.202 17.26 13.782C16.9613 13.362 16.812 12.872 16.812 12.312H18.52C18.5573 12.732 18.7207 13.0773 19.01 13.348C19.3087 13.6187 19.724 13.754 20.256 13.754C20.8067 13.754 21.236 13.6233 21.544 13.362C21.852 13.0913 22.006 12.746 22.006 12.326C22.006 11.9993 21.908 11.7333 21.712 11.528C21.5253 11.3227 21.2873 11.164 20.998 11.052C20.718 10.94 20.326 10.8187 19.822 10.688C19.1873 10.52 18.6693 10.352 18.268 10.184C17.876 10.0067 17.54 9.736 17.26 9.372C16.98 9.008 16.84 8.52267 16.84 7.916C16.84 7.356 16.98 6.866 17.26 6.446C17.54 6.026 17.932 5.704 18.436 5.48C18.94 5.256 19.5233 5.144 20.186 5.144C21.1287 5.144 21.8987 5.382 22.496 5.858C23.1027 6.32467 23.4387 6.96867 23.504 7.79H21.74C21.712 7.43533 21.544 7.132 21.236 6.88C20.928 6.628 20.522 6.502 20.018 6.502C19.5607 6.502 19.1873 6.61867 18.898 6.852C18.6087 7.08533 18.464 7.42133 18.464 7.86C18.464 8.15867 18.5527 8.406 18.73 8.602C18.9167 8.78867 19.15 8.938 19.43 9.05C19.71 9.162 20.0927 9.28333 20.578 9.414C21.222 9.59133 21.7447 9.76867 22.146 9.946C22.5567 10.1233 22.902 10.3987 23.182 10.772C23.4713 11.136 23.616 11.626 23.616 12.242C23.616 12.7367 23.4807 13.2033 23.21 13.642C22.9487 14.0807 22.5613 14.4353 22.048 14.706C21.544 14.9673 20.9467 15.098 20.256 15.098ZM28.8452 15.126C28.1172 15.126 27.4592 14.9627 26.8712 14.636C26.2832 14.3 25.8212 13.8333 25.4852 13.236C25.1492 12.6293 24.9812 11.9293 24.9812 11.136C24.9812 10.352 25.1539 9.65667 25.4992 9.05C25.8446 8.44333 26.3159 7.97667 26.9132 7.65C27.5106 7.32333 28.1779 7.16 28.9152 7.16C29.6526 7.16 30.3199 7.32333 30.9172 7.65C31.5146 7.97667 31.9859 8.44333 32.3312 9.05C32.6766 9.65667 32.8492 10.352 32.8492 11.136C32.8492 11.92 32.6719 12.6153 32.3172 13.222C31.9626 13.8287 31.4772 14.3 30.8612 14.636C30.2546 14.9627 29.5826 15.126 28.8452 15.126ZM28.8452 13.74C29.2559 13.74 29.6386 13.642 29.9932 13.446C30.3572 13.25 30.6512 12.956 30.8752 12.564C31.0992 12.172 31.2112 11.696 31.2112 11.136C31.2112 10.576 31.1039 10.1047 30.8892 9.722C30.6746 9.33 30.3899 9.036 30.0352 8.84C29.6806 8.644 29.2979 8.546 28.8872 8.546C28.4766 8.546 28.0939 8.644 27.7392 8.84C27.3939 9.036 27.1186 9.33 26.9132 9.722C26.7079 10.1047 26.6052 10.576 26.6052 11.136C26.6052 11.9667 26.8152 12.6107 27.2352 13.068C27.6646 13.516 28.2012 13.74 28.8452 13.74ZM36.023 8.406C36.2563 8.014 36.5643 7.71067 36.947 7.496C37.339 7.272 37.801 7.16 38.333 7.16V8.812H37.927C37.3016 8.812 36.8256 8.97067 36.499 9.288C36.1816 9.60533 36.023 10.156 36.023 10.94V15H34.427V7.286H36.023V8.406ZM41.662 8.588V12.858C41.662 13.1473 41.7273 13.3573 41.858 13.488C41.998 13.6093 42.2313 13.67 42.558 13.67H43.538V15H42.278C41.5593 15 41.0087 14.832 40.626 14.496C40.2433 14.16 40.052 13.614 40.052 12.858V8.588H39.142V7.286H40.052V5.368H41.662V7.286H43.538V8.588H41.662Z" fill="#140D4F"/>
</svg>
