<svg width="94" height="20" viewBox="0 0 94 20" fill="none" xmlns="http://www.w3.org/2000/svg">
<path d="M6.5 4L7.95934 8.49139H12.6819L8.86126 11.2672L10.3206 15.7586L6.5 12.9828L2.6794 15.7586L4.13874 11.2672L0.318133 8.49139H5.04066L6.5 4Z" fill="#2B9348"/>
<path d="M13.611 13.154V11.724L17.862 5.64H19.981V11.568H21.125V13.154H19.981V15H18.161V13.154H13.611ZM18.278 7.59L15.613 11.568H18.278V7.59ZM23.2977 15.091C22.9684 15.091 22.6954 14.9913 22.4787 14.792C22.2707 14.584 22.1667 14.3283 22.1667 14.025C22.1667 13.7217 22.2707 13.4703 22.4787 13.271C22.6954 13.063 22.9684 12.959 23.2977 12.959C23.6184 12.959 23.8827 13.063 24.0907 13.271C24.2987 13.4703 24.4027 13.7217 24.4027 14.025C24.4027 14.3283 24.2987 14.584 24.0907 14.792C23.8827 14.9913 23.6184 15.091 23.2977 15.091ZM32.0307 7.096H27.8187V9.319C28.0007 9.09367 28.2607 8.91167 28.5987 8.773C28.9367 8.62567 29.2963 8.552 29.6777 8.552C30.371 8.552 30.9387 8.70367 31.3807 9.007C31.8227 9.31033 32.1433 9.70033 32.3427 10.177C32.542 10.645 32.6417 11.1477 32.6417 11.685C32.6417 12.6817 32.3557 13.4833 31.7837 14.09C31.2203 14.6967 30.4143 15 29.3657 15C28.3777 15 27.589 14.753 26.9997 14.259C26.4103 13.765 26.0767 13.1193 25.9987 12.322H27.7667C27.8447 12.6687 28.018 12.946 28.2867 13.154C28.564 13.362 28.915 13.466 29.3397 13.466C29.851 13.466 30.2367 13.3057 30.4967 12.985C30.7567 12.6643 30.8867 12.2397 30.8867 11.711C30.8867 11.1737 30.7523 10.7663 30.4837 10.489C30.2237 10.203 29.838 10.06 29.3267 10.06C28.9627 10.06 28.6593 10.151 28.4167 10.333C28.174 10.515 28.0007 10.7577 27.8967 11.061H26.1547V5.497H32.0307V7.096Z" fill="#2B9348"/>
<path d="M43.495 10.167C43.525 9.567 43.735 9.105 44.125 8.781C44.521 8.451 45.04 8.286 45.682 8.286C46.12 8.286 46.495 8.364 46.807 8.52C47.119 8.67 47.353 8.877 47.509 9.141C47.671 9.399 47.752 9.693 47.752 10.023C47.752 10.401 47.653 10.722 47.455 10.986C47.263 11.244 47.032 11.418 46.762 11.508V11.544C47.11 11.652 47.38 11.844 47.572 12.12C47.77 12.396 47.869 12.75 47.869 13.182C47.869 13.542 47.785 13.863 47.617 14.145C47.455 14.427 47.212 14.649 46.888 14.811C46.57 14.967 46.186 15.045 45.736 15.045C45.058 15.045 44.506 14.874 44.08 14.532C43.654 14.19 43.429 13.686 43.405 13.02H44.629C44.641 13.314 44.74 13.551 44.926 13.731C45.118 13.905 45.379 13.992 45.709 13.992C46.015 13.992 46.249 13.908 46.411 13.74C46.579 13.566 46.663 13.344 46.663 13.074C46.663 12.714 46.549 12.456 46.321 12.3C46.093 12.144 45.739 12.066 45.259 12.066H44.998V11.031H45.259C46.111 11.031 46.537 10.746 46.537 10.176C46.537 9.918 46.459 9.717 46.303 9.573C46.153 9.429 45.934 9.357 45.646 9.357C45.364 9.357 45.145 9.435 44.989 9.591C44.839 9.741 44.752 9.933 44.728 10.167H43.495ZM48.8647 11.634C48.8647 10.596 49.0507 9.783 49.4227 9.195C49.8007 8.607 50.4247 8.313 51.2947 8.313C52.1647 8.313 52.7857 8.607 53.1577 9.195C53.5357 9.783 53.7247 10.596 53.7247 11.634C53.7247 12.678 53.5357 13.497 53.1577 14.091C52.7857 14.685 52.1647 14.982 51.2947 14.982C50.4247 14.982 49.8007 14.685 49.4227 14.091C49.0507 13.497 48.8647 12.678 48.8647 11.634ZM52.4827 11.634C52.4827 11.19 52.4527 10.818 52.3927 10.518C52.3387 10.212 52.2247 9.963 52.0507 9.771C51.8827 9.579 51.6307 9.483 51.2947 9.483C50.9587 9.483 50.7037 9.579 50.5297 9.771C50.3617 9.963 50.2477 10.212 50.1877 10.518C50.1337 10.818 50.1067 11.19 50.1067 11.634C50.1067 12.09 50.1337 12.474 50.1877 12.786C50.2417 13.092 50.3557 13.341 50.5297 13.533C50.7037 13.719 50.9587 13.812 51.2947 13.812C51.6307 13.812 51.8857 13.719 52.0597 13.533C52.2337 13.341 52.3477 13.092 52.4017 12.786C52.4557 12.474 52.4827 12.09 52.4827 11.634ZM60.2116 15L58.8256 12.552H58.2316V15H56.9716V8.718H59.3296C59.8156 8.718 60.2296 8.805 60.5716 8.979C60.9136 9.147 61.1686 9.378 61.3366 9.672C61.5106 9.96 61.5976 10.284 61.5976 10.644C61.5976 11.058 61.4776 11.433 61.2376 11.769C60.9976 12.099 60.6406 12.327 60.1666 12.453L61.6696 15H60.2116ZM58.2316 11.607H59.2846C59.6266 11.607 59.8816 11.526 60.0496 11.364C60.2176 11.196 60.3016 10.965 60.3016 10.671C60.3016 10.383 60.2176 10.161 60.0496 10.005C59.8816 9.843 59.6266 9.762 59.2846 9.762H58.2316V11.607ZM67.3722 12.399C67.3722 12.579 67.3602 12.741 67.3362 12.885H63.6912C63.7212 13.245 63.8472 13.527 64.0692 13.731C64.2912 13.935 64.5642 14.037 64.8882 14.037C65.3562 14.037 65.6892 13.836 65.8872 13.434H67.2462C67.1022 13.914 66.8262 14.31 66.4182 14.622C66.0102 14.928 65.5092 15.081 64.9152 15.081C64.4352 15.081 64.0032 14.976 63.6192 14.766C63.2412 14.55 62.9442 14.247 62.7282 13.857C62.5182 13.467 62.4132 13.017 62.4132 12.507C62.4132 11.991 62.5182 11.538 62.7282 11.148C62.9382 10.758 63.2322 10.458 63.6102 10.248C63.9882 10.038 64.4232 9.933 64.9152 9.933C65.3892 9.933 65.8122 10.035 66.1842 10.239C66.5622 10.443 66.8532 10.734 67.0572 11.112C67.2672 11.484 67.3722 11.913 67.3722 12.399ZM66.0672 12.039C66.0612 11.715 65.9442 11.457 65.7162 11.265C65.4882 11.067 65.2092 10.968 64.8792 10.968C64.5672 10.968 64.3032 11.064 64.0872 11.256C63.8772 11.442 63.7482 11.703 63.7002 12.039H66.0672ZM70.3709 13.839L71.6309 10.014H72.9719L71.1269 15H69.5969L67.7609 10.014H69.1109L70.3709 13.839ZM74.3186 9.42C74.0966 9.42 73.9106 9.351 73.7606 9.213C73.6166 9.069 73.5446 8.892 73.5446 8.682C73.5446 8.472 73.6166 8.298 73.7606 8.16C73.9106 8.016 74.0966 7.944 74.3186 7.944C74.5406 7.944 74.7236 8.016 74.8676 8.16C75.0176 8.298 75.0926 8.472 75.0926 8.682C75.0926 8.892 75.0176 9.069 74.8676 9.213C74.7236 9.351 74.5406 9.42 74.3186 9.42ZM74.9396 10.014V15H73.6796V10.014H74.9396ZM80.8195 12.399C80.8195 12.579 80.8075 12.741 80.7835 12.885H77.1385C77.1685 13.245 77.2945 13.527 77.5165 13.731C77.7385 13.935 78.0115 14.037 78.3355 14.037C78.8035 14.037 79.1365 13.836 79.3345 13.434H80.6935C80.5495 13.914 80.2735 14.31 79.8655 14.622C79.4575 14.928 78.9565 15.081 78.3625 15.081C77.8825 15.081 77.4505 14.976 77.0665 14.766C76.6885 14.55 76.3915 14.247 76.1755 13.857C75.9655 13.467 75.8605 13.017 75.8605 12.507C75.8605 11.991 75.9655 11.538 76.1755 11.148C76.3855 10.758 76.6795 10.458 77.0575 10.248C77.4355 10.038 77.8705 9.933 78.3625 9.933C78.8365 9.933 79.2595 10.035 79.6315 10.239C80.0095 10.443 80.3005 10.734 80.5045 11.112C80.7145 11.484 80.8195 11.913 80.8195 12.399ZM79.5145 12.039C79.5085 11.715 79.3915 11.457 79.1635 11.265C78.9355 11.067 78.6565 10.968 78.3265 10.968C78.0145 10.968 77.7505 11.064 77.5345 11.256C77.3245 11.442 77.1955 11.703 77.1475 12.039H79.5145ZM88.6512 10.014L87.1932 15H85.8342L84.9252 11.517L84.0162 15H82.6482L81.1812 10.014H82.4592L83.3412 13.812L84.2952 10.014H85.6272L86.5632 13.803L87.4452 10.014H88.6512ZM91.2409 15.081C90.8329 15.081 90.4669 15.009 90.1429 14.865C89.8189 14.715 89.5609 14.514 89.3689 14.262C89.1829 14.01 89.0809 13.731 89.0629 13.425H90.3319C90.3559 13.617 90.4489 13.776 90.6109 13.902C90.7789 14.028 90.9859 14.091 91.2319 14.091C91.4719 14.091 91.6579 14.043 91.7899 13.947C91.9279 13.851 91.9969 13.728 91.9969 13.578C91.9969 13.416 91.9129 13.296 91.7449 13.218C91.5829 13.134 91.3219 13.044 90.9619 12.948C90.5899 12.858 90.2839 12.765 90.0439 12.669C89.8099 12.573 89.6059 12.426 89.4319 12.228C89.2639 12.03 89.1799 11.763 89.1799 11.427C89.1799 11.151 89.2579 10.899 89.4139 10.671C89.5759 10.443 89.8039 10.263 90.0979 10.131C90.3979 9.999 90.7489 9.933 91.1509 9.933C91.7449 9.933 92.2189 10.083 92.5729 10.383C92.9269 10.677 93.1219 11.076 93.1579 11.58H91.9519C91.9339 11.382 91.8499 11.226 91.6999 11.112C91.5559 10.992 91.3609 10.932 91.1149 10.932C90.8869 10.932 90.7099 10.974 90.5839 11.058C90.4639 11.142 90.4039 11.259 90.4039 11.409C90.4039 11.577 90.4879 11.706 90.6559 11.796C90.8239 11.88 91.0849 11.967 91.4389 12.057C91.7989 12.147 92.0959 12.24 92.3299 12.336C92.5639 12.432 92.7649 12.582 92.9329 12.786C93.1069 12.984 93.1969 13.248 93.2029 13.578C93.2029 13.866 93.1219 14.124 92.9599 14.352C92.8039 14.58 92.5759 14.76 92.2759 14.892C91.9819 15.018 91.6369 15.081 91.2409 15.081Z" fill="#140D4F" fill-opacity="0.5"/>
</svg>
