<svg width="57" height="15" viewBox="0 0 57 15" fill="none" xmlns="http://www.w3.org/2000/svg">
<path d="M7.368 3.636V12H6.276V8.208H2.016V12H0.924V3.636H2.016V7.308H6.276V3.636H7.368ZM11.8366 3.636C12.7486 3.636 13.5366 3.808 14.2006 4.152C14.8726 4.488 15.3846 4.972 15.7366 5.604C16.0966 6.236 16.2766 6.98 16.2766 7.836C16.2766 8.692 16.0966 9.436 15.7366 10.068C15.3846 10.692 14.8726 11.172 14.2006 11.508C13.5366 11.836 12.7486 12 11.8366 12H9.23259V3.636H11.8366ZM11.8366 11.1C12.9166 11.1 13.7406 10.816 14.3086 10.248C14.8766 9.672 15.1606 8.868 15.1606 7.836C15.1606 6.796 14.8726 5.984 14.2966 5.4C13.7286 4.816 12.9086 4.524 11.8366 4.524H10.3246V11.1H11.8366ZM22.445 3.636V4.524H18.809V7.344H21.761V8.232H18.809V12H17.717V3.636H22.445ZM23.3558 7.812C23.3558 6.996 23.5398 6.264 23.9078 5.616C24.2758 4.96 24.7758 4.448 25.4078 4.08C26.0478 3.712 26.7558 3.528 27.5318 3.528C28.4438 3.528 29.2398 3.748 29.9198 4.188C30.5998 4.628 31.0958 5.252 31.4078 6.06H30.0998C29.8678 5.556 29.5318 5.168 29.0918 4.896C28.6598 4.624 28.1398 4.488 27.5318 4.488C26.9478 4.488 26.4238 4.624 25.9598 4.896C25.4958 5.168 25.1318 5.556 24.8678 6.06C24.6038 6.556 24.4718 7.14 24.4718 7.812C24.4718 8.476 24.6038 9.06 24.8678 9.564C25.1318 10.06 25.4958 10.444 25.9598 10.716C26.4238 10.988 26.9478 11.124 27.5318 11.124C28.1398 11.124 28.6598 10.992 29.0918 10.728C29.5318 10.456 29.8678 10.068 30.0998 9.564H31.4078C31.0958 10.364 30.5998 10.984 29.9198 11.424C29.2398 11.856 28.4438 12.072 27.5318 12.072C26.7558 12.072 26.0478 11.892 25.4078 11.532C24.7758 11.164 24.2758 10.656 23.9078 10.008C23.5398 9.36 23.3558 8.628 23.3558 7.812ZM39.0406 14.232C38.2726 13.48 37.6726 12.524 37.2406 11.364C36.8166 10.204 36.6046 8.952 36.6046 7.608C36.6046 6.232 36.8286 4.948 37.2766 3.756C37.7326 2.556 38.3806 1.568 39.2206 0.792H40.3606V0.899999C39.4646 1.74 38.7886 2.752 38.3326 3.936C37.8846 5.112 37.6606 6.336 37.6606 7.608C37.6606 8.848 37.8726 10.032 38.2966 11.16C38.7286 12.288 39.3566 13.276 40.1806 14.124V14.232H39.0406ZM41.2138 4.32V3.324H43.4698V12H42.3658V4.32H41.2138ZM46.7496 9.672C46.8296 10.128 47.0136 10.48 47.3016 10.728C47.5976 10.976 47.9936 11.1 48.4896 11.1C49.1536 11.1 49.6416 10.84 49.9536 10.32C50.2736 9.8 50.4256 8.924 50.4096 7.692C50.2416 8.052 49.9616 8.336 49.5696 8.544C49.1776 8.744 48.7416 8.844 48.2616 8.844C47.7256 8.844 47.2456 8.736 46.8216 8.52C46.4056 8.296 46.0776 7.972 45.8376 7.548C45.5976 7.124 45.4776 6.612 45.4776 6.012C45.4776 5.156 45.7256 4.468 46.2216 3.948C46.7176 3.42 47.4216 3.156 48.3336 3.156C49.4536 3.156 50.2376 3.52 50.6856 4.248C51.1416 4.976 51.3696 6.06 51.3696 7.5C51.3696 8.508 51.2776 9.34 51.0936 9.996C50.9176 10.652 50.6136 11.152 50.1816 11.496C49.7576 11.84 49.1736 12.012 48.4296 12.012C47.6136 12.012 46.9776 11.792 46.5216 11.352C46.0656 10.912 45.8056 10.352 45.7416 9.672H46.7496ZM48.4416 7.92C48.9776 7.92 49.4176 7.756 49.7616 7.428C50.1056 7.092 50.2776 6.64 50.2776 6.072C50.2776 5.472 50.1096 4.988 49.7736 4.62C49.4376 4.252 48.9656 4.068 48.3576 4.068C47.7976 4.068 47.3496 4.244 47.0136 4.596C46.6856 4.948 46.5216 5.412 46.5216 5.988C46.5216 6.572 46.6856 7.04 47.0136 7.392C47.3416 7.744 47.8176 7.92 48.4416 7.92ZM52.7362 14.232V14.124C53.5602 13.276 54.1842 12.288 54.6082 11.16C55.0402 10.032 55.2562 8.848 55.2562 7.608C55.2562 6.336 55.0282 5.112 54.5722 3.936C54.1242 2.752 53.4522 1.74 52.5562 0.899999V0.792H53.6962C54.5362 1.568 55.1802 2.556 55.6282 3.756C56.0842 4.948 56.3122 6.232 56.3122 7.608C56.3122 8.952 56.0962 10.204 55.6642 11.364C55.2402 12.524 54.6442 13.48 53.8762 14.232H52.7362Z" fill="black"/>
</svg>
