<svg width="60" height="15" viewBox="0 0 60 15" fill="none" xmlns="http://www.w3.org/2000/svg">
<path d="M7.368 3.636V12H6.276V8.208H2.016V12H0.924V3.636H2.016V7.308H6.276V3.636H7.368ZM11.8846 12.084C11.3326 12.084 10.8366 11.988 10.3966 11.796C9.96459 11.596 9.62459 11.324 9.37659 10.98C9.12859 10.628 9.00059 10.224 8.99259 9.768H10.1566C10.1966 10.16 10.3566 10.492 10.6366 10.764C10.9246 11.028 11.3406 11.16 11.8846 11.16C12.4046 11.16 12.8126 11.032 13.1086 10.776C13.4126 10.512 13.5646 10.176 13.5646 9.768C13.5646 9.448 13.4766 9.188 13.3006 8.988C13.1246 8.788 12.9046 8.636 12.6406 8.532C12.3766 8.428 12.0206 8.316 11.5726 8.196C11.0206 8.052 10.5766 7.908 10.2406 7.764C9.91259 7.62 9.62859 7.396 9.38859 7.092C9.15659 6.78 9.04059 6.364 9.04059 5.844C9.04059 5.388 9.15659 4.984 9.38859 4.632C9.62059 4.28 9.94459 4.008 10.3606 3.816C10.7846 3.624 11.2686 3.528 11.8126 3.528C12.5966 3.528 13.2366 3.724 13.7326 4.116C14.2366 4.508 14.5206 5.028 14.5846 5.676H13.3846C13.3446 5.356 13.1766 5.076 12.8806 4.836C12.5846 4.588 12.1926 4.464 11.7046 4.464C11.2486 4.464 10.8766 4.584 10.5886 4.824C10.3006 5.056 10.1566 5.384 10.1566 5.808C10.1566 6.112 10.2406 6.36 10.4086 6.552C10.5846 6.744 10.7966 6.892 11.0446 6.996C11.3006 7.092 11.6566 7.204 12.1126 7.332C12.6646 7.484 13.1086 7.636 13.4446 7.788C13.7806 7.932 14.0686 8.16 14.3086 8.472C14.5486 8.776 14.6686 9.192 14.6686 9.72C14.6686 10.128 14.5606 10.512 14.3446 10.872C14.1286 11.232 13.8086 11.524 13.3846 11.748C12.9606 11.972 12.4606 12.084 11.8846 12.084ZM20.4636 7.692C20.7676 7.74 21.0436 7.864 21.2916 8.064C21.5476 8.264 21.7476 8.512 21.8916 8.808C22.0436 9.104 22.1196 9.42 22.1196 9.756C22.1196 10.18 22.0116 10.564 21.7956 10.908C21.5796 11.244 21.2636 11.512 20.8476 11.712C20.4396 11.904 19.9556 12 19.3956 12H16.2756V3.636H19.2756C19.8436 3.636 20.3276 3.732 20.7276 3.924C21.1276 4.108 21.4276 4.36 21.6276 4.68C21.8276 5 21.9276 5.36 21.9276 5.76C21.9276 6.256 21.7916 6.668 21.5196 6.996C21.2556 7.316 20.9036 7.548 20.4636 7.692ZM17.3676 7.248H19.2036C19.7156 7.248 20.1116 7.128 20.3916 6.888C20.6716 6.648 20.8116 6.316 20.8116 5.892C20.8116 5.468 20.6716 5.136 20.3916 4.896C20.1116 4.656 19.7076 4.536 19.1796 4.536H17.3676V7.248ZM19.2996 11.1C19.8436 11.1 20.2676 10.972 20.5716 10.716C20.8756 10.46 21.0276 10.104 21.0276 9.648C21.0276 9.184 20.8676 8.82 20.5476 8.556C20.2276 8.284 19.7996 8.148 19.2636 8.148H17.3676V11.1H19.2996ZM23.2269 7.812C23.2269 6.996 23.4109 6.264 23.7789 5.616C24.1469 4.96 24.6469 4.448 25.2789 4.08C25.9189 3.712 26.6269 3.528 27.4029 3.528C28.3149 3.528 29.1109 3.748 29.7909 4.188C30.4709 4.628 30.9669 5.252 31.2789 6.06H29.9709C29.7389 5.556 29.4029 5.168 28.9629 4.896C28.5309 4.624 28.0109 4.488 27.4029 4.488C26.8189 4.488 26.2949 4.624 25.8309 4.896C25.3669 5.168 25.0029 5.556 24.7389 6.06C24.4749 6.556 24.3429 7.14 24.3429 7.812C24.3429 8.476 24.4749 9.06 24.7389 9.564C25.0029 10.06 25.3669 10.444 25.8309 10.716C26.2949 10.988 26.8189 11.124 27.4029 11.124C28.0109 11.124 28.5309 10.992 28.9629 10.728C29.4029 10.456 29.7389 10.068 29.9709 9.564H31.2789C30.9669 10.364 30.4709 10.984 29.7909 11.424C29.1109 11.856 28.3149 12.072 27.4029 12.072C26.6269 12.072 25.9189 11.892 25.2789 11.532C24.6469 11.164 24.1469 10.656 23.7789 10.008C23.4109 9.36 23.2269 8.628 23.2269 7.812ZM38.9117 14.232C38.1437 13.48 37.5437 12.524 37.1117 11.364C36.6877 10.204 36.4757 8.952 36.4757 7.608C36.4757 6.232 36.6997 4.948 37.1477 3.756C37.6037 2.556 38.2517 1.568 39.0917 0.792H40.2317V0.899999C39.3357 1.74 38.6597 2.752 38.2037 3.936C37.7557 5.112 37.5317 6.336 37.5317 7.608C37.5317 8.848 37.7437 10.032 38.1677 11.16C38.5997 12.288 39.2277 13.276 40.0517 14.124V14.232H38.9117ZM41.2409 11.124C42.2569 10.308 43.0529 9.64 43.6289 9.12C44.2049 8.592 44.6889 8.044 45.0809 7.476C45.4809 6.9 45.6809 6.336 45.6809 5.784C45.6809 5.264 45.5529 4.856 45.2969 4.56C45.0489 4.256 44.6449 4.104 44.0849 4.104C43.5409 4.104 43.1169 4.276 42.8129 4.62C42.5169 4.956 42.3569 5.408 42.3329 5.976H41.2769C41.3089 5.08 41.5809 4.388 42.0929 3.9C42.6049 3.412 43.2649 3.168 44.0729 3.168C44.8969 3.168 45.5489 3.396 46.0289 3.852C46.5169 4.308 46.7609 4.936 46.7609 5.736C46.7609 6.4 46.5609 7.048 46.1609 7.68C45.7689 8.304 45.3209 8.856 44.8169 9.336C44.3129 9.808 43.6689 10.36 42.8849 10.992H47.0129V11.904H41.2409V11.124ZM48.2753 7.572C48.2753 6.196 48.4993 5.124 48.9473 4.356C49.3953 3.58 50.1793 3.192 51.2993 3.192C52.4113 3.192 53.1913 3.58 53.6393 4.356C54.0872 5.124 54.3112 6.196 54.3112 7.572C54.3112 8.972 54.0872 10.06 53.6393 10.836C53.1913 11.612 52.4113 12 51.2993 12C50.1793 12 49.3953 11.612 48.9473 10.836C48.4993 10.06 48.2753 8.972 48.2753 7.572ZM53.2313 7.572C53.2313 6.876 53.1833 6.288 53.0873 5.808C52.9993 5.32 52.8113 4.928 52.5233 4.632C52.2433 4.336 51.8353 4.188 51.2993 4.188C50.7553 4.188 50.3393 4.336 50.0513 4.632C49.7713 4.928 49.5833 5.32 49.4873 5.808C49.3993 6.288 49.3553 6.876 49.3553 7.572C49.3553 8.292 49.3993 8.896 49.4873 9.384C49.5833 9.872 49.7713 10.264 50.0513 10.56C50.3393 10.856 50.7553 11.004 51.2993 11.004C51.8353 11.004 52.2433 10.856 52.5233 10.56C52.8113 10.264 52.9993 9.872 53.0873 9.384C53.1833 8.896 53.2313 8.292 53.2313 7.572ZM55.6424 14.232V14.124C56.4664 13.276 57.0904 12.288 57.5144 11.16C57.9464 10.032 58.1624 8.848 58.1624 7.608C58.1624 6.336 57.9344 5.112 57.4784 3.936C57.0304 2.752 56.3584 1.74 55.4624 0.899999V0.792H56.6024C57.4424 1.568 58.0864 2.556 58.5344 3.756C58.9904 4.948 59.2184 6.232 59.2184 7.608C59.2184 8.952 59.0024 10.204 58.5704 11.364C58.1464 12.524 57.5504 13.48 56.7824 14.232H55.6424Z" fill="black"/>
</svg>
