<svg width="52" height="15" viewBox="0 0 52 15" fill="none" xmlns="http://www.w3.org/2000/svg">
<path d="M2.016 3.636V12H0.924V3.636H2.016ZM3.46913 7.812C3.46913 6.996 3.65313 6.264 4.02113 5.616C4.38913 4.96 4.88913 4.448 5.52113 4.08C6.16113 3.712 6.86913 3.528 7.64513 3.528C8.55713 3.528 9.35313 3.748 10.0331 4.188C10.7131 4.628 11.2091 5.252 11.5211 6.06H10.2131C9.98113 5.556 9.64513 5.168 9.20513 4.896C8.77313 4.624 8.25313 4.488 7.64513 4.488C7.06113 4.488 6.53713 4.624 6.07313 4.896C5.60913 5.168 5.24513 5.556 4.98113 6.06C4.71713 6.556 4.58513 7.14 4.58513 7.812C4.58513 8.476 4.71713 9.06 4.98113 9.564C5.24513 10.06 5.60913 10.444 6.07313 10.716C6.53713 10.988 7.06113 11.124 7.64513 11.124C8.25313 11.124 8.77313 10.992 9.20513 10.728C9.64513 10.456 9.98113 10.068 10.2131 9.564H11.5211C11.2091 10.364 10.7131 10.984 10.0331 11.424C9.35313 11.856 8.55713 12.072 7.64513 12.072C6.86913 12.072 6.16113 11.892 5.52113 11.532C4.88913 11.164 4.38913 10.656 4.02113 10.008C3.65313 9.36 3.46913 8.628 3.46913 7.812ZM14.2387 3.636V12H13.1467V3.636H14.2387ZM15.6918 7.812C15.6918 6.996 15.8758 6.264 16.2438 5.616C16.6118 4.96 17.1118 4.448 17.7438 4.08C18.3838 3.712 19.0918 3.528 19.8678 3.528C20.7798 3.528 21.5758 3.748 22.2558 4.188C22.9358 4.628 23.4318 5.252 23.7438 6.06H22.4358C22.2038 5.556 21.8678 5.168 21.4278 4.896C20.9958 4.624 20.4758 4.488 19.8678 4.488C19.2838 4.488 18.7598 4.624 18.2958 4.896C17.8318 5.168 17.4678 5.556 17.2038 6.06C16.9398 6.556 16.8078 7.14 16.8078 7.812C16.8078 8.476 16.9398 9.06 17.2038 9.564C17.4678 10.06 17.8318 10.444 18.2958 10.716C18.7598 10.988 19.2838 11.124 19.8678 11.124C20.4758 11.124 20.9958 10.992 21.4278 10.728C21.8678 10.456 22.2038 10.068 22.4358 9.564H23.7438C23.4318 10.364 22.9358 10.984 22.2558 11.424C21.5758 11.856 20.7798 12.072 19.8678 12.072C19.0918 12.072 18.3838 11.892 17.7438 11.532C17.1118 11.164 16.6118 10.656 16.2438 10.008C15.8758 9.36 15.6918 8.628 15.6918 7.812ZM26.4613 3.636V12H25.3693V3.636H26.4613ZM34.3297 14.232C33.5617 13.48 32.9617 12.524 32.5297 11.364C32.1057 10.204 31.8937 8.952 31.8937 7.608C31.8937 6.232 32.1177 4.948 32.5657 3.756C33.0217 2.556 33.6697 1.568 34.5097 0.792H35.6497V0.899999C34.7537 1.74 34.0777 2.752 33.6217 3.936C33.1737 5.112 32.9497 6.336 32.9497 7.608C32.9497 8.848 33.1617 10.032 33.5857 11.16C34.0177 12.288 34.6457 13.276 35.4697 14.124V14.232H34.3297ZM36.5029 4.32V3.324H38.7589V12H37.6549V4.32H36.5029ZM46.1666 4.272H41.9546V7.008C42.1386 6.752 42.4106 6.544 42.7706 6.384C43.1306 6.216 43.5186 6.132 43.9346 6.132C44.5986 6.132 45.1386 6.272 45.5546 6.552C45.9706 6.824 46.2666 7.18 46.4426 7.62C46.6266 8.052 46.7186 8.512 46.7186 9C46.7186 9.576 46.6106 10.092 46.3946 10.548C46.1786 11.004 45.8466 11.364 45.3986 11.628C44.9586 11.892 44.4106 12.024 43.7546 12.024C42.9146 12.024 42.2346 11.808 41.7146 11.376C41.1946 10.944 40.8786 10.368 40.7666 9.648H41.8346C41.9386 10.104 42.1586 10.46 42.4946 10.716C42.8306 10.972 43.2546 11.1 43.7666 11.1C44.3986 11.1 44.8746 10.912 45.1946 10.536C45.5146 10.152 45.6746 9.648 45.6746 9.024C45.6746 8.4 45.5146 7.92 45.1946 7.584C44.8746 7.24 44.4026 7.068 43.7786 7.068C43.3546 7.068 42.9826 7.172 42.6626 7.38C42.3506 7.58 42.1226 7.856 41.9786 8.208H40.9466V3.312H46.1666V4.272ZM48.0018 14.232V14.124C48.8258 13.276 49.4498 12.288 49.8738 11.16C50.3058 10.032 50.5218 8.848 50.5218 7.608C50.5218 6.336 50.2938 5.112 49.8378 3.936C49.3898 2.752 48.7178 1.74 47.8218 0.899999V0.792H48.9618C49.8018 1.568 50.4458 2.556 50.8938 3.756C51.3498 4.948 51.5778 6.232 51.5778 7.608C51.5778 8.952 51.3618 10.204 50.9298 11.364C50.5058 12.524 49.9098 13.48 49.1418 14.232H48.0018Z" fill="black"/>
</svg>
