<svg width="64" height="15" viewBox="0 0 64 15" fill="none" xmlns="http://www.w3.org/2000/svg">
<path d="M5.136 3.636V9.816C5.136 10.504 4.924 11.056 4.5 11.472C4.076 11.88 3.516 12.084 2.82 12.084C2.116 12.084 1.552 11.876 1.128 11.46C0.704 11.036 0.492 10.46 0.492 9.732H1.584C1.592 10.14 1.696 10.472 1.896 10.728C2.104 10.984 2.412 11.112 2.82 11.112C3.228 11.112 3.532 10.992 3.732 10.752C3.932 10.504 4.032 10.192 4.032 9.816V3.636H5.136ZM13.2873 8.46C13.2873 8.668 13.2753 8.888 13.2513 9.12H7.99528C8.03528 9.768 8.25528 10.276 8.65528 10.644C9.06328 11.004 9.55528 11.184 10.1313 11.184C10.6033 11.184 10.9953 11.076 11.3073 10.86C11.6273 10.636 11.8513 10.34 11.9793 9.972H13.1553C12.9793 10.604 12.6273 11.12 12.0993 11.52C11.5713 11.912 10.9153 12.108 10.1313 12.108C9.50728 12.108 8.94728 11.968 8.45128 11.688C7.96328 11.408 7.57928 11.012 7.29928 10.5C7.01928 9.98 6.87928 9.38 6.87928 8.7C6.87928 8.02 7.01528 7.424 7.28728 6.912C7.55928 6.4 7.93928 6.008 8.42728 5.736C8.92328 5.456 9.49128 5.316 10.1313 5.316C10.7553 5.316 11.3073 5.452 11.7873 5.724C12.2673 5.996 12.6353 6.372 12.8913 6.852C13.1553 7.324 13.2873 7.86 13.2873 8.46ZM12.1593 8.232C12.1593 7.816 12.0673 7.46 11.8833 7.164C11.6993 6.86 11.4473 6.632 11.1273 6.48C10.8153 6.32 10.4673 6.24 10.0833 6.24C9.53128 6.24 9.05928 6.416 8.66728 6.768C8.28328 7.12 8.06328 7.608 8.00728 8.232H12.1593ZM14.3207 8.688C14.3207 8.016 14.4567 7.428 14.7287 6.924C15.0007 6.412 15.3727 6.016 15.8447 5.736C16.3247 5.456 16.8567 5.316 17.4407 5.316C18.0167 5.316 18.5167 5.44 18.9407 5.688C19.3647 5.936 19.6807 6.248 19.8887 6.624V5.424H20.9927V12H19.8887V10.776C19.6727 11.16 19.3487 11.48 18.9167 11.736C18.4927 11.984 17.9967 12.108 17.4287 12.108C16.8447 12.108 16.3167 11.964 15.8447 11.676C15.3727 11.388 15.0007 10.984 14.7287 10.464C14.4567 9.944 14.3207 9.352 14.3207 8.688ZM19.8887 8.7C19.8887 8.204 19.7887 7.772 19.5887 7.404C19.3887 7.036 19.1167 6.756 18.7727 6.564C18.4367 6.364 18.0647 6.264 17.6567 6.264C17.2487 6.264 16.8767 6.36 16.5407 6.552C16.2047 6.744 15.9367 7.024 15.7367 7.392C15.5367 7.76 15.4367 8.192 15.4367 8.688C15.4367 9.192 15.5367 9.632 15.7367 10.008C15.9367 10.376 16.2047 10.66 16.5407 10.86C16.8767 11.052 17.2487 11.148 17.6567 11.148C18.0647 11.148 18.4367 11.052 18.7727 10.86C19.1167 10.66 19.3887 10.376 19.5887 10.008C19.7887 9.632 19.8887 9.196 19.8887 8.7ZM26.0421 5.304C26.8421 5.304 27.4901 5.548 27.9861 6.036C28.4821 6.516 28.7301 7.212 28.7301 8.124V12H27.6501V8.28C27.6501 7.624 27.4861 7.124 27.1581 6.78C26.8301 6.428 26.3821 6.252 25.8141 6.252C25.2381 6.252 24.7781 6.432 24.4341 6.792C24.0981 7.152 23.9301 7.676 23.9301 8.364V12H22.8381V5.424H23.9301V6.36C24.1461 6.024 24.4381 5.764 24.8061 5.58C25.1821 5.396 25.5941 5.304 26.0421 5.304ZM32.8418 12.108C32.3378 12.108 31.8858 12.024 31.4858 11.856C31.0858 11.68 30.7698 11.44 30.5378 11.136C30.3058 10.824 30.1778 10.468 30.1538 10.068H31.2818C31.3138 10.396 31.4658 10.664 31.7378 10.872C32.0178 11.08 32.3818 11.184 32.8298 11.184C33.2458 11.184 33.5738 11.092 33.8138 10.908C34.0538 10.724 34.1738 10.492 34.1738 10.212C34.1738 9.924 34.0458 9.712 33.7898 9.576C33.5338 9.432 33.1378 9.292 32.6018 9.156C32.1138 9.028 31.7138 8.9 31.4018 8.772C31.0978 8.636 30.8338 8.44 30.6098 8.184C30.3938 7.92 30.2858 7.576 30.2858 7.152C30.2858 6.816 30.3858 6.508 30.5858 6.228C30.7858 5.948 31.0698 5.728 31.4378 5.568C31.8058 5.4 32.2258 5.316 32.6978 5.316C33.4258 5.316 34.0138 5.5 34.4618 5.868C34.9098 6.236 35.1498 6.74 35.1818 7.38H34.0898C34.0658 7.036 33.9258 6.76 33.6698 6.552C33.4218 6.344 33.0858 6.24 32.6618 6.24C32.2698 6.24 31.9578 6.324 31.7258 6.492C31.4938 6.66 31.3778 6.88 31.3778 7.152C31.3778 7.368 31.4458 7.548 31.5818 7.692C31.7258 7.828 31.9018 7.94 32.1098 8.028C32.3258 8.108 32.6218 8.2 32.9978 8.304C33.4698 8.432 33.8538 8.56 34.1498 8.688C34.4458 8.808 34.6978 8.992 34.9058 9.24C35.1218 9.488 35.2338 9.812 35.2418 10.212C35.2418 10.572 35.1418 10.896 34.9418 11.184C34.7418 11.472 34.4578 11.7 34.0898 11.868C33.7298 12.028 33.3138 12.108 32.8418 12.108ZM42.7906 14.232C42.0226 13.48 41.4226 12.524 40.9906 11.364C40.5666 10.204 40.3546 8.952 40.3546 7.608C40.3546 6.232 40.5786 4.948 41.0266 3.756C41.4826 2.556 42.1306 1.568 42.9706 0.792H44.1106V0.899999C43.2146 1.74 42.5386 2.752 42.0826 3.936C41.6346 5.112 41.4106 6.336 41.4106 7.608C41.4106 8.848 41.6226 10.032 42.0466 11.16C42.4786 12.288 43.1066 13.276 43.9306 14.124V14.232H42.7906ZM50.0878 5.388C49.9118 4.5 49.3638 4.056 48.4438 4.056C47.7318 4.056 47.1998 4.332 46.8478 4.884C46.4958 5.428 46.3238 6.328 46.3318 7.584C46.5158 7.168 46.8198 6.844 47.2438 6.612C47.6758 6.372 48.1558 6.252 48.6838 6.252C49.5078 6.252 50.1638 6.508 50.6518 7.02C51.1478 7.532 51.3958 8.24 51.3958 9.144C51.3958 9.688 51.2878 10.176 51.0718 10.608C50.8638 11.04 50.5438 11.384 50.1118 11.64C49.6878 11.896 49.1718 12.024 48.5638 12.024C47.7398 12.024 47.0958 11.84 46.6318 11.472C46.1678 11.104 45.8438 10.596 45.6598 9.948C45.4758 9.3 45.3838 8.5 45.3838 7.548C45.3838 4.612 46.4078 3.144 48.4558 3.144C49.2398 3.144 49.8558 3.356 50.3038 3.78C50.7518 4.204 51.0158 4.74 51.0958 5.388H50.0878ZM48.4558 7.176C48.1118 7.176 47.7878 7.248 47.4838 7.392C47.1798 7.528 46.9318 7.74 46.7398 8.028C46.5558 8.308 46.4638 8.652 46.4638 9.06C46.4638 9.668 46.6398 10.164 46.9918 10.548C47.3438 10.924 47.8478 11.112 48.5038 11.112C49.0638 11.112 49.5078 10.94 49.8358 10.596C50.1718 10.244 50.3398 9.772 50.3398 9.18C50.3398 8.556 50.1798 8.068 49.8598 7.716C49.5398 7.356 49.0718 7.176 48.4558 7.176ZM54.453 7.488C54.005 7.312 53.661 7.056 53.421 6.72C53.181 6.384 53.061 5.976 53.061 5.496C53.061 5.064 53.169 4.676 53.385 4.332C53.601 3.98 53.921 3.704 54.345 3.504C54.777 3.296 55.297 3.192 55.905 3.192C56.513 3.192 57.029 3.296 57.453 3.504C57.885 3.704 58.209 3.98 58.425 4.332C58.649 4.676 58.761 5.064 58.761 5.496C58.761 5.96 58.637 6.368 58.389 6.72C58.141 7.064 57.801 7.32 57.369 7.488C57.865 7.64 58.257 7.908 58.545 8.292C58.841 8.668 58.989 9.124 58.989 9.66C58.989 10.18 58.861 10.636 58.605 11.028C58.349 11.412 57.985 11.712 57.513 11.928C57.049 12.136 56.513 12.24 55.905 12.24C55.297 12.24 54.761 12.136 54.297 11.928C53.841 11.712 53.485 11.412 53.229 11.028C52.973 10.636 52.845 10.18 52.845 9.66C52.845 9.124 52.989 8.664 53.277 8.28C53.565 7.896 53.957 7.632 54.453 7.488ZM57.705 5.628C57.705 5.14 57.545 4.764 57.225 4.5C56.905 4.236 56.465 4.104 55.905 4.104C55.353 4.104 54.917 4.236 54.597 4.5C54.277 4.764 54.117 5.144 54.117 5.64C54.117 6.088 54.281 6.448 54.609 6.72C54.945 6.992 55.377 7.128 55.905 7.128C56.441 7.128 56.873 6.992 57.201 6.72C57.537 6.44 57.705 6.076 57.705 5.628ZM55.905 7.968C55.313 7.968 54.829 8.108 54.453 8.388C54.077 8.66 53.889 9.072 53.889 9.624C53.889 10.136 54.069 10.548 54.429 10.86C54.797 11.172 55.289 11.328 55.905 11.328C56.521 11.328 57.009 11.172 57.369 10.86C57.729 10.548 57.909 10.136 57.909 9.624C57.909 9.088 57.725 8.68 57.357 8.4C56.989 8.112 56.505 7.968 55.905 7.968ZM60.2713 14.232V14.124C61.0953 13.276 61.7193 12.288 62.1433 11.16C62.5753 10.032 62.7913 8.848 62.7913 7.608C62.7913 6.336 62.5633 5.112 62.1073 3.936C61.6593 2.752 60.9873 1.74 60.0913 0.899999V0.792H61.2313C62.0713 1.568 62.7153 2.556 63.1633 3.756C63.6193 4.948 63.8473 6.232 63.8473 7.608C63.8473 8.952 63.6313 10.204 63.1993 11.364C62.7753 12.524 62.1793 13.48 61.4113 14.232H60.2713Z" fill="black"/>
</svg>
