<svg width="58" height="15" viewBox="0 0 58 15" fill="none" xmlns="http://www.w3.org/2000/svg">
<path d="M5.46 12L2.016 8.184V12H0.924V3.636H2.016V7.512L5.472 3.636H6.852L3.06 7.824L6.888 12H5.46ZM10.9756 12.108C10.3596 12.108 9.79959 11.968 9.29559 11.688C8.79959 11.408 8.40759 11.012 8.11959 10.5C7.83959 9.98 7.69959 9.38 7.69959 8.7C7.69959 8.028 7.84359 7.436 8.13159 6.924C8.42759 6.404 8.82759 6.008 9.33159 5.736C9.83559 5.456 10.3996 5.316 11.0236 5.316C11.6476 5.316 12.2116 5.456 12.7156 5.736C13.2196 6.008 13.6156 6.4 13.9036 6.912C14.1996 7.424 14.3476 8.02 14.3476 8.7C14.3476 9.38 14.1956 9.98 13.8916 10.5C13.5956 11.012 13.1916 11.408 12.6796 11.688C12.1676 11.968 11.5996 12.108 10.9756 12.108ZM10.9756 11.148C11.3676 11.148 11.7356 11.056 12.0796 10.872C12.4236 10.688 12.6996 10.412 12.9076 10.044C13.1236 9.676 13.2316 9.228 13.2316 8.7C13.2316 8.172 13.1276 7.724 12.9196 7.356C12.7116 6.988 12.4396 6.716 12.1036 6.54C11.7676 6.356 11.4036 6.264 11.0116 6.264C10.6116 6.264 10.2436 6.356 9.90759 6.54C9.57959 6.716 9.31559 6.988 9.11559 7.356C8.91559 7.724 8.81559 8.172 8.81559 8.7C8.81559 9.236 8.91159 9.688 9.10359 10.056C9.30359 10.424 9.56759 10.7 9.89559 10.884C10.2236 11.06 10.5836 11.148 10.9756 11.148ZM17.1154 6.324V10.2C17.1154 10.52 17.1834 10.748 17.3194 10.884C17.4554 11.012 17.6914 11.076 18.0274 11.076H18.8314V12H17.8474C17.2394 12 16.7834 11.86 16.4794 11.58C16.1754 11.3 16.0234 10.84 16.0234 10.2V6.324H15.1714V5.424H16.0234V3.768H17.1154V5.424H18.8314V6.324H17.1154ZM19.7465 8.688C19.7465 8.016 19.8825 7.428 20.1545 6.924C20.4265 6.412 20.7985 6.016 21.2705 5.736C21.7505 5.456 22.2825 5.316 22.8665 5.316C23.4425 5.316 23.9425 5.44 24.3665 5.688C24.7905 5.936 25.1065 6.248 25.3145 6.624V5.424H26.4185V12H25.3145V10.776C25.0985 11.16 24.7745 11.48 24.3425 11.736C23.9185 11.984 23.4225 12.108 22.8545 12.108C22.2705 12.108 21.7425 11.964 21.2705 11.676C20.7985 11.388 20.4265 10.984 20.1545 10.464C19.8825 9.944 19.7465 9.352 19.7465 8.688ZM25.3145 8.7C25.3145 8.204 25.2145 7.772 25.0145 7.404C24.8145 7.036 24.5425 6.756 24.1985 6.564C23.8625 6.364 23.4905 6.264 23.0825 6.264C22.6745 6.264 22.3025 6.36 21.9665 6.552C21.6305 6.744 21.3625 7.024 21.1625 7.392C20.9625 7.76 20.8625 8.192 20.8625 8.688C20.8625 9.192 20.9625 9.632 21.1625 10.008C21.3625 10.376 21.6305 10.66 21.9665 10.86C22.3025 11.052 22.6745 11.148 23.0825 11.148C23.4905 11.148 23.8625 11.052 24.1985 10.86C24.5425 10.66 24.8145 10.376 25.0145 10.008C25.2145 9.632 25.3145 9.196 25.3145 8.7ZM31.9358 12L29.3558 9.096V12H28.2638V3.12H29.3558V8.34L31.8878 5.424H33.4118L30.3158 8.7L33.4238 12H31.9358ZM40.4468 14.232C39.6788 13.48 39.0788 12.524 38.6468 11.364C38.2228 10.204 38.0108 8.952 38.0108 7.608C38.0108 6.232 38.2348 4.948 38.6828 3.756C39.1388 2.556 39.7868 1.568 40.6268 0.792H41.7668V0.899999C40.8708 1.74 40.1948 2.752 39.7388 3.936C39.2908 5.112 39.0668 6.336 39.0668 7.608C39.0668 8.848 39.2788 10.032 39.7028 11.16C40.1348 12.288 40.7628 13.276 41.5868 14.124V14.232H40.4468ZM42.6201 4.32V3.324H44.8761V12H43.7721V4.32H42.6201ZM46.6198 11.124C47.6358 10.308 48.4318 9.64 49.0078 9.12C49.5838 8.592 50.0678 8.044 50.4598 7.476C50.8598 6.9 51.0598 6.336 51.0598 5.784C51.0598 5.264 50.9318 4.856 50.6758 4.56C50.4278 4.256 50.0238 4.104 49.4638 4.104C48.9198 4.104 48.4958 4.276 48.1918 4.62C47.8958 4.956 47.7358 5.408 47.7118 5.976H46.6558C46.6878 5.08 46.9598 4.388 47.4718 3.9C47.9838 3.412 48.6438 3.168 49.4518 3.168C50.2758 3.168 50.9278 3.396 51.4078 3.852C51.8958 4.308 52.1398 4.936 52.1398 5.736C52.1398 6.4 51.9398 7.048 51.5398 7.68C51.1478 8.304 50.6998 8.856 50.1958 9.336C49.6918 9.808 49.0478 10.36 48.2638 10.992H52.3918V11.904H46.6198V11.124ZM53.4862 14.232V14.124C54.3102 13.276 54.9342 12.288 55.3582 11.16C55.7902 10.032 56.0062 8.848 56.0062 7.608C56.0062 6.336 55.7782 5.112 55.3222 3.936C54.8742 2.752 54.2022 1.74 53.3062 0.899999V0.792H54.4462C55.2862 1.568 55.9302 2.556 56.3782 3.756C56.8342 4.948 57.0622 6.232 57.0622 7.608C57.0622 8.952 56.8462 10.204 56.4142 11.364C55.9902 12.524 55.3942 13.48 54.6262 14.232H53.4862Z" fill="black"/>
</svg>
