<svg width="70" height="16" viewBox="0 0 70 16" fill="none" xmlns="http://www.w3.org/2000/svg">
<path d="M9.408 3.696V12H8.316V5.808L5.556 12H4.788L2.016 5.796V12H0.924V3.696H2.1L5.172 10.56L8.244 3.696H9.408ZM16.9239 5.424L12.9639 15.096H11.8359L13.1319 11.928L10.4799 5.424H11.6919L13.7559 10.752L15.7959 5.424H16.9239ZM21.2257 5.304C22.0257 5.304 22.6737 5.548 23.1697 6.036C23.6657 6.516 23.9137 7.212 23.9137 8.124V12H22.8337V8.28C22.8337 7.624 22.6697 7.124 22.3417 6.78C22.0137 6.428 21.5657 6.252 20.9977 6.252C20.4217 6.252 19.9617 6.432 19.6177 6.792C19.2817 7.152 19.1137 7.676 19.1137 8.364V12H18.0217V5.424H19.1137V6.36C19.3297 6.024 19.6217 5.764 19.9897 5.58C20.3657 5.396 20.7777 5.304 21.2257 5.304ZM27.0294 6.324V10.2C27.0294 10.52 27.0974 10.748 27.2334 10.884C27.3694 11.012 27.6054 11.076 27.9414 11.076H28.7454V12H27.7614C27.1534 12 26.6974 11.86 26.3934 11.58C26.0894 11.3 25.9374 10.84 25.9374 10.2V6.324H25.0854V5.424H25.9374V3.768H27.0294V5.424H28.7454V6.324H27.0294ZM31.1605 6.492C31.3525 6.116 31.6245 5.824 31.9765 5.616C32.3365 5.408 32.7725 5.304 33.2845 5.304V6.432H32.9965C31.7725 6.432 31.1605 7.096 31.1605 8.424V12H30.0685V5.424H31.1605V6.492ZM34.1371 8.688C34.1371 8.016 34.2731 7.428 34.5451 6.924C34.8171 6.412 35.1891 6.016 35.6611 5.736C36.1411 5.456 36.6731 5.316 37.2571 5.316C37.8331 5.316 38.3331 5.44 38.7571 5.688C39.1811 5.936 39.4971 6.248 39.7051 6.624V5.424H40.8091V12H39.7051V10.776C39.4891 11.16 39.1651 11.48 38.7331 11.736C38.3091 11.984 37.8131 12.108 37.2451 12.108C36.6611 12.108 36.1331 11.964 35.6611 11.676C35.1891 11.388 34.8171 10.984 34.5451 10.464C34.2731 9.944 34.1371 9.352 34.1371 8.688ZM39.7051 8.7C39.7051 8.204 39.6051 7.772 39.4051 7.404C39.2051 7.036 38.9331 6.756 38.5891 6.564C38.2531 6.364 37.8811 6.264 37.4731 6.264C37.0651 6.264 36.6931 6.36 36.3571 6.552C36.0211 6.744 35.7531 7.024 35.5531 7.392C35.3531 7.76 35.2531 8.192 35.2531 8.688C35.2531 9.192 35.3531 9.632 35.5531 10.008C35.7531 10.376 36.0211 10.66 36.3571 10.86C36.6931 11.052 37.0651 11.148 37.4731 11.148C37.8811 11.148 38.2531 11.052 38.5891 10.86C38.9331 10.66 39.2051 10.376 39.4051 10.008C39.6051 9.632 39.7051 9.196 39.7051 8.7ZM48.6617 14.232C47.8937 13.48 47.2937 12.524 46.8617 11.364C46.4377 10.204 46.2257 8.952 46.2257 7.608C46.2257 6.232 46.4497 4.948 46.8977 3.756C47.3537 2.556 48.0017 1.568 48.8417 0.792H49.9817V0.899999C49.0857 1.74 48.4097 2.752 47.9537 3.936C47.5057 5.112 47.2817 6.336 47.2817 7.608C47.2817 8.848 47.4937 10.032 47.9177 11.16C48.3497 12.288 48.9777 13.276 49.8017 14.124V14.232H48.6617ZM51.0989 5.508C51.1549 4.772 51.4389 4.196 51.9509 3.78C52.4629 3.364 53.1269 3.156 53.9429 3.156C54.4869 3.156 54.9549 3.256 55.3469 3.456C55.7469 3.648 56.0469 3.912 56.2469 4.248C56.4549 4.584 56.5589 4.964 56.5589 5.388C56.5589 5.884 56.4149 6.312 56.1269 6.672C55.8469 7.032 55.4789 7.264 55.0229 7.368V7.428C55.5429 7.556 55.9549 7.808 56.2589 8.184C56.5629 8.56 56.7149 9.052 56.7149 9.66C56.7149 10.116 56.6109 10.528 56.4029 10.896C56.1949 11.256 55.8829 11.54 55.4669 11.748C55.0509 11.956 54.5509 12.06 53.9669 12.06C53.1189 12.06 52.4229 11.84 51.8789 11.4C51.3349 10.952 51.0309 10.32 50.9669 9.504H52.0229C52.0789 9.984 52.2749 10.376 52.6109 10.68C52.9469 10.984 53.3949 11.136 53.9549 11.136C54.5149 11.136 54.9389 10.992 55.2269 10.704C55.5229 10.408 55.6709 10.028 55.6709 9.564C55.6709 8.964 55.4709 8.532 55.0709 8.268C54.6709 8.004 54.0669 7.872 53.2589 7.872H52.9829V6.96H53.2709C54.0069 6.952 54.5629 6.832 54.9389 6.6C55.3149 6.36 55.5029 5.992 55.5029 5.496C55.5029 5.072 55.3629 4.732 55.0829 4.476C54.8109 4.22 54.4189 4.092 53.9069 4.092C53.4109 4.092 53.0109 4.22 52.7069 4.476C52.4029 4.732 52.2229 5.076 52.1669 5.508H51.0989ZM58.1893 7.572C58.1893 6.196 58.4133 5.124 58.8613 4.356C59.3093 3.58 60.0933 3.192 61.2133 3.192C62.3253 3.192 63.1053 3.58 63.5533 4.356C64.0013 5.124 64.2253 6.196 64.2253 7.572C64.2253 8.972 64.0013 10.06 63.5533 10.836C63.1053 11.612 62.3253 12 61.2133 12C60.0933 12 59.3093 11.612 58.8613 10.836C58.4133 10.06 58.1893 8.972 58.1893 7.572ZM63.1453 7.572C63.1453 6.876 63.0973 6.288 63.0013 5.808C62.9133 5.32 62.7253 4.928 62.4373 4.632C62.1573 4.336 61.7493 4.188 61.2133 4.188C60.6693 4.188 60.2533 4.336 59.9653 4.632C59.6853 4.928 59.4973 5.32 59.4013 5.808C59.3133 6.288 59.2693 6.876 59.2693 7.572C59.2693 8.292 59.3133 8.896 59.4013 9.384C59.4973 9.872 59.6853 10.264 59.9653 10.56C60.2533 10.856 60.6693 11.004 61.2133 11.004C61.7493 11.004 62.1573 10.856 62.4373 10.56C62.7253 10.264 62.9133 9.872 63.0013 9.384C63.0973 8.896 63.1453 8.292 63.1453 7.572ZM65.5565 14.232V14.124C66.3805 13.276 67.0045 12.288 67.4285 11.16C67.8605 10.032 68.0765 8.848 68.0765 7.608C68.0765 6.336 67.8485 5.112 67.3925 3.936C66.9445 2.752 66.2725 1.74 65.3765 0.899999V0.792H66.5165C67.3565 1.568 68.0005 2.556 68.4485 3.756C68.9045 4.948 69.1325 6.232 69.1325 7.608C69.1325 8.952 68.9165 10.204 68.4845 11.364C68.0605 12.524 67.4645 13.48 66.6965 14.232H65.5565Z" fill="black"/>
</svg>
