<svg width="65" height="16" viewBox="0 0 65 16" fill="none" xmlns="http://www.w3.org/2000/svg">
<path d="M7.5 12H6.408L2.016 5.34V12H0.924V3.624H2.016L6.408 10.272V3.624H7.5V12ZM15.0255 5.424L11.0655 15.096H9.9375L11.2335 11.928L8.5815 5.424H9.7935L11.8575 10.752L13.8975 5.424H15.0255ZM19.7952 12L17.2152 9.096V12H16.1232V3.12H17.2152V8.34L19.7472 5.424H21.2712L18.1752 8.7L21.2832 12H19.7952ZM21.891 8.688C21.891 8.016 22.027 7.428 22.299 6.924C22.571 6.412 22.943 6.016 23.415 5.736C23.895 5.456 24.427 5.316 25.011 5.316C25.587 5.316 26.087 5.44 26.511 5.688C26.935 5.936 27.251 6.248 27.459 6.624V5.424H28.563V12H27.459V10.776C27.243 11.16 26.919 11.48 26.487 11.736C26.063 11.984 25.567 12.108 24.999 12.108C24.415 12.108 23.887 11.964 23.415 11.676C22.943 11.388 22.571 10.984 22.299 10.464C22.027 9.944 21.891 9.352 21.891 8.688ZM27.459 8.7C27.459 8.204 27.359 7.772 27.159 7.404C26.959 7.036 26.687 6.756 26.343 6.564C26.007 6.364 25.635 6.264 25.227 6.264C24.819 6.264 24.447 6.36 24.111 6.552C23.775 6.744 23.507 7.024 23.307 7.392C23.107 7.76 23.007 8.192 23.007 8.688C23.007 9.192 23.107 9.632 23.307 10.008C23.507 10.376 23.775 10.66 24.111 10.86C24.447 11.052 24.819 11.148 25.227 11.148C25.635 11.148 26.007 11.052 26.343 10.86C26.687 10.66 26.959 10.376 27.159 10.008C27.359 9.632 27.459 9.196 27.459 8.7ZM30.0004 8.688C30.0004 8.016 30.1364 7.428 30.4084 6.924C30.6804 6.412 31.0524 6.016 31.5244 5.736C32.0044 5.456 32.5364 5.316 33.1204 5.316C33.6964 5.316 34.1964 5.44 34.6204 5.688C35.0444 5.936 35.3604 6.248 35.5684 6.624V5.424H36.6724V12H35.5684V10.776C35.3524 11.16 35.0284 11.48 34.5964 11.736C34.1724 11.984 33.6764 12.108 33.1084 12.108C32.5244 12.108 31.9964 11.964 31.5244 11.676C31.0524 11.388 30.6804 10.984 30.4084 10.464C30.1364 9.944 30.0004 9.352 30.0004 8.688ZM35.5684 8.7C35.5684 8.204 35.4684 7.772 35.2684 7.404C35.0684 7.036 34.7964 6.756 34.4524 6.564C34.1164 6.364 33.7444 6.264 33.3364 6.264C32.9284 6.264 32.5564 6.36 32.2204 6.552C31.8844 6.744 31.6164 7.024 31.4164 7.392C31.2164 7.76 31.1164 8.192 31.1164 8.688C31.1164 9.192 31.2164 9.632 31.4164 10.008C31.6164 10.376 31.8844 10.66 32.2204 10.86C32.5564 11.052 32.9284 11.148 33.3364 11.148C33.7444 11.148 34.1164 11.052 34.4524 10.86C34.7964 10.66 35.0684 10.376 35.2684 10.008C35.4684 9.632 35.5684 9.196 35.5684 8.7ZM44.525 14.232C43.757 13.48 43.157 12.524 42.725 11.364C42.301 10.204 42.089 8.952 42.089 7.608C42.089 6.232 42.313 4.948 42.761 3.756C43.217 2.556 43.865 1.568 44.705 0.792H45.845V0.899999C44.949 1.74 44.273 2.752 43.817 3.936C43.369 5.112 43.145 6.336 43.145 7.608C43.145 8.848 43.357 10.032 43.781 11.16C44.213 12.288 44.841 13.276 45.665 14.124V14.232H44.525ZM46.8542 11.124C47.8702 10.308 48.6662 9.64 49.2422 9.12C49.8182 8.592 50.3022 8.044 50.6942 7.476C51.0942 6.9 51.2942 6.336 51.2942 5.784C51.2942 5.264 51.1662 4.856 50.9102 4.56C50.6622 4.256 50.2582 4.104 49.6982 4.104C49.1542 4.104 48.7302 4.276 48.4262 4.62C48.1302 4.956 47.9702 5.408 47.9462 5.976H46.8902C46.9222 5.08 47.1942 4.388 47.7062 3.9C48.2182 3.412 48.8782 3.168 49.6862 3.168C50.5102 3.168 51.1622 3.396 51.6422 3.852C52.1302 4.308 52.3742 4.936 52.3742 5.736C52.3742 6.4 52.1742 7.048 51.7742 7.68C51.3822 8.304 50.9342 8.856 50.4302 9.336C49.9262 9.808 49.2822 10.36 48.4982 10.992H52.6262V11.904H46.8542V11.124ZM59.4205 4.272H55.2085V7.008C55.3925 6.752 55.6645 6.544 56.0245 6.384C56.3845 6.216 56.7725 6.132 57.1885 6.132C57.8525 6.132 58.3925 6.272 58.8085 6.552C59.2245 6.824 59.5205 7.18 59.6965 7.62C59.8805 8.052 59.9725 8.512 59.9725 9C59.9725 9.576 59.8645 10.092 59.6485 10.548C59.4325 11.004 59.1005 11.364 58.6525 11.628C58.2125 11.892 57.6645 12.024 57.0085 12.024C56.1685 12.024 55.4885 11.808 54.9685 11.376C54.4485 10.944 54.1325 10.368 54.0205 9.648H55.0885C55.1925 10.104 55.4125 10.46 55.7485 10.716C56.0845 10.972 56.5085 11.1 57.0205 11.1C57.6525 11.1 58.1285 10.912 58.4485 10.536C58.7685 10.152 58.9285 9.648 58.9285 9.024C58.9285 8.4 58.7685 7.92 58.4485 7.584C58.1285 7.24 57.6565 7.068 57.0325 7.068C56.6085 7.068 56.2365 7.172 55.9165 7.38C55.6045 7.58 55.3765 7.856 55.2325 8.208H54.2005V3.312H59.4205V4.272ZM61.2557 14.232V14.124C62.0797 13.276 62.7037 12.288 63.1277 11.16C63.5597 10.032 63.7757 8.848 63.7757 7.608C63.7757 6.336 63.5477 5.112 63.0917 3.936C62.6437 2.752 61.9717 1.74 61.0757 0.899999V0.792H62.2157C63.0557 1.568 63.6997 2.556 64.1477 3.756C64.6037 4.948 64.8317 6.232 64.8317 7.608C64.8317 8.952 64.6157 10.204 64.1837 11.364C63.7597 12.524 63.1637 13.48 62.3957 14.232H61.2557Z" fill="black"/>
</svg>
