<svg width="63" height="15" viewBox="0 0 63 15" fill="none" xmlns="http://www.w3.org/2000/svg">
<path d="M6.516 6.084C6.516 6.78 6.276 7.36 5.796 7.824C5.324 8.28 4.6 8.508 3.624 8.508H2.016V12H0.924V3.636H3.624C4.568 3.636 5.284 3.864 5.772 4.32C6.268 4.776 6.516 5.364 6.516 6.084ZM3.624 7.608C4.232 7.608 4.68 7.476 4.968 7.212C5.256 6.948 5.4 6.572 5.4 6.084C5.4 5.052 4.808 4.536 3.624 4.536H2.016V7.608H3.624ZM13.7052 5.424V12H12.6132V11.028C12.4052 11.364 12.1132 11.628 11.7372 11.82C11.3692 12.004 10.9612 12.096 10.5132 12.096C10.0012 12.096 9.54122 11.992 9.13322 11.784C8.72522 11.568 8.40122 11.248 8.16122 10.824C7.92922 10.4 7.81322 9.884 7.81322 9.276V5.424H8.89322V9.132C8.89322 9.78 9.05722 10.28 9.38522 10.632C9.71322 10.976 10.1612 11.148 10.7292 11.148C11.3132 11.148 11.7732 10.968 12.1092 10.608C12.4452 10.248 12.6132 9.724 12.6132 9.036V5.424H13.7052ZM23.457 5.304C23.969 5.304 24.425 5.412 24.825 5.628C25.225 5.836 25.541 6.152 25.773 6.576C26.005 7 26.121 7.516 26.121 8.124V12H25.041V8.28C25.041 7.624 24.877 7.124 24.549 6.78C24.229 6.428 23.793 6.252 23.241 6.252C22.673 6.252 22.221 6.436 21.885 6.804C21.549 7.164 21.381 7.688 21.381 8.376V12H20.301V8.28C20.301 7.624 20.137 7.124 19.809 6.78C19.489 6.428 19.053 6.252 18.501 6.252C17.933 6.252 17.481 6.436 17.145 6.804C16.809 7.164 16.641 7.688 16.641 8.376V12H15.549V5.424H16.641V6.372C16.857 6.028 17.145 5.764 17.505 5.58C17.873 5.396 18.277 5.304 18.717 5.304C19.269 5.304 19.757 5.428 20.181 5.676C20.605 5.924 20.921 6.288 21.129 6.768C21.313 6.304 21.617 5.944 22.041 5.688C22.465 5.432 22.937 5.304 23.457 5.304ZM27.5043 8.688C27.5043 8.016 27.6403 7.428 27.9123 6.924C28.1843 6.412 28.5563 6.016 29.0283 5.736C29.5083 5.456 30.0403 5.316 30.6243 5.316C31.2003 5.316 31.7003 5.44 32.1243 5.688C32.5483 5.936 32.8643 6.248 33.0723 6.624V5.424H34.1763V12H33.0723V10.776C32.8563 11.16 32.5323 11.48 32.1003 11.736C31.6763 11.984 31.1803 12.108 30.6123 12.108C30.0283 12.108 29.5003 11.964 29.0283 11.676C28.5563 11.388 28.1843 10.984 27.9123 10.464C27.6403 9.944 27.5043 9.352 27.5043 8.688ZM33.0723 8.7C33.0723 8.204 32.9723 7.772 32.7723 7.404C32.5723 7.036 32.3003 6.756 31.9563 6.564C31.6203 6.364 31.2483 6.264 30.8403 6.264C30.4323 6.264 30.0603 6.36 29.7243 6.552C29.3883 6.744 29.1203 7.024 28.9203 7.392C28.7203 7.76 28.6203 8.192 28.6203 8.688C28.6203 9.192 28.7203 9.632 28.9203 10.008C29.1203 10.376 29.3883 10.66 29.7243 10.86C30.0603 11.052 30.4323 11.148 30.8403 11.148C31.2483 11.148 31.6203 11.052 31.9563 10.86C32.3003 10.66 32.5723 10.376 32.7723 10.008C32.9723 9.632 33.0723 9.196 33.0723 8.7ZM42.0289 14.232C41.2609 13.48 40.6609 12.524 40.2289 11.364C39.8049 10.204 39.5929 8.952 39.5929 7.608C39.5929 6.232 39.8169 4.948 40.2649 3.756C40.7209 2.556 41.3689 1.568 42.2089 0.792H43.3489V0.899999C42.4529 1.74 41.7769 2.752 41.3209 3.936C40.8729 5.112 40.6489 6.336 40.6489 7.608C40.6489 8.848 40.8609 10.032 41.2849 11.16C41.7169 12.288 42.3449 13.276 43.1689 14.124V14.232H42.0289ZM44.3581 11.124C45.3741 10.308 46.1701 9.64 46.7461 9.12C47.3221 8.592 47.8061 8.044 48.1981 7.476C48.5981 6.9 48.7981 6.336 48.7981 5.784C48.7981 5.264 48.6701 4.856 48.4141 4.56C48.1661 4.256 47.7621 4.104 47.2021 4.104C46.6581 4.104 46.2341 4.276 45.9301 4.62C45.6341 4.956 45.4741 5.408 45.4501 5.976H44.3941C44.4261 5.08 44.6981 4.388 45.2101 3.9C45.7221 3.412 46.3821 3.168 47.1901 3.168C48.0141 3.168 48.6661 3.396 49.1461 3.852C49.6341 4.308 49.8781 4.936 49.8781 5.736C49.8781 6.4 49.6781 7.048 49.2781 7.68C48.8861 8.304 48.4381 8.856 47.9341 9.336C47.4301 9.808 46.7861 10.36 46.0021 10.992H50.1301V11.904H44.3581V11.124ZM51.3924 7.572C51.3924 6.196 51.6164 5.124 52.0644 4.356C52.5124 3.58 53.2964 3.192 54.4164 3.192C55.5284 3.192 56.3084 3.58 56.7564 4.356C57.2044 5.124 57.4284 6.196 57.4284 7.572C57.4284 8.972 57.2044 10.06 56.7564 10.836C56.3084 11.612 55.5284 12 54.4164 12C53.2964 12 52.5124 11.612 52.0644 10.836C51.6164 10.06 51.3924 8.972 51.3924 7.572ZM56.3484 7.572C56.3484 6.876 56.3004 6.288 56.2044 5.808C56.1164 5.32 55.9284 4.928 55.6404 4.632C55.3604 4.336 54.9524 4.188 54.4164 4.188C53.8724 4.188 53.4564 4.336 53.1684 4.632C52.8884 4.928 52.7004 5.32 52.6044 5.808C52.5164 6.288 52.4724 6.876 52.4724 7.572C52.4724 8.292 52.5164 8.896 52.6044 9.384C52.7004 9.872 52.8884 10.264 53.1684 10.56C53.4564 10.856 53.8724 11.004 54.4164 11.004C54.9524 11.004 55.3604 10.856 55.6404 10.56C55.9284 10.264 56.1164 9.872 56.2044 9.384C56.3004 8.896 56.3484 8.292 56.3484 7.572ZM58.7596 14.232V14.124C59.5836 13.276 60.2076 12.288 60.6316 11.16C61.0636 10.032 61.2796 8.848 61.2796 7.608C61.2796 6.336 61.0516 5.112 60.5956 3.936C60.1476 2.752 59.4756 1.74 58.5796 0.899999V0.792H59.7196C60.5596 1.568 61.2036 2.556 61.6516 3.756C62.1076 4.948 62.3356 6.232 62.3356 7.608C62.3356 8.952 62.1196 10.204 61.6876 11.364C61.2636 12.524 60.6676 13.48 59.8996 14.232H58.7596Z" fill="black"/>
</svg>
