<svg width="422" height="32" viewBox="0 0 422 32" fill="none" xmlns="http://www.w3.org/2000/svg">
<path d="M3.576 10.084C3.024 10.084 2.528 9.988 2.088 9.796C1.656 9.596 1.316 9.324 1.068 8.98C0.82 8.628 0.692 8.224 0.684 7.768H1.848C1.888 8.16 2.048 8.492 2.328 8.764C2.616 9.028 3.032 9.16 3.576 9.16C4.096 9.16 4.504 9.032 4.8 8.776C5.104 8.512 5.256 8.176 5.256 7.768C5.256 7.448 5.168 7.188 4.992 6.988C4.816 6.788 4.596 6.636 4.332 6.532C4.068 6.428 3.712 6.316 3.264 6.196C2.712 6.052 2.268 5.908 1.932 5.764C1.604 5.62 1.32 5.396 1.08 5.092C0.848 4.78 0.732 4.364 0.732 3.844C0.732 3.388 0.848 2.984 1.08 2.632C1.312 2.28 1.636 2.008 2.052 1.816C2.476 1.624 2.96 1.528 3.504 1.528C4.288 1.528 4.928 1.724 5.424 2.116C5.928 2.508 6.212 3.028 6.276 3.676H5.076C5.036 3.356 4.868 3.076 4.572 2.836C4.276 2.588 3.884 2.464 3.396 2.464C2.94 2.464 2.568 2.584 2.28 2.824C1.992 3.056 1.848 3.384 1.848 3.808C1.848 4.112 1.932 4.36 2.1 4.552C2.276 4.744 2.488 4.892 2.736 4.996C2.992 5.092 3.348 5.204 3.804 5.332C4.356 5.484 4.8 5.636 5.136 5.788C5.472 5.932 5.76 6.16 6 6.472C6.24 6.776 6.36 7.192 6.36 7.72C6.36 8.128 6.252 8.512 6.036 8.872C5.82 9.232 5.5 9.524 5.076 9.748C4.652 9.972 4.152 10.084 3.576 10.084ZM7.55897 6.688C7.55897 6.016 7.69497 5.428 7.96697 4.924C8.23897 4.412 8.61097 4.016 9.08297 3.736C9.56297 3.456 10.095 3.316 10.679 3.316C11.255 3.316 11.755 3.44 12.179 3.688C12.603 3.936 12.919 4.248 13.127 4.624V3.424H14.231V10H13.127V8.776C12.911 9.16 12.587 9.48 12.155 9.736C11.731 9.984 11.235 10.108 10.667 10.108C10.083 10.108 9.55497 9.964 9.08297 9.676C8.61097 9.388 8.23897 8.984 7.96697 8.464C7.69497 7.944 7.55897 7.352 7.55897 6.688ZM13.127 6.7C13.127 6.204 13.027 5.772 12.827 5.404C12.627 5.036 12.355 4.756 12.011 4.564C11.675 4.364 11.303 4.264 10.895 4.264C10.487 4.264 10.115 4.36 9.77897 4.552C9.44297 4.744 9.17497 5.024 8.97497 5.392C8.77497 5.76 8.67497 6.192 8.67497 6.688C8.67497 7.192 8.77497 7.632 8.97497 8.008C9.17497 8.376 9.44297 8.66 9.77897 8.86C10.115 9.052 10.487 9.148 10.895 9.148C11.303 9.148 11.675 9.052 12.011 8.86C12.355 8.66 12.627 8.376 12.827 8.008C13.027 7.632 13.127 7.196 13.127 6.7ZM18.5243 8.992L20.5643 3.424H21.7283L19.1483 10H17.8763L15.2963 3.424H16.4723L18.5243 8.992ZM28.8029 6.46C28.8029 6.668 28.7909 6.888 28.7669 7.12H23.5109C23.5509 7.768 23.7709 8.276 24.1709 8.644C24.5789 9.004 25.0709 9.184 25.6469 9.184C26.1189 9.184 26.5109 9.076 26.8229 8.86C27.1429 8.636 27.3669 8.34 27.4949 7.972H28.6709C28.4949 8.604 28.1429 9.12 27.6149 9.52C27.0869 9.912 26.4309 10.108 25.6469 10.108C25.0229 10.108 24.4629 9.968 23.9669 9.688C23.4789 9.408 23.0949 9.012 22.8149 8.5C22.5349 7.98 22.3949 7.38 22.3949 6.7C22.3949 6.02 22.5309 5.424 22.8029 4.912C23.0749 4.4 23.4549 4.008 23.9429 3.736C24.4389 3.456 25.0069 3.316 25.6469 3.316C26.2709 3.316 26.8229 3.452 27.3029 3.724C27.7829 3.996 28.1509 4.372 28.4069 4.852C28.6709 5.324 28.8029 5.86 28.8029 6.46ZM27.6749 6.232C27.6749 5.816 27.5829 5.46 27.3989 5.164C27.2149 4.86 26.9629 4.632 26.6429 4.48C26.3309 4.32 25.9829 4.24 25.5989 4.24C25.0469 4.24 24.5749 4.416 24.1829 4.768C23.7989 5.12 23.5789 5.608 23.5229 6.232H27.6749ZM34.5355 4.648C34.7595 4.256 35.0875 3.936 35.5195 3.688C35.9515 3.44 36.4435 3.316 36.9955 3.316C37.5875 3.316 38.1195 3.456 38.5915 3.736C39.0635 4.016 39.4355 4.412 39.7075 4.924C39.9795 5.428 40.1155 6.016 40.1155 6.688C40.1155 7.352 39.9795 7.944 39.7075 8.464C39.4355 8.984 39.0595 9.388 38.5795 9.676C38.1075 9.964 37.5795 10.108 36.9955 10.108C36.4275 10.108 35.9275 9.984 35.4955 9.736C35.0715 9.488 34.7515 9.172 34.5355 8.788V10H33.4435V1.12H34.5355V4.648ZM38.9995 6.688C38.9995 6.192 38.8995 5.76 38.6995 5.392C38.4995 5.024 38.2275 4.744 37.8835 4.552C37.5475 4.36 37.1755 4.264 36.7675 4.264C36.3675 4.264 35.9955 4.364 35.6515 4.564C35.3155 4.756 35.0435 5.04 34.8355 5.416C34.6355 5.784 34.5355 6.212 34.5355 6.7C34.5355 7.196 34.6355 7.632 34.8355 8.008C35.0435 8.376 35.3155 8.66 35.6515 8.86C35.9955 9.052 36.3675 9.148 36.7675 9.148C37.1755 9.148 37.5475 9.052 37.8835 8.86C38.2275 8.66 38.4995 8.376 38.6995 8.008C38.8995 7.632 38.9995 7.192 38.9995 6.688ZM42.1169 2.356C41.9089 2.356 41.7329 2.284 41.5889 2.14C41.4449 1.996 41.3729 1.82 41.3729 1.612C41.3729 1.404 41.4449 1.228 41.5889 1.084C41.7329 0.94 41.9089 0.868 42.1169 0.868C42.3169 0.868 42.4849 0.94 42.6209 1.084C42.7649 1.228 42.8369 1.404 42.8369 1.612C42.8369 1.82 42.7649 1.996 42.6209 2.14C42.4849 2.284 42.3169 2.356 42.1169 2.356ZM42.6449 3.424V10H41.5529V3.424H42.6449ZM47.218 3.316C47.786 3.316 48.282 3.44 48.706 3.688C49.138 3.936 49.458 4.248 49.666 4.624V3.424H50.77V10.144C50.77 10.744 50.642 11.276 50.386 11.74C50.13 12.212 49.762 12.58 49.282 12.844C48.81 13.108 48.258 13.24 47.626 13.24C46.762 13.24 46.042 13.036 45.466 12.628C44.89 12.22 44.55 11.664 44.446 10.96H45.526C45.646 11.36 45.894 11.68 46.27 11.92C46.646 12.168 47.098 12.292 47.626 12.292C48.226 12.292 48.714 12.104 49.09 11.728C49.474 11.352 49.666 10.824 49.666 10.144V8.764C49.45 9.148 49.13 9.468 48.706 9.724C48.282 9.98 47.786 10.108 47.218 10.108C46.634 10.108 46.102 9.964 45.622 9.676C45.15 9.388 44.778 8.984 44.506 8.464C44.234 7.944 44.098 7.352 44.098 6.688C44.098 6.016 44.234 5.428 44.506 4.924C44.778 4.412 45.15 4.016 45.622 3.736C46.102 3.456 46.634 3.316 47.218 3.316ZM49.666 6.7C49.666 6.204 49.566 5.772 49.366 5.404C49.166 5.036 48.894 4.756 48.55 4.564C48.214 4.364 47.842 4.264 47.434 4.264C47.026 4.264 46.654 4.36 46.318 4.552C45.982 4.744 45.714 5.024 45.514 5.392C45.314 5.76 45.214 6.192 45.214 6.688C45.214 7.192 45.314 7.632 45.514 8.008C45.714 8.376 45.982 8.66 46.318 8.86C46.654 9.052 47.026 9.148 47.434 9.148C47.842 9.148 48.214 9.052 48.55 8.86C48.894 8.66 49.166 8.376 49.366 8.008C49.566 7.632 49.666 7.196 49.666 6.7ZM61.6466 3.424V10H60.5546V9.028C60.3466 9.364 60.0546 9.628 59.6786 9.82C59.3106 10.004 58.9026 10.096 58.4546 10.096C57.9426 10.096 57.4826 9.992 57.0746 9.784C56.6666 9.568 56.3426 9.248 56.1026 8.824C55.8706 8.4 55.7546 7.884 55.7546 7.276V3.424H56.8346V7.132C56.8346 7.78 56.9986 8.28 57.3266 8.632C57.6546 8.976 58.1026 9.148 58.6706 9.148C59.2546 9.148 59.7146 8.968 60.0506 8.608C60.3866 8.248 60.5546 7.724 60.5546 7.036V3.424H61.6466ZM65.8184 10.108C65.3144 10.108 64.8624 10.024 64.4624 9.856C64.0624 9.68 63.7464 9.44 63.5144 9.136C63.2824 8.824 63.1544 8.468 63.1304 8.068H64.2584C64.2904 8.396 64.4424 8.664 64.7144 8.872C64.9944 9.08 65.3584 9.184 65.8064 9.184C66.2224 9.184 66.5504 9.092 66.7904 8.908C67.0304 8.724 67.1504 8.492 67.1504 8.212C67.1504 7.924 67.0224 7.712 66.7664 7.576C66.5104 7.432 66.1144 7.292 65.5784 7.156C65.0904 7.028 64.6904 6.9 64.3784 6.772C64.0744 6.636 63.8104 6.44 63.5864 6.184C63.3704 5.92 63.2624 5.576 63.2624 5.152C63.2624 4.816 63.3624 4.508 63.5624 4.228C63.7624 3.948 64.0464 3.728 64.4144 3.568C64.7824 3.4 65.2024 3.316 65.6744 3.316C66.4024 3.316 66.9904 3.5 67.4384 3.868C67.8864 4.236 68.1264 4.74 68.1584 5.38H67.0664C67.0424 5.036 66.9024 4.76 66.6464 4.552C66.3984 4.344 66.0624 4.24 65.6384 4.24C65.2464 4.24 64.9344 4.324 64.7024 4.492C64.4704 4.66 64.3544 4.88 64.3544 5.152C64.3544 5.368 64.4224 5.548 64.5584 5.692C64.7024 5.828 64.8784 5.94 65.0864 6.028C65.3024 6.108 65.5984 6.2 65.9744 6.304C66.4464 6.432 66.8304 6.56 67.1264 6.688C67.4224 6.808 67.6744 6.992 67.8824 7.24C68.0984 7.488 68.2104 7.812 68.2184 8.212C68.2184 8.572 68.1184 8.896 67.9184 9.184C67.7184 9.472 67.4344 9.7 67.0664 9.868C66.7064 10.028 66.2904 10.108 65.8184 10.108ZM70.3239 2.356C70.1159 2.356 69.9399 2.284 69.7959 2.14C69.6519 1.996 69.5799 1.82 69.5799 1.612C69.5799 1.404 69.6519 1.228 69.7959 1.084C69.9399 0.94 70.1159 0.868 70.3239 0.868C70.5239 0.868 70.6919 0.94 70.8279 1.084C70.9719 1.228 71.0439 1.404 71.0439 1.612C71.0439 1.82 70.9719 1.996 70.8279 2.14C70.6919 2.284 70.5239 2.356 70.3239 2.356ZM70.8519 3.424V10H69.7599V3.424H70.8519ZM75.9171 3.304C76.7171 3.304 77.3651 3.548 77.8611 4.036C78.3571 4.516 78.6051 5.212 78.6051 6.124V10H77.5251V6.28C77.5251 5.624 77.3611 5.124 77.0331 4.78C76.7051 4.428 76.2571 4.252 75.6891 4.252C75.1131 4.252 74.6531 4.432 74.3091 4.792C73.9731 5.152 73.8051 5.676 73.8051 6.364V10H72.7131V3.424H73.8051V4.36C74.0211 4.024 74.3131 3.764 74.6811 3.58C75.0571 3.396 75.4691 3.304 75.9171 3.304ZM83.1008 3.316C83.6688 3.316 84.1648 3.44 84.5888 3.688C85.0208 3.936 85.3408 4.248 85.5488 4.624V3.424H86.6528V10.144C86.6528 10.744 86.5248 11.276 86.2688 11.74C86.0128 12.212 85.6448 12.58 85.1648 12.844C84.6928 13.108 84.1408 13.24 83.5088 13.24C82.6448 13.24 81.9248 13.036 81.3488 12.628C80.7728 12.22 80.4328 11.664 80.3288 10.96H81.4088C81.5288 11.36 81.7768 11.68 82.1528 11.92C82.5288 12.168 82.9808 12.292 83.5088 12.292C84.1088 12.292 84.5968 12.104 84.9728 11.728C85.3568 11.352 85.5488 10.824 85.5488 10.144V8.764C85.3328 9.148 85.0128 9.468 84.5888 9.724C84.1648 9.98 83.6688 10.108 83.1008 10.108C82.5168 10.108 81.9848 9.964 81.5048 9.676C81.0328 9.388 80.6608 8.984 80.3888 8.464C80.1168 7.944 79.9808 7.352 79.9808 6.688C79.9808 6.016 80.1168 5.428 80.3888 4.924C80.6608 4.412 81.0328 4.016 81.5048 3.736C81.9848 3.456 82.5168 3.316 83.1008 3.316ZM85.5488 6.7C85.5488 6.204 85.4488 5.772 85.2488 5.404C85.0488 5.036 84.7768 4.756 84.4328 4.564C84.0968 4.364 83.7248 4.264 83.3168 4.264C82.9088 4.264 82.5368 4.36 82.2008 4.552C81.8648 4.744 81.5968 5.024 81.3968 5.392C81.1968 5.76 81.0968 6.192 81.0968 6.688C81.0968 7.192 81.1968 7.632 81.3968 8.008C81.5968 8.376 81.8648 8.66 82.2008 8.86C82.5368 9.052 82.9088 9.148 83.3168 9.148C83.7248 9.148 84.0968 9.052 84.4328 8.86C84.7768 8.66 85.0488 8.376 85.2488 8.008C85.4488 7.632 85.5488 7.196 85.5488 6.7ZM94.5654 10.108C93.9494 10.108 93.3894 9.968 92.8854 9.688C92.3894 9.408 91.9974 9.012 91.7094 8.5C91.4294 7.98 91.2894 7.38 91.2894 6.7C91.2894 6.028 91.4334 5.436 91.7214 4.924C92.0174 4.404 92.4174 4.008 92.9214 3.736C93.4254 3.456 93.9894 3.316 94.6134 3.316C95.2374 3.316 95.8014 3.456 96.3054 3.736C96.8094 4.008 97.2054 4.4 97.4934 4.912C97.7894 5.424 97.9374 6.02 97.9374 6.7C97.9374 7.38 97.7854 7.98 97.4814 8.5C97.1854 9.012 96.7814 9.408 96.2694 9.688C95.7574 9.968 95.1894 10.108 94.5654 10.108ZM94.5654 9.148C94.9574 9.148 95.3254 9.056 95.6694 8.872C96.0134 8.688 96.2894 8.412 96.4974 8.044C96.7134 7.676 96.8214 7.228 96.8214 6.7C96.8214 6.172 96.7174 5.724 96.5094 5.356C96.3014 4.988 96.0294 4.716 95.6934 4.54C95.3574 4.356 94.9934 4.264 94.6014 4.264C94.2014 4.264 93.8334 4.356 93.4974 4.54C93.1694 4.716 92.9054 4.988 92.7054 5.356C92.5054 5.724 92.4054 6.172 92.4054 6.7C92.4054 7.236 92.5014 7.688 92.6934 8.056C92.8934 8.424 93.1574 8.7 93.4854 8.884C93.8134 9.06 94.1734 9.148 94.5654 9.148ZM105.205 3.424V10H104.113V9.028C103.905 9.364 103.613 9.628 103.237 9.82C102.869 10.004 102.461 10.096 102.013 10.096C101.501 10.096 101.041 9.992 100.633 9.784C100.225 9.568 99.9012 9.248 99.6612 8.824C99.4292 8.4 99.3132 7.884 99.3132 7.276V3.424H100.393V7.132C100.393 7.78 100.557 8.28 100.885 8.632C101.213 8.976 101.661 9.148 102.229 9.148C102.813 9.148 103.273 8.968 103.609 8.608C103.945 8.248 104.113 7.724 104.113 7.036V3.424H105.205ZM108.141 4.492C108.333 4.116 108.605 3.824 108.957 3.616C109.317 3.408 109.753 3.304 110.265 3.304V4.432H109.977C108.753 4.432 108.141 5.096 108.141 6.424V10H107.049V3.424H108.141V4.492ZM119.453 1.636V2.524H115.817V5.344H118.769V6.232H115.817V10H114.725V1.636H119.453ZM120.364 6.688C120.364 6.016 120.5 5.428 120.772 4.924C121.044 4.412 121.416 4.016 121.888 3.736C122.368 3.456 122.9 3.316 123.484 3.316C124.06 3.316 124.56 3.44 124.984 3.688C125.408 3.936 125.724 4.248 125.932 4.624V3.424H127.036V10H125.932V8.776C125.716 9.16 125.392 9.48 124.96 9.736C124.536 9.984 124.04 10.108 123.472 10.108C122.888 10.108 122.36 9.964 121.888 9.676C121.416 9.388 121.044 8.984 120.772 8.464C120.5 7.944 120.364 7.352 120.364 6.688ZM125.932 6.7C125.932 6.204 125.832 5.772 125.632 5.404C125.432 5.036 125.16 4.756 124.816 4.564C124.48 4.364 124.108 4.264 123.7 4.264C123.292 4.264 122.92 4.36 122.584 4.552C122.248 4.744 121.98 5.024 121.78 5.392C121.58 5.76 121.48 6.192 121.48 6.688C121.48 7.192 121.58 7.632 121.78 8.008C121.98 8.376 122.248 8.66 122.584 8.86C122.92 9.052 123.292 9.148 123.7 9.148C124.108 9.148 124.48 9.052 124.816 8.86C125.16 8.66 125.432 8.376 125.632 8.008C125.832 7.632 125.932 7.196 125.932 6.7ZM131.209 10.108C130.705 10.108 130.253 10.024 129.853 9.856C129.453 9.68 129.137 9.44 128.905 9.136C128.673 8.824 128.545 8.468 128.521 8.068H129.649C129.681 8.396 129.833 8.664 130.105 8.872C130.385 9.08 130.749 9.184 131.197 9.184C131.613 9.184 131.941 9.092 132.181 8.908C132.421 8.724 132.541 8.492 132.541 8.212C132.541 7.924 132.413 7.712 132.157 7.576C131.901 7.432 131.505 7.292 130.969 7.156C130.481 7.028 130.081 6.9 129.769 6.772C129.465 6.636 129.201 6.44 128.977 6.184C128.761 5.92 128.653 5.576 128.653 5.152C128.653 4.816 128.753 4.508 128.953 4.228C129.153 3.948 129.437 3.728 129.805 3.568C130.173 3.4 130.593 3.316 131.065 3.316C131.793 3.316 132.381 3.5 132.829 3.868C133.277 4.236 133.517 4.74 133.549 5.38H132.457C132.433 5.036 132.293 4.76 132.037 4.552C131.789 4.344 131.453 4.24 131.029 4.24C130.637 4.24 130.325 4.324 130.093 4.492C129.861 4.66 129.745 4.88 129.745 5.152C129.745 5.368 129.813 5.548 129.949 5.692C130.093 5.828 130.269 5.94 130.477 6.028C130.693 6.108 130.989 6.2 131.365 6.304C131.837 6.432 132.221 6.56 132.517 6.688C132.813 6.808 133.065 6.992 133.273 7.24C133.489 7.488 133.601 7.812 133.609 8.212C133.609 8.572 133.509 8.896 133.309 9.184C133.109 9.472 132.825 9.7 132.457 9.868C132.097 10.028 131.681 10.108 131.209 10.108ZM138.415 3.304C138.911 3.304 139.359 3.412 139.759 3.628C140.159 3.836 140.471 4.152 140.695 4.576C140.927 5 141.043 5.516 141.043 6.124V10H139.963V6.28C139.963 5.624 139.799 5.124 139.471 4.78C139.143 4.428 138.695 4.252 138.127 4.252C137.551 4.252 137.091 4.432 136.747 4.792C136.411 5.152 136.243 5.676 136.243 6.364V10H135.151V1.12H136.243V4.36C136.459 4.024 136.755 3.764 137.131 3.58C137.515 3.396 137.943 3.304 138.415 3.304ZM143.39 2.356C143.182 2.356 143.006 2.284 142.862 2.14C142.718 1.996 142.646 1.82 142.646 1.612C142.646 1.404 142.718 1.228 142.862 1.084C143.006 0.94 143.182 0.868 143.39 0.868C143.59 0.868 143.758 0.94 143.894 1.084C144.038 1.228 144.11 1.404 144.11 1.612C144.11 1.82 144.038 1.996 143.894 2.14C143.758 2.284 143.59 2.356 143.39 2.356ZM143.918 3.424V10H142.826V3.424H143.918ZM148.647 10.108C148.031 10.108 147.471 9.968 146.967 9.688C146.471 9.408 146.079 9.012 145.791 8.5C145.511 7.98 145.371 7.38 145.371 6.7C145.371 6.028 145.515 5.436 145.803 4.924C146.099 4.404 146.499 4.008 147.003 3.736C147.507 3.456 148.071 3.316 148.695 3.316C149.319 3.316 149.883 3.456 150.387 3.736C150.891 4.008 151.287 4.4 151.575 4.912C151.871 5.424 152.019 6.02 152.019 6.7C152.019 7.38 151.867 7.98 151.563 8.5C151.267 9.012 150.863 9.408 150.351 9.688C149.839 9.968 149.271 10.108 148.647 10.108ZM148.647 9.148C149.039 9.148 149.407 9.056 149.751 8.872C150.095 8.688 150.371 8.412 150.579 8.044C150.795 7.676 150.903 7.228 150.903 6.7C150.903 6.172 150.799 5.724 150.591 5.356C150.383 4.988 150.111 4.716 149.775 4.54C149.439 4.356 149.075 4.264 148.683 4.264C148.283 4.264 147.915 4.356 147.579 4.54C147.251 4.716 146.987 4.988 146.787 5.356C146.587 5.724 146.487 6.172 146.487 6.7C146.487 7.236 146.583 7.688 146.775 8.056C146.975 8.424 147.239 8.7 147.567 8.884C147.895 9.06 148.255 9.148 148.647 9.148ZM156.659 3.304C157.459 3.304 158.107 3.548 158.603 4.036C159.099 4.516 159.347 5.212 159.347 6.124V10H158.267V6.28C158.267 5.624 158.103 5.124 157.775 4.78C157.447 4.428 156.999 4.252 156.431 4.252C155.855 4.252 155.395 4.432 155.051 4.792C154.715 5.152 154.547 5.676 154.547 6.364V10H153.455V3.424H154.547V4.36C154.763 4.024 155.055 3.764 155.423 3.58C155.799 3.396 156.211 3.304 156.659 3.304ZM163.922 6.7C163.922 6.02 164.058 5.428 164.33 4.924C164.602 4.412 164.978 4.016 165.458 3.736C165.946 3.456 166.502 3.316 167.126 3.316C167.934 3.316 168.598 3.512 169.118 3.904C169.646 4.296 169.994 4.84 170.162 5.536H168.986C168.874 5.136 168.654 4.82 168.326 4.588C168.006 4.356 167.606 4.24 167.126 4.24C166.502 4.24 165.998 4.456 165.614 4.888C165.23 5.312 165.038 5.916 165.038 6.7C165.038 7.492 165.23 8.104 165.614 8.536C165.998 8.968 166.502 9.184 167.126 9.184C167.606 9.184 168.006 9.072 168.326 8.848C168.646 8.624 168.866 8.304 168.986 7.888H170.162C169.986 8.56 169.634 9.1 169.106 9.508C168.578 9.908 167.918 10.108 167.126 10.108C166.502 10.108 165.946 9.968 165.458 9.688C164.978 9.408 164.602 9.012 164.33 8.5C164.058 7.988 163.922 7.388 163.922 6.7ZM174.487 10.108C173.871 10.108 173.311 9.968 172.807 9.688C172.311 9.408 171.919 9.012 171.631 8.5C171.351 7.98 171.211 7.38 171.211 6.7C171.211 6.028 171.355 5.436 171.643 4.924C171.939 4.404 172.339 4.008 172.843 3.736C173.347 3.456 173.911 3.316 174.535 3.316C175.159 3.316 175.723 3.456 176.227 3.736C176.731 4.008 177.127 4.4 177.415 4.912C177.711 5.424 177.859 6.02 177.859 6.7C177.859 7.38 177.707 7.98 177.403 8.5C177.107 9.012 176.703 9.408 176.191 9.688C175.679 9.968 175.111 10.108 174.487 10.108ZM174.487 9.148C174.879 9.148 175.247 9.056 175.591 8.872C175.935 8.688 176.211 8.412 176.419 8.044C176.635 7.676 176.743 7.228 176.743 6.7C176.743 6.172 176.639 5.724 176.431 5.356C176.223 4.988 175.951 4.716 175.615 4.54C175.279 4.356 174.915 4.264 174.523 4.264C174.123 4.264 173.755 4.356 173.419 4.54C173.091 4.716 172.827 4.988 172.627 5.356C172.427 5.724 172.327 6.172 172.327 6.7C172.327 7.236 172.423 7.688 172.615 8.056C172.815 8.424 173.079 8.7 173.407 8.884C173.735 9.06 174.095 9.148 174.487 9.148ZM185.127 3.424V10H184.035V9.028C183.827 9.364 183.535 9.628 183.159 9.82C182.791 10.004 182.383 10.096 181.935 10.096C181.423 10.096 180.963 9.992 180.555 9.784C180.147 9.568 179.823 9.248 179.583 8.824C179.351 8.4 179.235 7.884 179.235 7.276V3.424H180.315V7.132C180.315 7.78 180.479 8.28 180.807 8.632C181.135 8.976 181.583 9.148 182.151 9.148C182.735 9.148 183.195 8.968 183.531 8.608C183.867 8.248 184.035 7.724 184.035 7.036V3.424H185.127ZM188.063 4.636C188.279 4.26 188.599 3.948 189.023 3.7C189.455 3.444 189.955 3.316 190.523 3.316C191.107 3.316 191.635 3.456 192.107 3.736C192.587 4.016 192.963 4.412 193.235 4.924C193.507 5.428 193.643 6.016 193.643 6.688C193.643 7.352 193.507 7.944 193.235 8.464C192.963 8.984 192.587 9.388 192.107 9.676C191.635 9.964 191.107 10.108 190.523 10.108C189.963 10.108 189.467 9.984 189.035 9.736C188.611 9.48 188.287 9.164 188.063 8.788V13.12H186.971V3.424H188.063V4.636ZM192.527 6.688C192.527 6.192 192.427 5.76 192.227 5.392C192.027 5.024 191.755 4.744 191.411 4.552C191.075 4.36 190.703 4.264 190.295 4.264C189.895 4.264 189.523 4.364 189.179 4.564C188.843 4.756 188.571 5.04 188.363 5.416C188.163 5.784 188.063 6.212 188.063 6.7C188.063 7.196 188.163 7.632 188.363 8.008C188.571 8.376 188.843 8.66 189.179 8.86C189.523 9.052 189.895 9.148 190.295 9.148C190.703 9.148 191.075 9.052 191.411 8.86C191.755 8.66 192.027 8.376 192.227 8.008C192.427 7.632 192.527 7.192 192.527 6.688ZM197.948 10.108C197.332 10.108 196.772 9.968 196.268 9.688C195.772 9.408 195.38 9.012 195.092 8.5C194.812 7.98 194.672 7.38 194.672 6.7C194.672 6.028 194.816 5.436 195.104 4.924C195.4 4.404 195.8 4.008 196.304 3.736C196.808 3.456 197.372 3.316 197.996 3.316C198.62 3.316 199.184 3.456 199.688 3.736C200.192 4.008 200.588 4.4 200.876 4.912C201.172 5.424 201.32 6.02 201.32 6.7C201.32 7.38 201.168 7.98 200.864 8.5C200.568 9.012 200.164 9.408 199.652 9.688C199.14 9.968 198.572 10.108 197.948 10.108ZM197.948 9.148C198.34 9.148 198.708 9.056 199.052 8.872C199.396 8.688 199.672 8.412 199.88 8.044C200.096 7.676 200.204 7.228 200.204 6.7C200.204 6.172 200.1 5.724 199.892 5.356C199.684 4.988 199.412 4.716 199.076 4.54C198.74 4.356 198.376 4.264 197.984 4.264C197.584 4.264 197.216 4.356 196.88 4.54C196.552 4.716 196.288 4.988 196.088 5.356C195.888 5.724 195.788 6.172 195.788 6.7C195.788 7.236 195.884 7.688 196.076 8.056C196.276 8.424 196.54 8.7 196.868 8.884C197.196 9.06 197.556 9.148 197.948 9.148ZM205.96 3.304C206.76 3.304 207.408 3.548 207.904 4.036C208.4 4.516 208.648 5.212 208.648 6.124V10H207.568V6.28C207.568 5.624 207.404 5.124 207.076 4.78C206.748 4.428 206.3 4.252 205.732 4.252C205.156 4.252 204.696 4.432 204.352 4.792C204.016 5.152 203.848 5.676 203.848 6.364V10H202.756V3.424H203.848V4.36C204.064 4.024 204.356 3.764 204.724 3.58C205.1 3.396 205.512 3.304 205.96 3.304ZM212.76 10.108C212.256 10.108 211.804 10.024 211.404 9.856C211.004 9.68 210.688 9.44 210.456 9.136C210.224 8.824 210.096 8.468 210.072 8.068H211.2C211.232 8.396 211.384 8.664 211.656 8.872C211.936 9.08 212.3 9.184 212.748 9.184C213.164 9.184 213.492 9.092 213.732 8.908C213.972 8.724 214.092 8.492 214.092 8.212C214.092 7.924 213.964 7.712 213.708 7.576C213.452 7.432 213.056 7.292 212.52 7.156C212.032 7.028 211.632 6.9 211.32 6.772C211.016 6.636 210.752 6.44 210.528 6.184C210.312 5.92 210.204 5.576 210.204 5.152C210.204 4.816 210.304 4.508 210.504 4.228C210.704 3.948 210.988 3.728 211.356 3.568C211.724 3.4 212.144 3.316 212.616 3.316C213.344 3.316 213.932 3.5 214.38 3.868C214.828 4.236 215.068 4.74 215.1 5.38H214.008C213.984 5.036 213.844 4.76 213.588 4.552C213.34 4.344 213.004 4.24 212.58 4.24C212.188 4.24 211.876 4.324 211.644 4.492C211.412 4.66 211.296 4.88 211.296 5.152C211.296 5.368 211.364 5.548 211.5 5.692C211.644 5.828 211.82 5.94 212.028 6.028C212.244 6.108 212.54 6.2 212.916 6.304C213.388 6.432 213.772 6.56 214.068 6.688C214.364 6.808 214.616 6.992 214.824 7.24C215.04 7.488 215.152 7.812 215.16 8.212C215.16 8.572 215.06 8.896 214.86 9.184C214.66 9.472 214.376 9.7 214.008 9.868C213.648 10.028 213.232 10.108 212.76 10.108ZM226.321 10L225.229 8.896C224.821 9.32 224.385 9.636 223.921 9.844C223.457 10.044 222.933 10.144 222.349 10.144C221.773 10.144 221.261 10.04 220.813 9.832C220.373 9.624 220.029 9.328 219.781 8.944C219.541 8.56 219.421 8.112 219.421 7.6C219.421 7.016 219.585 6.504 219.913 6.064C220.249 5.616 220.741 5.264 221.389 5.008C221.133 4.704 220.949 4.424 220.837 4.168C220.725 3.912 220.669 3.632 220.669 3.328C220.669 2.976 220.757 2.66 220.933 2.38C221.117 2.092 221.377 1.868 221.713 1.708C222.049 1.548 222.437 1.468 222.877 1.468C223.309 1.468 223.685 1.552 224.005 1.72C224.325 1.888 224.565 2.124 224.725 2.428C224.885 2.724 224.957 3.056 224.941 3.424H223.849C223.857 3.096 223.765 2.84 223.573 2.656C223.381 2.464 223.133 2.368 222.829 2.368C222.509 2.368 222.249 2.46 222.049 2.644C221.857 2.82 221.761 3.048 221.761 3.328C221.761 3.568 221.825 3.8 221.953 4.024C222.089 4.248 222.313 4.524 222.625 4.852L225.121 7.36L225.337 7.024L226.153 5.656H227.329L226.345 7.36C226.209 7.6 226.049 7.852 225.865 8.116L227.749 10H226.321ZM222.349 9.208C222.781 9.208 223.169 9.124 223.513 8.956C223.865 8.788 224.197 8.528 224.509 8.176L222.049 5.704C221.025 6.096 220.513 6.716 220.513 7.564C220.513 8.036 220.681 8.428 221.017 8.74C221.361 9.052 221.805 9.208 222.349 9.208ZM234.839 10.108C234.223 10.108 233.663 9.968 233.159 9.688C232.663 9.408 232.271 9.012 231.983 8.5C231.703 7.98 231.563 7.38 231.563 6.7C231.563 6.028 231.707 5.436 231.995 4.924C232.291 4.404 232.691 4.008 233.195 3.736C233.699 3.456 234.263 3.316 234.887 3.316C235.511 3.316 236.075 3.456 236.579 3.736C237.083 4.008 237.479 4.4 237.767 4.912C238.063 5.424 238.211 6.02 238.211 6.7C238.211 7.38 238.059 7.98 237.755 8.5C237.459 9.012 237.055 9.408 236.543 9.688C236.031 9.968 235.463 10.108 234.839 10.108ZM234.839 9.148C235.231 9.148 235.599 9.056 235.943 8.872C236.287 8.688 236.563 8.412 236.771 8.044C236.987 7.676 237.095 7.228 237.095 6.7C237.095 6.172 236.991 5.724 236.783 5.356C236.575 4.988 236.303 4.716 235.967 4.54C235.631 4.356 235.267 4.264 234.875 4.264C234.475 4.264 234.107 4.356 233.771 4.54C233.443 4.716 233.179 4.988 232.979 5.356C232.779 5.724 232.679 6.172 232.679 6.7C232.679 7.236 232.775 7.688 232.967 8.056C233.167 8.424 233.431 8.7 233.759 8.884C234.087 9.06 234.447 9.148 234.839 9.148ZM242.323 4.324H240.943V10H239.851V4.324H238.999V3.424H239.851V2.956C239.851 2.22 240.039 1.684 240.415 1.348C240.799 1.004 241.411 0.831999 242.251 0.831999V1.744C241.771 1.744 241.431 1.84 241.231 2.032C241.039 2.216 240.943 2.524 240.943 2.956V3.424H242.323V4.324ZM246.272 4.324H244.892V10H243.8V4.324H242.948V3.424H243.8V2.956C243.8 2.22 243.988 1.684 244.364 1.348C244.748 1.004 245.36 0.831999 246.2 0.831999V1.744C245.72 1.744 245.38 1.84 245.18 2.032C244.988 2.216 244.892 2.524 244.892 2.956V3.424H246.272V4.324ZM253.545 6.46C253.545 6.668 253.533 6.888 253.509 7.12H248.253C248.293 7.768 248.513 8.276 248.913 8.644C249.321 9.004 249.813 9.184 250.389 9.184C250.861 9.184 251.253 9.076 251.565 8.86C251.885 8.636 252.109 8.34 252.237 7.972H253.413C253.237 8.604 252.885 9.12 252.357 9.52C251.829 9.912 251.173 10.108 250.389 10.108C249.765 10.108 249.205 9.968 248.709 9.688C248.221 9.408 247.837 9.012 247.557 8.5C247.277 7.98 247.137 7.38 247.137 6.7C247.137 6.02 247.273 5.424 247.545 4.912C247.817 4.4 248.197 4.008 248.685 3.736C249.181 3.456 249.749 3.316 250.389 3.316C251.013 3.316 251.565 3.452 252.045 3.724C252.525 3.996 252.893 4.372 253.149 4.852C253.413 5.324 253.545 5.86 253.545 6.46ZM252.417 6.232C252.417 5.816 252.325 5.46 252.141 5.164C251.957 4.86 251.705 4.632 251.385 4.48C251.073 4.32 250.725 4.24 250.341 4.24C249.789 4.24 249.317 4.416 248.925 4.768C248.541 5.12 248.321 5.608 248.265 6.232H252.417ZM256.079 4.492C256.271 4.116 256.543 3.824 256.895 3.616C257.255 3.408 257.691 3.304 258.203 3.304V4.432H257.915C256.691 4.432 256.079 5.096 256.079 6.424V10H254.987V3.424H256.079V4.492ZM261.791 10.108C261.287 10.108 260.835 10.024 260.435 9.856C260.035 9.68 259.719 9.44 259.487 9.136C259.255 8.824 259.127 8.468 259.103 8.068H260.231C260.263 8.396 260.415 8.664 260.687 8.872C260.967 9.08 261.331 9.184 261.779 9.184C262.195 9.184 262.523 9.092 262.763 8.908C263.003 8.724 263.123 8.492 263.123 8.212C263.123 7.924 262.995 7.712 262.739 7.576C262.483 7.432 262.087 7.292 261.551 7.156C261.063 7.028 260.663 6.9 260.351 6.772C260.047 6.636 259.783 6.44 259.559 6.184C259.343 5.92 259.235 5.576 259.235 5.152C259.235 4.816 259.335 4.508 259.535 4.228C259.735 3.948 260.019 3.728 260.387 3.568C260.755 3.4 261.175 3.316 261.647 3.316C262.375 3.316 262.963 3.5 263.411 3.868C263.859 4.236 264.099 4.74 264.131 5.38H263.039C263.015 5.036 262.875 4.76 262.619 4.552C262.371 4.344 262.035 4.24 261.611 4.24C261.219 4.24 260.907 4.324 260.675 4.492C260.443 4.66 260.327 4.88 260.327 5.152C260.327 5.368 260.395 5.548 260.531 5.692C260.675 5.828 260.851 5.94 261.059 6.028C261.275 6.108 261.571 6.2 261.947 6.304C262.419 6.432 262.803 6.56 263.099 6.688C263.395 6.808 263.647 6.992 263.855 7.24C264.071 7.488 264.183 7.812 264.191 8.212C264.191 8.572 264.091 8.896 263.891 9.184C263.691 9.472 263.407 9.7 263.039 9.868C262.679 10.028 262.263 10.108 261.791 10.108ZM271.608 4.324H270.228V10H269.136V4.324H268.284V3.424H269.136V2.956C269.136 2.22 269.324 1.684 269.7 1.348C270.084 1.004 270.696 0.831999 271.536 0.831999V1.744C271.056 1.744 270.716 1.84 270.516 2.032C270.324 2.216 270.228 2.524 270.228 2.956V3.424H271.608V4.324ZM273.973 4.492C274.165 4.116 274.437 3.824 274.789 3.616C275.149 3.408 275.585 3.304 276.097 3.304V4.432H275.809C274.585 4.432 273.973 5.096 273.973 6.424V10H272.881V3.424H273.973V4.492ZM280.226 10.108C279.61 10.108 279.05 9.968 278.546 9.688C278.05 9.408 277.658 9.012 277.37 8.5C277.09 7.98 276.95 7.38 276.95 6.7C276.95 6.028 277.094 5.436 277.382 4.924C277.678 4.404 278.078 4.008 278.582 3.736C279.086 3.456 279.65 3.316 280.274 3.316C280.898 3.316 281.462 3.456 281.966 3.736C282.47 4.008 282.866 4.4 283.154 4.912C283.45 5.424 283.598 6.02 283.598 6.7C283.598 7.38 283.446 7.98 283.142 8.5C282.846 9.012 282.442 9.408 281.93 9.688C281.418 9.968 280.85 10.108 280.226 10.108ZM280.226 9.148C280.618 9.148 280.986 9.056 281.33 8.872C281.674 8.688 281.95 8.412 282.158 8.044C282.374 7.676 282.482 7.228 282.482 6.7C282.482 6.172 282.378 5.724 282.17 5.356C281.962 4.988 281.69 4.716 281.354 4.54C281.018 4.356 280.654 4.264 280.262 4.264C279.862 4.264 279.494 4.356 279.158 4.54C278.83 4.716 278.566 4.988 278.366 5.356C278.166 5.724 278.066 6.172 278.066 6.7C278.066 7.236 278.162 7.688 278.354 8.056C278.554 8.424 278.818 8.7 279.146 8.884C279.474 9.06 279.834 9.148 280.226 9.148ZM292.941 3.304C293.453 3.304 293.909 3.412 294.309 3.628C294.709 3.836 295.025 4.152 295.257 4.576C295.489 5 295.605 5.516 295.605 6.124V10H294.525V6.28C294.525 5.624 294.361 5.124 294.033 4.78C293.713 4.428 293.277 4.252 292.725 4.252C292.157 4.252 291.705 4.436 291.369 4.804C291.033 5.164 290.865 5.688 290.865 6.376V10H289.785V6.28C289.785 5.624 289.621 5.124 289.293 4.78C288.973 4.428 288.537 4.252 287.985 4.252C287.417 4.252 286.965 4.436 286.629 4.804C286.293 5.164 286.125 5.688 286.125 6.376V10H285.033V3.424H286.125V4.372C286.341 4.028 286.629 3.764 286.989 3.58C287.357 3.396 287.761 3.304 288.201 3.304C288.753 3.304 289.241 3.428 289.665 3.676C290.089 3.924 290.405 4.288 290.613 4.768C290.797 4.304 291.101 3.944 291.525 3.688C291.949 3.432 292.421 3.304 292.941 3.304ZM301.928 4.324V8.2C301.928 8.52 301.996 8.748 302.132 8.884C302.268 9.012 302.504 9.076 302.84 9.076H303.644V10H302.66C302.052 10 301.596 9.86 301.292 9.58C300.988 9.3 300.836 8.84 300.836 8.2V4.324H299.984V3.424H300.836V1.768H301.928V3.424H303.644V4.324H301.928ZM307.835 10.108C307.219 10.108 306.659 9.968 306.155 9.688C305.659 9.408 305.267 9.012 304.979 8.5C304.699 7.98 304.559 7.38 304.559 6.7C304.559 6.028 304.703 5.436 304.991 4.924C305.287 4.404 305.687 4.008 306.191 3.736C306.695 3.456 307.259 3.316 307.883 3.316C308.507 3.316 309.071 3.456 309.575 3.736C310.079 4.008 310.475 4.4 310.763 4.912C311.059 5.424 311.207 6.02 311.207 6.7C311.207 7.38 311.055 7.98 310.751 8.5C310.455 9.012 310.051 9.408 309.539 9.688C309.027 9.968 308.459 10.108 307.835 10.108ZM307.835 9.148C308.227 9.148 308.595 9.056 308.939 8.872C309.283 8.688 309.559 8.412 309.767 8.044C309.983 7.676 310.091 7.228 310.091 6.7C310.091 6.172 309.987 5.724 309.779 5.356C309.571 4.988 309.299 4.716 308.963 4.54C308.627 4.356 308.263 4.264 307.871 4.264C307.471 4.264 307.103 4.356 306.767 4.54C306.439 4.716 306.175 4.988 305.975 5.356C305.775 5.724 305.675 6.172 305.675 6.7C305.675 7.236 305.771 7.688 305.963 8.056C306.163 8.424 306.427 8.7 306.755 8.884C307.083 9.06 307.443 9.148 307.835 9.148ZM313.735 4.636C313.951 4.26 314.271 3.948 314.695 3.7C315.127 3.444 315.627 3.316 316.195 3.316C316.779 3.316 317.307 3.456 317.779 3.736C318.259 4.016 318.635 4.412 318.907 4.924C319.179 5.428 319.315 6.016 319.315 6.688C319.315 7.352 319.179 7.944 318.907 8.464C318.635 8.984 318.259 9.388 317.779 9.676C317.307 9.964 316.779 10.108 316.195 10.108C315.635 10.108 315.139 9.984 314.707 9.736C314.283 9.48 313.959 9.164 313.735 8.788V13.12H312.643V3.424H313.735V4.636ZM318.199 6.688C318.199 6.192 318.099 5.76 317.899 5.392C317.699 5.024 317.427 4.744 317.083 4.552C316.747 4.36 316.375 4.264 315.967 4.264C315.567 4.264 315.195 4.364 314.851 4.564C314.515 4.756 314.243 5.04 314.035 5.416C313.835 5.784 313.735 6.212 313.735 6.7C313.735 7.196 313.835 7.632 314.035 8.008C314.243 8.376 314.515 8.66 314.851 8.86C315.195 9.052 315.567 9.148 315.967 9.148C316.375 9.148 316.747 9.052 317.083 8.86C317.427 8.66 317.699 8.376 317.899 8.008C318.099 7.632 318.199 7.192 318.199 6.688ZM326.819 10.108C326.203 10.108 325.643 9.968 325.139 9.688C324.643 9.408 324.251 9.012 323.963 8.5C323.683 7.98 323.543 7.38 323.543 6.7C323.543 6.028 323.687 5.436 323.975 4.924C324.271 4.404 324.671 4.008 325.175 3.736C325.679 3.456 326.243 3.316 326.867 3.316C327.491 3.316 328.055 3.456 328.559 3.736C329.063 4.008 329.459 4.4 329.747 4.912C330.043 5.424 330.191 6.02 330.191 6.7C330.191 7.38 330.039 7.98 329.735 8.5C329.439 9.012 329.035 9.408 328.523 9.688C328.011 9.968 327.443 10.108 326.819 10.108ZM326.819 9.148C327.211 9.148 327.579 9.056 327.923 8.872C328.267 8.688 328.543 8.412 328.751 8.044C328.967 7.676 329.075 7.228 329.075 6.7C329.075 6.172 328.971 5.724 328.763 5.356C328.555 4.988 328.283 4.716 327.947 4.54C327.611 4.356 327.247 4.264 326.855 4.264C326.455 4.264 326.087 4.356 325.751 4.54C325.423 4.716 325.159 4.988 324.959 5.356C324.759 5.724 324.659 6.172 324.659 6.7C324.659 7.236 324.755 7.688 324.947 8.056C325.147 8.424 325.411 8.7 325.739 8.884C326.067 9.06 326.427 9.148 326.819 9.148ZM334.831 3.304C335.631 3.304 336.279 3.548 336.775 4.036C337.271 4.516 337.519 5.212 337.519 6.124V10H336.439V6.28C336.439 5.624 336.275 5.124 335.947 4.78C335.619 4.428 335.171 4.252 334.603 4.252C334.027 4.252 333.567 4.432 333.223 4.792C332.887 5.152 332.719 5.676 332.719 6.364V10H331.627V3.424H332.719V4.36C332.935 4.024 333.227 3.764 333.595 3.58C333.971 3.396 334.383 3.304 334.831 3.304ZM340.395 1.12V10H339.303V1.12H340.395ZM342.82 2.356C342.612 2.356 342.436 2.284 342.292 2.14C342.148 1.996 342.076 1.82 342.076 1.612C342.076 1.404 342.148 1.228 342.292 1.084C342.436 0.94 342.612 0.868 342.82 0.868C343.02 0.868 343.188 0.94 343.324 1.084C343.468 1.228 343.54 1.404 343.54 1.612C343.54 1.82 343.468 1.996 343.324 2.14C343.188 2.284 343.02 2.356 342.82 2.356ZM343.348 3.424V10H342.256V3.424H343.348ZM348.413 3.304C349.213 3.304 349.861 3.548 350.357 4.036C350.853 4.516 351.101 5.212 351.101 6.124V10H350.021V6.28C350.021 5.624 349.857 5.124 349.529 4.78C349.201 4.428 348.753 4.252 348.185 4.252C347.609 4.252 347.149 4.432 346.805 4.792C346.469 5.152 346.301 5.676 346.301 6.364V10H345.209V3.424H346.301V4.36C346.517 4.024 346.809 3.764 347.177 3.58C347.553 3.396 347.965 3.304 348.413 3.304ZM358.885 6.46C358.885 6.668 358.873 6.888 358.849 7.12H353.593C353.633 7.768 353.853 8.276 354.253 8.644C354.661 9.004 355.153 9.184 355.729 9.184C356.201 9.184 356.593 9.076 356.905 8.86C357.225 8.636 357.449 8.34 357.577 7.972H358.753C358.577 8.604 358.225 9.12 357.697 9.52C357.169 9.912 356.513 10.108 355.729 10.108C355.105 10.108 354.545 9.968 354.049 9.688C353.561 9.408 353.177 9.012 352.897 8.5C352.617 7.98 352.477 7.38 352.477 6.7C352.477 6.02 352.613 5.424 352.885 4.912C353.157 4.4 353.537 4.008 354.025 3.736C354.521 3.456 355.089 3.316 355.729 3.316C356.353 3.316 356.905 3.452 357.385 3.724C357.865 3.996 358.233 4.372 358.489 4.852C358.753 5.324 358.885 5.86 358.885 6.46ZM357.757 6.232C357.757 5.816 357.665 5.46 357.481 5.164C357.297 4.86 357.045 4.632 356.725 4.48C356.413 4.32 356.065 4.24 355.681 4.24C355.129 4.24 354.657 4.416 354.265 4.768C353.881 5.12 353.661 5.608 353.605 6.232H357.757ZM365.854 10.108C365.35 10.108 364.898 10.024 364.498 9.856C364.098 9.68 363.782 9.44 363.55 9.136C363.318 8.824 363.19 8.468 363.166 8.068H364.294C364.326 8.396 364.478 8.664 364.75 8.872C365.03 9.08 365.394 9.184 365.842 9.184C366.258 9.184 366.586 9.092 366.826 8.908C367.066 8.724 367.186 8.492 367.186 8.212C367.186 7.924 367.058 7.712 366.802 7.576C366.546 7.432 366.15 7.292 365.614 7.156C365.126 7.028 364.726 6.9 364.414 6.772C364.11 6.636 363.846 6.44 363.622 6.184C363.406 5.92 363.298 5.576 363.298 5.152C363.298 4.816 363.398 4.508 363.598 4.228C363.798 3.948 364.082 3.728 364.45 3.568C364.818 3.4 365.238 3.316 365.71 3.316C366.438 3.316 367.026 3.5 367.474 3.868C367.922 4.236 368.162 4.74 368.194 5.38H367.102C367.078 5.036 366.938 4.76 366.682 4.552C366.434 4.344 366.098 4.24 365.674 4.24C365.282 4.24 364.97 4.324 364.738 4.492C364.506 4.66 364.39 4.88 364.39 5.152C364.39 5.368 364.458 5.548 364.594 5.692C364.738 5.828 364.914 5.94 365.122 6.028C365.338 6.108 365.634 6.2 366.01 6.304C366.482 6.432 366.866 6.56 367.162 6.688C367.458 6.808 367.71 6.992 367.918 7.24C368.134 7.488 368.246 7.812 368.254 8.212C368.254 8.572 368.154 8.896 367.954 9.184C367.754 9.472 367.47 9.7 367.102 9.868C366.742 10.028 366.326 10.108 365.854 10.108ZM371.127 4.324V8.2C371.127 8.52 371.195 8.748 371.331 8.884C371.467 9.012 371.703 9.076 372.039 9.076H372.843V10H371.859C371.251 10 370.795 9.86 370.491 9.58C370.187 9.3 370.035 8.84 370.035 8.2V4.324H369.183V3.424H370.035V1.768H371.127V3.424H372.843V4.324H371.127ZM377.034 10.108C376.418 10.108 375.858 9.968 375.354 9.688C374.858 9.408 374.466 9.012 374.178 8.5C373.898 7.98 373.758 7.38 373.758 6.7C373.758 6.028 373.902 5.436 374.19 4.924C374.486 4.404 374.886 4.008 375.39 3.736C375.894 3.456 376.458 3.316 377.082 3.316C377.706 3.316 378.27 3.456 378.774 3.736C379.278 4.008 379.674 4.4 379.962 4.912C380.258 5.424 380.406 6.02 380.406 6.7C380.406 7.38 380.254 7.98 379.95 8.5C379.654 9.012 379.25 9.408 378.738 9.688C378.226 9.968 377.658 10.108 377.034 10.108ZM377.034 9.148C377.426 9.148 377.794 9.056 378.138 8.872C378.482 8.688 378.758 8.412 378.966 8.044C379.182 7.676 379.29 7.228 379.29 6.7C379.29 6.172 379.186 5.724 378.978 5.356C378.77 4.988 378.498 4.716 378.162 4.54C377.826 4.356 377.462 4.264 377.07 4.264C376.67 4.264 376.302 4.356 375.966 4.54C375.638 4.716 375.374 4.988 375.174 5.356C374.974 5.724 374.874 6.172 374.874 6.7C374.874 7.236 374.97 7.688 375.162 8.056C375.362 8.424 375.626 8.7 375.954 8.884C376.282 9.06 376.642 9.148 377.034 9.148ZM382.934 4.492C383.126 4.116 383.398 3.824 383.75 3.616C384.11 3.408 384.546 3.304 385.058 3.304V4.432H384.77C383.546 4.432 382.934 5.096 382.934 6.424V10H381.842V3.424H382.934V4.492ZM392.319 6.46C392.319 6.668 392.307 6.888 392.283 7.12H387.027C387.067 7.768 387.287 8.276 387.687 8.644C388.095 9.004 388.587 9.184 389.163 9.184C389.635 9.184 390.027 9.076 390.339 8.86C390.659 8.636 390.883 8.34 391.011 7.972H392.187C392.011 8.604 391.659 9.12 391.131 9.52C390.603 9.912 389.947 10.108 389.163 10.108C388.539 10.108 387.979 9.968 387.483 9.688C386.995 9.408 386.611 9.012 386.331 8.5C386.051 7.98 385.911 7.38 385.911 6.7C385.911 6.02 386.047 5.424 386.319 4.912C386.591 4.4 386.971 4.008 387.459 3.736C387.955 3.456 388.523 3.316 389.163 3.316C389.787 3.316 390.339 3.452 390.819 3.724C391.299 3.996 391.667 4.372 391.923 4.852C392.187 5.324 392.319 5.86 392.319 6.46ZM391.191 6.232C391.191 5.816 391.099 5.46 390.915 5.164C390.731 4.86 390.479 4.632 390.159 4.48C389.847 4.32 389.499 4.24 389.115 4.24C388.563 4.24 388.091 4.416 387.699 4.768C387.315 5.12 387.095 5.608 387.039 6.232H391.191ZM396.088 10.108C395.584 10.108 395.132 10.024 394.732 9.856C394.332 9.68 394.016 9.44 393.784 9.136C393.552 8.824 393.424 8.468 393.4 8.068H394.528C394.56 8.396 394.712 8.664 394.984 8.872C395.264 9.08 395.628 9.184 396.076 9.184C396.492 9.184 396.82 9.092 397.06 8.908C397.3 8.724 397.42 8.492 397.42 8.212C397.42 7.924 397.292 7.712 397.036 7.576C396.78 7.432 396.384 7.292 395.848 7.156C395.36 7.028 394.96 6.9 394.648 6.772C394.344 6.636 394.08 6.44 393.856 6.184C393.64 5.92 393.532 5.576 393.532 5.152C393.532 4.816 393.632 4.508 393.832 4.228C394.032 3.948 394.316 3.728 394.684 3.568C395.052 3.4 395.472 3.316 395.944 3.316C396.672 3.316 397.26 3.5 397.708 3.868C398.156 4.236 398.396 4.74 398.428 5.38H397.336C397.312 5.036 397.172 4.76 396.916 4.552C396.668 4.344 396.332 4.24 395.908 4.24C395.516 4.24 395.204 4.324 394.972 4.492C394.74 4.66 394.624 4.88 394.624 5.152C394.624 5.368 394.692 5.548 394.828 5.692C394.972 5.828 395.148 5.94 395.356 6.028C395.572 6.108 395.868 6.2 396.244 6.304C396.716 6.432 397.1 6.56 397.396 6.688C397.692 6.808 397.944 6.992 398.152 7.24C398.368 7.488 398.48 7.812 398.488 8.212C398.488 8.572 398.388 8.896 398.188 9.184C397.988 9.472 397.704 9.7 397.336 9.868C396.976 10.028 396.56 10.108 396.088 10.108ZM404.321 1.12V10H403.229V1.12H404.321ZM406.746 2.356C406.538 2.356 406.362 2.284 406.218 2.14C406.074 1.996 406.002 1.82 406.002 1.612C406.002 1.404 406.074 1.228 406.218 1.084C406.362 0.94 406.538 0.868 406.746 0.868C406.946 0.868 407.114 0.94 407.25 1.084C407.394 1.228 407.466 1.404 407.466 1.612C407.466 1.82 407.394 1.996 407.25 2.14C407.114 2.284 406.946 2.356 406.746 2.356ZM407.274 3.424V10H406.182V3.424H407.274ZM412.807 10L410.227 7.096V10H409.135V1.12H410.227V6.34L412.759 3.424H414.283L411.187 6.7L414.295 10H412.807ZM421.311 6.46C421.311 6.668 421.299 6.888 421.275 7.12H416.019C416.059 7.768 416.279 8.276 416.679 8.644C417.087 9.004 417.579 9.184 418.155 9.184C418.627 9.184 419.019 9.076 419.331 8.86C419.651 8.636 419.875 8.34 420.003 7.972H421.179C421.003 8.604 420.651 9.12 420.123 9.52C419.595 9.912 418.939 10.108 418.155 10.108C417.531 10.108 416.971 9.968 416.475 9.688C415.987 9.408 415.603 9.012 415.323 8.5C415.043 7.98 414.903 7.38 414.903 6.7C414.903 6.02 415.039 5.424 415.311 4.912C415.583 4.4 415.963 4.008 416.451 3.736C416.947 3.456 417.515 3.316 418.155 3.316C418.779 3.316 419.331 3.452 419.811 3.724C420.291 3.996 420.659 4.372 420.915 4.852C421.179 5.324 421.311 5.86 421.311 6.46ZM420.183 6.232C420.183 5.816 420.091 5.46 419.907 5.164C419.723 4.86 419.471 4.632 419.151 4.48C418.839 4.32 418.491 4.24 418.107 4.24C417.555 4.24 417.083 4.416 416.691 4.768C416.307 5.12 416.087 5.608 416.031 6.232H420.183ZM222.774 24.688C222.774 24.016 222.91 23.428 223.182 22.924C223.454 22.412 223.826 22.016 224.298 21.736C224.778 21.456 225.31 21.316 225.894 21.316C226.47 21.316 226.97 21.44 227.394 21.688C227.818 21.936 228.134 22.248 228.342 22.624V21.424H229.446V28H228.342V26.776C228.126 27.16 227.802 27.48 227.37 27.736C226.946 27.984 226.45 28.108 225.882 28.108C225.298 28.108 224.77 27.964 224.298 27.676C223.826 27.388 223.454 26.984 223.182 26.464C222.91 25.944 222.774 25.352 222.774 24.688ZM228.342 24.7C228.342 24.204 228.242 23.772 228.042 23.404C227.842 23.036 227.57 22.756 227.226 22.564C226.89 22.364 226.518 22.264 226.11 22.264C225.702 22.264 225.33 22.36 224.994 22.552C224.658 22.744 224.39 23.024 224.19 23.392C223.99 23.76 223.89 24.192 223.89 24.688C223.89 25.192 223.99 25.632 224.19 26.008C224.39 26.376 224.658 26.66 224.994 26.86C225.33 27.052 225.702 27.148 226.11 27.148C226.518 27.148 226.89 27.052 227.226 26.86C227.57 26.66 227.842 26.376 228.042 26.008C228.242 25.632 228.342 25.196 228.342 24.7ZM234.495 21.304C235.295 21.304 235.943 21.548 236.439 22.036C236.935 22.516 237.183 23.212 237.183 24.124V28H236.103V24.28C236.103 23.624 235.939 23.124 235.611 22.78C235.283 22.428 234.835 22.252 234.267 22.252C233.691 22.252 233.231 22.432 232.887 22.792C232.551 23.152 232.383 23.676 232.383 24.364V28H231.291V21.424H232.383V22.36C232.599 22.024 232.891 21.764 233.259 21.58C233.635 21.396 234.047 21.304 234.495 21.304ZM238.559 24.688C238.559 24.016 238.695 23.428 238.967 22.924C239.239 22.412 239.611 22.016 240.083 21.736C240.563 21.456 241.099 21.316 241.691 21.316C242.203 21.316 242.679 21.436 243.119 21.676C243.559 21.908 243.895 22.216 244.127 22.6V19.12H245.231V28H244.127V26.764C243.911 27.156 243.591 27.48 243.167 27.736C242.743 27.984 242.247 28.108 241.679 28.108C241.095 28.108 240.563 27.964 240.083 27.676C239.611 27.388 239.239 26.984 238.967 26.464C238.695 25.944 238.559 25.352 238.559 24.688ZM244.127 24.7C244.127 24.204 244.027 23.772 243.827 23.404C243.627 23.036 243.355 22.756 243.011 22.564C242.675 22.364 242.303 22.264 241.895 22.264C241.487 22.264 241.115 22.36 240.779 22.552C240.443 22.744 240.175 23.024 239.975 23.392C239.775 23.76 239.675 24.192 239.675 24.688C239.675 25.192 239.775 25.632 239.975 26.008C240.175 26.376 240.443 26.66 240.779 26.86C241.115 27.052 241.487 27.148 241.895 27.148C242.303 27.148 242.675 27.052 243.011 26.86C243.355 26.66 243.627 26.376 243.827 26.008C244.027 25.632 244.127 25.196 244.127 24.7ZM258.184 21.304C258.696 21.304 259.152 21.412 259.552 21.628C259.952 21.836 260.268 22.152 260.5 22.576C260.732 23 260.848 23.516 260.848 24.124V28H259.768V24.28C259.768 23.624 259.604 23.124 259.276 22.78C258.956 22.428 258.52 22.252 257.968 22.252C257.4 22.252 256.948 22.436 256.612 22.804C256.276 23.164 256.108 23.688 256.108 24.376V28H255.028V24.28C255.028 23.624 254.864 23.124 254.536 22.78C254.216 22.428 253.78 22.252 253.228 22.252C252.66 22.252 252.208 22.436 251.872 22.804C251.536 23.164 251.368 23.688 251.368 24.376V28H250.276V21.424H251.368V22.372C251.584 22.028 251.872 21.764 252.232 21.58C252.6 21.396 253.004 21.304 253.444 21.304C253.996 21.304 254.484 21.428 254.908 21.676C255.332 21.924 255.648 22.288 255.856 22.768C256.04 22.304 256.344 21.944 256.768 21.688C257.192 21.432 257.664 21.304 258.184 21.304ZM262.231 24.688C262.231 24.016 262.367 23.428 262.639 22.924C262.911 22.412 263.283 22.016 263.755 21.736C264.235 21.456 264.767 21.316 265.351 21.316C265.927 21.316 266.427 21.44 266.851 21.688C267.275 21.936 267.591 22.248 267.799 22.624V21.424H268.903V28H267.799V26.776C267.583 27.16 267.259 27.48 266.827 27.736C266.403 27.984 265.907 28.108 265.339 28.108C264.755 28.108 264.227 27.964 263.755 27.676C263.283 27.388 262.911 26.984 262.639 26.464C262.367 25.944 262.231 25.352 262.231 24.688ZM267.799 24.7C267.799 24.204 267.699 23.772 267.499 23.404C267.299 23.036 267.027 22.756 266.683 22.564C266.347 22.364 265.975 22.264 265.567 22.264C265.159 22.264 264.787 22.36 264.451 22.552C264.115 22.744 263.847 23.024 263.647 23.392C263.447 23.76 263.347 24.192 263.347 24.688C263.347 25.192 263.447 25.632 263.647 26.008C263.847 26.376 264.115 26.66 264.451 26.86C264.787 27.052 265.159 27.148 265.567 27.148C265.975 27.148 266.347 27.052 266.683 26.86C267.027 26.66 267.299 26.376 267.499 26.008C267.699 25.632 267.799 25.196 267.799 24.7ZM273.952 21.304C274.752 21.304 275.4 21.548 275.896 22.036C276.392 22.516 276.64 23.212 276.64 24.124V28H275.56V24.28C275.56 23.624 275.396 23.124 275.068 22.78C274.74 22.428 274.292 22.252 273.724 22.252C273.148 22.252 272.688 22.432 272.344 22.792C272.008 23.152 271.84 23.676 271.84 24.364V28H270.748V21.424H271.84V22.36C272.056 22.024 272.348 21.764 272.716 21.58C273.092 21.396 273.504 21.304 273.952 21.304ZM284.088 21.424L280.128 31.096H279L280.296 27.928L277.644 21.424H278.856L280.92 26.752L282.96 21.424H284.088ZM296.293 21.304C296.805 21.304 297.261 21.412 297.661 21.628C298.061 21.836 298.377 22.152 298.609 22.576C298.841 23 298.957 23.516 298.957 24.124V28H297.877V24.28C297.877 23.624 297.713 23.124 297.385 22.78C297.065 22.428 296.629 22.252 296.077 22.252C295.509 22.252 295.057 22.436 294.721 22.804C294.385 23.164 294.217 23.688 294.217 24.376V28H293.137V24.28C293.137 23.624 292.973 23.124 292.645 22.78C292.325 22.428 291.889 22.252 291.337 22.252C290.769 22.252 290.317 22.436 289.981 22.804C289.645 23.164 289.477 23.688 289.477 24.376V28H288.385V21.424H289.477V22.372C289.693 22.028 289.981 21.764 290.341 21.58C290.709 21.396 291.113 21.304 291.553 21.304C292.105 21.304 292.593 21.428 293.017 21.676C293.441 21.924 293.757 22.288 293.965 22.768C294.149 22.304 294.453 21.944 294.877 21.688C295.301 21.432 295.773 21.304 296.293 21.304ZM303.616 28.108C303 28.108 302.44 27.968 301.936 27.688C301.44 27.408 301.048 27.012 300.76 26.5C300.48 25.98 300.34 25.38 300.34 24.7C300.34 24.028 300.484 23.436 300.772 22.924C301.068 22.404 301.468 22.008 301.972 21.736C302.476 21.456 303.04 21.316 303.664 21.316C304.288 21.316 304.852 21.456 305.356 21.736C305.86 22.008 306.256 22.4 306.544 22.912C306.84 23.424 306.988 24.02 306.988 24.7C306.988 25.38 306.836 25.98 306.532 26.5C306.236 27.012 305.832 27.408 305.32 27.688C304.808 27.968 304.24 28.108 303.616 28.108ZM303.616 27.148C304.008 27.148 304.376 27.056 304.72 26.872C305.064 26.688 305.34 26.412 305.548 26.044C305.764 25.676 305.872 25.228 305.872 24.7C305.872 24.172 305.768 23.724 305.56 23.356C305.352 22.988 305.08 22.716 304.744 22.54C304.408 22.356 304.044 22.264 303.652 22.264C303.252 22.264 302.884 22.356 302.548 22.54C302.22 22.716 301.956 22.988 301.756 23.356C301.556 23.724 301.456 24.172 301.456 24.7C301.456 25.236 301.552 25.688 301.744 26.056C301.944 26.424 302.208 26.7 302.536 26.884C302.864 27.06 303.224 27.148 303.616 27.148ZM309.516 22.492C309.708 22.116 309.98 21.824 310.332 21.616C310.692 21.408 311.128 21.304 311.64 21.304V22.432H311.352C310.128 22.432 309.516 23.096 309.516 24.424V28H308.424V21.424H309.516V22.492ZM318.901 24.46C318.901 24.668 318.889 24.888 318.865 25.12H313.609C313.649 25.768 313.869 26.276 314.269 26.644C314.677 27.004 315.169 27.184 315.745 27.184C316.217 27.184 316.609 27.076 316.921 26.86C317.241 26.636 317.465 26.34 317.593 25.972H318.769C318.593 26.604 318.241 27.12 317.713 27.52C317.185 27.912 316.529 28.108 315.745 28.108C315.121 28.108 314.561 27.968 314.065 27.688C313.577 27.408 313.193 27.012 312.913 26.5C312.633 25.98 312.493 25.38 312.493 24.7C312.493 24.02 312.629 23.424 312.901 22.912C313.173 22.4 313.553 22.008 314.041 21.736C314.537 21.456 315.105 21.316 315.745 21.316C316.369 21.316 316.921 21.452 317.401 21.724C317.881 21.996 318.249 22.372 318.505 22.852C318.769 23.324 318.901 23.86 318.901 24.46ZM317.773 24.232C317.773 23.816 317.681 23.46 317.497 23.164C317.313 22.86 317.061 22.632 316.741 22.48C316.429 22.32 316.081 22.24 315.697 22.24C315.145 22.24 314.673 22.416 314.281 22.768C313.897 23.12 313.677 23.608 313.621 24.232H317.773Z" fill="#140D4F"/>
<path d="M5.136 19.636V25.816C5.136 26.504 4.924 27.056 4.5 27.472C4.076 27.88 3.516 28.084 2.82 28.084C2.116 28.084 1.552 27.876 1.128 27.46C0.704 27.036 0.492 26.46 0.492 25.732H1.584C1.592 26.14 1.696 26.472 1.896 26.728C2.104 26.984 2.412 27.112 2.82 27.112C3.228 27.112 3.532 26.992 3.732 26.752C3.932 26.504 4.032 26.192 4.032 25.816V19.636H5.136ZM6.87928 24.688C6.87928 24.016 7.01528 23.428 7.28728 22.924C7.55928 22.412 7.93128 22.016 8.40328 21.736C8.88328 21.456 9.41528 21.316 9.99928 21.316C10.5753 21.316 11.0753 21.44 11.4993 21.688C11.9233 21.936 12.2393 22.248 12.4473 22.624V21.424H13.5513V28H12.4473V26.776C12.2313 27.16 11.9073 27.48 11.4753 27.736C11.0513 27.984 10.5553 28.108 9.98728 28.108C9.40328 28.108 8.87528 27.964 8.40328 27.676C7.93128 27.388 7.55928 26.984 7.28728 26.464C7.01528 25.944 6.87928 25.352 6.87928 24.688ZM12.4473 24.7C12.4473 24.204 12.3473 23.772 12.1473 23.404C11.9473 23.036 11.6753 22.756 11.3313 22.564C10.9953 22.364 10.6233 22.264 10.2153 22.264C9.80728 22.264 9.43528 22.36 9.09928 22.552C8.76328 22.744 8.49528 23.024 8.29528 23.392C8.09528 23.76 7.99528 24.192 7.99528 24.688C7.99528 25.192 8.09528 25.632 8.29528 26.008C8.49528 26.376 8.76328 26.66 9.09928 26.86C9.43528 27.052 9.80728 27.148 10.2153 27.148C10.6233 27.148 10.9953 27.052 11.3313 26.86C11.6753 26.66 11.9473 26.376 12.1473 26.008C12.3473 25.632 12.4473 25.196 12.4473 24.7ZM16.4887 22.648C16.7127 22.256 17.0407 21.936 17.4727 21.688C17.9047 21.44 18.3967 21.316 18.9487 21.316C19.5407 21.316 20.0727 21.456 20.5447 21.736C21.0167 22.016 21.3887 22.412 21.6607 22.924C21.9327 23.428 22.0687 24.016 22.0687 24.688C22.0687 25.352 21.9327 25.944 21.6607 26.464C21.3887 26.984 21.0127 27.388 20.5327 27.676C20.0607 27.964 19.5327 28.108 18.9487 28.108C18.3807 28.108 17.8807 27.984 17.4487 27.736C17.0247 27.488 16.7047 27.172 16.4887 26.788V28H15.3967V19.12H16.4887V22.648ZM20.9527 24.688C20.9527 24.192 20.8527 23.76 20.6527 23.392C20.4527 23.024 20.1807 22.744 19.8367 22.552C19.5007 22.36 19.1287 22.264 18.7207 22.264C18.3207 22.264 17.9487 22.364 17.6047 22.564C17.2687 22.756 16.9967 23.04 16.7887 23.416C16.5887 23.784 16.4887 24.212 16.4887 24.7C16.4887 25.196 16.5887 25.632 16.7887 26.008C16.9967 26.376 17.2687 26.66 17.6047 26.86C17.9487 27.052 18.3207 27.148 18.7207 27.148C19.1287 27.148 19.5007 27.052 19.8367 26.86C20.1807 26.66 20.4527 26.376 20.6527 26.008C20.8527 25.632 20.9527 25.192 20.9527 24.688ZM26.374 28.108C25.758 28.108 25.198 27.968 24.694 27.688C24.198 27.408 23.806 27.012 23.518 26.5C23.238 25.98 23.098 25.38 23.098 24.7C23.098 24.028 23.242 23.436 23.53 22.924C23.826 22.404 24.226 22.008 24.73 21.736C25.234 21.456 25.798 21.316 26.422 21.316C27.046 21.316 27.61 21.456 28.114 21.736C28.618 22.008 29.014 22.4 29.302 22.912C29.598 23.424 29.746 24.02 29.746 24.7C29.746 25.38 29.594 25.98 29.29 26.5C28.994 27.012 28.59 27.408 28.078 27.688C27.566 27.968 26.998 28.108 26.374 28.108ZM26.374 27.148C26.766 27.148 27.134 27.056 27.478 26.872C27.822 26.688 28.098 26.412 28.306 26.044C28.522 25.676 28.63 25.228 28.63 24.7C28.63 24.172 28.526 23.724 28.318 23.356C28.11 22.988 27.838 22.716 27.502 22.54C27.166 22.356 26.802 22.264 26.41 22.264C26.01 22.264 25.642 22.356 25.306 22.54C24.978 22.716 24.714 22.988 24.514 23.356C24.314 23.724 24.214 24.172 24.214 24.7C24.214 25.236 24.31 25.688 24.502 26.056C24.702 26.424 24.966 26.7 25.294 26.884C25.622 27.06 25.982 27.148 26.374 27.148ZM34.3858 21.304C35.1858 21.304 35.8338 21.548 36.3298 22.036C36.8258 22.516 37.0738 23.212 37.0738 24.124V28H35.9938V24.28C35.9938 23.624 35.8298 23.124 35.5018 22.78C35.1738 22.428 34.7258 22.252 34.1578 22.252C33.5818 22.252 33.1218 22.432 32.7778 22.792C32.4418 23.152 32.2738 23.676 32.2738 24.364V28H31.1818V21.424H32.2738V22.36C32.4898 22.024 32.7818 21.764 33.1498 21.58C33.5258 21.396 33.9378 21.304 34.3858 21.304ZM41.5696 21.316C42.1376 21.316 42.6336 21.44 43.0576 21.688C43.4896 21.936 43.8096 22.248 44.0176 22.624V21.424H45.1216V28.144C45.1216 28.744 44.9936 29.276 44.7376 29.74C44.4816 30.212 44.1136 30.58 43.6336 30.844C43.1616 31.108 42.6096 31.24 41.9776 31.24C41.1136 31.24 40.3936 31.036 39.8176 30.628C39.2416 30.22 38.9016 29.664 38.7976 28.96H39.8776C39.9976 29.36 40.2456 29.68 40.6216 29.92C40.9976 30.168 41.4496 30.292 41.9776 30.292C42.5776 30.292 43.0656 30.104 43.4416 29.728C43.8256 29.352 44.0176 28.824 44.0176 28.144V26.764C43.8016 27.148 43.4816 27.468 43.0576 27.724C42.6336 27.98 42.1376 28.108 41.5696 28.108C40.9856 28.108 40.4536 27.964 39.9736 27.676C39.5016 27.388 39.1296 26.984 38.8576 26.464C38.5856 25.944 38.4496 25.352 38.4496 24.688C38.4496 24.016 38.5856 23.428 38.8576 22.924C39.1296 22.412 39.5016 22.016 39.9736 21.736C40.4536 21.456 40.9856 21.316 41.5696 21.316ZM44.0176 24.7C44.0176 24.204 43.9176 23.772 43.7176 23.404C43.5176 23.036 43.2456 22.756 42.9016 22.564C42.5656 22.364 42.1936 22.264 41.7856 22.264C41.3776 22.264 41.0056 22.36 40.6696 22.552C40.3336 22.744 40.0656 23.024 39.8656 23.392C39.6656 23.76 39.5656 24.192 39.5656 24.688C39.5656 25.192 39.6656 25.632 39.8656 26.008C40.0656 26.376 40.3336 26.66 40.6696 26.86C41.0056 27.052 41.3776 27.148 41.7856 27.148C42.1936 27.148 42.5656 27.052 42.9016 26.86C43.2456 26.66 43.5176 26.376 43.7176 26.008C43.9176 25.632 44.0176 25.196 44.0176 24.7ZM48.095 26.488L46.751 29.716H46.019L46.895 26.488H48.095ZM61.0291 19.696V28H59.9371V21.808L57.1771 28H56.4091L53.6371 21.796V28H52.5451V19.696H53.7211L56.7931 26.56L59.8651 19.696H61.0291ZM68.545 21.424L64.585 31.096H63.457L64.753 27.928L62.101 21.424H63.313L65.377 26.752L67.417 21.424H68.545ZM72.8468 21.304C73.6468 21.304 74.2948 21.548 74.7908 22.036C75.2868 22.516 75.5348 23.212 75.5348 24.124V28H74.4548V24.28C74.4548 23.624 74.2908 23.124 73.9628 22.78C73.6348 22.428 73.1868 22.252 72.6188 22.252C72.0428 22.252 71.5828 22.432 71.2388 22.792C70.9028 23.152 70.7348 23.676 70.7348 24.364V28H69.6428V21.424H70.7348V22.36C70.9508 22.024 71.2428 21.764 71.6108 21.58C71.9868 21.396 72.3988 21.304 72.8468 21.304ZM78.6505 22.324V26.2C78.6505 26.52 78.7185 26.748 78.8545 26.884C78.9905 27.012 79.2265 27.076 79.5625 27.076H80.3665V28H79.3825C78.7745 28 78.3185 27.86 78.0145 27.58C77.7105 27.3 77.5585 26.84 77.5585 26.2V22.324H76.7065V21.424H77.5585V19.768H78.6505V21.424H80.3665V22.324H78.6505ZM82.7816 22.492C82.9736 22.116 83.2456 21.824 83.5976 21.616C83.9576 21.408 84.3936 21.304 84.9056 21.304V22.432H84.6176C83.3936 22.432 82.7816 23.096 82.7816 24.424V28H81.6896V21.424H82.7816V22.492ZM85.7582 24.688C85.7582 24.016 85.8942 23.428 86.1662 22.924C86.4382 22.412 86.8102 22.016 87.2822 21.736C87.7622 21.456 88.2942 21.316 88.8782 21.316C89.4542 21.316 89.9542 21.44 90.3782 21.688C90.8022 21.936 91.1182 22.248 91.3262 22.624V21.424H92.4302V28H91.3262V26.776C91.1102 27.16 90.7862 27.48 90.3542 27.736C89.9302 27.984 89.4342 28.108 88.8662 28.108C88.2822 28.108 87.7542 27.964 87.2822 27.676C86.8102 27.388 86.4382 26.984 86.1662 26.464C85.8942 25.944 85.7582 25.352 85.7582 24.688ZM91.3262 24.7C91.3262 24.204 91.2262 23.772 91.0262 23.404C90.8262 23.036 90.5542 22.756 90.2102 22.564C89.8742 22.364 89.5022 22.264 89.0942 22.264C88.6862 22.264 88.3142 22.36 87.9782 22.552C87.6422 22.744 87.3742 23.024 87.1742 23.392C86.9742 23.76 86.8742 24.192 86.8742 24.688C86.8742 25.192 86.9742 25.632 87.1742 26.008C87.3742 26.376 87.6422 26.66 87.9782 26.86C88.3142 27.052 88.6862 27.148 89.0942 27.148C89.5022 27.148 89.8742 27.052 90.2102 26.86C90.5542 26.66 90.8262 26.376 91.0262 26.008C91.2262 25.632 91.3262 25.196 91.3262 24.7ZM95.4036 26.488L94.0596 29.716H93.3276L94.2036 26.488H95.4036ZM104.798 26.14H101.15L100.478 28H99.3257L102.35 19.684H103.61L106.622 28H105.47L104.798 26.14ZM104.486 25.252L102.974 21.028L101.462 25.252H104.486ZM108.528 20.356C108.32 20.356 108.144 20.284 108 20.14C107.864 19.996 107.796 19.82 107.796 19.612C107.796 19.404 107.864 19.228 108 19.084C108.144 18.94 108.32 18.868 108.528 18.868C108.736 18.868 108.908 18.94 109.044 19.084C109.188 19.228 109.26 19.404 109.26 19.612C109.26 19.82 109.188 19.996 109.044 20.14C108.908 20.284 108.736 20.356 108.528 20.356ZM109.068 29.428C109.068 30.012 108.92 30.44 108.624 30.712C108.328 30.984 107.896 31.12 107.328 31.12H106.692V30.196H107.148C107.452 30.196 107.664 30.136 107.784 30.016C107.912 29.896 107.976 29.692 107.976 29.404V21.424H109.068V29.428ZM111.48 20.356C111.272 20.356 111.096 20.284 110.952 20.14C110.808 19.996 110.736 19.82 110.736 19.612C110.736 19.404 110.808 19.228 110.952 19.084C111.096 18.94 111.272 18.868 111.48 18.868C111.68 18.868 111.848 18.94 111.984 19.084C112.128 19.228 112.2 19.404 112.2 19.612C112.2 19.82 112.128 19.996 111.984 20.14C111.848 20.284 111.68 20.356 111.48 20.356ZM112.008 21.424V28H110.916V21.424H112.008ZM116.737 28.108C116.121 28.108 115.561 27.968 115.057 27.688C114.561 27.408 114.169 27.012 113.881 26.5C113.601 25.98 113.461 25.38 113.461 24.7C113.461 24.028 113.605 23.436 113.893 22.924C114.189 22.404 114.589 22.008 115.093 21.736C115.597 21.456 116.161 21.316 116.785 21.316C117.409 21.316 117.973 21.456 118.477 21.736C118.981 22.008 119.377 22.4 119.665 22.912C119.961 23.424 120.109 24.02 120.109 24.7C120.109 25.38 119.957 25.98 119.653 26.5C119.357 27.012 118.953 27.408 118.441 27.688C117.929 27.968 117.361 28.108 116.737 28.108ZM116.737 27.148C117.129 27.148 117.497 27.056 117.841 26.872C118.185 26.688 118.461 26.412 118.669 26.044C118.885 25.676 118.993 25.228 118.993 24.7C118.993 24.172 118.889 23.724 118.681 23.356C118.473 22.988 118.201 22.716 117.865 22.54C117.529 22.356 117.165 22.264 116.773 22.264C116.373 22.264 116.005 22.356 115.669 22.54C115.341 22.716 115.077 22.988 114.877 23.356C114.677 23.724 114.577 24.172 114.577 24.7C114.577 25.236 114.673 25.688 114.865 26.056C115.065 26.424 115.329 26.7 115.657 26.884C115.985 27.06 116.345 27.148 116.737 27.148ZM122.673 26.488L121.329 29.716H120.597L121.473 26.488H122.673ZM131.851 19.636V20.524H128.215V23.344H131.167V24.232H128.215V28H127.123V19.636H131.851ZM134.262 19.12V28H133.17V19.12H134.262ZM136.687 20.356C136.479 20.356 136.303 20.284 136.159 20.14C136.015 19.996 135.943 19.82 135.943 19.612C135.943 19.404 136.015 19.228 136.159 19.084C136.303 18.94 136.479 18.868 136.687 18.868C136.887 18.868 137.055 18.94 137.191 19.084C137.335 19.228 137.407 19.404 137.407 19.612C137.407 19.82 137.335 19.996 137.191 20.14C137.055 20.284 136.887 20.356 136.687 20.356ZM137.215 21.424V28H136.123V21.424H137.215ZM140.168 22.636C140.384 22.26 140.704 21.948 141.128 21.7C141.56 21.444 142.06 21.316 142.628 21.316C143.212 21.316 143.74 21.456 144.212 21.736C144.692 22.016 145.068 22.412 145.34 22.924C145.612 23.428 145.748 24.016 145.748 24.688C145.748 25.352 145.612 25.944 145.34 26.464C145.068 26.984 144.692 27.388 144.212 27.676C143.74 27.964 143.212 28.108 142.628 28.108C142.068 28.108 141.572 27.984 141.14 27.736C140.716 27.48 140.392 27.164 140.168 26.788V31.12H139.076V21.424H140.168V22.636ZM144.632 24.688C144.632 24.192 144.532 23.76 144.332 23.392C144.132 23.024 143.86 22.744 143.516 22.552C143.18 22.36 142.808 22.264 142.4 22.264C142 22.264 141.628 22.364 141.284 22.564C140.948 22.756 140.676 23.04 140.468 23.416C140.268 23.784 140.168 24.212 140.168 24.7C140.168 25.196 140.268 25.632 140.468 26.008C140.676 26.376 140.948 26.66 141.284 26.86C141.628 27.052 142 27.148 142.4 27.148C142.808 27.148 143.18 27.052 143.516 26.86C143.86 26.66 144.132 26.376 144.332 26.008C144.532 25.632 144.632 25.192 144.632 24.688ZM150.858 28L148.278 25.096V28H147.186V19.12H148.278V24.34L150.81 21.424H152.334L149.238 24.7L152.346 28H150.858ZM152.954 24.688C152.954 24.016 153.09 23.428 153.362 22.924C153.634 22.412 154.006 22.016 154.478 21.736C154.958 21.456 155.49 21.316 156.074 21.316C156.65 21.316 157.15 21.44 157.574 21.688C157.998 21.936 158.314 22.248 158.522 22.624V21.424H159.626V28H158.522V26.776C158.306 27.16 157.982 27.48 157.55 27.736C157.126 27.984 156.63 28.108 156.062 28.108C155.478 28.108 154.95 27.964 154.478 27.676C154.006 27.388 153.634 26.984 153.362 26.464C153.09 25.944 152.954 25.352 152.954 24.688ZM158.522 24.7C158.522 24.204 158.422 23.772 158.222 23.404C158.022 23.036 157.75 22.756 157.406 22.564C157.07 22.364 156.698 22.264 156.29 22.264C155.882 22.264 155.51 22.36 155.174 22.552C154.838 22.744 154.57 23.024 154.37 23.392C154.17 23.76 154.07 24.192 154.07 24.688C154.07 25.192 154.17 25.632 154.37 26.008C154.57 26.376 154.838 26.66 155.174 26.86C155.51 27.052 155.882 27.148 156.29 27.148C156.698 27.148 157.07 27.052 157.406 26.86C157.75 26.66 158.022 26.376 158.222 26.008C158.422 25.632 158.522 25.196 158.522 24.7ZM162.563 22.492C162.755 22.116 163.027 21.824 163.379 21.616C163.739 21.408 164.175 21.304 164.687 21.304V22.432H164.399C163.175 22.432 162.563 23.096 162.563 24.424V28H161.471V21.424H162.563V22.492ZM167.279 22.324V26.2C167.279 26.52 167.347 26.748 167.483 26.884C167.619 27.012 167.855 27.076 168.191 27.076H168.995V28H168.011C167.403 28 166.947 27.86 166.643 27.58C166.339 27.3 166.187 26.84 166.187 26.2V22.324H165.335V21.424H166.187V19.768H167.279V21.424H168.995V22.324H167.279ZM171.447 26.488L170.103 29.716H169.371L170.247 26.488H171.447ZM176.821 27.052H180.901V28H175.525V27.136L179.581 20.584H175.573V19.636H180.877V20.5L176.821 27.052ZM182.953 20.356C182.745 20.356 182.569 20.284 182.425 20.14C182.281 19.996 182.209 19.82 182.209 19.612C182.209 19.404 182.281 19.228 182.425 19.084C182.569 18.94 182.745 18.868 182.953 18.868C183.153 18.868 183.321 18.94 183.457 19.084C183.601 19.228 183.673 19.404 183.673 19.612C183.673 19.82 183.601 19.996 183.457 20.14C183.321 20.284 183.153 20.356 182.953 20.356ZM183.481 21.424V28H182.389V21.424H183.481ZM187.79 26.992L189.83 21.424H190.994L188.414 28H187.142L184.562 21.424H185.738L187.79 26.992ZM191.661 24.688C191.661 24.016 191.797 23.428 192.069 22.924C192.341 22.412 192.713 22.016 193.185 21.736C193.665 21.456 194.197 21.316 194.781 21.316C195.357 21.316 195.857 21.44 196.281 21.688C196.705 21.936 197.021 22.248 197.229 22.624V21.424H198.333V28H197.229V26.776C197.013 27.16 196.689 27.48 196.257 27.736C195.833 27.984 195.337 28.108 194.769 28.108C194.185 28.108 193.657 27.964 193.185 27.676C192.713 27.388 192.341 26.984 192.069 26.464C191.797 25.944 191.661 25.352 191.661 24.688ZM197.229 24.7C197.229 24.204 197.129 23.772 196.929 23.404C196.729 23.036 196.457 22.756 196.113 22.564C195.777 22.364 195.405 22.264 194.997 22.264C194.589 22.264 194.217 22.36 193.881 22.552C193.545 22.744 193.277 23.024 193.077 23.392C192.877 23.76 192.777 24.192 192.777 24.688C192.777 25.192 192.877 25.632 193.077 26.008C193.277 26.376 193.545 26.66 193.881 26.86C194.217 27.052 194.589 27.148 194.997 27.148C195.405 27.148 195.777 27.052 196.113 26.86C196.457 26.66 196.729 26.376 196.929 26.008C197.129 25.632 197.229 25.196 197.229 24.7ZM208.086 21.304C208.598 21.304 209.054 21.412 209.454 21.628C209.854 21.836 210.17 22.152 210.402 22.576C210.634 23 210.75 23.516 210.75 24.124V28H209.67V24.28C209.67 23.624 209.506 23.124 209.178 22.78C208.858 22.428 208.422 22.252 207.87 22.252C207.302 22.252 206.85 22.436 206.514 22.804C206.178 23.164 206.01 23.688 206.01 24.376V28H204.93V24.28C204.93 23.624 204.766 23.124 204.438 22.78C204.118 22.428 203.682 22.252 203.13 22.252C202.562 22.252 202.11 22.436 201.774 22.804C201.438 23.164 201.27 23.688 201.27 24.376V28H200.178V21.424H201.27V22.372C201.486 22.028 201.774 21.764 202.134 21.58C202.502 21.396 202.906 21.304 203.346 21.304C203.898 21.304 204.386 21.428 204.81 21.676C205.234 21.924 205.55 22.288 205.758 22.768C205.942 22.304 206.246 21.944 206.67 21.688C207.094 21.432 207.566 21.304 208.086 21.304ZM218.541 24.46C218.541 24.668 218.529 24.888 218.505 25.12H213.249C213.289 25.768 213.509 26.276 213.909 26.644C214.317 27.004 214.809 27.184 215.385 27.184C215.857 27.184 216.249 27.076 216.561 26.86C216.881 26.636 217.105 26.34 217.233 25.972H218.409C218.233 26.604 217.881 27.12 217.353 27.52C216.825 27.912 216.169 28.108 215.385 28.108C214.761 28.108 214.201 27.968 213.705 27.688C213.217 27.408 212.833 27.012 212.553 26.5C212.273 25.98 212.133 25.38 212.133 24.7C212.133 24.02 212.269 23.424 212.541 22.912C212.813 22.4 213.193 22.008 213.681 21.736C214.177 21.456 214.745 21.316 215.385 21.316C216.009 21.316 216.561 21.452 217.041 21.724C217.521 21.996 217.889 22.372 218.145 22.852C218.409 23.324 218.541 23.86 218.541 24.46ZM217.413 24.232C217.413 23.816 217.321 23.46 217.137 23.164C216.953 22.86 216.701 22.632 216.381 22.48C216.069 22.32 215.721 22.24 215.337 22.24C214.785 22.24 214.313 22.416 213.921 22.768C213.537 23.12 213.317 23.608 213.261 24.232H217.413Z" fill="#DE3F39"/>
</svg>
