<svg width="64" height="15" viewBox="0 0 64 15" fill="none" xmlns="http://www.w3.org/2000/svg">
<path d="M3.576 12.084C3.024 12.084 2.528 11.988 2.088 11.796C1.656 11.596 1.316 11.324 1.068 10.98C0.82 10.628 0.692 10.224 0.684 9.768H1.848C1.888 10.16 2.048 10.492 2.328 10.764C2.616 11.028 3.032 11.16 3.576 11.16C4.096 11.16 4.504 11.032 4.8 10.776C5.104 10.512 5.256 10.176 5.256 9.768C5.256 9.448 5.168 9.188 4.992 8.988C4.816 8.788 4.596 8.636 4.332 8.532C4.068 8.428 3.712 8.316 3.264 8.196C2.712 8.052 2.268 7.908 1.932 7.764C1.604 7.62 1.32 7.396 1.08 7.092C0.848 6.78 0.732 6.364 0.732 5.844C0.732 5.388 0.848 4.984 1.08 4.632C1.312 4.28 1.636 4.008 2.052 3.816C2.476 3.624 2.96 3.528 3.504 3.528C4.288 3.528 4.928 3.724 5.424 4.116C5.928 4.508 6.212 5.028 6.276 5.676H5.076C5.036 5.356 4.868 5.076 4.572 4.836C4.276 4.588 3.884 4.464 3.396 4.464C2.94 4.464 2.568 4.584 2.28 4.824C1.992 5.056 1.848 5.384 1.848 5.808C1.848 6.112 1.932 6.36 2.1 6.552C2.276 6.744 2.488 6.892 2.736 6.996C2.992 7.092 3.348 7.204 3.804 7.332C4.356 7.484 4.8 7.636 5.136 7.788C5.472 7.932 5.76 8.16 6 8.472C6.24 8.776 6.36 9.192 6.36 9.72C6.36 10.128 6.252 10.512 6.036 10.872C5.82 11.232 5.5 11.524 5.076 11.748C4.652 11.972 4.152 12.084 3.576 12.084ZM11.231 5.304C11.727 5.304 12.175 5.412 12.575 5.628C12.975 5.836 13.287 6.152 13.511 6.576C13.743 7 13.859 7.516 13.859 8.124V12H12.779V8.28C12.779 7.624 12.615 7.124 12.287 6.78C11.959 6.428 11.511 6.252 10.943 6.252C10.367 6.252 9.90697 6.432 9.56297 6.792C9.22697 7.152 9.05897 7.676 9.05897 8.364V12H7.96697V3.12H9.05897V6.36C9.27497 6.024 9.57097 5.764 9.94697 5.58C10.331 5.396 10.759 5.304 11.231 5.304ZM18.5108 12.108C17.8948 12.108 17.3348 11.968 16.8308 11.688C16.3348 11.408 15.9428 11.012 15.6548 10.5C15.3748 9.98 15.2348 9.38 15.2348 8.7C15.2348 8.028 15.3788 7.436 15.6668 6.924C15.9628 6.404 16.3628 6.008 16.8668 5.736C17.3708 5.456 17.9348 5.316 18.5588 5.316C19.1828 5.316 19.7468 5.456 20.2508 5.736C20.7548 6.008 21.1508 6.4 21.4388 6.912C21.7348 7.424 21.8828 8.02 21.8828 8.7C21.8828 9.38 21.7308 9.98 21.4268 10.5C21.1308 11.012 20.7268 11.408 20.2148 11.688C19.7028 11.968 19.1348 12.108 18.5108 12.108ZM18.5108 11.148C18.9028 11.148 19.2708 11.056 19.6148 10.872C19.9588 10.688 20.2348 10.412 20.4428 10.044C20.6588 9.676 20.7668 9.228 20.7668 8.7C20.7668 8.172 20.6628 7.724 20.4548 7.356C20.2468 6.988 19.9748 6.716 19.6388 6.54C19.3028 6.356 18.9388 6.264 18.5468 6.264C18.1468 6.264 17.7788 6.356 17.4428 6.54C17.1148 6.716 16.8508 6.988 16.6508 7.356C16.4508 7.724 16.3508 8.172 16.3508 8.7C16.3508 9.236 16.4468 9.688 16.6388 10.056C16.8388 10.424 17.1028 10.7 17.4308 10.884C17.7588 11.06 18.1188 11.148 18.5108 11.148ZM29.3185 8.46C29.3185 8.668 29.3065 8.888 29.2825 9.12H24.0265C24.0665 9.768 24.2865 10.276 24.6865 10.644C25.0945 11.004 25.5865 11.184 26.1625 11.184C26.6345 11.184 27.0265 11.076 27.3385 10.86C27.6585 10.636 27.8825 10.34 28.0105 9.972H29.1865C29.0105 10.604 28.6585 11.12 28.1305 11.52C27.6025 11.912 26.9465 12.108 26.1625 12.108C25.5385 12.108 24.9785 11.968 24.4825 11.688C23.9945 11.408 23.6105 11.012 23.3305 10.5C23.0505 9.98 22.9105 9.38 22.9105 8.7C22.9105 8.02 23.0465 7.424 23.3185 6.912C23.5905 6.4 23.9705 6.008 24.4585 5.736C24.9545 5.456 25.5225 5.316 26.1625 5.316C26.7865 5.316 27.3385 5.452 27.8185 5.724C28.2985 5.996 28.6665 6.372 28.9225 6.852C29.1865 7.324 29.3185 7.86 29.3185 8.46ZM28.1905 8.232C28.1905 7.816 28.0985 7.46 27.9145 7.164C27.7305 6.86 27.4785 6.632 27.1585 6.48C26.8465 6.32 26.4985 6.24 26.1145 6.24C25.5625 6.24 25.0905 6.416 24.6985 6.768C24.3145 7.12 24.0945 7.608 24.0385 8.232H28.1905ZM33.0879 12.108C32.5839 12.108 32.1319 12.024 31.7319 11.856C31.3319 11.68 31.0159 11.44 30.7839 11.136C30.5519 10.824 30.4239 10.468 30.3999 10.068H31.5279C31.5599 10.396 31.7119 10.664 31.9839 10.872C32.2639 11.08 32.6279 11.184 33.0759 11.184C33.4919 11.184 33.8199 11.092 34.0599 10.908C34.2999 10.724 34.4199 10.492 34.4199 10.212C34.4199 9.924 34.2919 9.712 34.0359 9.576C33.7799 9.432 33.3839 9.292 32.8479 9.156C32.3599 9.028 31.9599 8.9 31.6479 8.772C31.3439 8.636 31.0799 8.44 30.8559 8.184C30.6399 7.92 30.5319 7.576 30.5319 7.152C30.5319 6.816 30.6319 6.508 30.8319 6.228C31.0319 5.948 31.3159 5.728 31.6839 5.568C32.0519 5.4 32.4719 5.316 32.9439 5.316C33.6719 5.316 34.2599 5.5 34.7079 5.868C35.1559 6.236 35.3959 6.74 35.4279 7.38H34.3359C34.3119 7.036 34.1719 6.76 33.9159 6.552C33.6679 6.344 33.3319 6.24 32.9079 6.24C32.5159 6.24 32.2039 6.324 31.9719 6.492C31.7399 6.66 31.6239 6.88 31.6239 7.152C31.6239 7.368 31.6919 7.548 31.8279 7.692C31.9719 7.828 32.1479 7.94 32.3559 8.028C32.5719 8.108 32.8679 8.2 33.2439 8.304C33.7159 8.432 34.0999 8.56 34.3959 8.688C34.6919 8.808 34.9439 8.992 35.1519 9.24C35.3679 9.488 35.4799 9.812 35.4879 10.212C35.4879 10.572 35.3879 10.896 35.1879 11.184C34.9879 11.472 34.7039 11.7 34.3359 11.868C33.9759 12.028 33.5599 12.108 33.0879 12.108ZM43.0367 14.232C42.2687 13.48 41.6687 12.524 41.2367 11.364C40.8127 10.204 40.6007 8.952 40.6007 7.608C40.6007 6.232 40.8247 4.948 41.2727 3.756C41.7287 2.556 42.3767 1.568 43.2167 0.792H44.3567V0.899999C43.4607 1.74 42.7847 2.752 42.3287 3.936C41.8807 5.112 41.6567 6.336 41.6567 7.608C41.6567 8.848 41.8687 10.032 42.2927 11.16C42.7247 12.288 43.3527 13.276 44.1767 14.124V14.232H43.0367ZM45.2339 10.068V9.24L49.4459 3.408H50.7539V9.12H51.9539V10.068H50.7539V12H49.6739V10.068H45.2339ZM49.7219 4.548L46.4939 9.12H49.7219V4.548ZM53.0448 7.572C53.0448 6.196 53.2688 5.124 53.7168 4.356C54.1648 3.58 54.9488 3.192 56.0688 3.192C57.1808 3.192 57.9608 3.58 58.4088 4.356C58.8568 5.124 59.0808 6.196 59.0808 7.572C59.0808 8.972 58.8568 10.06 58.4088 10.836C57.9608 11.612 57.1808 12 56.0688 12C54.9488 12 54.1648 11.612 53.7168 10.836C53.2688 10.06 53.0448 8.972 53.0448 7.572ZM58.0008 7.572C58.0008 6.876 57.9528 6.288 57.8568 5.808C57.7688 5.32 57.5808 4.928 57.2928 4.632C57.0128 4.336 56.6048 4.188 56.0688 4.188C55.5248 4.188 55.1088 4.336 54.8208 4.632C54.5408 4.928 54.3528 5.32 54.2568 5.808C54.1688 6.288 54.1248 6.876 54.1248 7.572C54.1248 8.292 54.1688 8.896 54.2568 9.384C54.3528 9.872 54.5408 10.264 54.8208 10.56C55.1088 10.856 55.5248 11.004 56.0688 11.004C56.6048 11.004 57.0128 10.856 57.2928 10.56C57.5808 10.264 57.7688 9.872 57.8568 9.384C57.9528 8.896 58.0008 8.292 58.0008 7.572ZM60.4119 14.232V14.124C61.2359 13.276 61.8599 12.288 62.2839 11.16C62.7159 10.032 62.9319 8.848 62.9319 7.608C62.9319 6.336 62.7039 5.112 62.2479 3.936C61.7999 2.752 61.1279 1.74 60.2319 0.899999V0.792H61.3719C62.2119 1.568 62.8559 2.556 63.3039 3.756C63.7599 4.948 63.9879 6.232 63.9879 7.608C63.9879 8.952 63.7719 10.204 63.3399 11.364C62.9159 12.524 62.3199 13.48 61.5519 14.232H60.4119Z" fill="black"/>
</svg>
