<svg width="42" height="13" viewBox="0 0 42 13" fill="none" xmlns="http://www.w3.org/2000/svg">
<path d="M4.864 12.112C4.11733 12.112 3.44533 11.984 2.848 11.728C2.25067 11.4613 1.78133 11.088 1.44 10.608C1.09867 10.128 0.928 9.568 0.928 8.928H2.88C2.92267 9.408 3.10933 9.80267 3.44 10.112C3.78133 10.4213 4.256 10.576 4.864 10.576C5.49333 10.576 5.984 10.4267 6.336 10.128C6.688 9.81867 6.864 9.424 6.864 8.944C6.864 8.57067 6.752 8.26667 6.528 8.032C6.31467 7.79733 6.04267 7.616 5.712 7.488C5.392 7.36 4.944 7.22133 4.368 7.072C3.64267 6.88 3.05067 6.688 2.592 6.496C2.144 6.29333 1.76 5.984 1.44 5.568C1.12 5.152 0.96 4.59733 0.96 3.904C0.96 3.264 1.12 2.704 1.44 2.224C1.76 1.744 2.208 1.376 2.784 1.12C3.36 0.863999 4.02667 0.735999 4.784 0.735999C5.86133 0.735999 6.74133 1.008 7.424 1.552C8.11733 2.08533 8.50133 2.82133 8.576 3.76H6.56C6.528 3.35467 6.336 3.008 5.984 2.72C5.632 2.432 5.168 2.288 4.592 2.288C4.06933 2.288 3.64267 2.42133 3.312 2.688C2.98133 2.95467 2.816 3.33867 2.816 3.84C2.816 4.18133 2.91733 4.464 3.12 4.688C3.33333 4.90133 3.6 5.072 3.92 5.2C4.24 5.328 4.67733 5.46667 5.232 5.616C5.968 5.81867 6.56533 6.02133 7.024 6.224C7.49333 6.42667 7.888 6.74133 8.208 7.168C8.53867 7.584 8.704 8.144 8.704 8.848C8.704 9.41333 8.54933 9.94667 8.24 10.448C7.94133 10.9493 7.49867 11.3547 6.912 11.664C6.336 11.9627 5.65333 12.112 4.864 12.112ZM12.9843 4.672V9.552C12.9843 9.88267 13.0589 10.1227 13.2083 10.272C13.3683 10.4107 13.6349 10.48 14.0083 10.48H15.1283V12H13.6883C12.8669 12 12.2376 11.808 11.8003 11.424C11.3629 11.04 11.1443 10.416 11.1443 9.552V4.672H10.1043V3.184H11.1443V0.992H12.9843V3.184H15.1283V4.672H12.9843ZM20.6334 12.144C19.8014 12.144 19.0494 11.9573 18.3774 11.584C17.7054 11.2 17.1774 10.6667 16.7934 9.984C16.4094 9.29067 16.2174 8.49067 16.2174 7.584C16.2174 6.688 16.4147 5.89333 16.8094 5.2C17.204 4.50667 17.7427 3.97333 18.4254 3.6C19.108 3.22667 19.8707 3.04 20.7134 3.04C21.556 3.04 22.3187 3.22667 23.0014 3.6C23.684 3.97333 24.2227 4.50667 24.6174 5.2C25.012 5.89333 25.2094 6.688 25.2094 7.584C25.2094 8.48 25.0067 9.27467 24.6014 9.968C24.196 10.6613 23.6414 11.2 22.9374 11.584C22.244 11.9573 21.476 12.144 20.6334 12.144ZM20.6334 10.56C21.1027 10.56 21.54 10.448 21.9454 10.224C22.3614 10 22.6974 9.664 22.9534 9.216C23.2094 8.768 23.3374 8.224 23.3374 7.584C23.3374 6.944 23.2147 6.40533 22.9694 5.968C22.724 5.52 22.3987 5.184 21.9934 4.96C21.588 4.736 21.1507 4.624 20.6814 4.624C20.212 4.624 19.7747 4.736 19.3694 4.96C18.9747 5.184 18.66 5.52 18.4254 5.968C18.1907 6.40533 18.0734 6.944 18.0734 7.584C18.0734 8.53333 18.3134 9.26933 18.7934 9.792C19.284 10.304 19.8974 10.56 20.6334 10.56ZM28.8365 4.464C29.1032 4.016 29.4552 3.66933 29.8925 3.424C30.3405 3.168 30.8685 3.04 31.4765 3.04V4.928H31.0125C30.2978 4.928 29.7538 5.10933 29.3805 5.472C29.0178 5.83467 28.8365 6.464 28.8365 7.36V12H27.0125V3.184H28.8365V4.464ZM41.2331 7.376C41.2331 7.70667 41.2118 8.00533 41.1691 8.272H34.4331C34.4865 8.976 34.7478 9.54133 35.2171 9.968C35.6865 10.3947 36.2625 10.608 36.9451 10.608C37.9265 10.608 38.6198 10.1973 39.0251 9.376H40.9931C40.7265 10.1867 40.2411 10.8533 39.5371 11.376C38.8438 11.888 37.9798 12.144 36.9451 12.144C36.1025 12.144 35.3451 11.9573 34.6731 11.584C34.0118 11.2 33.4891 10.6667 33.1051 9.984C32.7318 9.29067 32.5451 8.49067 32.5451 7.584C32.5451 6.67733 32.7265 5.88267 33.0891 5.2C33.4625 4.50667 33.9798 3.97333 34.6411 3.6C35.3131 3.22667 36.0811 3.04 36.9451 3.04C37.7771 3.04 38.5185 3.22133 39.1691 3.584C39.8198 3.94667 40.3265 4.45867 40.6891 5.12C41.0518 5.77067 41.2331 6.52267 41.2331 7.376ZM39.3291 6.8C39.3185 6.128 39.0785 5.58933 38.6091 5.184C38.1398 4.77867 37.5585 4.576 36.8651 4.576C36.2358 4.576 35.6971 4.77867 35.2491 5.184C34.8011 5.57867 34.5345 6.11733 34.4491 6.8H39.3291Z" fill="#140D4F"/>
</svg>
