<svg width="129" height="18" viewBox="0 0 129 18" fill="none" xmlns="http://www.w3.org/2000/svg">
<path d="M4.864 13.112C4.11733 13.112 3.44533 12.984 2.848 12.728C2.25067 12.4613 1.78133 12.088 1.44 11.608C1.09867 11.128 0.928 10.568 0.928 9.928H2.88C2.92267 10.408 3.10933 10.8027 3.44 11.112C3.78133 11.4213 4.256 11.576 4.864 11.576C5.49333 11.576 5.984 11.4267 6.336 11.128C6.688 10.8187 6.864 10.424 6.864 9.944C6.864 9.57067 6.752 9.26667 6.528 9.032C6.31467 8.79733 6.04267 8.616 5.712 8.488C5.392 8.36 4.944 8.22133 4.368 8.072C3.64267 7.88 3.05067 7.688 2.592 7.496C2.144 7.29333 1.76 6.984 1.44 6.568C1.12 6.152 0.96 5.59733 0.96 4.904C0.96 4.264 1.12 3.704 1.44 3.224C1.76 2.744 2.208 2.376 2.784 2.12C3.36 1.864 4.02667 1.736 4.784 1.736C5.86133 1.736 6.74133 2.008 7.424 2.552C8.11733 3.08533 8.50133 3.82133 8.576 4.76H6.56C6.528 4.35467 6.336 4.008 5.984 3.72C5.632 3.432 5.168 3.288 4.592 3.288C4.06933 3.288 3.64267 3.42133 3.312 3.688C2.98133 3.95467 2.816 4.33867 2.816 4.84C2.816 5.18133 2.91733 5.464 3.12 5.688C3.33333 5.90133 3.6 6.072 3.92 6.2C4.24 6.328 4.67733 6.46667 5.232 6.616C5.968 6.81867 6.56533 7.02133 7.024 7.224C7.49333 7.42667 7.888 7.74133 8.208 8.168C8.53867 8.584 8.704 9.144 8.704 9.848C8.704 10.4133 8.54933 10.9467 8.24 11.448C7.94133 11.9493 7.49867 12.3547 6.912 12.664C6.336 12.9627 5.65333 13.112 4.864 13.112ZM18.8403 4.184V13H17.0163V11.96C16.7283 12.3227 16.3496 12.6107 15.8803 12.824C15.4216 13.0267 14.9309 13.128 14.4083 13.128C13.7149 13.128 13.0909 12.984 12.5363 12.696C11.9923 12.408 11.5603 11.9813 11.2403 11.416C10.9309 10.8507 10.7763 10.168 10.7763 9.368V4.184H12.5843V9.096C12.5843 9.88533 12.7816 10.4933 13.1763 10.92C13.5709 11.336 14.1096 11.544 14.7923 11.544C15.4749 11.544 16.0136 11.336 16.4083 10.92C16.8136 10.4933 17.0163 9.88533 17.0163 9.096V4.184H18.8403ZM23.0709 5.496C23.3802 5.06933 23.8015 4.72267 24.3349 4.456C24.8789 4.17867 25.4815 4.04 26.1429 4.04C26.9215 4.04 27.6255 4.22667 28.2549 4.6C28.8842 4.97333 29.3802 5.50667 29.7429 6.2C30.1055 6.88267 30.2869 7.66667 30.2869 8.552C30.2869 9.43733 30.1055 10.232 29.7429 10.936C29.3802 11.6293 28.8789 12.1733 28.2389 12.568C27.6095 12.952 26.9109 13.144 26.1429 13.144C25.4602 13.144 24.8522 13.0107 24.3189 12.744C23.7962 12.4773 23.3802 12.136 23.0709 11.72V13H21.2469V1.16H23.0709V5.496ZM28.4309 8.552C28.4309 7.944 28.3029 7.42133 28.0469 6.984C27.8015 6.536 27.4709 6.2 27.0549 5.976C26.6495 5.74133 26.2122 5.624 25.7429 5.624C25.2842 5.624 24.8469 5.74133 24.4309 5.976C24.0255 6.21067 23.6949 6.552 23.4389 7C23.1935 7.448 23.0709 7.976 23.0709 8.584C23.0709 9.192 23.1935 9.72533 23.4389 10.184C23.6949 10.632 24.0255 10.9733 24.4309 11.208C24.8469 11.4427 25.2842 11.56 25.7429 11.56C26.2122 11.56 26.6495 11.4427 27.0549 11.208C27.4709 10.9627 27.8015 10.6107 28.0469 10.152C28.3029 9.69333 28.4309 9.16 28.4309 8.552ZM38.8586 6.44V7.976H32.2826V6.44H38.8586ZM40.842 7.416C40.842 6.328 41.0927 5.352 41.594 4.488C42.106 3.624 42.794 2.952 43.658 2.472C44.5327 1.98133 45.4873 1.736 46.522 1.736C47.706 1.736 48.7567 2.02933 49.674 2.616C50.602 3.192 51.274 4.01333 51.69 5.08H49.498C49.21 4.49333 48.81 4.056 48.298 3.768C47.786 3.48 47.194 3.336 46.522 3.336C45.786 3.336 45.13 3.50133 44.554 3.832C43.978 4.16267 43.5247 4.63733 43.194 5.256C42.874 5.87467 42.714 6.59467 42.714 7.416C42.714 8.23733 42.874 8.95733 43.194 9.576C43.5247 10.1947 43.978 10.6747 44.554 11.016C45.13 11.3467 45.786 11.512 46.522 11.512C47.194 11.512 47.786 11.368 48.298 11.08C48.81 10.792 49.21 10.3547 49.498 9.768H51.69C51.274 10.8347 50.602 11.656 49.674 12.232C48.7567 12.808 47.706 13.096 46.522 13.096C45.4767 13.096 44.522 12.856 43.658 12.376C42.794 11.8853 42.106 11.208 41.594 10.344C41.0927 9.48 40.842 8.504 40.842 7.416ZM53.217 8.552C53.217 7.66667 53.3983 6.88267 53.761 6.2C54.1343 5.51733 54.6357 4.98933 55.265 4.616C55.905 4.232 56.609 4.04 57.377 4.04C58.0703 4.04 58.673 4.17867 59.185 4.456C59.7077 4.72267 60.1237 5.05867 60.433 5.464V4.184H62.273V13H60.433V11.688C60.1237 12.104 59.7023 12.4507 59.169 12.728C58.6357 13.0053 58.0277 13.144 57.345 13.144C56.5877 13.144 55.8943 12.952 55.265 12.568C54.6357 12.1733 54.1343 11.6293 53.761 10.936C53.3983 10.232 53.217 9.43733 53.217 8.552ZM60.433 8.584C60.433 7.976 60.305 7.448 60.049 7C59.8037 6.552 59.4783 6.21067 59.073 5.976C58.6677 5.74133 58.2303 5.624 57.761 5.624C57.2917 5.624 56.8543 5.74133 56.449 5.976C56.0437 6.2 55.713 6.536 55.457 6.984C55.2117 7.42133 55.089 7.944 55.089 8.552C55.089 9.16 55.2117 9.69333 55.457 10.152C55.713 10.6107 56.0437 10.9627 56.449 11.208C56.865 11.4427 57.3023 11.56 57.761 11.56C58.2303 11.56 58.6677 11.4427 59.073 11.208C59.4783 10.9733 59.8037 10.632 60.049 10.184C60.305 9.72533 60.433 9.192 60.433 8.584ZM66.7968 5.672V10.552C66.7968 10.8827 66.8714 11.1227 67.0208 11.272C67.1808 11.4107 67.4474 11.48 67.8208 11.48H68.9408V13H67.5008C66.6794 13 66.0501 12.808 65.6128 12.424C65.1754 12.04 64.9568 11.416 64.9568 10.552V5.672H63.9168V4.184H64.9568V1.992H66.7968V4.184H68.9408V5.672H66.7968ZM78.7019 8.376C78.7019 8.70667 78.6805 9.00533 78.6379 9.272H71.9019C71.9552 9.976 72.2165 10.5413 72.6859 10.968C73.1552 11.3947 73.7312 11.608 74.4139 11.608C75.3952 11.608 76.0885 11.1973 76.4939 10.376H78.4619C78.1952 11.1867 77.7099 11.8533 77.0059 12.376C76.3125 12.888 75.4485 13.144 74.4139 13.144C73.5712 13.144 72.8139 12.9573 72.1419 12.584C71.4805 12.2 70.9579 11.6667 70.5739 10.984C70.2005 10.2907 70.0139 9.49067 70.0139 8.584C70.0139 7.67733 70.1952 6.88267 70.5579 6.2C70.9312 5.50667 71.4485 4.97333 72.1099 4.6C72.7819 4.22667 73.5499 4.04 74.4139 4.04C75.2459 4.04 75.9872 4.22133 76.6379 4.584C77.2885 4.94667 77.7952 5.45867 78.1579 6.12C78.5205 6.77067 78.7019 7.52267 78.7019 8.376ZM76.7979 7.8C76.7872 7.128 76.5472 6.58933 76.0779 6.184C75.6085 5.77867 75.0272 5.576 74.3339 5.576C73.7045 5.576 73.1659 5.77867 72.7179 6.184C72.2699 6.57867 72.0032 7.11733 71.9179 7.8H76.7979ZM84.0489 4.04C84.7315 4.04 85.3342 4.17867 85.8569 4.456C86.3902 4.72267 86.8062 5.05867 87.1049 5.464V4.184H88.9449V13.144C88.9449 13.9547 88.7742 14.6747 88.4329 15.304C88.0915 15.944 87.5955 16.4453 86.9449 16.808C86.3049 17.1707 85.5369 17.352 84.6409 17.352C83.4462 17.352 82.4542 17.0693 81.6649 16.504C80.8755 15.9493 80.4275 15.192 80.3209 14.232H82.1289C82.2675 14.6907 82.5609 15.0587 83.0089 15.336C83.4675 15.624 84.0115 15.768 84.6409 15.768C85.3769 15.768 85.9689 15.544 86.4169 15.096C86.8755 14.648 87.1049 13.9973 87.1049 13.144V11.672C86.7955 12.088 86.3742 12.44 85.8409 12.728C85.3182 13.0053 84.7209 13.144 84.0489 13.144C83.2809 13.144 82.5769 12.952 81.9369 12.568C81.3075 12.1733 80.8062 11.6293 80.4329 10.936C80.0702 10.232 79.8889 9.43733 79.8889 8.552C79.8889 7.66667 80.0702 6.88267 80.4329 6.2C80.8062 5.51733 81.3075 4.98933 81.9369 4.616C82.5769 4.232 83.2809 4.04 84.0489 4.04ZM87.1049 8.584C87.1049 7.976 86.9769 7.448 86.7209 7C86.4755 6.552 86.1502 6.21067 85.7449 5.976C85.3395 5.74133 84.9022 5.624 84.4329 5.624C83.9635 5.624 83.5262 5.74133 83.1209 5.976C82.7155 6.2 82.3849 6.536 82.1289 6.984C81.8835 7.42133 81.7609 7.944 81.7609 8.552C81.7609 9.16 81.8835 9.69333 82.1289 10.152C82.3849 10.6107 82.7155 10.9627 83.1209 11.208C83.5369 11.4427 83.9742 11.56 84.4329 11.56C84.9022 11.56 85.3395 11.4427 85.7449 11.208C86.1502 10.9733 86.4755 10.632 86.7209 10.184C86.9769 9.72533 87.1049 9.192 87.1049 8.584ZM95.1646 13.144C94.3326 13.144 93.5806 12.9573 92.9086 12.584C92.2366 12.2 91.7086 11.6667 91.3246 10.984C90.9406 10.2907 90.7486 9.49067 90.7486 8.584C90.7486 7.688 90.946 6.89333 91.3406 6.2C91.7353 5.50667 92.274 4.97333 92.9566 4.6C93.6393 4.22667 94.402 4.04 95.2446 4.04C96.0873 4.04 96.85 4.22667 97.5326 4.6C98.2153 4.97333 98.754 5.50667 99.1486 6.2C99.5433 6.89333 99.7406 7.688 99.7406 8.584C99.7406 9.48 99.538 10.2747 99.1326 10.968C98.7273 11.6613 98.1726 12.2 97.4686 12.584C96.7753 12.9573 96.0073 13.144 95.1646 13.144ZM95.1646 11.56C95.634 11.56 96.0713 11.448 96.4766 11.224C96.8926 11 97.2286 10.664 97.4846 10.216C97.7406 9.768 97.8686 9.224 97.8686 8.584C97.8686 7.944 97.746 7.40533 97.5006 6.968C97.2553 6.52 96.93 6.184 96.5246 5.96C96.1193 5.736 95.682 5.624 95.2126 5.624C94.7433 5.624 94.306 5.736 93.9006 5.96C93.506 6.184 93.1913 6.52 92.9566 6.968C92.722 7.40533 92.6046 7.944 92.6046 8.584C92.6046 9.53333 92.8446 10.2693 93.3246 10.792C93.8153 11.304 94.4286 11.56 95.1646 11.56ZM103.368 5.464C103.634 5.016 103.986 4.66933 104.424 4.424C104.872 4.168 105.4 4.04 106.008 4.04V5.928H105.544C104.829 5.928 104.285 6.10933 103.912 6.472C103.549 6.83467 103.368 7.464 103.368 8.36V13H101.544V4.184H103.368V5.464ZM108.612 3.016C108.282 3.016 108.004 2.904 107.78 2.68C107.556 2.456 107.444 2.17867 107.444 1.848C107.444 1.51733 107.556 1.24 107.78 1.016C108.004 0.791999 108.282 0.679999 108.612 0.679999C108.932 0.679999 109.204 0.791999 109.428 1.016C109.652 1.24 109.764 1.51733 109.764 1.848C109.764 2.17867 109.652 2.456 109.428 2.68C109.204 2.904 108.932 3.016 108.612 3.016ZM109.508 4.184V13H107.684V4.184H109.508ZM119.983 8.376C119.983 8.70667 119.962 9.00533 119.919 9.272H113.183C113.236 9.976 113.498 10.5413 113.967 10.968C114.436 11.3947 115.012 11.608 115.695 11.608C116.676 11.608 117.37 11.1973 117.775 10.376H119.743C119.476 11.1867 118.991 11.8533 118.287 12.376C117.594 12.888 116.73 13.144 115.695 13.144C114.852 13.144 114.095 12.9573 113.423 12.584C112.762 12.2 112.239 11.6667 111.855 10.984C111.482 10.2907 111.295 9.49067 111.295 8.584C111.295 7.67733 111.476 6.88267 111.839 6.2C112.212 5.50667 112.73 4.97333 113.391 4.6C114.063 4.22667 114.831 4.04 115.695 4.04C116.527 4.04 117.268 4.22133 117.919 4.584C118.57 4.94667 119.076 5.45867 119.439 6.12C119.802 6.77067 119.983 7.52267 119.983 8.376ZM118.079 7.8C118.068 7.128 117.828 6.58933 117.359 6.184C116.89 5.77867 116.308 5.576 115.615 5.576C114.986 5.576 114.447 5.77867 113.999 6.184C113.551 6.57867 113.284 7.11733 113.199 7.8H118.079ZM124.978 13.144C124.285 13.144 123.661 13.0213 123.106 12.776C122.562 12.52 122.13 12.1787 121.81 11.752C121.49 11.3147 121.319 10.8293 121.298 10.296H123.186C123.218 10.6693 123.394 10.984 123.714 11.24C124.045 11.4853 124.455 11.608 124.946 11.608C125.458 11.608 125.853 11.512 126.13 11.32C126.418 11.1173 126.562 10.8613 126.562 10.552C126.562 10.2213 126.402 9.976 126.082 9.816C125.773 9.656 125.277 9.48 124.594 9.288C123.933 9.10667 123.394 8.93067 122.978 8.76C122.562 8.58933 122.199 8.328 121.89 7.976C121.591 7.624 121.442 7.16 121.442 6.584C121.442 6.11467 121.581 5.688 121.858 5.304C122.135 4.90933 122.53 4.6 123.042 4.376C123.565 4.152 124.162 4.04 124.834 4.04C125.837 4.04 126.642 4.296 127.25 4.808C127.869 5.30933 128.199 5.99733 128.242 6.872H126.418C126.386 6.47733 126.226 6.16267 125.938 5.928C125.65 5.69333 125.261 5.576 124.77 5.576C124.29 5.576 123.922 5.66667 123.666 5.848C123.41 6.02933 123.282 6.26933 123.282 6.568C123.282 6.80267 123.367 7 123.538 7.16C123.709 7.32 123.917 7.448 124.162 7.544C124.407 7.62933 124.77 7.74133 125.25 7.88C125.89 8.05067 126.413 8.22667 126.818 8.408C127.234 8.57867 127.591 8.83467 127.89 9.176C128.189 9.51733 128.343 9.97067 128.354 10.536C128.354 11.0373 128.215 11.4853 127.938 11.88C127.661 12.2747 127.266 12.584 126.754 12.808C126.253 13.032 125.661 13.144 124.978 13.144Z" fill="#140D4F"/>
</svg>
