<svg width="60" height="9" viewBox="0 0 60 9" fill="none" xmlns="http://www.w3.org/2000/svg">
<path d="M5.44 1.02V2.15H3.58V8H2.18V2.15H0.32V1.02H5.44ZM9.70148 8.07C9.04815 8.07 8.44815 7.91667 7.90148 7.61C7.35482 7.30333 6.92148 6.88 6.60148 6.34C6.28148 5.79333 6.12148 5.17667 6.12148 4.49C6.12148 3.81 6.28148 3.2 6.60148 2.66C6.92148 2.11333 7.35482 1.68667 7.90148 1.38C8.44815 1.07333 9.04815 0.92 9.70148 0.92C10.3615 0.92 10.9615 1.07333 11.5015 1.38C12.0482 1.68667 12.4782 2.11333 12.7915 2.66C13.1115 3.2 13.2715 3.81 13.2715 4.49C13.2715 5.17667 13.1115 5.79333 12.7915 6.34C12.4782 6.88 12.0482 7.30333 11.5015 7.61C10.9548 7.91667 10.3548 8.07 9.70148 8.07ZM9.70148 6.82C10.1215 6.82 10.4915 6.72667 10.8115 6.54C11.1315 6.34667 11.3815 6.07333 11.5615 5.72C11.7415 5.36667 11.8315 4.95667 11.8315 4.49C11.8315 4.02333 11.7415 3.61667 11.5615 3.27C11.3815 2.91667 11.1315 2.64667 10.8115 2.46C10.4915 2.27333 10.1215 2.18 9.70148 2.18C9.28148 2.18 8.90815 2.27333 8.58148 2.46C8.26148 2.64667 8.01148 2.91667 7.83148 3.27C7.65148 3.61667 7.56148 4.02333 7.56148 4.49C7.56148 4.95667 7.65148 5.36667 7.83148 5.72C8.01148 6.07333 8.26148 6.34667 8.58148 6.54C8.90815 6.72667 9.28148 6.82 9.70148 6.82ZM19.403 3.18C19.403 3.55333 19.313 3.90333 19.133 4.23C18.9597 4.55667 18.683 4.82 18.303 5.02C17.9297 5.22 17.4564 5.32 16.883 5.32H15.713V8H14.313V1.02H16.883C17.423 1.02 17.883 1.11333 18.263 1.3C18.643 1.48667 18.9264 1.74333 19.113 2.07C19.3064 2.39667 19.403 2.76667 19.403 3.18ZM16.823 4.19C17.2097 4.19 17.4964 4.10333 17.683 3.93C17.8697 3.75 17.963 3.5 17.963 3.18C17.963 2.5 17.583 2.16 16.823 2.16H15.713V4.19H16.823ZM25.1898 8.07C24.7032 8.07 24.2632 7.98667 23.8698 7.82C23.4832 7.65333 23.1765 7.41333 22.9498 7.1C22.7232 6.78667 22.6065 6.41667 22.5998 5.99H24.0998C24.1198 6.27667 24.2198 6.50333 24.3998 6.67C24.5865 6.83667 24.8398 6.92 25.1598 6.92C25.4865 6.92 25.7432 6.84333 25.9298 6.69C26.1165 6.53 26.2098 6.32333 26.2098 6.07C26.2098 5.86333 26.1465 5.69333 26.0198 5.56C25.8932 5.42667 25.7332 5.32333 25.5398 5.25C25.3532 5.17 25.0932 5.08333 24.7598 4.99C24.3065 4.85667 23.9365 4.72667 23.6498 4.6C23.3698 4.46667 23.1265 4.27 22.9198 4.01C22.7198 3.74333 22.6198 3.39 22.6198 2.95C22.6198 2.53667 22.7232 2.17667 22.9298 1.87C23.1365 1.56333 23.4265 1.33 23.7998 1.17C24.1732 1.00333 24.5998 0.92 25.0798 0.92C25.7998 0.92 26.3832 1.09667 26.8298 1.45C27.2832 1.79667 27.5332 2.28333 27.5798 2.91H26.0398C26.0265 2.67 25.9232 2.47333 25.7298 2.32C25.5432 2.16 25.2932 2.08 24.9798 2.08C24.7065 2.08 24.4865 2.15 24.3198 2.29C24.1598 2.43 24.0798 2.63333 24.0798 2.9C24.0798 3.08667 24.1398 3.24333 24.2598 3.37C24.3865 3.49 24.5398 3.59 24.7198 3.67C24.9065 3.74333 25.1665 3.83 25.4998 3.93C25.9532 4.06333 26.3232 4.19667 26.6098 4.33C26.8965 4.46333 27.1432 4.66333 27.3498 4.93C27.5565 5.19667 27.6598 5.54667 27.6598 5.98C27.6598 6.35333 27.5632 6.7 27.3698 7.02C27.1765 7.34 26.8932 7.59667 26.5198 7.79C26.1465 7.97667 25.7032 8.07 25.1898 8.07ZM33.6236 1.02V2.15H31.7636V8H30.3636V2.15H28.5036V1.02H33.6236ZM37.8851 8.07C37.2317 8.07 36.6317 7.91667 36.0851 7.61C35.5384 7.30333 35.1051 6.88 34.7851 6.34C34.4651 5.79333 34.3051 5.17667 34.3051 4.49C34.3051 3.81 34.4651 3.2 34.7851 2.66C35.1051 2.11333 35.5384 1.68667 36.0851 1.38C36.6317 1.07333 37.2317 0.92 37.8851 0.92C38.5451 0.92 39.1451 1.07333 39.6851 1.38C40.2317 1.68667 40.6617 2.11333 40.9751 2.66C41.2951 3.2 41.4551 3.81 41.4551 4.49C41.4551 5.17667 41.2951 5.79333 40.9751 6.34C40.6617 6.88 40.2317 7.30333 39.6851 7.61C39.1384 7.91667 38.5384 8.07 37.8851 8.07ZM37.8851 6.82C38.3051 6.82 38.6751 6.72667 38.9951 6.54C39.3151 6.34667 39.5651 6.07333 39.7451 5.72C39.9251 5.36667 40.0151 4.95667 40.0151 4.49C40.0151 4.02333 39.9251 3.61667 39.7451 3.27C39.5651 2.91667 39.3151 2.64667 38.9951 2.46C38.6751 2.27333 38.3051 2.18 37.8851 2.18C37.4651 2.18 37.0917 2.27333 36.7651 2.46C36.4451 2.64667 36.1951 2.91667 36.0151 3.27C35.8351 3.61667 35.7451 4.02333 35.7451 4.49C35.7451 4.95667 35.8351 5.36667 36.0151 5.72C36.1951 6.07333 36.4451 6.34667 36.7651 6.54C37.0917 6.72667 37.4651 6.82 37.8851 6.82ZM46.0966 8L44.5566 5.28H43.8966V8H42.4966V1.02H45.1166C45.6566 1.02 46.1166 1.11667 46.4966 1.31C46.8766 1.49667 47.16 1.75333 47.3466 2.08C47.54 2.4 47.6366 2.76 47.6366 3.16C47.6366 3.62 47.5033 4.03667 47.2366 4.41C46.97 4.77667 46.5733 5.03 46.0466 5.17L47.7166 8H46.0966ZM43.8966 4.23H45.0666C45.4466 4.23 45.73 4.14 45.9166 3.96C46.1033 3.77333 46.1966 3.51667 46.1966 3.19C46.1966 2.87 46.1033 2.62333 45.9166 2.45C45.73 2.27 45.4466 2.18 45.0666 2.18H43.8966V4.23ZM50.3029 2.15V3.9H52.6529V5.01H50.3029V6.86H52.9529V8H48.9029V1.01H52.9529V2.15H50.3029ZM56.6352 8.07C56.1485 8.07 55.7085 7.98667 55.3152 7.82C54.9285 7.65333 54.6218 7.41333 54.3952 7.1C54.1685 6.78667 54.0518 6.41667 54.0452 5.99H55.5452C55.5652 6.27667 55.6652 6.50333 55.8452 6.67C56.0318 6.83667 56.2852 6.92 56.6052 6.92C56.9318 6.92 57.1885 6.84333 57.3752 6.69C57.5618 6.53 57.6552 6.32333 57.6552 6.07C57.6552 5.86333 57.5918 5.69333 57.4652 5.56C57.3385 5.42667 57.1785 5.32333 56.9852 5.25C56.7985 5.17 56.5385 5.08333 56.2052 4.99C55.7518 4.85667 55.3818 4.72667 55.0952 4.6C54.8152 4.46667 54.5718 4.27 54.3652 4.01C54.1652 3.74333 54.0652 3.39 54.0652 2.95C54.0652 2.53667 54.1685 2.17667 54.3752 1.87C54.5818 1.56333 54.8718 1.33 55.2452 1.17C55.6185 1.00333 56.0452 0.92 56.5252 0.92C57.2452 0.92 57.8285 1.09667 58.2752 1.45C58.7285 1.79667 58.9785 2.28333 59.0252 2.91H57.4852C57.4718 2.67 57.3685 2.47333 57.1752 2.32C56.9885 2.16 56.7385 2.08 56.4252 2.08C56.1518 2.08 55.9318 2.15 55.7652 2.29C55.6052 2.43 55.5252 2.63333 55.5252 2.9C55.5252 3.08667 55.5852 3.24333 55.7052 3.37C55.8318 3.49 55.9852 3.59 56.1652 3.67C56.3518 3.74333 56.6118 3.83 56.9452 3.93C57.3985 4.06333 57.7685 4.19667 58.0552 4.33C58.3418 4.46333 58.5885 4.66333 58.7952 4.93C59.0018 5.19667 59.1052 5.54667 59.1052 5.98C59.1052 6.35333 59.0085 6.7 58.8152 7.02C58.6218 7.34 58.3385 7.59667 57.9652 7.79C57.5918 7.97667 57.1485 8.07 56.6352 8.07Z" fill="#140D4F"/>
</svg>
